<?xml version="1.0" standalone="no"?>
<!DOCTYPE svg PUBLIC "-//W3C//DTD SVG 20010904//EN"
 "http://www.w3.org/TR/2001/REC-SVG-20010904/DTD/svg10.dtd">
<svg version="1.0" xmlns="http://www.w3.org/2000/svg"
 width="512.000000pt" height="512.000000pt" viewBox="0 0 512.000000 512.000000"
 preserveAspectRatio="xMidYMid meet">

<g transform="translate(0.000000,512.000000) scale(0.100000,-0.100000)"
fill="#000000" stroke="none">
<path d="M3270 4860 c-207 -37 -419 -122 -596 -239 -122 -81 -154 -113 -154
-150 0 -41 31 -71 73 -71 24 0 52 15 110 59 163 122 401 221 615 256 126 21
405 16 517 -9 181 -41 359 -117 515 -221 95 -63 300 -267 367 -365 108 -160
192 -360 229 -550 27 -139 25 -409 -4 -542 -63 -288 -168 -482 -398 -735 -137
-150 -242 -297 -303 -426 -22 -45 -121 -280 -221 -522 -100 -242 -200 -474
-223 -515 -50 -90 -213 -258 -299 -308 -173 -102 -313 -137 -517 -130 -117 5
-149 10 -231 36 -299 99 -511 322 -603 637 -20 67 -21 100 -24 721 -4 634 -4
652 -24 673 -27 29 -81 28 -109 -1 -21 -23 -21 -25 -18 -678 l4 -655 26 -97
c103 -377 383 -658 758 -760 75 -20 107 -23 265 -22 151 0 192 4 257 22 291
80 528 266 660 520 25 48 128 285 228 526 100 242 197 469 215 506 56 111 148
239 255 355 114 122 198 229 252 320 215 361 279 776 183 1182 -144 606 -646
1078 -1260 1183 -154 26 -395 26 -545 0z"/>
<path d="M1482 4409 c-24 -12 -54 -36 -67 -53 -53 -70 -55 -82 -55 -413 0
-189 4 -323 11 -347 22 -78 128 -156 214 -156 87 0 189 75 213 156 8 29 12
136 12 352 l0 310 -28 53 c-42 80 -94 113 -185 117 -58 2 -80 -1 -115 -19z
m158 -151 c19 -21 20 -34 20 -320 l0 -299 -25 -24 c-13 -14 -36 -25 -50 -25
-14 0 -37 11 -50 25 l-25 24 0 299 c0 286 1 299 20 320 28 30 82 30 110 0z"/>
<path d="M3359 4420 c-356 -64 -658 -289 -817 -605 -90 -179 -122 -335 -122
-596 0 -139 3 -177 20 -230 28 -88 76 -150 167 -211 111 -76 169 -133 200
-197 24 -49 28 -68 28 -151 0 -82 -4 -103 -26 -151 -46 -98 -147 -178 -245
-194 -21 -3 -54 -8 -72 -11 -17 -3 -41 -15 -52 -26 -19 -21 -20 -36 -20 -343
0 -256 3 -333 15 -380 53 -202 225 -335 434 -335 152 0 285 66 364 182 22 31
89 178 156 339 126 304 148 351 192 415 54 80 127 138 390 315 146 98 298 208
337 245 225 207 361 519 362 824 1 500 -343 950 -831 1086 -81 22 -118 26
-264 29 -93 2 -191 0 -216 -5z m115 -162 c3 -13 9 -55 15 -94 32 -217 168
-467 339 -625 174 -160 408 -269 633 -295 l57 -6 -5 -42 c-16 -138 -78 -306
-157 -425 -85 -128 -178 -211 -428 -379 -125 -83 -229 -152 -232 -152 -2 0 21
61 51 136 67 165 81 243 65 351 -31 196 -173 363 -361 425 -60 19 -95 22 -396
27 -359 7 -359 6 -417 68 -61 64 -73 160 -39 296 94 366 386 647 751 722 99
20 119 19 124 -7z m344 -14 c370 -107 641 -426 696 -818 l5 -38 -57 7 c-31 4
-94 18 -140 31 -370 107 -641 426 -696 818 l-5 38 57 -7 c31 -4 94 -18 140
-31z m-788 -1215 c193 -4 349 -11 367 -17 176 -58 289 -227 269 -401 -5 -40
-80 -232 -269 -690 -236 -571 -266 -639 -307 -684 -62 -69 -124 -97 -220 -97
-96 0 -158 28 -221 98 -61 67 -79 126 -79 256 l0 101 104 -3 c120 -4 195 11
296 60 89 43 213 168 258 261 109 226 71 494 -97 670 -36 39 -133 111 -278
209 -237 158 -262 183 -278 271 l-7 38 63 -33 64 -33 335 -6z m41 -608 c116
-176 83 -424 -77 -571 -73 -67 -162 -103 -266 -108 -48 -3 -103 -1 -123 2
l-35 7 0 88 0 89 69 21 c212 64 351 256 351 485 l0 79 26 -24 c14 -13 38 -44
55 -68z"/>
<path d="M2323 4303 c-88 -95 -215 -329 -272 -498 -69 -207 -73 -248 -78 -705
-5 -412 -4 -415 17 -437 27 -30 82 -31 109 -2 18 20 20 41 24 428 4 368 6 415
25 501 53 236 116 372 282 610 35 50 34 82 -2 113 -31 26 -75 22 -105 -10z"/>
<path d="M766 3580 c-58 -18 -105 -61 -136 -124 -46 -96 -622 -1635 -628
-1678 -8 -62 16 -126 67 -179 91 -93 218 -93 311 1 39 38 53 64 94 178 l49
132 306 0 307 0 38 -107 c54 -150 81 -198 134 -233 150 -99 348 6 346 185 -1
53 -37 155 -311 887 -201 535 -320 840 -338 864 -50 66 -156 98 -239 74z m99
-146 c8 -4 22 -18 30 -33 7 -15 149 -390 314 -834 225 -602 300 -813 295 -832
-7 -30 -40 -55 -71 -55 -42 0 -69 41 -123 190 -33 92 -61 153 -77 168 l-24 22
-379 0 -379 0 -25 -22 c-16 -15 -43 -74 -78 -168 -55 -152 -80 -190 -123 -190
-31 0 -75 41 -75 69 0 11 138 386 306 833 229 609 312 819 330 836 25 22 49
27 79 16z"/>
<path d="M786 2997 c-18 -13 -276 -683 -276 -718 0 -11 11 -31 25 -44 l24 -25
271 0 271 0 24 25 c14 13 25 33 25 43 0 37 -251 697 -272 715 -24 20 -67 22
-92 4z m112 -454 c34 -93 62 -171 62 -175 0 -5 -58 -8 -130 -8 -71 0 -130 3
-130 8 0 14 125 342 131 342 3 0 34 -75 67 -167z"/>
<path d="M1505 3275 c-51 -18 -120 -91 -134 -141 -25 -89 -7 -159 57 -223 95
-94 219 -95 312 -1 93 93 94 219 1 311 -66 67 -148 85 -236 54z m130 -160 c14
-13 25 -36 25 -50 0 -33 -42 -75 -75 -75 -33 0 -75 42 -75 75 0 33 42 75 75
75 14 0 37 -11 50 -25z"/>
</g>
</svg>
