<?xml version="1.0" encoding="UTF-8" standalone="no"?>
<!-- Created with Inkscape (http://www.inkscape.org/) -->

<svg
   xmlns:dc="http://purl.org/dc/elements/1.1/"
   xmlns:cc="http://creativecommons.org/ns#"
   xmlns:rdf="http://www.w3.org/1999/02/22-rdf-syntax-ns#"
   xmlns:svg="http://www.w3.org/2000/svg"
   xmlns="http://www.w3.org/2000/svg"
   xmlns:xlink="http://www.w3.org/1999/xlink"
   xmlns:sodipodi="http://sodipodi.sourceforge.net/DTD/sodipodi-0.dtd"
   xmlns:inkscape="http://www.inkscape.org/namespaces/inkscape"
   width="400"
   height="400"
   id="svg2"
   version="1.1"
   inkscape:version="0.48.4 r9939"
   sodipodi:docname="divide_elementwise.svg"
   inkscape:export-filename="/home/lompolbx/workspace/src/ObjectRecognitionPlugins/icons/simple_summation.png"
   inkscape:export-xdpi="9"
   inkscape:export-ydpi="9">
  <sodipodi:namedview
     id="base"
     pagecolor="#ffffff"
     bordercolor="#666666"
     borderopacity="1.0"
     inkscape:pageopacity="0.0"
     inkscape:pageshadow="2"
     inkscape:zoom="0.7"
     inkscape:cx="258.15853"
     inkscape:cy="196.12724"
     inkscape:document-units="px"
     inkscape:current-layer="layer1"
     showgrid="false"
     inkscape:window-width="961"
     inkscape:window-height="694"
     inkscape:window-x="14"
     inkscape:window-y="41"
     inkscape:window-maximized="0"
     showguides="true"
     inkscape:guide-bbox="true" />
  <defs
     id="defs4">
    <linearGradient
       id="linearGradient3740">
      <stop
         style="stop-color:#1a60ff;stop-opacity:1;"
         offset="0"
         id="stop3742" />
      <stop
         style="stop-color:#003abd;stop-opacity:1;"
         offset="1"
         id="stop3744" />
    </linearGradient>
    <linearGradient
       id="linearGradient3730">
      <stop
         id="stop3732"
         offset="0"
         style="stop-color:#1aff2a;stop-opacity:1;" />
      <stop
         id="stop3734"
         offset="1"
         style="stop-color:#00bd0d;stop-opacity:1;" />
    </linearGradient>
    <linearGradient
       id="linearGradient3718">
      <stop
         style="stop-color:#ff1a1a;stop-opacity:1;"
         offset="0"
         id="stop3720" />
      <stop
         style="stop-color:#bd0000;stop-opacity:1;"
         offset="1"
         id="stop3722" />
    </linearGradient>
    <marker
       style="overflow:visible"
       id="Arrow1Sstart"
       refX="0.0"
       refY="0.0"
       orient="auto"
       inkscape:stockid="Arrow1Sstart">
      <path
         transform="scale(0.2) translate(6,0)"
         style="fill-rule:evenodd;stroke:#000000;stroke-width:1.0pt;marker-start:none"
         d="M 0.0,0.0 L 5.0,-5.0 L -12.5,0.0 L 5.0,5.0 L 0.0,0.0 z "
         id="path3903" />
    </marker>
    <marker
       inkscape:stockid="TriangleOutS"
       orient="auto"
       refY="0.0"
       refX="0.0"
       id="TriangleOutS"
       style="overflow:visible">
      <path
         id="path3799"
         d="M 5.77,0.0 L -2.88,5.0 L -2.88,-5.0 L 5.77,0.0 z "
         style="fill-rule:evenodd;stroke:#000000;stroke-width:1.0pt;marker-start:none"
         transform="scale(0.2)" />
    </marker>
    <marker
       inkscape:stockid="TriangleInS"
       orient="auto"
       refY="0.0"
       refX="0.0"
       id="TriangleInS"
       style="overflow:visible">
      <path
         id="path3790"
         d="M 5.77,0.0 L -2.88,5.0 L -2.88,-5.0 L 5.77,0.0 z "
         style="fill-rule:evenodd;stroke:#000000;stroke-width:1.0pt;marker-start:none"
         transform="scale(-0.2)" />
    </marker>
    <marker
       style="overflow:visible"
       id="Arrow1Lstart"
       refX="0.0"
       refY="0.0"
       orient="auto"
       inkscape:stockid="Arrow1Lstart">
      <path
         transform="scale(0.8) translate(12.5,0)"
         style="fill-rule:evenodd;stroke:#000000;stroke-width:1.0pt;marker-start:none"
         d="M 0.0,0.0 L 5.0,-5.0 L -12.5,0.0 L 5.0,5.0 L 0.0,0.0 z "
         id="path3650" />
    </marker>
    <marker
       style="overflow:visible;"
       id="Arrow1Send"
       refX="0.0"
       refY="0.0"
       orient="auto"
       inkscape:stockid="Arrow1Send">
      <path
         transform="scale(0.2) rotate(180) translate(6,0)"
         style="fill-rule:evenodd;stroke:#000000;stroke-width:1.0pt;marker-start:none;"
         d="M 0.0,0.0 L 5.0,-5.0 L -12.5,0.0 L 5.0,5.0 L 0.0,0.0 z "
         id="path4396" />
    </marker>
    <marker
       style="overflow:visible;"
       id="Arrow2Send"
       refX="0.0"
       refY="0.0"
       orient="auto"
       inkscape:stockid="Arrow2Send">
      <path
         transform="scale(0.3) rotate(180) translate(-2.3,0)"
         d="M 8.7185878,4.0337352 L -2.2072895,0.016013256 L 8.7185884,-4.0017078 C 6.9730900,-1.6296469 6.9831476,1.6157441 8.7185878,4.0337352 z "
         style="font-size:12.0;fill-rule:evenodd;stroke-width:0.62500000;stroke-linejoin:round;"
         id="path3644" />
    </marker>
    <marker
       style="overflow:visible;"
       id="Arrow2Mend"
       refX="0.0"
       refY="0.0"
       orient="auto"
       inkscape:stockid="Arrow2Mend">
      <path
         transform="scale(0.6) rotate(180) translate(0,0)"
         d="M 8.7185878,4.0337352 L -2.2072895,0.016013256 L 8.7185884,-4.0017078 C 6.9730900,-1.6296469 6.9831476,1.6157441 8.7185878,4.0337352 z "
         style="font-size:12.0;fill-rule:evenodd;stroke-width:0.62500000;stroke-linejoin:round;"
         id="path3638" />
    </marker>
    <marker
       style="overflow:visible;"
       id="Arrow1Lend"
       refX="0.0"
       refY="0.0"
       orient="auto"
       inkscape:stockid="Arrow1Lend">
      <path
         transform="scale(0.8) rotate(180) translate(12.5,0)"
         style="fill-rule:evenodd;stroke:#000000;stroke-width:1.0pt;marker-start:none;"
         d="M 0.0,0.0 L 5.0,-5.0 L -12.5,0.0 L 5.0,5.0 L 0.0,0.0 z "
         id="path3614" />
    </marker>
    <linearGradient
       id="linearGradient3594">
      <stop
         id="stop3596"
         offset="0"
         style="stop-color:#8b8b8b;stop-opacity:1;" />
      <stop
         id="stop3598"
         offset="1"
         style="stop-color:#ffffff;stop-opacity:1;" />
    </linearGradient>
    <linearGradient
       id="linearGradient3619">
      <stop
         id="stop3621"
         offset="0"
         style="stop-color:#7e7e7e;stop-opacity:1;" />
      <stop
         id="stop3623"
         offset="1"
         style="stop-color:#ffffff;stop-opacity:1;" />
    </linearGradient>
    <inkscape:perspective
       id="perspective10"
       inkscape:persp3d-origin="372.04724 : 350.78739 : 1"
       inkscape:vp_z="744.09448 : 526.18109 : 1"
       inkscape:vp_y="0 : 1000 : 0"
       inkscape:vp_x="0 : 526.18109 : 1"
       sodipodi:type="inkscape:persp3d" />
    <radialGradient
       gradientUnits="userSpaceOnUse"
       gradientTransform="matrix(1.2356686,-0.80521527,1.6978973,2.6055623,-1634.6325,-1339.7914)"
       r="73.451585"
       fy="978.99298"
       fx="200.73691"
       cy="978.99298"
       cx="200.73691"
       id="radialGradient3625"
       xlink:href="#linearGradient3619"
       inkscape:collect="always" />
    <radialGradient
       r="73.451585"
       fy="978.99298"
       fx="200.73691"
       cy="978.99298"
       cx="200.73691"
       gradientTransform="matrix(1.2356686,-0.80521527,1.6978973,2.6055623,-1634.6325,-1339.7914)"
       gradientUnits="userSpaceOnUse"
       id="radialGradient3631"
       xlink:href="#linearGradient3619"
       inkscape:collect="always" />
    <marker
       style="overflow:visible"
       id="Arrow1Lstarto"
       refX="0.0"
       refY="0.0"
       orient="auto"
       inkscape:stockid="Arrow1Lstarto">
      <path
         transform="scale(0.8) translate(12.5,0)"
         style="marker-start:none;stroke:#c30000;stroke-width:1.0pt;fill:#c30000;fill-rule:evenodd"
         d="M 0.0,0.0 L 5.0,-5.0 L -12.5,0.0 L 5.0,5.0 L 0.0,0.0 z "
         id="path4701" />
    </marker>
    <marker
       style="overflow:visible;"
       id="Arrow1LendU"
       refX="0.0"
       refY="0.0"
       orient="auto"
       inkscape:stockid="Arrow1LendU">
      <path
         transform="scale(0.8) rotate(180) translate(12.5,0)"
         style="marker-start:none;stroke:#c30000;stroke-width:1.0pt;fill:#c30000;fill-rule:evenodd"
         d="M 0.0,0.0 L 5.0,-5.0 L -12.5,0.0 L 5.0,5.0 L 0.0,0.0 z "
         id="path4704" />
    </marker>
    <marker
       inkscape:stockid="TriangleOutS1"
       orient="auto"
       refY="0.0"
       refX="0.0"
       id="TriangleOutS1"
       style="overflow:visible">
      <path
         id="path5583"
         d="M 5.77,0.0 L -2.88,5.0 L -2.88,-5.0 L 5.77,0.0 z "
         style="marker-start:none;stroke:#9f9f9f;stroke-width:1.0pt;fill:#9f9f9f;fill-rule:evenodd"
         transform="scale(0.2)" />
    </marker>
    <marker
       style="overflow:visible"
       id="Arrow1Sstartn"
       refX="0.0"
       refY="0.0"
       orient="auto"
       inkscape:stockid="Arrow1Sstartn">
      <path
         transform="scale(0.2) translate(6,0)"
         style="marker-start:none;stroke:#c30000;stroke-width:1.0pt;fill:#c30000;fill-rule:evenodd"
         d="M 0.0,0.0 L 5.0,-5.0 L -12.5,0.0 L 5.0,5.0 L 0.0,0.0 z "
         id="path4595" />
    </marker>
    <marker
       style="overflow:visible;"
       id="Arrow1SendF"
       refX="0.0"
       refY="0.0"
       orient="auto"
       inkscape:stockid="Arrow1SendF">
      <path
         transform="scale(0.2) rotate(180) translate(6,0)"
         style="marker-start:none;stroke:#c30000;stroke-width:1.0pt;fill:#c30000;fill-rule:evenodd"
         d="M 0.0,0.0 L 5.0,-5.0 L -12.5,0.0 L 5.0,5.0 L 0.0,0.0 z "
         id="path4598" />
    </marker>
    <marker
       style="overflow:visible"
       id="Arrow1Sstartk"
       refX="0.0"
       refY="0.0"
       orient="auto"
       inkscape:stockid="Arrow1Sstartk">
      <path
         transform="scale(0.2) translate(6,0)"
         style="marker-start:none;stroke:#c30000;stroke-width:1.0pt;fill:#c30000;fill-rule:evenodd"
         d="M 0.0,0.0 L 5.0,-5.0 L -12.5,0.0 L 5.0,5.0 L 0.0,0.0 z "
         id="path4601" />
    </marker>
    <marker
       style="overflow:visible;"
       id="Arrow1Send7"
       refX="0.0"
       refY="0.0"
       orient="auto"
       inkscape:stockid="Arrow1Send7">
      <path
         transform="scale(0.2) rotate(180) translate(6,0)"
         style="marker-start:none;stroke:#c30000;stroke-width:1.0pt;fill:#c30000;fill-rule:evenodd"
         d="M 0.0,0.0 L 5.0,-5.0 L -12.5,0.0 L 5.0,5.0 L 0.0,0.0 z "
         id="path4604" />
    </marker>
    <radialGradient
       inkscape:collect="always"
       xlink:href="#linearGradient3718"
       id="radialGradient3724"
       cx="179.64285"
       cy="819.65601"
       fx="179.64285"
       fy="819.65601"
       r="55"
       gradientUnits="userSpaceOnUse"
       gradientTransform="matrix(-1.0000844,5.1706418e-7,-6.0332434e-7,-1.1686622,279.65852,1720.2631)" />
    <radialGradient
       inkscape:collect="always"
       xlink:href="#linearGradient3730"
       id="radialGradient3728"
       gradientUnits="userSpaceOnUse"
       gradientTransform="matrix(-1.0000844,5.1706418e-7,-6.0332434e-7,-1.1686622,379.65852,1720.2631)"
       cx="179.64285"
       cy="819.65601"
       fx="179.64285"
       fy="819.65601"
       r="55" />
    <radialGradient
       inkscape:collect="always"
       xlink:href="#linearGradient3740"
       id="radialGradient3738"
       gradientUnits="userSpaceOnUse"
       gradientTransform="matrix(-1.0000844,5.1706418e-7,-6.0332434e-7,-1.1686622,479.65852,1720.2631)"
       cx="179.64285"
       cy="819.65601"
       fx="179.64285"
       fy="819.65601"
       r="55" />
    <radialGradient
       inkscape:collect="always"
       xlink:href="#linearGradient3718"
       id="radialGradient3752"
       gradientUnits="userSpaceOnUse"
       gradientTransform="matrix(-1.0000844,5.1706418e-7,-6.0332434e-7,-1.1686622,239.65852,1940.2631)"
       cx="179.64285"
       cy="819.65601"
       fx="179.64285"
       fy="819.65601"
       r="55" />
    <radialGradient
       inkscape:collect="always"
       xlink:href="#linearGradient3730"
       id="radialGradient3754"
       gradientUnits="userSpaceOnUse"
       gradientTransform="matrix(-1.0000844,5.1706418e-7,-6.0332434e-7,-1.1686622,379.65852,1940.2631)"
       cx="179.64285"
       cy="819.65601"
       fx="179.64285"
       fy="819.65601"
       r="55" />
    <radialGradient
       inkscape:collect="always"
       xlink:href="#linearGradient3740"
       id="radialGradient3756"
       gradientUnits="userSpaceOnUse"
       gradientTransform="matrix(-1.0000844,5.1706418e-7,-6.0332434e-7,-1.1686622,519.65852,1940.2631)"
       cx="179.64285"
       cy="819.65601"
       fx="179.64285"
       fy="819.65601"
       r="55" />
  </defs>
  <metadata
     id="metadata7">
    <rdf:RDF>
      <cc:Work
         rdf:about="">
        <dc:format>image/svg+xml</dc:format>
        <dc:type
           rdf:resource="http://purl.org/dc/dcmitype/StillImage" />
        <dc:title />
      </cc:Work>
    </rdf:RDF>
  </metadata>
  <g
     transform="translate(0,-652.3622)"
     id="layer1"
     inkscape:groupmode="layer"
     inkscape:label="Layer 1">
    <path
       sodipodi:type="arc"
       style="fill:none;fill-opacity:1;stroke:#060000;stroke-width:7;stroke-linecap:round;stroke-linejoin:miter;stroke-miterlimit:4;stroke-opacity:1;stroke-dasharray:none;stroke-dashoffset:0"
       id="path2867"
       sodipodi:cx="144.45181"
       sodipodi:cy="168.67506"
       sodipodi:rx="75.761444"
       sodipodi:ry="75.761444"
       d="m 220.21326,168.67506 c 0,41.84189 -33.91956,75.76145 -75.76145,75.76145 -41.84189,0 -75.761441,-33.91956 -75.761441,-75.76145 0,-41.84189 33.919551,-75.76144 75.761441,-75.76144 41.84189,0 75.76145,33.91955 75.76145,75.76144 z"
       transform="translate(55.548187,683.68714)" />
    <path
       id="path3268"
       d="m 174.77633,737.62238 -0.48886,0.7976 -0.46313,0.74614 -0.48884,0.72041 -0.48887,0.66895 -0.46311,0.64324 -0.48884,0.59175 -0.48887,0.56604 -0.46312,0.54031 -0.48885,0.48886 -0.48885,0.48885 -0.46313,0.43739 -0.48884,0.41166 -0.48886,0.38595 -0.46313,0.36019 -0.48883,0.33448 -0.48886,0.30876 -0.48885,0.28302 -0.48885,0.25729 -0.48886,0.23155 -0.48884,0.23157 -0.48885,0.1801 -0.51458,0.1801 -0.48886,0.15438 -0.51457,0.15437 -0.48886,0.12865 -0.51458,0.10291 -0.51459,0.10292 -0.48885,0.0773 -1.05489,0.12866 -1.02916,0.0773 c -1.56947,0.12864 -2.70154,0.12864 -2.70154,2.57291 0,0.77186 0.64322,1.41509 1.64665,1.41509 3.4477,0 7.4357,-0.41166 11.01204,-0.41166 4.21955,0 8.72213,0.41166 12.83878,0.41166 0.74614,0 2.44426,0 2.44426,-2.46999 0,-1.38937 -1.15781,-1.51801 -2.05833,-1.51801 -2.95885,-0.23157 -6.0206,-1.28646 -6.0206,-4.45112 0,-1.56948 0.77187,-2.98457 1.77531,-4.75988 l 9.7513,-16.44084 h 32.1613 l -0.36021,-3.93655 h -29.38255 l 25.29163,-42.32426 4.09092,42.32426 0.36021,3.93655 c 0.28301,2.70154 2.05832,20.14582 2.05832,21.43228 0,3.85936 -6.66383,4.21956 -9.211,4.21956 -1.80104,0 -3.08748,0 -3.08748,2.57291 0,1.41509 1.51801,1.41509 1.80103,1.41509 5.22298,0 10.78047,-0.41166 16.00347,-0.41166 3.21611,0 11.29503,0.41166 14.51117,0.41166 0.77186,0 2.28988,0 2.28988,-2.5729 0,-1.4151 -1.28645,-1.4151 -2.93311,-1.4151 -7.95028,0 -7.95028,-0.87479 -8.36194,-4.63123 l -7.7959,-80.06875 c -0.28302,-2.5729 -0.28302,-3.08747 -2.44426,-3.08747 -2.05831,0 -2.54717,0.87478 -3.34477,2.16124 z"
       inkscape:connector-curvature="0"
       style="font-style:normal;font-variant:normal;font-weight:normal;font-stretch:normal;letter-spacing:normal;word-spacing:normal;text-anchor:start;fill:#000000;stroke:#000000;stroke-width:0;stroke-linecap:butt;stroke-linejoin:miter;stroke-miterlimit:10.43299961;stroke-opacity:1;stroke-dasharray:none;stroke-dashoffset:0" />
    <polyline
       id="polyline3270"
       points="462,400 499.44,400 499.44,402.04 462,402.04 "
       style="font-style:normal;font-variant:normal;font-weight:normal;font-stretch:normal;letter-spacing:normal;word-spacing:normal;text-anchor:start;fill:#000000;fill-rule:nonzero;stroke:#000000;stroke-width:0;stroke-linecap:butt;stroke-linejoin:miter;stroke-miterlimit:10.43299961;stroke-opacity:1;stroke-dasharray:none;stroke-dashoffset:0"
       transform="matrix(3.3868212,0,0,-3.3868212,-1428.1126,2208.2354)" />
    <path
       id="path3272"
       d="m 204.25155,946.63597 0,0 0,-0.0257 0,-0.0257 0,-0.0257 0,-0.0257 0,-0.0258 0,-0.0514 0,-0.0514 -0.0257,-0.0515 0,-0.0514 0,-0.0514 -0.0257,-0.0514 -0.0258,-0.0773 -0.0257,-0.0514 -0.0257,-0.0514 -0.0258,-0.0773 -0.0515,-0.0514 -0.0257,-0.0773 -0.0514,-0.0514 -0.0515,-0.0773 -0.0514,-0.0514 -0.0258,-0.0257 -0.0514,-0.0257 -0.0258,-0.0257 -0.0258,-0.0257 -0.0514,-0.0257 -0.0258,-0.0257 -0.0515,-0.0258 -0.0514,-0.0257 -0.0257,-0.0257 -0.0514,-0.0257 -0.0514,-0.0257 -0.0514,0 -0.0514,-0.0257 -0.0514,-0.0257 -0.0514,0 -0.0515,-0.0257 -0.0773,0 -0.0514,-0.0257 -0.0773,0 -0.0514,0 -0.0773,-0.0257 -0.0773,0 -0.0773,0 -0.0773,0 c -2.95883,0 -12.29847,1.05489 -15.61753,1.28645 -1.05489,0.12865 -2.46998,0.23156 -2.46998,2.5729 0,1.51803 1.18353,1.51803 3.11322,1.51803 6.14923,0 6.38079,0.90051 6.38079,2.18696 0,0.92625 -1.1578,5.27446 -1.80103,7.95028 L 181.71257,1002.52 c -1.51802,6.4322 -2.05833,8.4647 -2.05833,12.9416 0,12.1698 6.79247,20.1458 16.28649,20.1458 v -2.8302 c -4.37394,0 -8.5935,-3.4477 -8.5935,-12.9416 0,-2.4443 0,-4.8628 2.0326,-12.9417 l 2.83019,-11.8096 c 0.74614,-2.83019 0.74614,-3.06174 1.92968,-4.47687 6.25215,-8.31048 12.04118,-10.24014 15.38596,-10.24014 4.63122,0 8.07891,3.8079 8.07891,12.04119 0,7.56439 -4.24529,22.28132 -6.53517,27.19552 -4.24529,8.5677 -10.13723,13.1732 -15.12867,13.1732 v 2.8302 c 15.12867,0 30.87484,-19.1166 30.87484,-37.56432 0,-11.65522 -6.79246,-20.50605 -17.03262,-20.50605 -5.89194,0 -11.14068,3.70503 -15.00003,7.69304 z"
       inkscape:connector-curvature="0"
       style="font-style:normal;font-variant:normal;font-weight:normal;font-stretch:normal;letter-spacing:normal;word-spacing:normal;text-anchor:start;fill:#000000;stroke:#000000;stroke-width:0;stroke-linecap:butt;stroke-linejoin:miter;stroke-miterlimit:10.43299961;stroke-opacity:1;stroke-dasharray:none;stroke-dashoffset:0" />
    <text
       xml:space="preserve"
       style="font-size:88.59018707px;font-style:normal;font-variant:normal;font-weight:500;font-stretch:normal;line-height:125%;letter-spacing:0px;word-spacing:0px;fill:#000000;fill-opacity:1;stroke:none;font-family:TlwgMono;-inkscape-font-specification:TlwgMono Medium"
       x="173.42303"
       y="829.07343"
       id="text5141"
       sodipodi:linespacing="125%"><tspan
         sodipodi:role="line"
         id="tspan5143"
         x="173.42303"
         y="829.07343">.</tspan></text>
    <text
       xml:space="preserve"
       style="font-size:88.59018707px;font-style:normal;font-variant:normal;font-weight:500;font-stretch:normal;line-height:125%;letter-spacing:0px;word-spacing:0px;fill:#000000;fill-opacity:1;stroke:none;font-family:TlwgMono;-inkscape-font-specification:TlwgMono Medium"
       x="173.70866"
       y="883.97888"
       id="text5141-3"
       sodipodi:linespacing="125%"><tspan
         sodipodi:role="line"
         id="tspan5143-6"
         x="173.70866"
         y="883.97888">.</tspan></text>
  </g>
</svg>
