<?xml version="1.0" encoding="UTF-8" standalone="no"?>
<svg
   xmlns:dc="http://purl.org/dc/elements/1.1/"
   xmlns:cc="http://creativecommons.org/ns#"
   xmlns:rdf="http://www.w3.org/1999/02/22-rdf-syntax-ns#"
   xmlns:svg="http://www.w3.org/2000/svg"
   xmlns="http://www.w3.org/2000/svg"
   xmlns:xlink="http://www.w3.org/1999/xlink"
   xmlns:sodipodi="http://sodipodi.sourceforge.net/DTD/sodipodi-0.dtd"
   xmlns:inkscape="http://www.inkscape.org/namespaces/inkscape"
   version="1.1"
   id="svg2"
   height="400"
   width="400"
   sodipodi:docname="forcelet.svg"
   inkscape:version="0.92.3 (2405546, 2018-03-11)">
  <sodipodi:namedview
     pagecolor="#ffffff"
     bordercolor="#666666"
     borderopacity="1"
     objecttolerance="10"
     gridtolerance="10"
     guidetolerance="10"
     inkscape:pageopacity="0"
     inkscape:pageshadow="2"
     inkscape:window-width="1853"
     inkscape:window-height="1145"
     id="namedview46"
     showgrid="false"
     inkscape:zoom="1.18"
     inkscape:cx="161.14192"
     inkscape:cy="107.52699"
     inkscape:window-x="67"
     inkscape:window-y="27"
     inkscape:window-maximized="1"
     inkscape:current-layer="layer1" />
  <defs
     id="defs4">
    <marker
       style="overflow:visible"
       id="TriangleOutM"
       refX="0.0"
       refY="0.0"
       orient="auto">
      <path
         transform="scale(0.4)"
         style="fill-rule:evenodd;stroke:#000000;stroke-width:1.0pt;marker-start:none"
         d="M 5.77,0.0 L -2.88,5.0 L -2.88,-5.0 L 5.77,0.0 z "
         id="path4233" />
    </marker>
    <marker
       orient="auto"
       refY="0.0"
       refX="0.0"
       id="TriangleOutS"
       style="overflow:visible">
      <path
         id="path3799"
         d="M 5.77,0.0 L -2.88,5.0 L -2.88,-5.0 L 5.77,0.0 z "
         style="fill-rule:evenodd;stroke:#000000;stroke-width:1.0pt;marker-start:none"
         transform="scale(0.2)" />
    </marker>
    <marker
       orient="auto"
       refY="0.0"
       refX="0.0"
       id="TriangleInS"
       style="overflow:visible">
      <path
         id="path3790"
         d="M 5.77,0.0 L -2.88,5.0 L -2.88,-5.0 L 5.77,0.0 z "
         style="fill-rule:evenodd;stroke:#000000;stroke-width:1.0pt;marker-start:none"
         transform="scale(-0.2)" />
    </marker>
    <marker
       style="overflow:visible"
       id="Arrow1Lstart"
       refX="0.0"
       refY="0.0"
       orient="auto">
      <path
         transform="scale(0.8) translate(12.5,0)"
         style="fill-rule:evenodd;stroke:#000000;stroke-width:1.0pt;marker-start:none"
         d="M 0.0,0.0 L 5.0,-5.0 L -12.5,0.0 L 5.0,5.0 L 0.0,0.0 z "
         id="path3650" />
    </marker>
    <marker
       style="overflow:visible;"
       id="Arrow1Send"
       refX="0.0"
       refY="0.0"
       orient="auto">
      <path
         transform="scale(0.2) rotate(180) translate(6,0)"
         style="fill-rule:evenodd;stroke:#000000;stroke-width:1.0pt;marker-start:none;"
         d="M 0.0,0.0 L 5.0,-5.0 L -12.5,0.0 L 5.0,5.0 L 0.0,0.0 z "
         id="path4396" />
    </marker>
    <marker
       style="overflow:visible;"
       id="Arrow2Send"
       refX="0.0"
       refY="0.0"
       orient="auto">
      <path
         transform="scale(0.3) rotate(180) translate(-2.3,0)"
         d="M 8.7185878,4.0337352 L -2.2072895,0.016013256 L 8.7185884,-4.0017078 C 6.9730900,-1.6296469 6.9831476,1.6157441 8.7185878,4.0337352 z "
         style="font-size:12.0;fill-rule:evenodd;stroke-width:0.62500000;stroke-linejoin:round;"
         id="path3644" />
    </marker>
    <marker
       style="overflow:visible;"
       id="Arrow2Mend"
       refX="0.0"
       refY="0.0"
       orient="auto">
      <path
         transform="scale(0.6) rotate(180) translate(0,0)"
         d="M 8.7185878,4.0337352 L -2.2072895,0.016013256 L 8.7185884,-4.0017078 C 6.9730900,-1.6296469 6.9831476,1.6157441 8.7185878,4.0337352 z "
         style="font-size:12.0;fill-rule:evenodd;stroke-width:0.62500000;stroke-linejoin:round;"
         id="path3638" />
    </marker>
    <marker
       style="overflow:visible;"
       id="Arrow1Lend"
       refX="0.0"
       refY="0.0"
       orient="auto">
      <path
         transform="scale(0.8) rotate(180) translate(12.5,0)"
         style="fill-rule:evenodd;stroke:#000000;stroke-width:1.0pt;marker-start:none;"
         d="M 0.0,0.0 L 5.0,-5.0 L -12.5,0.0 L 5.0,5.0 L 0.0,0.0 z "
         id="path3614" />
    </marker>
    <linearGradient
       id="linearGradient3594">
      <stop
         id="stop3596"
         offset="0"
         style="stop-color:#8b8b8b;stop-opacity:1;" />
      <stop
         id="stop3598"
         offset="1"
         style="stop-color:#ffffff;stop-opacity:1;" />
    </linearGradient>
    <linearGradient
       id="linearGradient3619">
      <stop
         id="stop3621"
         offset="0"
         style="stop-color:#7e7e7e;stop-opacity:1;" />
      <stop
         id="stop3623"
         offset="1"
         style="stop-color:#ffffff;stop-opacity:1;" />
    </linearGradient>
    <radialGradient
       gradientUnits="userSpaceOnUse"
       gradientTransform="matrix(1.2356686,-0.80521527,1.6978973,2.6055623,-1634.6325,-1339.7914)"
       r="73.451585"
       fy="978.99298"
       fx="200.73691"
       cy="978.99298"
       cx="200.73691"
       id="radialGradient3625"
       xlink:href="#linearGradient3619" />
    <radialGradient
       r="73.451585"
       fy="978.99298"
       fx="200.73691"
       cy="978.99298"
       cx="200.73691"
       gradientTransform="matrix(1.2356686,-0.80521527,1.6978973,2.6055623,-1634.6325,-1339.7914)"
       gradientUnits="userSpaceOnUse"
       id="radialGradient3631"
       xlink:href="#linearGradient3619" />
    <marker
       style="overflow:visible"
       id="Arrow1Lstarto"
       refX="0.0"
       refY="0.0"
       orient="auto">
      <path
         transform="scale(0.8) translate(12.5,0)"
         style="marker-start:none;stroke:#c30000;stroke-width:1.0pt;fill:#c30000;fill-rule:evenodd"
         d="M 0.0,0.0 L 5.0,-5.0 L -12.5,0.0 L 5.0,5.0 L 0.0,0.0 z "
         id="path4701" />
    </marker>
    <marker
       style="overflow:visible;"
       id="Arrow1LendU"
       refX="0.0"
       refY="0.0"
       orient="auto">
      <path
         transform="scale(0.8) rotate(180) translate(12.5,0)"
         style="marker-start:none;stroke:#c30000;stroke-width:1.0pt;fill:#c30000;fill-rule:evenodd"
         d="M 0.0,0.0 L 5.0,-5.0 L -12.5,0.0 L 5.0,5.0 L 0.0,0.0 z "
         id="path4704" />
    </marker>
    <marker
       orient="auto"
       refY="0.0"
       refX="0.0"
       id="TriangleOutS1"
       style="overflow:visible">
      <path
         id="path5583"
         d="M 5.77,0.0 L -2.88,5.0 L -2.88,-5.0 L 5.77,0.0 z "
         style="marker-start:none;stroke:#9f9f9f;stroke-width:1.0pt;fill:#9f9f9f;fill-rule:evenodd"
         transform="scale(0.2)" />
    </marker>
    <clipPath
       id="clipPath4367"
       clipPathUnits="userSpaceOnUse">
      <rect
         y="781.64795"
         x="523.57141"
         height="57.142857"
         width="96.428574"
         id="rect4369" />
    </clipPath>
  </defs>
  <metadata
     id="metadata7">
    <rdf:RDF>
      <cc:Work
         rdf:about="">
        <dc:format>image/svg+xml</dc:format>
        <dc:type
           rdf:resource="http://purl.org/dc/dcmitype/StillImage" />
        <dc:title />
      </cc:Work>
    </rdf:RDF>
  </metadata>
  <g
     transform="translate(0,-652.3622)"
     id="layer1">
    <g
       id="g3898">
      <path
         id="path3896"
         d="m 23.78125,706.3125 0,336.5625 c -0.03502,2.4765 0.959626,4.9517 2.698499,6.7153 1.738874,1.7637 4.199788,2.7932 6.676501,2.7932 2.476713,0 4.937627,-1.0295 6.676501,-2.7932 1.738873,-1.7636 2.733522,-4.2388 2.698499,-6.7153 l 0,-336.5625 z"
         style="font-size:medium;font-style:normal;font-variant:normal;font-weight:normal;font-stretch:normal;text-indent:0;text-align:start;text-decoration:none;line-height:normal;letter-spacing:normal;word-spacing:normal;text-transform:none;direction:ltr;block-progression:tb;writing-mode:lr-tb;text-anchor:start;color:#000000;fill:#000000;fill-opacity:1;stroke:none;stroke-width:18.75;marker:none;visibility:visible;display:inline;overflow:visible;enable-background:accumulate;font-family:Bitstream Charter;-inkscape-font-specification:Bitstream Charter" />
      <path
         style="fill-rule:evenodd;stroke:#000000;stroke-width:5.17849846pt;marker-start:none"
         d="m 33.170862,662.50876 25.892493,44.79402 -51.7849858,0 25.8924928,-44.79402 z"
         id="path3904" />
    </g>
    <g
       id="g3906">
      <path
         id="path3690"
         d="m 11.125,868.2372 c -2.4764654,-0.035 -4.9516922,0.95963 -6.7153309,2.6985 -1.7636388,1.73887 -2.7931879,4.19979 -2.7931879,6.6765 0,2.47671 1.0295491,4.93763 2.7931879,6.6765 1.7636387,1.73887 4.2388655,2.73352 6.7153309,2.6985 l 330.5,0 0,-18.75 z"
         style="font-size:medium;font-style:normal;font-variant:normal;font-weight:normal;font-stretch:normal;text-indent:0;text-align:start;text-decoration:none;line-height:normal;letter-spacing:normal;word-spacing:normal;text-transform:none;direction:ltr;block-progression:tb;writing-mode:lr-tb;text-anchor:start;color:#000000;fill:#000000;fill-opacity:1;stroke:none;stroke-width:18.75;marker:none;visibility:visible;display:inline;overflow:visible;enable-background:accumulate;font-family:Bitstream Charter;-inkscape-font-specification:Bitstream Charter" />
      <path
         style="fill-rule:evenodd;stroke:#000000;stroke-width:5.38256989pt;marker-start:none"
         d="m 388.31266,877.60581 -46.55922,26.91285 0,-53.8257 46.55922,26.91285 z"
         id="path3912" />
    </g>
    <g
       style="stroke-width:18.75;stroke-miterlimit:4;stroke-dasharray:none"
       id="g4987" />
    <path
       transform="matrix(3.0737193,0,0,5.4784541,-1569.5415,-3547.4344)"
       clip-path="url(#clipPath4367)"
       id="path4338"
       style="fill:none;stroke:#ff0000;stroke-width:4.47345829;stroke-miterlimit:4;stroke-dasharray:none;stroke-opacity:1"
       d="m 525.40666,807.73778 h 0.7464 0.7464 0.7464 0.7464 0.7464 0.7464 0.74639 0.7464 0.7464 0.7464 0.7464 0.7464 0.74639 0.74641 0.74639 0.74641 0.74639 0.7464 0.7464 0.7464 l 0.7464,0.0121 h 0.7464 l 0.7464,0.0122 h 0.7464 l 0.7464,0.0122 0.74639,0.0243 0.7464,0.0243 0.7464,0.0364 0.7464,0.0486 0.7464,0.073 0.7464,0.0852 0.7464,0.10949 0.7464,0.1582 0.74639,0.18255 0.74641,0.24336 0.74639,0.29208 0.74641,0.36506 0.74639,0.43808 0.7464,0.51111 0.7464,0.60846 0.7464,0.70579 0.7464,0.791 0.7464,0.87616 0.7464,0.96136 0.74639,1.02219 0.7464,1.07088 0.7464,1.08305 0.74639,1.07088 0.74641,1.01002 0.7464,0.91268 0.7464,0.76665 0.7464,0.57196 0.7464,0.34072 0.7464,0.0609 0.74639,-0.24338 0.74641,-0.58413 0.74639,-0.91268 0.74641,-1.25339 0.72399,-1.52114 0.57846,-1.41161 0.5001,-1.33859 0.45156,-1.3021 0.42546,-1.27774 0.40304,-1.26558 0.39187,-1.24126 0.38066,-1.24124 0.3732,-1.21691 0.37321,-1.2169 0.37693,-1.20474 0.37692,-1.19256 0.3844,-1.19255 0.39559,-1.16823 0.41052,-1.15608 0.42918,-1.14387 0.4553,-1.13174 0.49636,-1.09521 0.5486,-1.05872 0.63071,-0.99784 0.7464,-0.87617 0.74639,-0.52329 0.74641,-0.20686 0.74639,0.10949 0.74641,0.37724 0.74639,0.59628 0.7464,0.79099 0.7464,0.92485 0.7464,1.0222 0.7464,1.07088 0.7464,1.08304 0.74641,1.07087 0.74638,1.01003 0.7464,0.94919 0.7464,0.87617 0.7464,0.77882 0.7464,0.68149 0.7464,0.59628 0.7464,0.5111 0.7464,0.42591 0.7464,0.3529 0.7464,0.27989 0.74639,0.23121 0.74641,0.18255 0.74639,0.14602 0.74641,0.10949 0.74639,0.0852 0.7464,0.0609 0.7464,0.0487 0.7464,0.0365 0.7464,0.0243 0.74639,0.0243 0.7464,0.0122 h 0.7464 l 0.7464,0.0122 h 0.7464 l 0.7464,0.0122 h 0.7464 0.7464 0.7464 0.7464 0.7464 0.7464 0.74639 0.74641 0.74639 0.74641 0.74639 0.7464 0.7464 0.74639 0.7464 0.7464 0.7464 0.7464 0.7464"
       inkscape:connector-curvature="0"
       sodipodi:nodetypes="ccccccccccccccccccccccccccccccccccccccccccccccccccccccccccccccccccccccccccccccccccccccccccccccccccccccccccccccccccccccccccccccccccccccc" />
  </g>
</svg>
