<?xml version="1.0" encoding="UTF-8" standalone="no"?>
<!-- Created with Inkscape (http://www.inkscape.org/) -->

<svg
   xmlns:dc="http://purl.org/dc/elements/1.1/"
   xmlns:cc="http://creativecommons.org/ns#"
   xmlns:rdf="http://www.w3.org/1999/02/22-rdf-syntax-ns#"
   xmlns:svg="http://www.w3.org/2000/svg"
   xmlns="http://www.w3.org/2000/svg"
   xmlns:xlink="http://www.w3.org/1999/xlink"
   xmlns:sodipodi="http://sodipodi.sourceforge.net/DTD/sodipodi-0.dtd"
   xmlns:inkscape="http://www.inkscape.org/namespaces/inkscape"
   width="400"
   height="400"
   id="svg2"
   version="1.1"
   inkscape:version="0.92.3 (2405546, 2018-03-11)"
   sodipodi:docname="local_writer.svg"
   inkscape:export-filename="/home/lompolbx/workspace/src/cedar.fieldFramework/cedar/processing/gui/icons/steps/no_icon.png"
   inkscape:export-xdpi="9"
   inkscape:export-ydpi="9">
  <sodipodi:namedview
     id="base"
     pagecolor="#ffffff"
     bordercolor="#666666"
     borderopacity="1.0"
     inkscape:pageopacity="0.0"
     inkscape:pageshadow="2"
     inkscape:zoom="0.98994949"
     inkscape:cx="-290.6887"
     inkscape:cy="146.50846"
     inkscape:document-units="px"
     inkscape:current-layer="layer1"
     showgrid="false"
     inkscape:window-width="1920"
     inkscape:window-height="1024"
     inkscape:window-x="0"
     inkscape:window-y="0"
     inkscape:window-maximized="1"
     showguides="true"
     inkscape:guide-bbox="true" />
  <defs
     id="defs4">
    <marker
       style="overflow:visible"
       id="TriangleOutS"
       refX="0.0"
       refY="0.0"
       orient="auto"
       inkscape:stockid="TriangleOutS">
      <path
         transform="scale(0.2)"
         style="fill-rule:evenodd;stroke:#000000;stroke-width:1.0pt;marker-start:none"
         d="M 5.77,0.0 L -2.88,5.0 L -2.88,-5.0 L 5.77,0.0 z "
         id="path3799" />
    </marker>
    <marker
       style="overflow:visible"
       id="TriangleInS"
       refX="0.0"
       refY="0.0"
       orient="auto"
       inkscape:stockid="TriangleInS">
      <path
         transform="scale(-0.2)"
         style="fill-rule:evenodd;stroke:#000000;stroke-width:1.0pt;marker-start:none"
         d="M 5.77,0.0 L -2.88,5.0 L -2.88,-5.0 L 5.77,0.0 z "
         id="path3790" />
    </marker>
    <marker
       inkscape:stockid="Arrow1Lstart"
       orient="auto"
       refY="0.0"
       refX="0.0"
       id="Arrow1Lstart"
       style="overflow:visible">
      <path
         id="path3650"
         d="M 0.0,0.0 L 5.0,-5.0 L -12.5,0.0 L 5.0,5.0 L 0.0,0.0 z "
         style="fill-rule:evenodd;stroke:#000000;stroke-width:1.0pt;marker-start:none"
         transform="scale(0.8) translate(12.5,0)" />
    </marker>
    <marker
       inkscape:stockid="Arrow1Send"
       orient="auto"
       refY="0.0"
       refX="0.0"
       id="Arrow1Send"
       style="overflow:visible;">
      <path
         id="path4396"
         d="M 0.0,0.0 L 5.0,-5.0 L -12.5,0.0 L 5.0,5.0 L 0.0,0.0 z "
         style="fill-rule:evenodd;stroke:#000000;stroke-width:1.0pt;marker-start:none;"
         transform="scale(0.2) rotate(180) translate(6,0)" />
    </marker>
    <marker
       inkscape:stockid="Arrow2Send"
       orient="auto"
       refY="0.0"
       refX="0.0"
       id="Arrow2Send"
       style="overflow:visible;">
      <path
         id="path3644"
         style="font-size:12.0;fill-rule:evenodd;stroke-width:0.62500000;stroke-linejoin:round;"
         d="M 8.7185878,4.0337352 L -2.2072895,0.016013256 L 8.7185884,-4.0017078 C 6.9730900,-1.6296469 6.9831476,1.6157441 8.7185878,4.0337352 z "
         transform="scale(0.3) rotate(180) translate(-2.3,0)" />
    </marker>
    <marker
       inkscape:stockid="Arrow2Mend"
       orient="auto"
       refY="0.0"
       refX="0.0"
       id="Arrow2Mend"
       style="overflow:visible;">
      <path
         id="path3638"
         style="font-size:12.0;fill-rule:evenodd;stroke-width:0.62500000;stroke-linejoin:round;"
         d="M 8.7185878,4.0337352 L -2.2072895,0.016013256 L 8.7185884,-4.0017078 C 6.9730900,-1.6296469 6.9831476,1.6157441 8.7185878,4.0337352 z "
         transform="scale(0.6) rotate(180) translate(0,0)" />
    </marker>
    <marker
       inkscape:stockid="Arrow1Lend"
       orient="auto"
       refY="0.0"
       refX="0.0"
       id="Arrow1Lend"
       style="overflow:visible;">
      <path
         id="path3614"
         d="M 0.0,0.0 L 5.0,-5.0 L -12.5,0.0 L 5.0,5.0 L 0.0,0.0 z "
         style="fill-rule:evenodd;stroke:#000000;stroke-width:1.0pt;marker-start:none;"
         transform="scale(0.8) rotate(180) translate(12.5,0)" />
    </marker>
    <linearGradient
       id="linearGradient3594">
      <stop
         style="stop-color:#8b8b8b;stop-opacity:1;"
         offset="0"
         id="stop3596" />
      <stop
         style="stop-color:#ffffff;stop-opacity:1;"
         offset="1"
         id="stop3598" />
    </linearGradient>
    <linearGradient
       id="linearGradient3619">
      <stop
         style="stop-color:#7e7e7e;stop-opacity:1;"
         offset="0"
         id="stop3621" />
      <stop
         style="stop-color:#ffffff;stop-opacity:1;"
         offset="1"
         id="stop3623" />
    </linearGradient>
    <inkscape:perspective
       sodipodi:type="inkscape:persp3d"
       inkscape:vp_x="0 : 526.18109 : 1"
       inkscape:vp_y="0 : 1000 : 0"
       inkscape:vp_z="744.09448 : 526.18109 : 1"
       inkscape:persp3d-origin="372.04724 : 350.78739 : 1"
       id="perspective10" />
    <radialGradient
       inkscape:collect="always"
       xlink:href="#linearGradient3619"
       id="radialGradient3625"
       cx="200.73691"
       cy="978.99298"
       fx="200.73691"
       fy="978.99298"
       r="73.451585"
       gradientTransform="matrix(1.2356686,-0.80521527,1.6978973,2.6055623,-1634.6325,-1339.7914)"
       gradientUnits="userSpaceOnUse" />
    <radialGradient
       inkscape:collect="always"
       xlink:href="#linearGradient3619"
       id="radialGradient3631"
       gradientUnits="userSpaceOnUse"
       gradientTransform="matrix(1.2356686,-0.80521527,1.6978973,2.6055623,-1634.6325,-1339.7914)"
       cx="200.73691"
       cy="978.99298"
       fx="200.73691"
       fy="978.99298"
       r="73.451585" />
    <marker
       inkscape:stockid="Arrow1Lstarto"
       orient="auto"
       refY="0.0"
       refX="0.0"
       id="Arrow1Lstarto"
       style="overflow:visible">
      <path
         id="path4701"
         d="M 0.0,0.0 L 5.0,-5.0 L -12.5,0.0 L 5.0,5.0 L 0.0,0.0 z "
         style="marker-start:none;stroke:#c30000;stroke-width:1.0pt;fill:#c30000;fill-rule:evenodd"
         transform="scale(0.8) translate(12.5,0)" />
    </marker>
    <marker
       inkscape:stockid="Arrow1LendU"
       orient="auto"
       refY="0.0"
       refX="0.0"
       id="Arrow1LendU"
       style="overflow:visible;">
      <path
         id="path4704"
         d="M 0.0,0.0 L 5.0,-5.0 L -12.5,0.0 L 5.0,5.0 L 0.0,0.0 z "
         style="marker-start:none;stroke:#c30000;stroke-width:1.0pt;fill:#c30000;fill-rule:evenodd"
         transform="scale(0.8) rotate(180) translate(12.5,0)" />
    </marker>
    <marker
       style="overflow:visible"
       id="TriangleOutS1"
       refX="0.0"
       refY="0.0"
       orient="auto"
       inkscape:stockid="TriangleOutS1">
      <path
         transform="scale(0.2)"
         style="marker-start:none;stroke:#9f9f9f;stroke-width:1.0pt;fill:#9f9f9f;fill-rule:evenodd"
         d="M 5.77,0.0 L -2.88,5.0 L -2.88,-5.0 L 5.77,0.0 z "
         id="path5583" />
    </marker>
    <inkscape:perspective
       id="perspective5208"
       inkscape:persp3d-origin="0.5 : 0.33333333 : 1"
       inkscape:vp_z="1 : 0.5 : 1"
       inkscape:vp_y="0 : 1000 : 0"
       inkscape:vp_x="0 : 0.5 : 1"
       sodipodi:type="inkscape:persp3d" />
    <inkscape:perspective
       id="perspective5208-7"
       inkscape:persp3d-origin="0.5 : 0.33333333 : 1"
       inkscape:vp_z="1 : 0.5 : 1"
       inkscape:vp_y="0 : 1000 : 0"
       inkscape:vp_x="0 : 0.5 : 1"
       sodipodi:type="inkscape:persp3d" />
    <inkscape:perspective
       id="perspective5243"
       inkscape:persp3d-origin="0.5 : 0.33333333 : 1"
       inkscape:vp_z="1 : 0.5 : 1"
       inkscape:vp_y="0 : 1000 : 0"
       inkscape:vp_x="0 : 0.5 : 1"
       sodipodi:type="inkscape:persp3d" />
    <inkscape:perspective
       id="perspective5265"
       inkscape:persp3d-origin="0.5 : 0.33333333 : 1"
       inkscape:vp_z="1 : 0.5 : 1"
       inkscape:vp_y="0 : 1000 : 0"
       inkscape:vp_x="0 : 0.5 : 1"
       sodipodi:type="inkscape:persp3d" />
  </defs>
  <metadata
     id="metadata7">
    <rdf:RDF>
      <cc:Work
         rdf:about="">
        <dc:format>image/svg+xml</dc:format>
        <dc:type
           rdf:resource="http://purl.org/dc/dcmitype/StillImage" />
        <dc:title />
      </cc:Work>
    </rdf:RDF>
  </metadata>
  <g
     inkscape:label="Layer 1"
     inkscape:groupmode="layer"
     id="layer1"
     transform="translate(0,-652.3622)">
    <path
       sodipodi:type="arc"
       style="fill:#000000;fill-opacity:1;stroke:#000000;stroke-width:3.0999999;stroke-linejoin:miter;stroke-miterlimit:4;stroke-opacity:1;stroke-dasharray:none"
       id="path5233"
       sodipodi:cx="42.931484"
       sodipodi:cy="108.06591"
       sodipodi:rx="12.626906"
       sodipodi:ry="9.0913725"
       d="m 55.558391,108.06591 a 12.626906,9.0913725 0 0 1 -12.626907,9.09137 12.626906,9.0913725 0 0 1 -12.626906,-9.09137 12.626906,9.0913725 0 0 1 12.626906,-9.091372 12.626906,9.0913725 0 0 1 12.626907,9.091372 z"
       transform="translate(34,652.3622)" />
    <path
       transform="translate(-409.79226,556.75873)"
       sodipodi:type="arc"
       style="fill:none;stroke:none;stroke-width:4;marker-start:none"
       id="path5464"
       sodipodi:cx="242.94168"
       sodipodi:cy="158.06847"
       sodipodi:rx="88.388351"
       sodipodi:ry="108.5914"
       d="M 331.33003,158.06847 A 88.388351,108.5914 0 0 1 242.94168,266.65987 88.388351,108.5914 0 0 1 154.55333,158.06847 88.388351,108.5914 0 0 1 242.94168,49.477066 88.388351,108.5914 0 0 1 331.33003,158.06847 Z" />
    <g
       id="g3049"
       transform="translate(467.35544,106.06602)">
      <path
         transform="translate(-569.55626,551.46687)"
         d="m 225.26402,113.62175 a 46.972092,46.972092 0 0 1 -46.97209,46.97209 46.972092,46.972092 0 0 1 -46.97209,-46.97209 46.972092,46.972092 0 0 1 46.97209,-46.972092 46.972092,46.972092 0 0 1 46.97209,46.972092 z"
         sodipodi:ry="46.972092"
         sodipodi:rx="46.972092"
         sodipodi:cy="113.62175"
         sodipodi:cx="178.29193"
         id="path5198-36"
         style="fill:none;stroke:#a6a6a6;stroke-width:4;stroke-linejoin:miter;stroke-miterlimit:4;stroke-opacity:1;stroke-dasharray:none"
         sodipodi:type="arc" />
      <path
         d="m 225.26402,113.62175 a 46.972092,46.972092 0 0 1 -46.97209,46.97209 46.972092,46.972092 0 0 1 -46.97209,-46.97209 46.972092,46.972092 0 0 1 46.97209,-46.972092 46.972092,46.972092 0 0 1 46.97209,46.972092 z"
         sodipodi:ry="46.972092"
         sodipodi:rx="46.972092"
         sodipodi:cy="113.62175"
         sodipodi:cx="178.29193"
         id="path5198-3-7"
         style="fill:none;stroke:#5c5c5c;stroke-width:2.42361116;stroke-linejoin:miter;stroke-miterlimit:4;stroke-opacity:1;stroke-dasharray:none"
         sodipodi:type="arc"
         transform="matrix(1.4441261,0,0,1.4441261,-650.21499,501.55016)" />
      <path
         d="m 225.26402,113.62175 a 46.972092,46.972092 0 0 1 -46.97209,46.97209 46.972092,46.972092 0 0 1 -46.97209,-46.97209 46.972092,46.972092 0 0 1 46.97209,-46.972092 46.972092,46.972092 0 0 1 46.97209,46.972092 z"
         sodipodi:ry="46.972092"
         sodipodi:rx="46.972092"
         sodipodi:cy="113.62175"
         sodipodi:cx="178.29193"
         id="path5198-2-53"
         style="fill:none;stroke:#000000;stroke-width:1.51952124;stroke-linejoin:miter;stroke-miterlimit:4;stroke-opacity:1;stroke-dasharray:none"
         sodipodi:type="arc"
         transform="matrix(1.974306,0,0,1.974306,-741.78997,442.24169)" />
      <path
         d="m 225.26402,113.62175 a 46.972092,46.972092 0 0 1 -46.97209,46.97209 46.972092,46.972092 0 0 1 -46.97209,-46.97209 46.972092,46.972092 0 0 1 46.97209,-46.972092 46.972092,46.972092 0 0 1 46.97209,46.972092 z"
         sodipodi:ry="46.972092"
         sodipodi:rx="46.972092"
         sodipodi:cy="113.62175"
         sodipodi:cx="178.29193"
         id="path5198-2-5-5"
         style="fill:none;stroke:#000000;stroke-width:0.91344541;stroke-linejoin:miter;stroke-miterlimit:4;stroke-opacity:1;stroke-dasharray:none"
         sodipodi:type="arc"
         transform="matrix(2.7368905,0,0,2.7368905,-874.82116,357.41021)" />
      <path
         d="m 225.26402,113.62175 a 46.972092,46.972092 0 0 1 -46.97209,46.97209 46.972092,46.972092 0 0 1 -46.97209,-46.97209 46.972092,46.972092 0 0 1 46.97209,-46.972092 46.972092,46.972092 0 0 1 46.97209,46.972092 z"
         sodipodi:ry="46.972092"
         sodipodi:rx="46.972092"
         sodipodi:cy="113.62175"
         sodipodi:cx="178.29193"
         id="path5198-2-5-8-6"
         style="fill:none;stroke:#ff0000;stroke-width:0.51313007;stroke-linejoin:miter;stroke-miterlimit:4;stroke-opacity:1;stroke-dasharray:none"
         sodipodi:type="arc"
         transform="matrix(3.8976472,0,0,3.8976472,-1079.1123,229.3631)" />
    </g>
    <g
       id="g3948"
       transform="translate(-286.20847,18.543773)">
      <rect
         transform="matrix(0.9999692,0.00784889,-0.25766504,0.9662343,0,0)"
         y="772.95337"
         x="544.68542"
         height="312.90118"
         width="14.622888"
         id="rect2842-2"
         style="fill:#000000;fill-rule:evenodd;stroke:#000000;stroke-width:1.00325036px;stroke-linecap:butt;stroke-linejoin:miter;stroke-opacity:1" />
      <path
         transform="matrix(2.1986463,0,0,2.906193,266.18936,440.81189)"
         d="m 55.558391,108.06591 a 12.626906,9.0913725 0 0 1 -12.626907,9.09137 12.626906,9.0913725 0 0 1 -12.626906,-9.09137 12.626906,9.0913725 0 0 1 12.626906,-9.091372 12.626906,9.0913725 0 0 1 12.626907,9.091372 z"
         sodipodi:ry="9.0913725"
         sodipodi:rx="12.626906"
         sodipodi:cy="108.06591"
         sodipodi:cx="42.931484"
         id="path5233-9"
         style="fill:#000000;fill-opacity:1;stroke:#000000;stroke-width:3.0999999;stroke-linejoin:miter;stroke-miterlimit:4;stroke-opacity:1;stroke-dasharray:none"
         sodipodi:type="arc" />
      <rect
         transform="matrix(-0.9999692,0.00784889,0.25766504,0.9662343,0,0)"
         y="788.73816"
         x="-175.83557"
         height="312.90118"
         width="14.622888"
         id="rect2842-5"
         style="fill:#000000;fill-rule:evenodd;stroke:#000000;stroke-width:1.00325036px;stroke-linecap:butt;stroke-linejoin:miter;stroke-opacity:1" />
      <path
         transform="translate(0,652.3622)"
         inkscape:connector-curvature="0"
         id="path3946"
         d="m 333.35034,149.48217 58.58885,36.36549 -74.75129,46.46702 98.99495,36.36549 -109.09648,34.34519 127.27923,48.48732 -163.64472,32.32488 177.78685,0 0,0"
         style="fill:none;stroke:#000000;stroke-width:9.5;stroke-linecap:butt;stroke-linejoin:miter;stroke-miterlimit:4;stroke-opacity:1;stroke-dasharray:none" />
    </g>
    <text
       xml:space="preserve"
       style="font-style:normal;font-weight:normal;font-size:40px;line-height:1.25;font-family:sans-serif;letter-spacing:0px;word-spacing:0px;fill:#000000;fill-opacity:1;stroke:none"
       x="259.16248"
       y="1043.814"
       id="text55"><tspan
         sodipodi:role="line"
         id="tspan53"
         x="259.16248"
         y="1043.814">LOCAL</tspan></text>
  </g>
</svg>
