<?xml version="1.0" encoding="UTF-8" standalone="no"?>
<!-- Created with Inkscape (http://www.inkscape.org/) -->

<svg
   xmlns:dc="http://purl.org/dc/elements/1.1/"
   xmlns:cc="http://creativecommons.org/ns#"
   xmlns:rdf="http://www.w3.org/1999/02/22-rdf-syntax-ns#"
   xmlns:svg="http://www.w3.org/2000/svg"
   xmlns="http://www.w3.org/2000/svg"
   xmlns:xlink="http://www.w3.org/1999/xlink"
   xmlns:sodipodi="http://sodipodi.sourceforge.net/DTD/sodipodi-0.dtd"
   xmlns:inkscape="http://www.inkscape.org/namespaces/inkscape"
   width="400"
   height="400"
   id="svg2"
   version="1.1"
   inkscape:version="0.48.1 r9760"
   sodipodi:docname="matrix_slice.svg"
   inkscape:export-filename="/home/lompolbx/workspace/src/ObjectRecognitionPlugins/icons/channel_split.png"
   inkscape:export-xdpi="9"
   inkscape:export-ydpi="9">
  <sodipodi:namedview
     id="base"
     pagecolor="#ffffff"
     bordercolor="#666666"
     borderopacity="1.0"
     inkscape:pageopacity="0.0"
     inkscape:pageshadow="2"
     inkscape:zoom="1.979899"
     inkscape:cx="326.68055"
     inkscape:cy="214.04394"
     inkscape:document-units="px"
     inkscape:current-layer="layer1"
     showgrid="false"
     inkscape:window-width="1920"
     inkscape:window-height="1005"
     inkscape:window-x="0"
     inkscape:window-y="25"
     inkscape:window-maximized="1"
     showguides="true"
     inkscape:guide-bbox="true" />
  <defs
     id="defs4">
    <linearGradient
       id="linearGradient3740">
      <stop
         id="stop3742"
         offset="0"
         style="stop-color:#1a60ff;stop-opacity:1;" />
      <stop
         id="stop3744"
         offset="1"
         style="stop-color:#003abd;stop-opacity:1;" />
    </linearGradient>
    <linearGradient
       id="linearGradient3730">
      <stop
         style="stop-color:#1aff2a;stop-opacity:1;"
         offset="0"
         id="stop3732" />
      <stop
         style="stop-color:#00bd0d;stop-opacity:1;"
         offset="1"
         id="stop3734" />
    </linearGradient>
    <linearGradient
       id="linearGradient3718">
      <stop
         id="stop3720"
         offset="0"
         style="stop-color:#ff1a1a;stop-opacity:1;" />
      <stop
         id="stop3722"
         offset="1"
         style="stop-color:#bd0000;stop-opacity:1;" />
    </linearGradient>
    <marker
       inkscape:stockid="Arrow1Sstart"
       orient="auto"
       refY="0.0"
       refX="0.0"
       id="Arrow1Sstart"
       style="overflow:visible">
      <path
         id="path3903"
         d="M 0.0,0.0 L 5.0,-5.0 L -12.5,0.0 L 5.0,5.0 L 0.0,0.0 z "
         style="fill-rule:evenodd;stroke:#000000;stroke-width:1.0pt;marker-start:none"
         transform="scale(0.2) translate(6,0)" />
    </marker>
    <marker
       style="overflow:visible"
       id="TriangleOutS"
       refX="0.0"
       refY="0.0"
       orient="auto"
       inkscape:stockid="TriangleOutS">
      <path
         transform="scale(0.2)"
         style="fill-rule:evenodd;stroke:#000000;stroke-width:1.0pt;marker-start:none"
         d="M 5.77,0.0 L -2.88,5.0 L -2.88,-5.0 L 5.77,0.0 z "
         id="path3799" />
    </marker>
    <marker
       style="overflow:visible"
       id="TriangleInS"
       refX="0.0"
       refY="0.0"
       orient="auto"
       inkscape:stockid="TriangleInS">
      <path
         transform="scale(-0.2)"
         style="fill-rule:evenodd;stroke:#000000;stroke-width:1.0pt;marker-start:none"
         d="M 5.77,0.0 L -2.88,5.0 L -2.88,-5.0 L 5.77,0.0 z "
         id="path3790" />
    </marker>
    <marker
       inkscape:stockid="Arrow1Lstart"
       orient="auto"
       refY="0.0"
       refX="0.0"
       id="Arrow1Lstart"
       style="overflow:visible">
      <path
         id="path3650"
         d="M 0.0,0.0 L 5.0,-5.0 L -12.5,0.0 L 5.0,5.0 L 0.0,0.0 z "
         style="fill-rule:evenodd;stroke:#000000;stroke-width:1.0pt;marker-start:none"
         transform="scale(0.8) translate(12.5,0)" />
    </marker>
    <marker
       inkscape:stockid="Arrow1Send"
       orient="auto"
       refY="0.0"
       refX="0.0"
       id="Arrow1Send"
       style="overflow:visible;">
      <path
         id="path4396"
         d="M 0.0,0.0 L 5.0,-5.0 L -12.5,0.0 L 5.0,5.0 L 0.0,0.0 z "
         style="fill-rule:evenodd;stroke:#000000;stroke-width:1.0pt;marker-start:none;"
         transform="scale(0.2) rotate(180) translate(6,0)" />
    </marker>
    <marker
       inkscape:stockid="Arrow2Send"
       orient="auto"
       refY="0.0"
       refX="0.0"
       id="Arrow2Send"
       style="overflow:visible;">
      <path
         id="path3644"
         style="font-size:12.0;fill-rule:evenodd;stroke-width:0.62500000;stroke-linejoin:round;"
         d="M 8.7185878,4.0337352 L -2.2072895,0.016013256 L 8.7185884,-4.0017078 C 6.9730900,-1.6296469 6.9831476,1.6157441 8.7185878,4.0337352 z "
         transform="scale(0.3) rotate(180) translate(-2.3,0)" />
    </marker>
    <marker
       inkscape:stockid="Arrow2Mend"
       orient="auto"
       refY="0.0"
       refX="0.0"
       id="Arrow2Mend"
       style="overflow:visible;">
      <path
         id="path3638"
         style="font-size:12.0;fill-rule:evenodd;stroke-width:0.62500000;stroke-linejoin:round;"
         d="M 8.7185878,4.0337352 L -2.2072895,0.016013256 L 8.7185884,-4.0017078 C 6.9730900,-1.6296469 6.9831476,1.6157441 8.7185878,4.0337352 z "
         transform="scale(0.6) rotate(180) translate(0,0)" />
    </marker>
    <marker
       inkscape:stockid="Arrow1Lend"
       orient="auto"
       refY="0.0"
       refX="0.0"
       id="Arrow1Lend"
       style="overflow:visible;">
      <path
         id="path3614"
         d="M 0.0,0.0 L 5.0,-5.0 L -12.5,0.0 L 5.0,5.0 L 0.0,0.0 z "
         style="fill-rule:evenodd;stroke:#000000;stroke-width:1.0pt;marker-start:none;"
         transform="scale(0.8) rotate(180) translate(12.5,0)" />
    </marker>
    <linearGradient
       id="linearGradient3594">
      <stop
         style="stop-color:#8b8b8b;stop-opacity:1;"
         offset="0"
         id="stop3596" />
      <stop
         style="stop-color:#ffffff;stop-opacity:1;"
         offset="1"
         id="stop3598" />
    </linearGradient>
    <linearGradient
       id="linearGradient3619">
      <stop
         style="stop-color:#7e7e7e;stop-opacity:1;"
         offset="0"
         id="stop3621" />
      <stop
         style="stop-color:#ffffff;stop-opacity:1;"
         offset="1"
         id="stop3623" />
    </linearGradient>
    <inkscape:perspective
       sodipodi:type="inkscape:persp3d"
       inkscape:vp_x="0 : 526.18109 : 1"
       inkscape:vp_y="0 : 1000 : 0"
       inkscape:vp_z="744.09448 : 526.18109 : 1"
       inkscape:persp3d-origin="372.04724 : 350.78739 : 1"
       id="perspective10" />
    <radialGradient
       inkscape:collect="always"
       xlink:href="#linearGradient3619"
       id="radialGradient3625"
       cx="200.73691"
       cy="978.99298"
       fx="200.73691"
       fy="978.99298"
       r="73.451585"
       gradientTransform="matrix(1.2356686,-0.80521527,1.6978973,2.6055623,-1634.6325,-1339.7914)"
       gradientUnits="userSpaceOnUse" />
    <radialGradient
       inkscape:collect="always"
       xlink:href="#linearGradient3619"
       id="radialGradient3631"
       gradientUnits="userSpaceOnUse"
       gradientTransform="matrix(1.2356686,-0.80521527,1.6978973,2.6055623,-1634.6325,-1339.7914)"
       cx="200.73691"
       cy="978.99298"
       fx="200.73691"
       fy="978.99298"
       r="73.451585" />
    <marker
       inkscape:stockid="Arrow1Lstarto"
       orient="auto"
       refY="0.0"
       refX="0.0"
       id="Arrow1Lstarto"
       style="overflow:visible">
      <path
         id="path4701"
         d="M 0.0,0.0 L 5.0,-5.0 L -12.5,0.0 L 5.0,5.0 L 0.0,0.0 z "
         style="marker-start:none;stroke:#c30000;stroke-width:1.0pt;fill:#c30000;fill-rule:evenodd"
         transform="scale(0.8) translate(12.5,0)" />
    </marker>
    <marker
       inkscape:stockid="Arrow1LendU"
       orient="auto"
       refY="0.0"
       refX="0.0"
       id="Arrow1LendU"
       style="overflow:visible;">
      <path
         id="path4704"
         d="M 0.0,0.0 L 5.0,-5.0 L -12.5,0.0 L 5.0,5.0 L 0.0,0.0 z "
         style="marker-start:none;stroke:#c30000;stroke-width:1.0pt;fill:#c30000;fill-rule:evenodd"
         transform="scale(0.8) rotate(180) translate(12.5,0)" />
    </marker>
    <marker
       style="overflow:visible"
       id="TriangleOutS1"
       refX="0.0"
       refY="0.0"
       orient="auto"
       inkscape:stockid="TriangleOutS1">
      <path
         transform="scale(0.2)"
         style="marker-start:none;stroke:#9f9f9f;stroke-width:1.0pt;fill:#9f9f9f;fill-rule:evenodd"
         d="M 5.77,0.0 L -2.88,5.0 L -2.88,-5.0 L 5.77,0.0 z "
         id="path5583" />
    </marker>
    <marker
       inkscape:stockid="Arrow1Sstartn"
       orient="auto"
       refY="0.0"
       refX="0.0"
       id="Arrow1Sstartn"
       style="overflow:visible">
      <path
         id="path4595"
         d="M 0.0,0.0 L 5.0,-5.0 L -12.5,0.0 L 5.0,5.0 L 0.0,0.0 z "
         style="marker-start:none;stroke:#c30000;stroke-width:1.0pt;fill:#c30000;fill-rule:evenodd"
         transform="scale(0.2) translate(6,0)" />
    </marker>
    <marker
       inkscape:stockid="Arrow1SendF"
       orient="auto"
       refY="0.0"
       refX="0.0"
       id="Arrow1SendF"
       style="overflow:visible;">
      <path
         id="path4598"
         d="M 0.0,0.0 L 5.0,-5.0 L -12.5,0.0 L 5.0,5.0 L 0.0,0.0 z "
         style="marker-start:none;stroke:#c30000;stroke-width:1.0pt;fill:#c30000;fill-rule:evenodd"
         transform="scale(0.2) rotate(180) translate(6,0)" />
    </marker>
    <marker
       inkscape:stockid="Arrow1Sstartk"
       orient="auto"
       refY="0.0"
       refX="0.0"
       id="Arrow1Sstartk"
       style="overflow:visible">
      <path
         id="path4601"
         d="M 0.0,0.0 L 5.0,-5.0 L -12.5,0.0 L 5.0,5.0 L 0.0,0.0 z "
         style="marker-start:none;stroke:#c30000;stroke-width:1.0pt;fill:#c30000;fill-rule:evenodd"
         transform="scale(0.2) translate(6,0)" />
    </marker>
    <marker
       inkscape:stockid="Arrow1Send7"
       orient="auto"
       refY="0.0"
       refX="0.0"
       id="Arrow1Send7"
       style="overflow:visible;">
      <path
         id="path4604"
         d="M 0.0,0.0 L 5.0,-5.0 L -12.5,0.0 L 5.0,5.0 L 0.0,0.0 z "
         style="marker-start:none;stroke:#c30000;stroke-width:1.0pt;fill:#c30000;fill-rule:evenodd"
         transform="scale(0.2) rotate(180) translate(6,0)" />
    </marker>
    <radialGradient
       gradientTransform="matrix(-1.0000844,5.1706418e-7,-6.0332434e-7,-1.1686622,674.62816,1702.5854)"
       gradientUnits="userSpaceOnUse"
       r="55"
       fy="819.65601"
       fx="179.64285"
       cy="819.65601"
       cx="179.64285"
       id="radialGradient3724"
       xlink:href="#linearGradient3718"
       inkscape:collect="always" />
    <radialGradient
       r="55"
       fy="819.65601"
       fx="179.64285"
       cy="819.65601"
       cx="179.64285"
       gradientTransform="matrix(-1.0000844,5.1706418e-7,-6.0332434e-7,-1.1686622,774.62816,1702.5854)"
       gradientUnits="userSpaceOnUse"
       id="radialGradient3728"
       xlink:href="#linearGradient3730"
       inkscape:collect="always" />
    <radialGradient
       r="55"
       fy="819.65601"
       fx="179.64285"
       cy="819.65601"
       cx="179.64285"
       gradientTransform="matrix(-1.0000844,5.1706418e-7,-6.0332434e-7,-1.1686622,874.62816,1702.5854)"
       gradientUnits="userSpaceOnUse"
       id="radialGradient3738"
       xlink:href="#linearGradient3740"
       inkscape:collect="always" />
    <radialGradient
       r="55"
       fy="819.65601"
       fx="179.64285"
       cy="819.65601"
       cx="179.64285"
       gradientTransform="matrix(-1.0000844,5.1706418e-7,-6.0332434e-7,-1.1686622,634.62816,1922.5854)"
       gradientUnits="userSpaceOnUse"
       id="radialGradient3752"
       xlink:href="#linearGradient3718"
       inkscape:collect="always" />
    <radialGradient
       r="55"
       fy="819.65601"
       fx="179.64285"
       cy="819.65601"
       cx="179.64285"
       gradientTransform="matrix(-1.0000844,5.1706418e-7,-6.0332434e-7,-1.1686622,774.62816,1922.5854)"
       gradientUnits="userSpaceOnUse"
       id="radialGradient3754"
       xlink:href="#linearGradient3730"
       inkscape:collect="always" />
    <radialGradient
       r="55"
       fy="819.65601"
       fx="179.64285"
       cy="819.65601"
       cx="179.64285"
       gradientTransform="matrix(-1.0000844,5.1706418e-7,-6.0332434e-7,-1.1686622,914.62816,1922.5854)"
       gradientUnits="userSpaceOnUse"
       id="radialGradient3756"
       xlink:href="#linearGradient3740"
       inkscape:collect="always" />
    <marker
       style="overflow:visible"
       id="TriangleOutSh"
       refX="0.0"
       refY="0.0"
       orient="auto"
       inkscape:stockid="TriangleOutSh">
      <path
         transform="scale(0.2)"
         style="marker-start:none;stroke:#aeaeae;stroke-width:1.0pt;fill:#aeaeae;fill-rule:evenodd"
         d="M 5.77,0.0 L -2.88,5.0 L -2.88,-5.0 L 5.77,0.0 z "
         id="path4355" />
    </marker>
  </defs>
  <metadata
     id="metadata7">
    <rdf:RDF>
      <cc:Work
         rdf:about="">
        <dc:format>image/svg+xml</dc:format>
        <dc:type
           rdf:resource="http://purl.org/dc/dcmitype/StillImage" />
        <dc:title />
      </cc:Work>
    </rdf:RDF>
  </metadata>
  <g
     inkscape:label="Layer 1"
     inkscape:groupmode="layer"
     id="layer1"
     transform="translate(0,-652.3622)">
    <rect
       y="679.93579"
       x="33.134529"
       height="176.77156"
       width="280.81729"
       id="rect2880"
       style="fill:none;stroke:#000000;stroke-width:10;stroke-linecap:round;stroke-linejoin:round;stroke-miterlimit:4;stroke-opacity:1;stroke-dasharray:none;stroke-dashoffset:0" />
    <g
       transform="translate(-19.329945,-78.936503)"
       id="g3977">
      <path
         sodipodi:type="arc"
         style="color:#000000;fill:#000000;fill-opacity:1;stroke:#000000;stroke-width:10;stroke-linecap:round;stroke-linejoin:round;stroke-miterlimit:4;stroke-opacity:1;stroke-dasharray:none;stroke-dashoffset:0;marker:none;visibility:visible;display:inline;overflow:visible;enable-background:accumulate"
         id="path3929"
         sodipodi:cx="91.418808"
         sodipodi:cy="159.58369"
         sodipodi:rx="11.111678"
         sodipodi:ry="11.111678"
         d="m 102.53049,159.58369 c 0,6.13681 -4.974872,11.11168 -11.111682,11.11168 -6.13681,0 -11.111678,-4.97487 -11.111678,-11.11168 0,-6.13681 4.974868,-11.11167 11.111678,-11.11167 6.13681,0 11.111682,4.97486 11.111682,11.11167 z"
         transform="translate(-12.545686,627.67438)" />
      <path
         transform="translate(33.054312,627.67438)"
         d="m 102.53049,159.58369 c 0,6.13681 -4.974872,11.11168 -11.111682,11.11168 -6.13681,0 -11.111678,-4.97487 -11.111678,-11.11168 0,-6.13681 4.974868,-11.11167 11.111678,-11.11167 6.13681,0 11.111682,4.97486 11.111682,11.11167 z"
         sodipodi:ry="11.111678"
         sodipodi:rx="11.111678"
         sodipodi:cy="159.58369"
         sodipodi:cx="91.418808"
         id="path3931"
         style="color:#000000;fill:#000000;fill-opacity:1;stroke:#000000;stroke-width:10;stroke-linecap:round;stroke-linejoin:round;stroke-miterlimit:4;stroke-opacity:1;stroke-dasharray:none;stroke-dashoffset:0;marker:none;visibility:visible;display:inline;overflow:visible;enable-background:accumulate"
         sodipodi:type="arc" />
      <path
         sodipodi:type="arc"
         style="color:#000000;fill:#000000;fill-opacity:1;stroke:#000000;stroke-width:10;stroke-linecap:round;stroke-linejoin:round;stroke-miterlimit:4;stroke-opacity:1;stroke-dasharray:none;stroke-dashoffset:0;marker:none;visibility:visible;display:inline;overflow:visible;enable-background:accumulate"
         id="path3933"
         sodipodi:cx="91.418808"
         sodipodi:cy="159.58369"
         sodipodi:rx="11.111678"
         sodipodi:ry="11.111678"
         d="m 102.53049,159.58369 c 0,6.13681 -4.974872,11.11168 -11.111682,11.11168 -6.13681,0 -11.111678,-4.97487 -11.111678,-11.11168 0,-6.13681 4.974868,-11.11167 11.111678,-11.11167 6.13681,0 11.111682,4.97486 11.111682,11.11167 z"
         transform="translate(78.654311,627.67438)" />
      <path
         transform="translate(124.2543,627.67438)"
         d="m 102.53049,159.58369 c 0,6.13681 -4.974872,11.11168 -11.111682,11.11168 -6.13681,0 -11.111678,-4.97487 -11.111678,-11.11168 0,-6.13681 4.974868,-11.11167 11.111678,-11.11167 6.13681,0 11.111682,4.97486 11.111682,11.11167 z"
         sodipodi:ry="11.111678"
         sodipodi:rx="11.111678"
         sodipodi:cy="159.58369"
         sodipodi:cx="91.418808"
         id="path3935"
         style="color:#000000;fill:#000000;fill-opacity:1;stroke:#000000;stroke-width:10;stroke-linecap:round;stroke-linejoin:round;stroke-miterlimit:4;stroke-opacity:1;stroke-dasharray:none;stroke-dashoffset:0;marker:none;visibility:visible;display:inline;overflow:visible;enable-background:accumulate"
         sodipodi:type="arc" />
      <path
         sodipodi:type="arc"
         style="color:#000000;fill:#000000;fill-opacity:1;stroke:#000000;stroke-width:10;stroke-linecap:round;stroke-linejoin:round;stroke-miterlimit:4;stroke-opacity:1;stroke-dasharray:none;stroke-dashoffset:0;marker:none;visibility:visible;display:inline;overflow:visible;enable-background:accumulate"
         id="path3937"
         sodipodi:cx="91.418808"
         sodipodi:cy="159.58369"
         sodipodi:rx="11.111678"
         sodipodi:ry="11.111678"
         d="m 102.53049,159.58369 c 0,6.13681 -4.974872,11.11168 -11.111682,11.11168 -6.13681,0 -11.111678,-4.97487 -11.111678,-11.11168 0,-6.13681 4.974868,-11.11167 11.111678,-11.11167 6.13681,0 11.111682,4.97486 11.111682,11.11167 z"
         transform="translate(169.85432,627.67438)" />
      <path
         transform="translate(215.45431,627.67438)"
         d="m 102.53049,159.58369 c 0,6.13681 -4.974872,11.11168 -11.111682,11.11168 -6.13681,0 -11.111678,-4.97487 -11.111678,-11.11168 0,-6.13681 4.974868,-11.11167 11.111678,-11.11167 6.13681,0 11.111682,4.97486 11.111682,11.11167 z"
         sodipodi:ry="11.111678"
         sodipodi:rx="11.111678"
         sodipodi:cy="159.58369"
         sodipodi:cx="91.418808"
         id="path3939"
         style="color:#000000;fill:#000000;fill-opacity:1;stroke:#000000;stroke-width:10;stroke-linecap:round;stroke-linejoin:round;stroke-miterlimit:4;stroke-opacity:1;stroke-dasharray:none;stroke-dashoffset:0;marker:none;visibility:visible;display:inline;overflow:visible;enable-background:accumulate"
         sodipodi:type="arc" />
      <path
         transform="translate(-12.545686,667.67438)"
         d="m 102.53049,159.58369 c 0,6.13681 -4.974872,11.11168 -11.111682,11.11168 -6.13681,0 -11.111678,-4.97487 -11.111678,-11.11168 0,-6.13681 4.974868,-11.11167 11.111678,-11.11167 6.13681,0 11.111682,4.97486 11.111682,11.11167 z"
         sodipodi:ry="11.111678"
         sodipodi:rx="11.111678"
         sodipodi:cy="159.58369"
         sodipodi:cx="91.418808"
         id="path3941"
         style="color:#000000;fill:#000000;fill-opacity:1;stroke:#000000;stroke-width:10;stroke-linecap:round;stroke-linejoin:round;stroke-miterlimit:4;stroke-opacity:1;stroke-dasharray:none;stroke-dashoffset:0;marker:none;visibility:visible;display:inline;overflow:visible;enable-background:accumulate"
         sodipodi:type="arc" />
      <path
         sodipodi:type="arc"
         style="color:#000000;fill:#000000;fill-opacity:1;stroke:#000000;stroke-width:10;stroke-linecap:round;stroke-linejoin:round;stroke-miterlimit:4;stroke-opacity:1;stroke-dasharray:none;stroke-dashoffset:0;marker:none;visibility:visible;display:inline;overflow:visible;enable-background:accumulate"
         id="path3943"
         sodipodi:cx="91.418808"
         sodipodi:cy="159.58369"
         sodipodi:rx="11.111678"
         sodipodi:ry="11.111678"
         d="m 102.53049,159.58369 c 0,6.13681 -4.974872,11.11168 -11.111682,11.11168 -6.13681,0 -11.111678,-4.97487 -11.111678,-11.11168 0,-6.13681 4.974868,-11.11167 11.111678,-11.11167 6.13681,0 11.111682,4.97486 11.111682,11.11167 z"
         transform="translate(33.054312,667.67438)" />
      <path
         transform="translate(78.654311,667.67438)"
         d="m 102.53049,159.58369 c 0,6.13681 -4.974872,11.11168 -11.111682,11.11168 -6.13681,0 -11.111678,-4.97487 -11.111678,-11.11168 0,-6.13681 4.974868,-11.11167 11.111678,-11.11167 6.13681,0 11.111682,4.97486 11.111682,11.11167 z"
         sodipodi:ry="11.111678"
         sodipodi:rx="11.111678"
         sodipodi:cy="159.58369"
         sodipodi:cx="91.418808"
         id="path3945"
         style="color:#000000;fill:#000000;fill-opacity:1;stroke:#000000;stroke-width:10;stroke-linecap:round;stroke-linejoin:round;stroke-miterlimit:4;stroke-opacity:1;stroke-dasharray:none;stroke-dashoffset:0;marker:none;visibility:visible;display:inline;overflow:visible;enable-background:accumulate"
         sodipodi:type="arc" />
      <path
         sodipodi:type="arc"
         style="color:#000000;fill:#ff0000;fill-opacity:1;stroke:#ff0000;stroke-width:10;stroke-linecap:round;stroke-linejoin:round;stroke-miterlimit:4;stroke-opacity:1;stroke-dasharray:none;stroke-dashoffset:0;marker:none;visibility:visible;display:inline;overflow:visible;enable-background:accumulate"
         id="path3947"
         sodipodi:cx="91.418808"
         sodipodi:cy="159.58369"
         sodipodi:rx="11.111678"
         sodipodi:ry="11.111678"
         d="m 102.53049,159.58369 c 0,6.13681 -4.974872,11.11168 -11.111682,11.11168 -6.13681,0 -11.111678,-4.97487 -11.111678,-11.11168 0,-6.13681 4.974868,-11.11167 11.111678,-11.11167 6.13681,0 11.111682,4.97486 11.111682,11.11167 z"
         transform="translate(124.2543,667.67438)" />
      <path
         transform="translate(169.85432,667.67438)"
         d="m 102.53049,159.58369 c 0,6.13681 -4.974872,11.11168 -11.111682,11.11168 -6.13681,0 -11.111678,-4.97487 -11.111678,-11.11168 0,-6.13681 4.974868,-11.11167 11.111678,-11.11167 6.13681,0 11.111682,4.97486 11.111682,11.11167 z"
         sodipodi:ry="11.111678"
         sodipodi:rx="11.111678"
         sodipodi:cy="159.58369"
         sodipodi:cx="91.418808"
         id="path3949"
         style="color:#000000;fill:#ff0000;fill-opacity:1;stroke:#ff0000;stroke-width:10;stroke-linecap:round;stroke-linejoin:round;stroke-miterlimit:4;stroke-opacity:1;stroke-dasharray:none;stroke-dashoffset:0;marker:none;visibility:visible;display:inline;overflow:visible;enable-background:accumulate"
         sodipodi:type="arc" />
      <path
         sodipodi:type="arc"
         style="color:#000000;fill:#000000;fill-opacity:1;stroke:#000000;stroke-width:10;stroke-linecap:round;stroke-linejoin:round;stroke-miterlimit:4;stroke-opacity:1;stroke-dasharray:none;stroke-dashoffset:0;marker:none;visibility:visible;display:inline;overflow:visible;enable-background:accumulate"
         id="path3951"
         sodipodi:cx="91.418808"
         sodipodi:cy="159.58369"
         sodipodi:rx="11.111678"
         sodipodi:ry="11.111678"
         d="m 102.53049,159.58369 c 0,6.13681 -4.974872,11.11168 -11.111682,11.11168 -6.13681,0 -11.111678,-4.97487 -11.111678,-11.11168 0,-6.13681 4.974868,-11.11167 11.111678,-11.11167 6.13681,0 11.111682,4.97486 11.111682,11.11167 z"
         transform="translate(215.45431,667.67438)" />
      <path
         sodipodi:type="arc"
         style="color:#000000;fill:#000000;fill-opacity:1;stroke:#000000;stroke-width:10;stroke-linecap:round;stroke-linejoin:round;stroke-miterlimit:4;stroke-opacity:1;stroke-dasharray:none;stroke-dashoffset:0;marker:none;visibility:visible;display:inline;overflow:visible;enable-background:accumulate"
         id="path3953"
         sodipodi:cx="91.418808"
         sodipodi:cy="159.58369"
         sodipodi:rx="11.111678"
         sodipodi:ry="11.111678"
         d="m 102.53049,159.58369 c 0,6.13681 -4.974872,11.11168 -11.111682,11.11168 -6.13681,0 -11.111678,-4.97487 -11.111678,-11.11168 0,-6.13681 4.974868,-11.11167 11.111678,-11.11167 6.13681,0 11.111682,4.97486 11.111682,11.11167 z"
         transform="translate(-12.545686,707.67438)" />
      <path
         transform="translate(33.054312,707.67438)"
         d="m 102.53049,159.58369 c 0,6.13681 -4.974872,11.11168 -11.111682,11.11168 -6.13681,0 -11.111678,-4.97487 -11.111678,-11.11168 0,-6.13681 4.974868,-11.11167 11.111678,-11.11167 6.13681,0 11.111682,4.97486 11.111682,11.11167 z"
         sodipodi:ry="11.111678"
         sodipodi:rx="11.111678"
         sodipodi:cy="159.58369"
         sodipodi:cx="91.418808"
         id="path3955"
         style="color:#000000;fill:#000000;fill-opacity:1;stroke:#000000;stroke-width:10;stroke-linecap:round;stroke-linejoin:round;stroke-miterlimit:4;stroke-opacity:1;stroke-dasharray:none;stroke-dashoffset:0;marker:none;visibility:visible;display:inline;overflow:visible;enable-background:accumulate"
         sodipodi:type="arc" />
      <path
         sodipodi:type="arc"
         style="color:#000000;fill:#000000;fill-opacity:1;stroke:#000000;stroke-width:10;stroke-linecap:round;stroke-linejoin:round;stroke-miterlimit:4;stroke-opacity:1;stroke-dasharray:none;stroke-dashoffset:0;marker:none;visibility:visible;display:inline;overflow:visible;enable-background:accumulate"
         id="path3957"
         sodipodi:cx="91.418808"
         sodipodi:cy="159.58369"
         sodipodi:rx="11.111678"
         sodipodi:ry="11.111678"
         d="m 102.53049,159.58369 c 0,6.13681 -4.974872,11.11168 -11.111682,11.11168 -6.13681,0 -11.111678,-4.97487 -11.111678,-11.11168 0,-6.13681 4.974868,-11.11167 11.111678,-11.11167 6.13681,0 11.111682,4.97486 11.111682,11.11167 z"
         transform="translate(78.654311,707.67438)" />
      <path
         transform="translate(124.2543,707.67438)"
         d="m 102.53049,159.58369 c 0,6.13681 -4.974872,11.11168 -11.111682,11.11168 -6.13681,0 -11.111678,-4.97487 -11.111678,-11.11168 0,-6.13681 4.974868,-11.11167 11.111678,-11.11167 6.13681,0 11.111682,4.97486 11.111682,11.11167 z"
         sodipodi:ry="11.111678"
         sodipodi:rx="11.111678"
         sodipodi:cy="159.58369"
         sodipodi:cx="91.418808"
         id="path3959"
         style="color:#000000;fill:#ff0000;fill-opacity:1;stroke:#ff0000;stroke-width:10;stroke-linecap:round;stroke-linejoin:round;stroke-miterlimit:4;stroke-opacity:1;stroke-dasharray:none;stroke-dashoffset:0;marker:none;visibility:visible;display:inline;overflow:visible;enable-background:accumulate"
         sodipodi:type="arc" />
      <path
         sodipodi:type="arc"
         style="color:#000000;fill:#ff0000;fill-opacity:1;stroke:#ff0000;stroke-width:10;stroke-linecap:round;stroke-linejoin:round;stroke-miterlimit:4;stroke-opacity:1;stroke-dasharray:none;stroke-dashoffset:0;marker:none;visibility:visible;display:inline;overflow:visible;enable-background:accumulate"
         id="path3961"
         sodipodi:cx="91.418808"
         sodipodi:cy="159.58369"
         sodipodi:rx="11.111678"
         sodipodi:ry="11.111678"
         d="m 102.53049,159.58369 c 0,6.13681 -4.974872,11.11168 -11.111682,11.11168 -6.13681,0 -11.111678,-4.97487 -11.111678,-11.11168 0,-6.13681 4.974868,-11.11167 11.111678,-11.11167 6.13681,0 11.111682,4.97486 11.111682,11.11167 z"
         transform="translate(169.85432,707.67438)" />
      <path
         transform="translate(215.45431,707.67438)"
         d="m 102.53049,159.58369 c 0,6.13681 -4.974872,11.11168 -11.111682,11.11168 -6.13681,0 -11.111678,-4.97487 -11.111678,-11.11168 0,-6.13681 4.974868,-11.11167 11.111678,-11.11167 6.13681,0 11.111682,4.97486 11.111682,11.11167 z"
         sodipodi:ry="11.111678"
         sodipodi:rx="11.111678"
         sodipodi:cy="159.58369"
         sodipodi:cx="91.418808"
         id="path3963"
         style="color:#000000;fill:#000000;fill-opacity:1;stroke:#000000;stroke-width:10;stroke-linecap:round;stroke-linejoin:round;stroke-miterlimit:4;stroke-opacity:1;stroke-dasharray:none;stroke-dashoffset:0;marker:none;visibility:visible;display:inline;overflow:visible;enable-background:accumulate"
         sodipodi:type="arc" />
      <path
         transform="translate(-12.545686,747.67438)"
         d="m 102.53049,159.58369 c 0,6.13681 -4.974872,11.11168 -11.111682,11.11168 -6.13681,0 -11.111678,-4.97487 -11.111678,-11.11168 0,-6.13681 4.974868,-11.11167 11.111678,-11.11167 6.13681,0 11.111682,4.97486 11.111682,11.11167 z"
         sodipodi:ry="11.111678"
         sodipodi:rx="11.111678"
         sodipodi:cy="159.58369"
         sodipodi:cx="91.418808"
         id="path3965"
         style="color:#000000;fill:#000000;fill-opacity:1;stroke:#000000;stroke-width:10;stroke-linecap:round;stroke-linejoin:round;stroke-miterlimit:4;stroke-opacity:1;stroke-dasharray:none;stroke-dashoffset:0;marker:none;visibility:visible;display:inline;overflow:visible;enable-background:accumulate"
         sodipodi:type="arc" />
      <path
         sodipodi:type="arc"
         style="color:#000000;fill:#000000;fill-opacity:1;stroke:#000000;stroke-width:10;stroke-linecap:round;stroke-linejoin:round;stroke-miterlimit:4;stroke-opacity:1;stroke-dasharray:none;stroke-dashoffset:0;marker:none;visibility:visible;display:inline;overflow:visible;enable-background:accumulate"
         id="path3967"
         sodipodi:cx="91.418808"
         sodipodi:cy="159.58369"
         sodipodi:rx="11.111678"
         sodipodi:ry="11.111678"
         d="m 102.53049,159.58369 c 0,6.13681 -4.974872,11.11168 -11.111682,11.11168 -6.13681,0 -11.111678,-4.97487 -11.111678,-11.11168 0,-6.13681 4.974868,-11.11167 11.111678,-11.11167 6.13681,0 11.111682,4.97486 11.111682,11.11167 z"
         transform="translate(33.054312,747.67438)" />
      <path
         transform="translate(78.654311,747.67438)"
         d="m 102.53049,159.58369 c 0,6.13681 -4.974872,11.11168 -11.111682,11.11168 -6.13681,0 -11.111678,-4.97487 -11.111678,-11.11168 0,-6.13681 4.974868,-11.11167 11.111678,-11.11167 6.13681,0 11.111682,4.97486 11.111682,11.11167 z"
         sodipodi:ry="11.111678"
         sodipodi:rx="11.111678"
         sodipodi:cy="159.58369"
         sodipodi:cx="91.418808"
         id="path3969"
         style="color:#000000;fill:#000000;fill-opacity:1;stroke:#000000;stroke-width:10;stroke-linecap:round;stroke-linejoin:round;stroke-miterlimit:4;stroke-opacity:1;stroke-dasharray:none;stroke-dashoffset:0;marker:none;visibility:visible;display:inline;overflow:visible;enable-background:accumulate"
         sodipodi:type="arc" />
      <path
         sodipodi:type="arc"
         style="color:#000000;fill:#000000;fill-opacity:1;stroke:#000000;stroke-width:10;stroke-linecap:round;stroke-linejoin:round;stroke-miterlimit:4;stroke-opacity:1;stroke-dasharray:none;stroke-dashoffset:0;marker:none;visibility:visible;display:inline;overflow:visible;enable-background:accumulate"
         id="path3971"
         sodipodi:cx="91.418808"
         sodipodi:cy="159.58369"
         sodipodi:rx="11.111678"
         sodipodi:ry="11.111678"
         d="m 102.53049,159.58369 c 0,6.13681 -4.974872,11.11168 -11.111682,11.11168 -6.13681,0 -11.111678,-4.97487 -11.111678,-11.11168 0,-6.13681 4.974868,-11.11167 11.111678,-11.11167 6.13681,0 11.111682,4.97486 11.111682,11.11167 z"
         transform="translate(124.2543,747.67438)" />
      <path
         transform="translate(169.85432,747.67438)"
         d="m 102.53049,159.58369 c 0,6.13681 -4.974872,11.11168 -11.111682,11.11168 -6.13681,0 -11.111678,-4.97487 -11.111678,-11.11168 0,-6.13681 4.974868,-11.11167 11.111678,-11.11167 6.13681,0 11.111682,4.97486 11.111682,11.11167 z"
         sodipodi:ry="11.111678"
         sodipodi:rx="11.111678"
         sodipodi:cy="159.58369"
         sodipodi:cx="91.418808"
         id="path3973"
         style="color:#000000;fill:#000000;fill-opacity:1;stroke:#000000;stroke-width:10;stroke-linecap:round;stroke-linejoin:round;stroke-miterlimit:4;stroke-opacity:1;stroke-dasharray:none;stroke-dashoffset:0;marker:none;visibility:visible;display:inline;overflow:visible;enable-background:accumulate"
         sodipodi:type="arc" />
      <path
         sodipodi:type="arc"
         style="color:#000000;fill:#000000;fill-opacity:1;stroke:#000000;stroke-width:10;stroke-linecap:round;stroke-linejoin:round;stroke-miterlimit:4;stroke-opacity:1;stroke-dasharray:none;stroke-dashoffset:0;marker:none;visibility:visible;display:inline;overflow:visible;enable-background:accumulate"
         id="path3975"
         sodipodi:cx="91.418808"
         sodipodi:cy="159.58369"
         sodipodi:rx="11.111678"
         sodipodi:ry="11.111678"
         d="m 102.53049,159.58369 c 0,6.13681 -4.974872,11.11168 -11.111682,11.11168 -6.13681,0 -11.111678,-4.97487 -11.111678,-11.11168 0,-6.13681 4.974868,-11.11167 11.111678,-11.11167 6.13681,0 11.111682,4.97486 11.111682,11.11167 z"
         transform="translate(215.45431,747.67438)" />
    </g>
    <g
       transform="translate(-19.725924,40.216908)"
       id="g4077">
      <path
         transform="translate(169.85432,748.73788)"
         d="m 102.53049,159.58369 c 0,6.13681 -4.974872,11.11168 -11.111682,11.11168 -6.13681,0 -11.111678,-4.97487 -11.111678,-11.11168 0,-6.13681 4.974868,-11.11167 11.111678,-11.11167 6.13681,0 11.111682,4.97486 11.111682,11.11167 z"
         sodipodi:ry="11.111678"
         sodipodi:rx="11.111678"
         sodipodi:cy="159.58369"
         sodipodi:cx="91.418808"
         id="path4013"
         style="color:#000000;fill:#ff0000;fill-opacity:1;stroke:#ff0000;stroke-width:10;stroke-linecap:round;stroke-linejoin:round;stroke-miterlimit:4;stroke-opacity:1;stroke-dasharray:none;stroke-dashoffset:0;marker:none;visibility:visible;display:inline;overflow:visible;enable-background:accumulate"
         sodipodi:type="arc" />
      <path
         sodipodi:type="arc"
         style="color:#000000;fill:#ff0000;fill-opacity:1;stroke:#ff0000;stroke-width:10;stroke-linecap:round;stroke-linejoin:round;stroke-miterlimit:4;stroke-opacity:1;stroke-dasharray:none;stroke-dashoffset:0;marker:none;visibility:visible;display:inline;overflow:visible;enable-background:accumulate"
         id="path4015"
         sodipodi:cx="91.418808"
         sodipodi:cy="159.58369"
         sodipodi:rx="11.111678"
         sodipodi:ry="11.111678"
         d="m 102.53049,159.58369 c 0,6.13681 -4.974872,11.11168 -11.111682,11.11168 -6.13681,0 -11.111678,-4.97487 -11.111678,-11.11168 0,-6.13681 4.974868,-11.11167 11.111678,-11.11167 6.13681,0 11.111682,4.97486 11.111682,11.11167 z"
         transform="translate(215.45431,748.73788)" />
      <path
         sodipodi:type="arc"
         style="color:#000000;fill:#ff0000;fill-opacity:1;stroke:#ff0000;stroke-width:10;stroke-linecap:round;stroke-linejoin:round;stroke-miterlimit:4;stroke-opacity:1;stroke-dasharray:none;stroke-dashoffset:0;marker:none;visibility:visible;display:inline;overflow:visible;enable-background:accumulate"
         id="path4025"
         sodipodi:cx="91.418808"
         sodipodi:cy="159.58369"
         sodipodi:rx="11.111678"
         sodipodi:ry="11.111678"
         d="m 102.53049,159.58369 c 0,6.13681 -4.974872,11.11168 -11.111682,11.11168 -6.13681,0 -11.111678,-4.97487 -11.111678,-11.11168 0,-6.13681 4.974868,-11.11167 11.111678,-11.11167 6.13681,0 11.111682,4.97486 11.111682,11.11167 z"
         transform="translate(169.85432,788.73788)" />
      <path
         transform="translate(215.45431,788.73788)"
         d="m 102.53049,159.58369 c 0,6.13681 -4.974872,11.11168 -11.111682,11.11168 -6.13681,0 -11.111678,-4.97487 -11.111678,-11.11168 0,-6.13681 4.974868,-11.11167 11.111678,-11.11167 6.13681,0 11.111682,4.97486 11.111682,11.11167 z"
         sodipodi:ry="11.111678"
         sodipodi:rx="11.111678"
         sodipodi:cy="159.58369"
         sodipodi:cx="91.418808"
         id="path4027"
         style="color:#000000;fill:#ff0000;fill-opacity:1;stroke:#ff0000;stroke-width:10;stroke-linecap:round;stroke-linejoin:round;stroke-miterlimit:4;stroke-opacity:1;stroke-dasharray:none;stroke-dashoffset:0;marker:none;visibility:visible;display:inline;overflow:visible;enable-background:accumulate"
         sodipodi:type="arc" />
    </g>
    <rect
       style="fill:none;stroke:#000000;stroke-width:10;stroke-linecap:round;stroke-linejoin:round;stroke-miterlimit:4;stroke-opacity:1;stroke-dasharray:none;stroke-dashoffset:0"
       id="rect4083"
       width="99.20929"
       height="92.337585"
       x="214.74255"
       y="922.36969" />
    <g
       id="g4484">
      <path
         style="font-size:medium;font-style:normal;font-variant:normal;font-weight:normal;font-stretch:normal;text-indent:0;text-align:start;text-decoration:none;line-height:normal;letter-spacing:normal;word-spacing:normal;text-transform:none;direction:ltr;block-progression:tb;writing-mode:lr-tb;text-anchor:start;baseline-shift:baseline;color:#000000;fill:#aeaeae;fill-opacity:1;stroke:none;stroke-width:20;marker:none;visibility:visible;display:inline;overflow:visible;enable-background:accumulate;font-family:Sans;-inkscape-font-specification:Sans"
         d="m 221.71875,801.2997 a 10.001,10.001 0 0 0 -9.28125,13.875 l 30.8125,76.75 a 10.001,10.001 0 1 0 18.5625,-7.4375 L 231,807.70595 a 10.001,10.001 0 0 0 -9.28125,-6.40625 z"
         id="path4085"
         inkscape:connector-curvature="0" />
      <path
         id="path4490"
         d="m 261.13412,909.63192 -31.44764,-24.66184 37.12221,-14.89773 -5.67457,39.55957 z"
         style="fill:#aeaeae;fill-rule:evenodd;stroke:#aeaeae;stroke-width:0.2pt;marker-start:none"
         inkscape:connector-curvature="0" />
    </g>
  </g>
</svg>
