<?xml version="1.0" encoding="UTF-8" standalone="no"?>
<!-- Created with Inkscape (http://www.inkscape.org/) -->

<svg
   xmlns:dc="http://purl.org/dc/elements/1.1/"
   xmlns:cc="http://creativecommons.org/ns#"
   xmlns:rdf="http://www.w3.org/1999/02/22-rdf-syntax-ns#"
   xmlns:svg="http://www.w3.org/2000/svg"
   xmlns="http://www.w3.org/2000/svg"
   xmlns:xlink="http://www.w3.org/1999/xlink"
   xmlns:sodipodi="http://sodipodi.sourceforge.net/DTD/sodipodi-0.dtd"
   xmlns:inkscape="http://www.inkscape.org/namespaces/inkscape"
   width="400"
   height="400"
   id="svg2"
   version="1.1"
   inkscape:version="0.48.1 r9760"
   sodipodi:docname="remove_mean.svg"
   inkscape:export-filename="/home/lompolbx/workspace/src/ObjectRecognitionPlugins/icons/channel_split.png"
   inkscape:export-xdpi="9"
   inkscape:export-ydpi="9">
  <sodipodi:namedview
     id="base"
     pagecolor="#ffffff"
     bordercolor="#666666"
     borderopacity="1.0"
     inkscape:pageopacity="0.0"
     inkscape:pageshadow="2"
     inkscape:zoom="2.8"
     inkscape:cx="105.9188"
     inkscape:cy="227.00646"
     inkscape:document-units="px"
     inkscape:current-layer="layer1"
     showgrid="false"
     inkscape:window-width="1920"
     inkscape:window-height="1005"
     inkscape:window-x="0"
     inkscape:window-y="25"
     inkscape:window-maximized="1"
     showguides="true"
     inkscape:guide-bbox="true" />
  <defs
     id="defs4">
    <inkscape:path-effect
       effect="spiro"
       id="path-effect2885"
       is_visible="true" />
    <marker
       inkscape:stockid="TriangleOutM"
       orient="auto"
       refY="0.0"
       refX="0.0"
       id="TriangleOutM"
       style="overflow:visible">
      <path
         id="path3895"
         d="M 5.77,0.0 L -2.88,5.0 L -2.88,-5.0 L 5.77,0.0 z "
         style="fill-rule:evenodd;stroke:#000000;stroke-width:1.0pt;marker-start:none"
         transform="scale(0.4)" />
    </marker>
    <linearGradient
       id="linearGradient3740">
      <stop
         style="stop-color:#1a60ff;stop-opacity:1;"
         offset="0"
         id="stop3742" />
      <stop
         style="stop-color:#003abd;stop-opacity:1;"
         offset="1"
         id="stop3744" />
    </linearGradient>
    <linearGradient
       id="linearGradient3730">
      <stop
         id="stop3732"
         offset="0"
         style="stop-color:#1aff2a;stop-opacity:1;" />
      <stop
         id="stop3734"
         offset="1"
         style="stop-color:#00bd0d;stop-opacity:1;" />
    </linearGradient>
    <linearGradient
       id="linearGradient3718">
      <stop
         style="stop-color:#ff1a1a;stop-opacity:1;"
         offset="0"
         id="stop3720" />
      <stop
         style="stop-color:#bd0000;stop-opacity:1;"
         offset="1"
         id="stop3722" />
    </linearGradient>
    <marker
       style="overflow:visible"
       id="Arrow1Sstart"
       refX="0.0"
       refY="0.0"
       orient="auto"
       inkscape:stockid="Arrow1Sstart">
      <path
         transform="scale(0.2) translate(6,0)"
         style="fill-rule:evenodd;stroke:#000000;stroke-width:1.0pt;marker-start:none"
         d="M 0.0,0.0 L 5.0,-5.0 L -12.5,0.0 L 5.0,5.0 L 0.0,0.0 z "
         id="path3903" />
    </marker>
    <marker
       inkscape:stockid="TriangleOutS"
       orient="auto"
       refY="0.0"
       refX="0.0"
       id="TriangleOutS"
       style="overflow:visible">
      <path
         id="path3799"
         d="M 5.77,0.0 L -2.88,5.0 L -2.88,-5.0 L 5.77,0.0 z "
         style="fill-rule:evenodd;stroke:#000000;stroke-width:1.0pt;marker-start:none"
         transform="scale(0.2)" />
    </marker>
    <marker
       inkscape:stockid="TriangleInS"
       orient="auto"
       refY="0.0"
       refX="0.0"
       id="TriangleInS"
       style="overflow:visible">
      <path
         id="path3790"
         d="M 5.77,0.0 L -2.88,5.0 L -2.88,-5.0 L 5.77,0.0 z "
         style="fill-rule:evenodd;stroke:#000000;stroke-width:1.0pt;marker-start:none"
         transform="scale(-0.2)" />
    </marker>
    <marker
       style="overflow:visible"
       id="Arrow1Lstart"
       refX="0.0"
       refY="0.0"
       orient="auto"
       inkscape:stockid="Arrow1Lstart">
      <path
         transform="scale(0.8) translate(12.5,0)"
         style="fill-rule:evenodd;stroke:#000000;stroke-width:1.0pt;marker-start:none"
         d="M 0.0,0.0 L 5.0,-5.0 L -12.5,0.0 L 5.0,5.0 L 0.0,0.0 z "
         id="path3650" />
    </marker>
    <marker
       style="overflow:visible;"
       id="Arrow1Send"
       refX="0.0"
       refY="0.0"
       orient="auto"
       inkscape:stockid="Arrow1Send">
      <path
         transform="scale(0.2) rotate(180) translate(6,0)"
         style="fill-rule:evenodd;stroke:#000000;stroke-width:1.0pt;marker-start:none;"
         d="M 0.0,0.0 L 5.0,-5.0 L -12.5,0.0 L 5.0,5.0 L 0.0,0.0 z "
         id="path4396" />
    </marker>
    <marker
       style="overflow:visible;"
       id="Arrow2Send"
       refX="0.0"
       refY="0.0"
       orient="auto"
       inkscape:stockid="Arrow2Send">
      <path
         transform="scale(0.3) rotate(180) translate(-2.3,0)"
         d="M 8.7185878,4.0337352 L -2.2072895,0.016013256 L 8.7185884,-4.0017078 C 6.9730900,-1.6296469 6.9831476,1.6157441 8.7185878,4.0337352 z "
         style="font-size:12.0;fill-rule:evenodd;stroke-width:0.62500000;stroke-linejoin:round;"
         id="path3644" />
    </marker>
    <marker
       style="overflow:visible;"
       id="Arrow2Mend"
       refX="0.0"
       refY="0.0"
       orient="auto"
       inkscape:stockid="Arrow2Mend">
      <path
         transform="scale(0.6) rotate(180) translate(0,0)"
         d="M 8.7185878,4.0337352 L -2.2072895,0.016013256 L 8.7185884,-4.0017078 C 6.9730900,-1.6296469 6.9831476,1.6157441 8.7185878,4.0337352 z "
         style="font-size:12.0;fill-rule:evenodd;stroke-width:0.62500000;stroke-linejoin:round;"
         id="path3638" />
    </marker>
    <marker
       style="overflow:visible;"
       id="Arrow1Lend"
       refX="0.0"
       refY="0.0"
       orient="auto"
       inkscape:stockid="Arrow1Lend">
      <path
         transform="scale(0.8) rotate(180) translate(12.5,0)"
         style="fill-rule:evenodd;stroke:#000000;stroke-width:1.0pt;marker-start:none;"
         d="M 0.0,0.0 L 5.0,-5.0 L -12.5,0.0 L 5.0,5.0 L 0.0,0.0 z "
         id="path3614" />
    </marker>
    <linearGradient
       id="linearGradient3594">
      <stop
         id="stop3596"
         offset="0"
         style="stop-color:#8b8b8b;stop-opacity:1;" />
      <stop
         id="stop3598"
         offset="1"
         style="stop-color:#ffffff;stop-opacity:1;" />
    </linearGradient>
    <linearGradient
       id="linearGradient3619">
      <stop
         id="stop3621"
         offset="0"
         style="stop-color:#7e7e7e;stop-opacity:1;" />
      <stop
         id="stop3623"
         offset="1"
         style="stop-color:#ffffff;stop-opacity:1;" />
    </linearGradient>
    <inkscape:perspective
       id="perspective10"
       inkscape:persp3d-origin="372.04724 : 350.78739 : 1"
       inkscape:vp_z="744.09448 : 526.18109 : 1"
       inkscape:vp_y="0 : 1000 : 0"
       inkscape:vp_x="0 : 526.18109 : 1"
       sodipodi:type="inkscape:persp3d" />
    <radialGradient
       gradientUnits="userSpaceOnUse"
       gradientTransform="matrix(1.2356686,-0.80521527,1.6978973,2.6055623,-1634.6325,-1339.7914)"
       r="73.451585"
       fy="978.99298"
       fx="200.73691"
       cy="978.99298"
       cx="200.73691"
       id="radialGradient3625"
       xlink:href="#linearGradient3619"
       inkscape:collect="always" />
    <radialGradient
       r="73.451585"
       fy="978.99298"
       fx="200.73691"
       cy="978.99298"
       cx="200.73691"
       gradientTransform="matrix(1.2356686,-0.80521527,1.6978973,2.6055623,-1634.6325,-1339.7914)"
       gradientUnits="userSpaceOnUse"
       id="radialGradient3631"
       xlink:href="#linearGradient3619"
       inkscape:collect="always" />
    <marker
       style="overflow:visible"
       id="Arrow1Lstarto"
       refX="0.0"
       refY="0.0"
       orient="auto"
       inkscape:stockid="Arrow1Lstarto">
      <path
         transform="scale(0.8) translate(12.5,0)"
         style="marker-start:none;stroke:#c30000;stroke-width:1.0pt;fill:#c30000;fill-rule:evenodd"
         d="M 0.0,0.0 L 5.0,-5.0 L -12.5,0.0 L 5.0,5.0 L 0.0,0.0 z "
         id="path4701" />
    </marker>
    <marker
       style="overflow:visible;"
       id="Arrow1LendU"
       refX="0.0"
       refY="0.0"
       orient="auto"
       inkscape:stockid="Arrow1LendU">
      <path
         transform="scale(0.8) rotate(180) translate(12.5,0)"
         style="marker-start:none;stroke:#c30000;stroke-width:1.0pt;fill:#c30000;fill-rule:evenodd"
         d="M 0.0,0.0 L 5.0,-5.0 L -12.5,0.0 L 5.0,5.0 L 0.0,0.0 z "
         id="path4704" />
    </marker>
    <marker
       inkscape:stockid="TriangleOutS1"
       orient="auto"
       refY="0.0"
       refX="0.0"
       id="TriangleOutS1"
       style="overflow:visible">
      <path
         id="path5583"
         d="M 5.77,0.0 L -2.88,5.0 L -2.88,-5.0 L 5.77,0.0 z "
         style="marker-start:none;stroke:#9f9f9f;stroke-width:1.0pt;fill:#9f9f9f;fill-rule:evenodd"
         transform="scale(0.2)" />
    </marker>
    <marker
       style="overflow:visible"
       id="Arrow1Sstartn"
       refX="0.0"
       refY="0.0"
       orient="auto"
       inkscape:stockid="Arrow1Sstartn">
      <path
         transform="scale(0.2) translate(6,0)"
         style="marker-start:none;stroke:#c30000;stroke-width:1.0pt;fill:#c30000;fill-rule:evenodd"
         d="M 0.0,0.0 L 5.0,-5.0 L -12.5,0.0 L 5.0,5.0 L 0.0,0.0 z "
         id="path4595" />
    </marker>
    <marker
       style="overflow:visible;"
       id="Arrow1SendF"
       refX="0.0"
       refY="0.0"
       orient="auto"
       inkscape:stockid="Arrow1SendF">
      <path
         transform="scale(0.2) rotate(180) translate(6,0)"
         style="marker-start:none;stroke:#c30000;stroke-width:1.0pt;fill:#c30000;fill-rule:evenodd"
         d="M 0.0,0.0 L 5.0,-5.0 L -12.5,0.0 L 5.0,5.0 L 0.0,0.0 z "
         id="path4598" />
    </marker>
    <marker
       style="overflow:visible"
       id="Arrow1Sstartk"
       refX="0.0"
       refY="0.0"
       orient="auto"
       inkscape:stockid="Arrow1Sstartk">
      <path
         transform="scale(0.2) translate(6,0)"
         style="marker-start:none;stroke:#c30000;stroke-width:1.0pt;fill:#c30000;fill-rule:evenodd"
         d="M 0.0,0.0 L 5.0,-5.0 L -12.5,0.0 L 5.0,5.0 L 0.0,0.0 z "
         id="path4601" />
    </marker>
    <marker
       style="overflow:visible;"
       id="Arrow1Send7"
       refX="0.0"
       refY="0.0"
       orient="auto"
       inkscape:stockid="Arrow1Send7">
      <path
         transform="scale(0.2) rotate(180) translate(6,0)"
         style="marker-start:none;stroke:#c30000;stroke-width:1.0pt;fill:#c30000;fill-rule:evenodd"
         d="M 0.0,0.0 L 5.0,-5.0 L -12.5,0.0 L 5.0,5.0 L 0.0,0.0 z "
         id="path4604" />
    </marker>
    <radialGradient
       inkscape:collect="always"
       xlink:href="#linearGradient3718"
       id="radialGradient3724"
       cx="179.64285"
       cy="819.65601"
       fx="179.64285"
       fy="819.65601"
       r="55"
       gradientUnits="userSpaceOnUse"
       gradientTransform="matrix(-1.0000844,5.1706418e-7,-6.0332434e-7,-1.1686622,279.65852,1720.2631)" />
    <radialGradient
       inkscape:collect="always"
       xlink:href="#linearGradient3730"
       id="radialGradient3728"
       gradientUnits="userSpaceOnUse"
       gradientTransform="matrix(-1.0000844,5.1706418e-7,-6.0332434e-7,-1.1686622,379.65852,1720.2631)"
       cx="179.64285"
       cy="819.65601"
       fx="179.64285"
       fy="819.65601"
       r="55" />
    <radialGradient
       inkscape:collect="always"
       xlink:href="#linearGradient3740"
       id="radialGradient3738"
       gradientUnits="userSpaceOnUse"
       gradientTransform="matrix(-1.0000844,5.1706418e-7,-6.0332434e-7,-1.1686622,479.65852,1720.2631)"
       cx="179.64285"
       cy="819.65601"
       fx="179.64285"
       fy="819.65601"
       r="55" />
    <radialGradient
       inkscape:collect="always"
       xlink:href="#linearGradient3718"
       id="radialGradient3752"
       gradientUnits="userSpaceOnUse"
       gradientTransform="matrix(-1.0000844,5.1706418e-7,-6.0332434e-7,-1.1686622,239.65852,1940.2631)"
       cx="179.64285"
       cy="819.65601"
       fx="179.64285"
       fy="819.65601"
       r="55" />
    <radialGradient
       inkscape:collect="always"
       xlink:href="#linearGradient3730"
       id="radialGradient3754"
       gradientUnits="userSpaceOnUse"
       gradientTransform="matrix(-1.0000844,5.1706418e-7,-6.0332434e-7,-1.1686622,379.65852,1940.2631)"
       cx="179.64285"
       cy="819.65601"
       fx="179.64285"
       fy="819.65601"
       r="55" />
    <radialGradient
       inkscape:collect="always"
       xlink:href="#linearGradient3740"
       id="radialGradient3756"
       gradientUnits="userSpaceOnUse"
       gradientTransform="matrix(-1.0000844,5.1706418e-7,-6.0332434e-7,-1.1686622,519.65852,1940.2631)"
       cx="179.64285"
       cy="819.65601"
       fx="179.64285"
       fy="819.65601"
       r="55" />
  </defs>
  <metadata
     id="metadata7">
    <rdf:RDF>
      <cc:Work
         rdf:about="">
        <dc:format>image/svg+xml</dc:format>
        <dc:type
           rdf:resource="http://purl.org/dc/dcmitype/StillImage" />
        <dc:title />
      </cc:Work>
    </rdf:RDF>
  </metadata>
  <g
     transform="translate(0,-652.3622)"
     id="layer1"
     inkscape:groupmode="layer"
     inkscape:label="Layer 1">
    <g
       id="g4260">
      <path
         style="font-size:medium;font-style:normal;font-variant:normal;font-weight:normal;font-stretch:normal;text-indent:0;text-align:start;text-decoration:none;line-height:normal;letter-spacing:normal;word-spacing:normal;text-transform:none;direction:ltr;block-progression:tb;writing-mode:lr-tb;text-anchor:start;color:#000000;fill:#000000;fill-opacity:1;stroke:none;stroke-width:10;marker:none;visibility:visible;display:inline;overflow:visible;enable-background:accumulate;font-family:Bitstream Charter;-inkscape-font-specification:Bitstream Charter"
         d="m 36.4375,728.0625 0,256.4375 10,0 0,-256.4375 -10,0 z"
         id="path2880" />
      <path
         style="fill-rule:evenodd;stroke:#000000;stroke-width:4pt;marker-start:none"
         d="m 41.428571,704.99649 20,34.6 -40,0 20,-34.6 z"
         id="path4266" />
    </g>
    <g
       id="g4252"
       transform="translate(0,-80)">
      <path
         style="font-size:medium;font-style:normal;font-variant:normal;font-weight:normal;font-stretch:normal;text-indent:0;text-align:start;text-decoration:none;line-height:normal;letter-spacing:normal;word-spacing:normal;text-transform:none;direction:ltr;block-progression:tb;writing-mode:lr-tb;text-anchor:start;color:#000000;fill:#000000;fill-opacity:1;stroke:none;stroke-width:10;marker:none;visibility:visible;display:inline;overflow:visible;enable-background:accumulate;font-family:Bitstream Charter;-inkscape-font-specification:Bitstream Charter"
         d="m 12.84375,952.375 0,10 358.59375,0 0,-10 -358.59375,0 z"
         id="path2882"
         inkscape:connector-curvature="0" />
      <path
         style="fill-rule:evenodd;stroke:#000000;stroke-width:4pt;marker-start:none"
         d="m 394.50857,957.3622 -34.6,20 0,-40 34.6,20 z"
         id="path4258"
         inkscape:connector-curvature="0" />
    </g>
    <path
       style="fill:none;stroke:#a9a9a9;stroke-width:10;stroke-linecap:round;stroke-linejoin:round;stroke-miterlimit:4;stroke-opacity:1;stroke-dasharray:none"
       d="m 45.627628,818.31389 c 4.567663,-4.87507 23.816718,-39.43487 27.943801,-39.45228 4.127083,-0.0174 13.472108,5.88692 18.214285,5.89821 4.742177,0.0113 15.032806,-26.33401 21.071426,-26.32619 6.03862,0.008 8.5982,39.45779 13.94652,48.04891 5.34832,8.59112 12.08103,-6.70924 14.62491,-6.90523 2.54388,-0.196 4.41024,40.72857 6.4719,40.70787 2.06167,-0.0207 2.6967,-4.18254 5.96682,-4.08341 3.27013,0.0991 1.82744,2.55456 4.4516,2.55456 2.62417,0 11.75272,-18.90728 14.41571,-18.87621 2.66299,0.0311 1.16925,4.38832 5.83683,4.44094 4.66758,0.0526 8.08397,-5.15165 11.42857,-5.17893 3.59704,-0.0293 6.7007,6.2821 10,6.3298 3.2987,0.0477 10.86351,-14.97543 13.57143,-14.96134 2.70792,0.0141 -0.13983,5.91623 2.85714,6.04208 2.99697,0.12585 11.87807,15.67841 15.71429,8.05611 1.12448,1.35884 1.43661,5.18216 5.71428,6.90523 4.27767,1.72307 8.17309,-1.80653 10,-1.43859 1.8269,0.36794 0.59538,1.07337 6.42857,1.72631 16.59966,-12.59762 5.20006,-38.16551 19.28572,-50.9261 3.05416,0.01 3.19035,10.07014 8.57143,10.07014 5.38107,0 0.66552,-3.61795 3.57143,-3.45262 3.1537,0.17943 16.23121,53.07957 24.6967,53.32357 8.46548,0.24401 6.19813,-25.39583 10.3033,-25.70264 4.10517,-0.30681 2.8827,7.52551 5.38252,7.48067 2.24781,-0.0403 1.11736,-13.1373 4.61748,-12.94731 3.74799,0.20345 7.51221,7.76413 10,7.76839 2.47602,0.004 1.1075,-18.86977 3.57142,-18.98939 2.46392,-0.11963 9.79955,17.86085 25,23.01744"
       id="path2887"
       sodipodi:nodetypes="czzzzzzzzzzzzzzczzcczzzzzzzzc"
       inkscape:connector-curvature="0" />
    <path
       inkscape:connector-curvature="0"
       sodipodi:nodetypes="czzzzzzzzzzzzzzczzcczzzzzzzzc"
       id="path3048"
       d="m 45.627628,896.31389 c 4.567663,-4.87507 23.816718,-39.43487 27.943801,-39.45228 4.127083,-0.0174 13.472108,5.88692 18.214285,5.89821 4.742177,0.0113 15.032806,-26.33401 21.071426,-26.32619 6.03862,0.008 8.5982,39.45779 13.94652,48.04891 5.34832,8.59112 12.08103,-6.70924 14.62491,-6.90523 2.54388,-0.196 4.41024,40.72857 6.4719,40.70787 2.06167,-0.0207 2.6967,-4.18254 5.96682,-4.08341 3.27013,0.0991 1.82744,2.55456 4.4516,2.55456 2.62417,0 11.75272,-18.90728 14.41571,-18.87621 2.66299,0.0311 1.16925,4.38832 5.83683,4.44094 4.66758,0.0526 8.08397,-5.15165 11.42857,-5.17893 3.59704,-0.0293 6.7007,6.2821 10,6.3298 3.2987,0.0477 10.86351,-14.97543 13.57143,-14.96134 2.70792,0.0141 -0.13983,5.91623 2.85714,6.04208 2.99697,0.12585 11.87807,15.67841 15.71429,8.05611 1.12448,1.35884 1.43661,5.18216 5.71428,6.90523 4.27767,1.72307 8.17309,-1.80653 10,-1.43859 1.8269,0.36794 0.59538,1.07337 6.42857,1.72631 16.59966,-12.59762 5.20006,-38.16551 19.28572,-50.9261 3.05416,0.01 3.19035,10.07014 8.57143,10.07014 5.38107,0 0.66552,-3.61795 3.57143,-3.45262 3.1537,0.17943 16.23121,53.07957 24.6967,53.32357 8.46548,0.24401 6.19813,-25.39583 10.3033,-25.70264 4.10517,-0.30681 2.8827,7.52551 5.38252,7.48067 2.24781,-0.0403 1.11736,-13.1373 4.61748,-12.94731 3.74799,0.20345 7.51221,7.76413 10,7.76839 2.47602,0.004 1.1075,-18.86977 3.57142,-18.98939 2.46392,-0.11963 9.79955,17.86085 25,23.01744"
       style="fill:none;stroke:#ff0000;stroke-width:10;stroke-linecap:round;stroke-linejoin:round;stroke-miterlimit:4;stroke-opacity:1;stroke-dasharray:none" />
    <g
       id="g3912">
      <path
         style="font-size:medium;font-style:normal;font-variant:normal;font-weight:normal;font-stretch:normal;text-indent:0;text-align:start;text-decoration:none;line-height:normal;letter-spacing:normal;word-spacing:normal;text-transform:none;direction:ltr;block-progression:tb;writing-mode:lr-tb;text-anchor:start;baseline-shift:baseline;color:#000000;fill:#000000;fill-opacity:1;stroke:none;stroke-width:15;marker:none;visibility:visible;display:inline;overflow:visible;enable-background:accumulate;font-family:Sans;-inkscape-font-specification:Sans"
         d="m 195.25,818.33095 a 7.50075,7.50075 0 0 0 -7.40625,7.59375 l 0,48.21875 a 7.50075,7.50075 0 1 0 15,0 l 0,-48.21875 A 7.50075,7.50075 0 0 0 195.25,818.33095 z"
         id="path3914"
         inkscape:connector-curvature="0" />
      <path
         style="fill-rule:evenodd;stroke:#000000;stroke-width:0.2pt;marker-start:none"
         d="m 195.35714,891.45792 -15,-25.95 30,0 -15,25.95 z"
         id="path3919"
         inkscape:connector-curvature="0" />
    </g>
  </g>
</svg>
