<?xml version="1.0" encoding="UTF-8" standalone="no"?>
<!-- Created with Inkscape (http://www.inkscape.org/) -->

<svg
   xmlns:dc="http://purl.org/dc/elements/1.1/"
   xmlns:cc="http://creativecommons.org/ns#"
   xmlns:rdf="http://www.w3.org/1999/02/22-rdf-syntax-ns#"
   xmlns:svg="http://www.w3.org/2000/svg"
   xmlns="http://www.w3.org/2000/svg"
   xmlns:xlink="http://www.w3.org/1999/xlink"
   xmlns:sodipodi="http://sodipodi.sourceforge.net/DTD/sodipodi-0.dtd"
   xmlns:inkscape="http://www.inkscape.org/namespaces/inkscape"
   version="1.1"
   width="400"
   height="400"
   id="svg2"
   inkscape:version="0.48.1 r9760"
   sodipodi:docname="sigmoid.svg">
  <sodipodi:namedview
     pagecolor="#ffffff"
     bordercolor="#666666"
     borderopacity="1"
     objecttolerance="10"
     gridtolerance="10"
     guidetolerance="10"
     inkscape:pageopacity="0"
     inkscape:pageshadow="2"
     inkscape:window-width="2048"
     inkscape:window-height="1079"
     id="namedview70"
     showgrid="false"
     inkscape:zoom="3.16"
     inkscape:cx="234.68444"
     inkscape:cy="265.18988"
     inkscape:window-x="0"
     inkscape:window-y="24"
     inkscape:window-maximized="1"
     inkscape:current-layer="svg2" />
  <defs
     id="defs4">
    <marker
       refX="0"
       refY="0"
       orient="auto"
       id="Arrow1Mend"
       style="overflow:visible">
      <path
         d="M 0,0 5,-5 -12.5,0 5,5 0,0 z"
         transform="matrix(-0.4,0,0,-0.4,-4,0)"
         id="path4771"
         style="fill-rule:evenodd;stroke:#000000;stroke-width:1pt;marker-start:none" />
    </marker>
    <marker
       refX="0"
       refY="0"
       orient="auto"
       id="TriangleOutM"
       style="overflow:visible">
      <path
         d="m 5.77,0 -8.65,5 0,-10 8.65,5 z"
         transform="scale(0.4,0.4)"
         id="path4332"
         style="fill-rule:evenodd;stroke:#000000;stroke-width:1pt;marker-start:none" />
    </marker>
    <linearGradient
       id="linearGradient3740">
      <stop
         id="stop3742"
         style="stop-color:#1a60ff;stop-opacity:1"
         offset="0" />
      <stop
         id="stop3744"
         style="stop-color:#003abd;stop-opacity:1"
         offset="1" />
    </linearGradient>
    <linearGradient
       id="linearGradient3730">
      <stop
         id="stop3732"
         style="stop-color:#1aff2a;stop-opacity:1"
         offset="0" />
      <stop
         id="stop3734"
         style="stop-color:#00bd0d;stop-opacity:1"
         offset="1" />
    </linearGradient>
    <linearGradient
       id="linearGradient3718">
      <stop
         id="stop3720"
         style="stop-color:#ff1a1a;stop-opacity:1"
         offset="0" />
      <stop
         id="stop3722"
         style="stop-color:#bd0000;stop-opacity:1"
         offset="1" />
    </linearGradient>
    <marker
       refX="0"
       refY="0"
       orient="auto"
       id="Arrow1Sstart"
       style="overflow:visible">
      <path
         d="M 0,0 5,-5 -12.5,0 5,5 0,0 z"
         transform="matrix(0.2,0,0,0.2,1.2,0)"
         id="path3903"
         style="fill-rule:evenodd;stroke:#000000;stroke-width:1pt;marker-start:none" />
    </marker>
    <marker
       refX="0"
       refY="0"
       orient="auto"
       id="TriangleOutS"
       style="overflow:visible">
      <path
         d="m 5.77,0 -8.65,5 0,-10 8.65,5 z"
         transform="scale(0.2,0.2)"
         id="path3799"
         style="fill-rule:evenodd;stroke:#000000;stroke-width:1pt;marker-start:none" />
    </marker>
    <marker
       refX="0"
       refY="0"
       orient="auto"
       id="TriangleInS"
       style="overflow:visible">
      <path
         d="m 5.77,0 -8.65,5 0,-10 8.65,5 z"
         transform="scale(-0.2,-0.2)"
         id="path3790"
         style="fill-rule:evenodd;stroke:#000000;stroke-width:1pt;marker-start:none" />
    </marker>
    <marker
       refX="0"
       refY="0"
       orient="auto"
       id="Arrow1Lstart"
       style="overflow:visible">
      <path
         d="M 0,0 5,-5 -12.5,0 5,5 0,0 z"
         transform="matrix(0.8,0,0,0.8,10,0)"
         id="path3650"
         style="fill-rule:evenodd;stroke:#000000;stroke-width:1pt;marker-start:none" />
    </marker>
    <marker
       refX="0"
       refY="0"
       orient="auto"
       id="Arrow1Send"
       style="overflow:visible">
      <path
         d="M 0,0 5,-5 -12.5,0 5,5 0,0 z"
         transform="matrix(-0.2,0,0,-0.2,-1.2,0)"
         id="path4396"
         style="fill-rule:evenodd;stroke:#000000;stroke-width:1pt;marker-start:none" />
    </marker>
    <marker
       refX="0"
       refY="0"
       orient="auto"
       id="Arrow2Send"
       style="overflow:visible">
      <path
         d="M 8.7185878,4.0337352 -2.2072895,0.01601326 8.7185884,-4.0017078 c -1.7454984,2.3720609 -1.7354408,5.6174519 -6e-7,8.035443 z"
         transform="matrix(-0.3,0,0,-0.3,0.69,0)"
         id="path3644"
         style="font-size:12px;fill-rule:evenodd;stroke-width:0.625;stroke-linejoin:round" />
    </marker>
    <marker
       refX="0"
       refY="0"
       orient="auto"
       id="Arrow2Mend"
       style="overflow:visible">
      <path
         d="M 8.7185878,4.0337352 -2.2072895,0.01601326 8.7185884,-4.0017078 c -1.7454984,2.3720609 -1.7354408,5.6174519 -6e-7,8.035443 z"
         transform="scale(-0.6,-0.6)"
         id="path3638"
         style="font-size:12px;fill-rule:evenodd;stroke-width:0.625;stroke-linejoin:round" />
    </marker>
    <marker
       refX="0"
       refY="0"
       orient="auto"
       id="Arrow1Lend"
       style="overflow:visible">
      <path
         d="M 0,0 5,-5 -12.5,0 5,5 0,0 z"
         transform="matrix(-0.8,0,0,-0.8,-10,0)"
         id="path3614"
         style="fill-rule:evenodd;stroke:#000000;stroke-width:1pt;marker-start:none" />
    </marker>
    <linearGradient
       id="linearGradient3594">
      <stop
         id="stop3596"
         style="stop-color:#8b8b8b;stop-opacity:1"
         offset="0" />
      <stop
         id="stop3598"
         style="stop-color:#ffffff;stop-opacity:1"
         offset="1" />
    </linearGradient>
    <linearGradient
       id="linearGradient3619">
      <stop
         id="stop3621"
         style="stop-color:#7e7e7e;stop-opacity:1"
         offset="0" />
      <stop
         id="stop3623"
         style="stop-color:#ffffff;stop-opacity:1"
         offset="1" />
    </linearGradient>
    <radialGradient
       cx="200.73691"
       cy="978.99298"
       r="73.451584"
       fx="200.73691"
       fy="978.99298"
       id="radialGradient3625"
       xlink:href="#linearGradient3619"
       gradientUnits="userSpaceOnUse"
       gradientTransform="matrix(1.2356686,-0.80521527,1.6978973,2.6055623,-1634.6325,-1339.7914)" />
    <radialGradient
       cx="200.73691"
       cy="978.99298"
       r="73.451584"
       fx="200.73691"
       fy="978.99298"
       id="radialGradient3631"
       xlink:href="#linearGradient3619"
       gradientUnits="userSpaceOnUse"
       gradientTransform="matrix(1.2356686,-0.80521527,1.6978973,2.6055623,-1634.6325,-1339.7914)" />
    <marker
       refX="0"
       refY="0"
       orient="auto"
       id="Arrow1Lstarto"
       style="overflow:visible">
      <path
         d="M 0,0 5,-5 -12.5,0 5,5 0,0 z"
         transform="matrix(0.8,0,0,0.8,10,0)"
         id="path4701"
         style="fill:#c30000;fill-rule:evenodd;stroke:#c30000;stroke-width:1pt;marker-start:none" />
    </marker>
    <marker
       refX="0"
       refY="0"
       orient="auto"
       id="Arrow1LendU"
       style="overflow:visible">
      <path
         d="M 0,0 5,-5 -12.5,0 5,5 0,0 z"
         transform="matrix(-0.8,0,0,-0.8,-10,0)"
         id="path4704"
         style="fill:#c30000;fill-rule:evenodd;stroke:#c30000;stroke-width:1pt;marker-start:none" />
    </marker>
    <marker
       refX="0"
       refY="0"
       orient="auto"
       id="TriangleOutS1"
       style="overflow:visible">
      <path
         d="m 5.77,0 -8.65,5 0,-10 8.65,5 z"
         transform="scale(0.2,0.2)"
         id="path5583"
         style="fill:#9f9f9f;fill-rule:evenodd;stroke:#9f9f9f;stroke-width:1pt;marker-start:none" />
    </marker>
    <marker
       refX="0"
       refY="0"
       orient="auto"
       id="Arrow1Sstartn"
       style="overflow:visible">
      <path
         d="M 0,0 5,-5 -12.5,0 5,5 0,0 z"
         transform="matrix(0.2,0,0,0.2,1.2,0)"
         id="path4595"
         style="fill:#c30000;fill-rule:evenodd;stroke:#c30000;stroke-width:1pt;marker-start:none" />
    </marker>
    <marker
       refX="0"
       refY="0"
       orient="auto"
       id="Arrow1SendF"
       style="overflow:visible">
      <path
         d="M 0,0 5,-5 -12.5,0 5,5 0,0 z"
         transform="matrix(-0.2,0,0,-0.2,-1.2,0)"
         id="path4598"
         style="fill:#c30000;fill-rule:evenodd;stroke:#c30000;stroke-width:1pt;marker-start:none" />
    </marker>
    <marker
       refX="0"
       refY="0"
       orient="auto"
       id="Arrow1Sstartk"
       style="overflow:visible">
      <path
         d="M 0,0 5,-5 -12.5,0 5,5 0,0 z"
         transform="matrix(0.2,0,0,0.2,1.2,0)"
         id="path4601"
         style="fill:#c30000;fill-rule:evenodd;stroke:#c30000;stroke-width:1pt;marker-start:none" />
    </marker>
    <marker
       refX="0"
       refY="0"
       orient="auto"
       id="Arrow1Send7"
       style="overflow:visible">
      <path
         d="M 0,0 5,-5 -12.5,0 5,5 0,0 z"
         transform="matrix(-0.2,0,0,-0.2,-1.2,0)"
         id="path4604"
         style="fill:#c30000;fill-rule:evenodd;stroke:#c30000;stroke-width:1pt;marker-start:none" />
    </marker>
    <radialGradient
       cx="179.64285"
       cy="819.65601"
       r="55"
       fx="179.64285"
       fy="819.65601"
       id="radialGradient3724"
       xlink:href="#linearGradient3718"
       gradientUnits="userSpaceOnUse"
       gradientTransform="matrix(-1.0000844,5.1706418e-7,-6.0332434e-7,-1.1686622,279.65852,1720.2631)" />
    <radialGradient
       cx="179.64285"
       cy="819.65601"
       r="55"
       fx="179.64285"
       fy="819.65601"
       id="radialGradient3728"
       xlink:href="#linearGradient3730"
       gradientUnits="userSpaceOnUse"
       gradientTransform="matrix(-1.0000844,5.1706418e-7,-6.0332434e-7,-1.1686622,379.65852,1720.2631)" />
    <radialGradient
       cx="179.64285"
       cy="819.65601"
       r="55"
       fx="179.64285"
       fy="819.65601"
       id="radialGradient3738"
       xlink:href="#linearGradient3740"
       gradientUnits="userSpaceOnUse"
       gradientTransform="matrix(-1.0000844,5.1706418e-7,-6.0332434e-7,-1.1686622,479.65852,1720.2631)" />
    <radialGradient
       cx="179.64285"
       cy="819.65601"
       r="55"
       fx="179.64285"
       fy="819.65601"
       id="radialGradient3752"
       xlink:href="#linearGradient3718"
       gradientUnits="userSpaceOnUse"
       gradientTransform="matrix(-1.0000844,5.1706418e-7,-6.0332434e-7,-1.1686622,239.65852,1940.2631)" />
    <radialGradient
       cx="179.64285"
       cy="819.65601"
       r="55"
       fx="179.64285"
       fy="819.65601"
       id="radialGradient3754"
       xlink:href="#linearGradient3730"
       gradientUnits="userSpaceOnUse"
       gradientTransform="matrix(-1.0000844,5.1706418e-7,-6.0332434e-7,-1.1686622,379.65852,1940.2631)" />
    <radialGradient
       cx="179.64285"
       cy="819.65601"
       r="55"
       fx="179.64285"
       fy="819.65601"
       id="radialGradient3756"
       xlink:href="#linearGradient3740"
       gradientUnits="userSpaceOnUse"
       gradientTransform="matrix(-1.0000844,5.1706418e-7,-6.0332434e-7,-1.1686622,519.65852,1940.2631)" />
    <marker
       refX="0"
       refY="0"
       orient="auto"
       id="Arrow1Send-8"
       style="overflow:visible">
      <path
         d="M 0,0 5,-5 -12.5,0 5,5 0,0 z"
         transform="matrix(-0.2,0,0,-0.2,-1.2,0)"
         id="path4396-9"
         style="fill-rule:evenodd;stroke:#000000;stroke-width:1pt;marker-start:none" />
    </marker>
  </defs>
  <metadata
     id="metadata7">
    <rdf:RDF>
      <cc:Work
         rdf:about="">
        <dc:format>image/svg+xml</dc:format>
        <dc:type
           rdf:resource="http://purl.org/dc/dcmitype/StillImage" />
        <dc:title />
      </cc:Work>
    </rdf:RDF>
  </metadata>
  <g
     style="font-size:144px;font-style:normal;font-variant:normal;font-weight:bold;font-stretch:normal;line-height:125%;letter-spacing:0px;word-spacing:0px;fill:#000000;fill-opacity:1;stroke:none;font-family:Arial;-inkscape-font-specification:Arial Bold"
     id="text5663">
    <path
       d="m 107.90082,169.05766 9.14062,0 0,-4.6875 c -10e-6,-5.2343 0.54687,-9.14055 1.64063,-11.71875 1.1328,-2.57804 3.18358,-4.66788 6.15234,-6.26953 3.00779,-1.64054 6.79685,-2.46085 11.36719,-2.46094 4.68746,9e-5 9.2773,0.70322 13.76953,2.10938 l -2.22656,11.48437 c -2.61723,-0.62492 -5.13676,-0.93742 -7.5586,-0.9375 -2.38284,8e-5 -4.10159,0.56648 -5.15625,1.69922 -1.01565,1.09382 -1.52346,3.22273 -1.52343,6.38672 l 0,4.39453 12.30468,0 0,12.94922 -12.30468,0 0,49.27735 -16.46485,0 0,-49.27735 -9.14062,0 0,-12.94922"
       style="font-size:120px;text-align:center;text-anchor:middle"
       id="path3067" />
    <path
       d="m 182.49066,256.53813 -11.30859,0 c -5.97658,-9.02345 -10.52736,-18.39844 -13.65235,-28.125 -3.125,-9.72655 -4.6875,-19.1406 -4.6875,-28.24219 0,-11.28902 1.93359,-21.9726 5.80079,-32.05078 3.35935,-8.74993 7.61716,-16.81632 12.77343,-24.19922 l 11.25,0 c -5.35159,11.83602 -9.04299,21.91413 -11.07422,30.23438 -1.99221,8.2813 -2.9883,17.07035 -2.98828,26.36719 -2e-5,6.40627 0.58592,12.96876 1.75782,19.6875 1.21091,6.71875 2.85153,13.10546 4.92187,19.16015 1.36716,3.98437 3.7695,9.70702 7.20703,17.16797"
       style="font-size:120px;text-align:center;text-anchor:middle"
       id="path3069" />
    <path
       d="m 187.35394,231.28423 22.44141,-32.05079 -21.50391,-30.17578 20.09766,0 11.01562,17.10938 11.60157,-17.10938 19.33593,0 -21.09375,29.47266 23.02735,32.75391 -20.21485,0 -12.65625,-19.27735 -12.77343,19.27735 -19.27735,0"
       style="font-size:120px;text-align:center;text-anchor:middle"
       id="path3071" />
    <path
       d="m 257.49066,256.53813 c 3.24218,-6.95314 5.52734,-12.28517 6.85547,-15.99609 1.32811,-3.71095 2.55858,-7.98828 3.69141,-12.83203 1.13279,-4.84374 1.97264,-9.43358 2.51953,-13.76953 0.54686,-4.37498 0.82029,-8.84763 0.82031,-13.41797 -2e-5,-9.29684 -0.99611,-18.08589 -2.98828,-26.36719 -1.9922,-8.32025 -5.66407,-18.39836 -11.01563,-30.23438 l 11.19141,0 c 5.89842,8.39852 10.46872,17.30476 13.71094,26.71875 3.28122,9.41412 4.92184,18.96489 4.92187,28.65235 -3e-5,8.16408 -1.28909,16.91408 -3.86718,26.25 -2.92972,10.46874 -7.75393,20.80076 -14.47266,30.99609 l -11.36719,0"
       style="font-size:120px;text-align:center;text-anchor:middle"
       id="path3073" />
  </g>
  <rect
     style="fill:none;stroke:#000000;stroke-width:10.99993324;stroke-miterlimit:4;stroke-opacity:1;stroke-dasharray:none"
     id="rect5691"
     y="95.387619"
     x="96.893433"
     height="206.5636"
     width="207.08125" />
  <path
     style="fill:none;stroke:#000000;stroke-width:14;stroke-linecap:butt;stroke-linejoin:miter;stroke-miterlimit:4;stroke-opacity:1;stroke-dasharray:none;marker-end:none"
     id="path3045-7"
     d="m 313.8256,200.99995 77.42975,0"
     inkscape:connector-curvature="0" />
  <path
     style="fill:none;stroke:#000000;stroke-width:14;stroke-linecap:butt;stroke-linejoin:miter;stroke-miterlimit:4;stroke-opacity:1;stroke-dasharray:none;marker-end:none"
     id="path3045-7-8"
     d="m 7.7521424,200.99995 77.4297496,0"
     inkscape:connector-curvature="0" />
</svg>
