<?xml version="1.0" encoding="UTF-8" standalone="no"?>
<!-- Created with Inkscape (http://www.inkscape.org/) -->

<svg
   xmlns:dc="http://purl.org/dc/elements/1.1/"
   xmlns:cc="http://creativecommons.org/ns#"
   xmlns:rdf="http://www.w3.org/1999/02/22-rdf-syntax-ns#"
   xmlns:svg="http://www.w3.org/2000/svg"
   xmlns="http://www.w3.org/2000/svg"
   xmlns:xlink="http://www.w3.org/1999/xlink"
   xmlns:sodipodi="http://sodipodi.sourceforge.net/DTD/sodipodi-0.dtd"
   xmlns:inkscape="http://www.inkscape.org/namespaces/inkscape"
   width="400"
   height="400"
   id="svg2"
   version="1.1"
   inkscape:version="0.48.4 r9939"
   sodipodi:docname="static_gain_one.svg"
   inkscape:export-filename="/home/lompolbx/workspace/src/cedar.fieldFramework/cedar/processing/gui/icons/steps/gauss_input.png"
   inkscape:export-xdpi="9"
   inkscape:export-ydpi="9">
  <sodipodi:namedview
     id="base"
     pagecolor="#ffffff"
     bordercolor="#666666"
     borderopacity="1.0"
     inkscape:pageopacity="0.0"
     inkscape:pageshadow="2"
     inkscape:zoom="0.7"
     inkscape:cx="231.52035"
     inkscape:cy="251.19507"
     inkscape:document-units="px"
     inkscape:current-layer="g3797"
     showgrid="false"
     inkscape:window-width="659"
     inkscape:window-height="872"
     inkscape:window-x="31"
     inkscape:window-y="208"
     inkscape:window-maximized="0"
     showguides="true"
     inkscape:guide-bbox="true" />
  <defs
     id="defs4">
    <marker
       style="overflow:visible"
       id="TriangleOutM"
       refX="0.0"
       refY="0.0"
       orient="auto"
       inkscape:stockid="TriangleOutM">
      <path
         transform="scale(0.4)"
         style="fill-rule:evenodd;stroke:#000000;stroke-width:1.0pt;marker-start:none"
         d="M 5.77,0.0 L -2.88,5.0 L -2.88,-5.0 L 5.77,0.0 z "
         id="path4501" />
    </marker>
    <marker
       style="overflow:visible"
       id="TriangleInM"
       refX="0.0"
       refY="0.0"
       orient="auto"
       inkscape:stockid="TriangleInM">
      <path
         transform="scale(-0.4)"
         style="fill-rule:evenodd;stroke:#000000;stroke-width:1.0pt;marker-start:none"
         d="M 5.77,0.0 L -2.88,5.0 L -2.88,-5.0 L 5.77,0.0 z "
         id="path4492" />
    </marker>
    <marker
       inkscape:stockid="Arrow1Sstart"
       orient="auto"
       refY="0.0"
       refX="0.0"
       id="Arrow1Sstart"
       style="overflow:visible">
      <path
         id="path3903"
         d="M 0.0,0.0 L 5.0,-5.0 L -12.5,0.0 L 5.0,5.0 L 0.0,0.0 z "
         style="fill-rule:evenodd;stroke:#000000;stroke-width:1.0pt;marker-start:none"
         transform="scale(0.2) translate(6,0)" />
    </marker>
    <marker
       style="overflow:visible"
       id="TriangleOutS"
       refX="0.0"
       refY="0.0"
       orient="auto"
       inkscape:stockid="TriangleOutS">
      <path
         transform="scale(0.2)"
         style="fill-rule:evenodd;stroke:#000000;stroke-width:1.0pt;marker-start:none"
         d="M 5.77,0.0 L -2.88,5.0 L -2.88,-5.0 L 5.77,0.0 z "
         id="path3799" />
    </marker>
    <marker
       style="overflow:visible"
       id="TriangleInS"
       refX="0.0"
       refY="0.0"
       orient="auto"
       inkscape:stockid="TriangleInS">
      <path
         transform="scale(-0.2)"
         style="fill-rule:evenodd;stroke:#000000;stroke-width:1.0pt;marker-start:none"
         d="M 5.77,0.0 L -2.88,5.0 L -2.88,-5.0 L 5.77,0.0 z "
         id="path3790" />
    </marker>
    <marker
       inkscape:stockid="Arrow1Lstart"
       orient="auto"
       refY="0.0"
       refX="0.0"
       id="Arrow1Lstart"
       style="overflow:visible">
      <path
         id="path3650"
         d="M 0.0,0.0 L 5.0,-5.0 L -12.5,0.0 L 5.0,5.0 L 0.0,0.0 z "
         style="fill-rule:evenodd;stroke:#000000;stroke-width:1.0pt;marker-start:none"
         transform="scale(0.8) translate(12.5,0)" />
    </marker>
    <marker
       inkscape:stockid="Arrow1Send"
       orient="auto"
       refY="0.0"
       refX="0.0"
       id="Arrow1Send"
       style="overflow:visible;">
      <path
         id="path4396"
         d="M 0.0,0.0 L 5.0,-5.0 L -12.5,0.0 L 5.0,5.0 L 0.0,0.0 z "
         style="fill-rule:evenodd;stroke:#000000;stroke-width:1.0pt;marker-start:none;"
         transform="scale(0.2) rotate(180) translate(6,0)" />
    </marker>
    <marker
       inkscape:stockid="Arrow2Send"
       orient="auto"
       refY="0.0"
       refX="0.0"
       id="Arrow2Send"
       style="overflow:visible;">
      <path
         id="path3644"
         style="font-size:12.0;fill-rule:evenodd;stroke-width:0.62500000;stroke-linejoin:round;"
         d="M 8.7185878,4.0337352 L -2.2072895,0.016013256 L 8.7185884,-4.0017078 C 6.9730900,-1.6296469 6.9831476,1.6157441 8.7185878,4.0337352 z "
         transform="scale(0.3) rotate(180) translate(-2.3,0)" />
    </marker>
    <marker
       inkscape:stockid="Arrow2Mend"
       orient="auto"
       refY="0.0"
       refX="0.0"
       id="Arrow2Mend"
       style="overflow:visible;">
      <path
         id="path3638"
         style="font-size:12.0;fill-rule:evenodd;stroke-width:0.62500000;stroke-linejoin:round;"
         d="M 8.7185878,4.0337352 L -2.2072895,0.016013256 L 8.7185884,-4.0017078 C 6.9730900,-1.6296469 6.9831476,1.6157441 8.7185878,4.0337352 z "
         transform="scale(0.6) rotate(180) translate(0,0)" />
    </marker>
    <marker
       inkscape:stockid="Arrow1Lend"
       orient="auto"
       refY="0.0"
       refX="0.0"
       id="Arrow1Lend"
       style="overflow:visible;">
      <path
         id="path3614"
         d="M 0.0,0.0 L 5.0,-5.0 L -12.5,0.0 L 5.0,5.0 L 0.0,0.0 z "
         style="fill-rule:evenodd;stroke:#000000;stroke-width:1.0pt;marker-start:none;"
         transform="scale(0.8) rotate(180) translate(12.5,0)" />
    </marker>
    <linearGradient
       id="linearGradient3594">
      <stop
         style="stop-color:#8b8b8b;stop-opacity:1;"
         offset="0"
         id="stop3596" />
      <stop
         style="stop-color:#ffffff;stop-opacity:1;"
         offset="1"
         id="stop3598" />
    </linearGradient>
    <linearGradient
       id="linearGradient3619">
      <stop
         style="stop-color:#7e7e7e;stop-opacity:1;"
         offset="0"
         id="stop3621" />
      <stop
         style="stop-color:#ffffff;stop-opacity:1;"
         offset="1"
         id="stop3623" />
    </linearGradient>
    <inkscape:perspective
       sodipodi:type="inkscape:persp3d"
       inkscape:vp_x="0 : 526.18109 : 1"
       inkscape:vp_y="0 : 1000 : 0"
       inkscape:vp_z="744.09448 : 526.18109 : 1"
       inkscape:persp3d-origin="372.04724 : 350.78739 : 1"
       id="perspective10" />
    <radialGradient
       inkscape:collect="always"
       xlink:href="#linearGradient3619"
       id="radialGradient3625"
       cx="200.73691"
       cy="978.99298"
       fx="200.73691"
       fy="978.99298"
       r="73.451585"
       gradientTransform="matrix(1.2356686,-0.80521527,1.6978973,2.6055623,-1634.6325,-1339.7914)"
       gradientUnits="userSpaceOnUse" />
    <radialGradient
       inkscape:collect="always"
       xlink:href="#linearGradient3619"
       id="radialGradient3631"
       gradientUnits="userSpaceOnUse"
       gradientTransform="matrix(1.2356686,-0.80521527,1.6978973,2.6055623,-1634.6325,-1339.7914)"
       cx="200.73691"
       cy="978.99298"
       fx="200.73691"
       fy="978.99298"
       r="73.451585" />
    <marker
       inkscape:stockid="Arrow1Lstarto"
       orient="auto"
       refY="0.0"
       refX="0.0"
       id="Arrow1Lstarto"
       style="overflow:visible">
      <path
         id="path4701"
         d="M 0.0,0.0 L 5.0,-5.0 L -12.5,0.0 L 5.0,5.0 L 0.0,0.0 z "
         style="marker-start:none;stroke:#c30000;stroke-width:1.0pt;fill:#c30000;fill-rule:evenodd"
         transform="scale(0.8) translate(12.5,0)" />
    </marker>
    <marker
       inkscape:stockid="Arrow1LendU"
       orient="auto"
       refY="0.0"
       refX="0.0"
       id="Arrow1LendU"
       style="overflow:visible;">
      <path
         id="path4704"
         d="M 0.0,0.0 L 5.0,-5.0 L -12.5,0.0 L 5.0,5.0 L 0.0,0.0 z "
         style="marker-start:none;stroke:#c30000;stroke-width:1.0pt;fill:#c30000;fill-rule:evenodd"
         transform="scale(0.8) rotate(180) translate(12.5,0)" />
    </marker>
    <marker
       style="overflow:visible"
       id="TriangleOutS1"
       refX="0.0"
       refY="0.0"
       orient="auto"
       inkscape:stockid="TriangleOutS1">
      <path
         transform="scale(0.2)"
         style="marker-start:none;stroke:#9f9f9f;stroke-width:1.0pt;fill:#9f9f9f;fill-rule:evenodd"
         d="M 5.77,0.0 L -2.88,5.0 L -2.88,-5.0 L 5.77,0.0 z "
         id="path5583" />
    </marker>
    <marker
       inkscape:stockid="Arrow1Sstartn"
       orient="auto"
       refY="0.0"
       refX="0.0"
       id="Arrow1Sstartn"
       style="overflow:visible">
      <path
         id="path4595"
         d="M 0.0,0.0 L 5.0,-5.0 L -12.5,0.0 L 5.0,5.0 L 0.0,0.0 z "
         style="marker-start:none;stroke:#c30000;stroke-width:1.0pt;fill:#c30000;fill-rule:evenodd"
         transform="scale(0.2) translate(6,0)" />
    </marker>
    <marker
       inkscape:stockid="Arrow1SendF"
       orient="auto"
       refY="0.0"
       refX="0.0"
       id="Arrow1SendF"
       style="overflow:visible;">
      <path
         id="path4598"
         d="M 0.0,0.0 L 5.0,-5.0 L -12.5,0.0 L 5.0,5.0 L 0.0,0.0 z "
         style="marker-start:none;stroke:#c30000;stroke-width:1.0pt;fill:#c30000;fill-rule:evenodd"
         transform="scale(0.2) rotate(180) translate(6,0)" />
    </marker>
    <marker
       inkscape:stockid="Arrow1Sstartk"
       orient="auto"
       refY="0.0"
       refX="0.0"
       id="Arrow1Sstartk"
       style="overflow:visible">
      <path
         id="path4601"
         d="M 0.0,0.0 L 5.0,-5.0 L -12.5,0.0 L 5.0,5.0 L 0.0,0.0 z "
         style="marker-start:none;stroke:#c30000;stroke-width:1.0pt;fill:#c30000;fill-rule:evenodd"
         transform="scale(0.2) translate(6,0)" />
    </marker>
    <marker
       inkscape:stockid="Arrow1Send7"
       orient="auto"
       refY="0.0"
       refX="0.0"
       id="Arrow1Send7"
       style="overflow:visible;">
      <path
         id="path4604"
         d="M 0.0,0.0 L 5.0,-5.0 L -12.5,0.0 L 5.0,5.0 L 0.0,0.0 z "
         style="marker-start:none;stroke:#c30000;stroke-width:1.0pt;fill:#c30000;fill-rule:evenodd"
         transform="scale(0.2) rotate(180) translate(6,0)" />
    </marker>
    <marker
       style="overflow:visible"
       id="TriangleInMK"
       refX="0.0"
       refY="0.0"
       orient="auto"
       inkscape:stockid="TriangleInMK">
      <path
         transform="scale(-0.4)"
         style="marker-start:none;stroke:#c30000;stroke-width:1.0pt;fill:#c30000;fill-rule:evenodd"
         d="M 5.77,0.0 L -2.88,5.0 L -2.88,-5.0 L 5.77,0.0 z "
         id="path5095" />
    </marker>
    <marker
       style="overflow:visible"
       id="TriangleOutMv"
       refX="0.0"
       refY="0.0"
       orient="auto"
       inkscape:stockid="TriangleOutMv">
      <path
         transform="scale(0.4)"
         style="marker-start:none;stroke:#c30000;stroke-width:1.0pt;fill:#c30000;fill-rule:evenodd"
         d="M 5.77,0.0 L -2.88,5.0 L -2.88,-5.0 L 5.77,0.0 z "
         id="path5098" />
    </marker>
    <marker
       style="overflow:visible"
       id="TriangleInMj"
       refX="0.0"
       refY="0.0"
       orient="auto"
       inkscape:stockid="TriangleInMj">
      <path
         transform="scale(-0.4)"
         style="marker-start:none;stroke:#c30000;stroke-width:1.0pt;fill:#c30000;fill-rule:evenodd"
         d="M 5.77,0.0 L -2.88,5.0 L -2.88,-5.0 L 5.77,0.0 z "
         id="path5101" />
    </marker>
    <marker
       style="overflow:visible"
       id="TriangleOutM9"
       refX="0.0"
       refY="0.0"
       orient="auto"
       inkscape:stockid="TriangleOutM9">
      <path
         transform="scale(0.4)"
         style="marker-start:none;stroke:#c30000;stroke-width:1.0pt;fill:#c30000;fill-rule:evenodd"
         d="M 5.77,0.0 L -2.88,5.0 L -2.88,-5.0 L 5.77,0.0 z "
         id="path5104" />
    </marker>
  </defs>
  <metadata
     id="metadata7">
    <rdf:RDF>
      <cc:Work
         rdf:about="">
        <dc:format>image/svg+xml</dc:format>
        <dc:type
           rdf:resource="http://purl.org/dc/dcmitype/StillImage" />
        <dc:title />
      </cc:Work>
    </rdf:RDF>
  </metadata>
  <g
     inkscape:label="Layer 1"
     inkscape:groupmode="layer"
     id="layer1"
     transform="translate(0,-652.3622)">
    <g
       id="g3797"
       transform="translate(-3.5e-6,-5.8413686)">
      <text
         id="text3777"
         y="1057.3318"
         x="60.507629"
         style="font-size:72px;font-style:normal;font-weight:normal;fill:#000000;fill-opacity:1;stroke:none;font-family:Bitstream Vera Sans"
         xml:space="preserve"><tspan
           y="1057.3318"
           x="60.507629"
           id="tspan3779"
           sodipodi:role="line">0</tspan></text>
      <path
         transform="translate(-2.8571472,632.07648)"
         d="m 337.14287,214.28572 c 0,74.16396 -60.12177,134.28572 -134.28572,134.28572 -74.16396,0 -134.285724,-60.12176 -134.285724,-134.28572 C 68.571426,140.12177 128.69319,80 202.85715,80 c 74.16395,0 134.28572,60.12177 134.28572,134.28572 z"
         sodipodi:ry="134.28572"
         sodipodi:rx="134.28572"
         sodipodi:cy="214.28572"
         sodipodi:cx="202.85715"
         id="path2871"
         style="fill:none;stroke:#8e8e8e;stroke-width:15;stroke-linecap:round;stroke-linejoin:round;stroke-miterlimit:4;stroke-opacity:1;stroke-dasharray:none;stroke-dashoffset:0"
         sodipodi:type="arc" />
      <path
         inkscape:connector-curvature="0"
         id="path3823"
         d="m 277.5,980.59614 11.39343,19.73396"
         style="fill:none;stroke:#8e8e8e;stroke-width:15;stroke-linecap:round;stroke-linejoin:miter;stroke-miterlimit:4;stroke-opacity:1;stroke-dasharray:none" />
      <path
         inkscape:connector-curvature="0"
         id="path3773"
         d="M 111.10658,692.39427 122.5,712.12826"
         style="fill:none;stroke:#8e8e8e;stroke-width:15;stroke-linecap:round;stroke-linejoin:miter;stroke-miterlimit:4;stroke-opacity:1;stroke-dasharray:none" />
      <path
         inkscape:connector-curvature="0"
         style="fill:none;stroke:#8e8e8e;stroke-width:15;stroke-linecap:round;stroke-linejoin:miter;stroke-miterlimit:4;stroke-opacity:1;stroke-dasharray:none"
         d="m 277.5,712.12826 11.39343,-19.73399 M 111.10658,1000.3301 122.5,980.59614"
         id="path3775"
         sodipodi:nodetypes="cccc" />
      <path
         inkscape:connector-curvature="0"
         style="fill:none;stroke:#8e8e8e;stroke-width:15;stroke-linecap:round;stroke-linejoin:miter;stroke-miterlimit:4;stroke-opacity:1;stroke-dasharray:none"
         d="m 355.00002,846.3622 22.78682,-2e-5 m -355.573673,1e-5 22.786846,10e-6"
         id="path3785"
         sodipodi:nodetypes="cccc" />
      <path
         inkscape:connector-curvature="0"
         id="path3827"
         d="m 334.23395,923.86221 19.73398,11.39339"
         style="fill:none;stroke:#c95353;stroke-width:15;stroke-linecap:round;stroke-linejoin:miter;stroke-miterlimit:4;stroke-opacity:1;stroke-dasharray:none" />
      <path
         inkscape:connector-curvature="0"
         id="path3787"
         d="M 46.032087,757.46877 65.766069,768.8622"
         style="fill:none;stroke:#8e8e8e;stroke-width:15;stroke-linecap:round;stroke-linejoin:miter;stroke-miterlimit:4;stroke-opacity:1;stroke-dasharray:none" />
      <path
         inkscape:connector-curvature="0"
         style="fill:none;stroke:#8e8e8e;stroke-width:15;stroke-linecap:round;stroke-linejoin:miter;stroke-miterlimit:4;stroke-opacity:1;stroke-dasharray:none"
         d="m 334.23397,768.86219 19.73395,-11.39343 M 46.032092,935.25561 65.766083,923.86219"
         id="path3789"
         sodipodi:nodetypes="cccc" />
      <path
         inkscape:connector-curvature="0"
         style="fill:none;stroke:#8e8e8e;stroke-width:15;stroke-linecap:round;stroke-linejoin:miter;stroke-miterlimit:4;stroke-opacity:1;stroke-dasharray:none"
         d="M 200.00002,691.36216 200,668.57535"
         id="path3793"
         sodipodi:nodetypes="cc" />
      <path
         style="opacity:0.96428576;fill:#7ea212;fill-opacity:1;stroke:#000000;stroke-width:1.58484006;stroke-linecap:butt;stroke-linejoin:miter;stroke-miterlimit:4;stroke-opacity:1;stroke-dasharray:none;stroke-dashoffset:0"
         d="m 164.84514,909.77414 0,-7.45805 15.38227,0 15.38227,0 0,-55.02099 0,-55.02108 -2.09759,0.49606 c -3.9971,0.94513 -29.89374,6.06532 -30.67691,6.06532 -0.43276,0 -0.78682,-3.68445 -0.78682,-8.1876 l 0,-8.18759 17.94598,-3.50181 c 12.63849,-2.46606 20.35848,-3.49102 26.10325,-3.46564 l 8.15727,0.036 0,63.39363 0,63.39362 15.84839,0 15.8484,0 0,7.45805 0,7.45805 -40.55325,0 -40.55326,0 0,-7.45805 z"
         id="path14055-5"
         inkscape:connector-curvature="0" />
      <path
         sodipodi:type="arc"
         style="fill:none;stroke:#7ea212;stroke-width:15;stroke-linecap:round;stroke-linejoin:round;stroke-miterlimit:4;stroke-opacity:1;stroke-dasharray:none;stroke-dashoffset:0"
         id="path3795"
         sodipodi:cx="168.69548"
         sodipodi:cy="281.81216"
         sodipodi:rx="23.233509"
         sodipodi:ry="23.233509"
         d="m 191.92899,281.81216 c 0,12.83152 -10.402,23.23351 -23.23351,23.23351 -12.83151,0 -23.23351,-10.40199 -23.23351,-23.23351 0,-12.83151 10.402,-23.2335 23.23351,-23.2335 12.83151,0 23.23351,10.40199 23.23351,23.2335 z"
         transform="matrix(0.44124202,0,0,0.44124202,60.92491,810.61759)" />
      <path
         style="opacity:0.96428576;fill:#8e8e8e;fill-opacity:1;stroke:#000000;stroke-width:1.21428573;stroke-linecap:butt;stroke-linejoin:miter;stroke-miterlimit:4;stroke-opacity:1;stroke-dasharray:none;stroke-dashoffset:0"
         d="m 130.48348,288.77349 c -7.26666,-3.36436 -10.06853,-10.56553 -6.85976,-17.63053 3.20374,-7.05394 12.52216,-9.60581 19.02238,-5.20931 2.87432,1.94407 6.05917,7.71725 6.03598,10.94141 -0.0378,5.25627 -4.59286,11.05298 -9.82792,12.5069 -3.67324,1.02015 -5.07274,0.91842 -8.37068,-0.60847 z m 9.9026,-6.9575 c 2.556,-2.556 2.62917,-7.16988 0.15925,-10.04134 -1.41447,-1.64441 -2.30156,-2.00412 -4.94246,-2.00412 -5.70049,0 -9.14573,5.33362 -6.61119,10.23487 1.45723,2.81798 2.93782,3.64511 6.57297,3.67198 2.24024,0.0166 3.38569,-0.42566 4.82143,-1.86139 z"
         id="path16030"
         inkscape:connector-curvature="0"
         transform="translate(3.5e-6,658.20357)" />
    </g>
  </g>
</svg>
