<?xml version="1.0" encoding="UTF-8" standalone="no"?>
<!-- Created with Inkscape (http://www.inkscape.org/) -->

<svg
   xmlns:dc="http://purl.org/dc/elements/1.1/"
   xmlns:cc="http://creativecommons.org/ns#"
   xmlns:rdf="http://www.w3.org/1999/02/22-rdf-syntax-ns#"
   xmlns:svg="http://www.w3.org/2000/svg"
   xmlns="http://www.w3.org/2000/svg"
   xmlns:xlink="http://www.w3.org/1999/xlink"
   xmlns:sodipodi="http://sodipodi.sourceforge.net/DTD/sodipodi-0.dtd"
   xmlns:inkscape="http://www.inkscape.org/namespaces/inkscape"
   version="1.1"
   width="400"
   height="400"
   id="svg2"
   inkscape:version="0.48.3.1 r9886"
   sodipodi:docname="transferFunction.svg">
  <sodipodi:namedview
     pagecolor="#ffffff"
     bordercolor="#666666"
     borderopacity="1"
     objecttolerance="10"
     gridtolerance="10"
     guidetolerance="10"
     inkscape:pageopacity="0"
     inkscape:pageshadow="2"
     inkscape:window-width="1920"
     inkscape:window-height="1005"
     id="namedview70"
     showgrid="false"
     inkscape:zoom="1.58"
     inkscape:cx="127.46202"
     inkscape:cy="278.83922"
     inkscape:window-x="0"
     inkscape:window-y="25"
     inkscape:window-maximized="1"
     inkscape:current-layer="svg2" />
  <defs
     id="defs4">
    <marker
       refX="0"
       refY="0"
       orient="auto"
       id="Arrow1Mend"
       style="overflow:visible">
      <path
         d="M 0,0 5,-5 -12.5,0 5,5 0,0 z"
         transform="matrix(-0.4,0,0,-0.4,-4,0)"
         id="path4771"
         style="fill-rule:evenodd;stroke:#000000;stroke-width:1pt;marker-start:none" />
    </marker>
    <marker
       refX="0"
       refY="0"
       orient="auto"
       id="TriangleOutM"
       style="overflow:visible">
      <path
         d="m 5.77,0 -8.65,5 0,-10 8.65,5 z"
         transform="scale(0.4,0.4)"
         id="path4332"
         style="fill-rule:evenodd;stroke:#000000;stroke-width:1pt;marker-start:none" />
    </marker>
    <linearGradient
       id="linearGradient3740">
      <stop
         id="stop3742"
         style="stop-color:#1a60ff;stop-opacity:1"
         offset="0" />
      <stop
         id="stop3744"
         style="stop-color:#003abd;stop-opacity:1"
         offset="1" />
    </linearGradient>
    <linearGradient
       id="linearGradient3730">
      <stop
         id="stop3732"
         style="stop-color:#1aff2a;stop-opacity:1"
         offset="0" />
      <stop
         id="stop3734"
         style="stop-color:#00bd0d;stop-opacity:1"
         offset="1" />
    </linearGradient>
    <linearGradient
       id="linearGradient3718">
      <stop
         id="stop3720"
         style="stop-color:#ff1a1a;stop-opacity:1"
         offset="0" />
      <stop
         id="stop3722"
         style="stop-color:#bd0000;stop-opacity:1"
         offset="1" />
    </linearGradient>
    <marker
       refX="0"
       refY="0"
       orient="auto"
       id="Arrow1Sstart"
       style="overflow:visible">
      <path
         d="M 0,0 5,-5 -12.5,0 5,5 0,0 z"
         transform="matrix(0.2,0,0,0.2,1.2,0)"
         id="path3903"
         style="fill-rule:evenodd;stroke:#000000;stroke-width:1pt;marker-start:none" />
    </marker>
    <marker
       refX="0"
       refY="0"
       orient="auto"
       id="TriangleOutS"
       style="overflow:visible">
      <path
         d="m 5.77,0 -8.65,5 0,-10 8.65,5 z"
         transform="scale(0.2,0.2)"
         id="path3799"
         style="fill-rule:evenodd;stroke:#000000;stroke-width:1pt;marker-start:none" />
    </marker>
    <marker
       refX="0"
       refY="0"
       orient="auto"
       id="TriangleInS"
       style="overflow:visible">
      <path
         d="m 5.77,0 -8.65,5 0,-10 8.65,5 z"
         transform="scale(-0.2,-0.2)"
         id="path3790"
         style="fill-rule:evenodd;stroke:#000000;stroke-width:1pt;marker-start:none" />
    </marker>
    <marker
       refX="0"
       refY="0"
       orient="auto"
       id="Arrow1Lstart"
       style="overflow:visible">
      <path
         d="M 0,0 5,-5 -12.5,0 5,5 0,0 z"
         transform="matrix(0.8,0,0,0.8,10,0)"
         id="path3650"
         style="fill-rule:evenodd;stroke:#000000;stroke-width:1pt;marker-start:none" />
    </marker>
    <marker
       refX="0"
       refY="0"
       orient="auto"
       id="Arrow1Send"
       style="overflow:visible">
      <path
         d="M 0,0 5,-5 -12.5,0 5,5 0,0 z"
         transform="matrix(-0.2,0,0,-0.2,-1.2,0)"
         id="path4396"
         style="fill-rule:evenodd;stroke:#000000;stroke-width:1pt;marker-start:none" />
    </marker>
    <marker
       refX="0"
       refY="0"
       orient="auto"
       id="Arrow2Send"
       style="overflow:visible">
      <path
         d="M 8.7185878,4.0337352 -2.2072895,0.01601326 8.7185884,-4.0017078 c -1.7454984,2.3720609 -1.7354408,5.6174519 -6e-7,8.035443 z"
         transform="matrix(-0.3,0,0,-0.3,0.69,0)"
         id="path3644"
         style="font-size:12px;fill-rule:evenodd;stroke-width:0.625;stroke-linejoin:round" />
    </marker>
    <marker
       refX="0"
       refY="0"
       orient="auto"
       id="Arrow2Mend"
       style="overflow:visible">
      <path
         d="M 8.7185878,4.0337352 -2.2072895,0.01601326 8.7185884,-4.0017078 c -1.7454984,2.3720609 -1.7354408,5.6174519 -6e-7,8.035443 z"
         transform="scale(-0.6,-0.6)"
         id="path3638"
         style="font-size:12px;fill-rule:evenodd;stroke-width:0.625;stroke-linejoin:round" />
    </marker>
    <marker
       refX="0"
       refY="0"
       orient="auto"
       id="Arrow1Lend"
       style="overflow:visible">
      <path
         d="M 0,0 5,-5 -12.5,0 5,5 0,0 z"
         transform="matrix(-0.8,0,0,-0.8,-10,0)"
         id="path3614"
         style="fill-rule:evenodd;stroke:#000000;stroke-width:1pt;marker-start:none" />
    </marker>
    <linearGradient
       id="linearGradient3594">
      <stop
         id="stop3596"
         style="stop-color:#8b8b8b;stop-opacity:1"
         offset="0" />
      <stop
         id="stop3598"
         style="stop-color:#ffffff;stop-opacity:1"
         offset="1" />
    </linearGradient>
    <linearGradient
       id="linearGradient3619">
      <stop
         id="stop3621"
         style="stop-color:#7e7e7e;stop-opacity:1"
         offset="0" />
      <stop
         id="stop3623"
         style="stop-color:#ffffff;stop-opacity:1"
         offset="1" />
    </linearGradient>
    <radialGradient
       cx="200.73691"
       cy="978.99298"
       r="73.451584"
       fx="200.73691"
       fy="978.99298"
       id="radialGradient3625"
       xlink:href="#linearGradient3619"
       gradientUnits="userSpaceOnUse"
       gradientTransform="matrix(1.2356686,-0.80521527,1.6978973,2.6055623,-1634.6325,-1339.7914)" />
    <radialGradient
       cx="200.73691"
       cy="978.99298"
       r="73.451584"
       fx="200.73691"
       fy="978.99298"
       id="radialGradient3631"
       xlink:href="#linearGradient3619"
       gradientUnits="userSpaceOnUse"
       gradientTransform="matrix(1.2356686,-0.80521527,1.6978973,2.6055623,-1634.6325,-1339.7914)" />
    <marker
       refX="0"
       refY="0"
       orient="auto"
       id="Arrow1Lstarto"
       style="overflow:visible">
      <path
         d="M 0,0 5,-5 -12.5,0 5,5 0,0 z"
         transform="matrix(0.8,0,0,0.8,10,0)"
         id="path4701"
         style="fill:#c30000;fill-rule:evenodd;stroke:#c30000;stroke-width:1pt;marker-start:none" />
    </marker>
    <marker
       refX="0"
       refY="0"
       orient="auto"
       id="Arrow1LendU"
       style="overflow:visible">
      <path
         d="M 0,0 5,-5 -12.5,0 5,5 0,0 z"
         transform="matrix(-0.8,0,0,-0.8,-10,0)"
         id="path4704"
         style="fill:#c30000;fill-rule:evenodd;stroke:#c30000;stroke-width:1pt;marker-start:none" />
    </marker>
    <marker
       refX="0"
       refY="0"
       orient="auto"
       id="TriangleOutS1"
       style="overflow:visible">
      <path
         d="m 5.77,0 -8.65,5 0,-10 8.65,5 z"
         transform="scale(0.2,0.2)"
         id="path5583"
         style="fill:#9f9f9f;fill-rule:evenodd;stroke:#9f9f9f;stroke-width:1pt;marker-start:none" />
    </marker>
    <marker
       refX="0"
       refY="0"
       orient="auto"
       id="Arrow1Sstartn"
       style="overflow:visible">
      <path
         d="M 0,0 5,-5 -12.5,0 5,5 0,0 z"
         transform="matrix(0.2,0,0,0.2,1.2,0)"
         id="path4595"
         style="fill:#c30000;fill-rule:evenodd;stroke:#c30000;stroke-width:1pt;marker-start:none" />
    </marker>
    <marker
       refX="0"
       refY="0"
       orient="auto"
       id="Arrow1SendF"
       style="overflow:visible">
      <path
         d="M 0,0 5,-5 -12.5,0 5,5 0,0 z"
         transform="matrix(-0.2,0,0,-0.2,-1.2,0)"
         id="path4598"
         style="fill:#c30000;fill-rule:evenodd;stroke:#c30000;stroke-width:1pt;marker-start:none" />
    </marker>
    <marker
       refX="0"
       refY="0"
       orient="auto"
       id="Arrow1Sstartk"
       style="overflow:visible">
      <path
         d="M 0,0 5,-5 -12.5,0 5,5 0,0 z"
         transform="matrix(0.2,0,0,0.2,1.2,0)"
         id="path4601"
         style="fill:#c30000;fill-rule:evenodd;stroke:#c30000;stroke-width:1pt;marker-start:none" />
    </marker>
    <marker
       refX="0"
       refY="0"
       orient="auto"
       id="Arrow1Send7"
       style="overflow:visible">
      <path
         d="M 0,0 5,-5 -12.5,0 5,5 0,0 z"
         transform="matrix(-0.2,0,0,-0.2,-1.2,0)"
         id="path4604"
         style="fill:#c30000;fill-rule:evenodd;stroke:#c30000;stroke-width:1pt;marker-start:none" />
    </marker>
    <radialGradient
       cx="179.64285"
       cy="819.65601"
       r="55"
       fx="179.64285"
       fy="819.65601"
       id="radialGradient3724"
       xlink:href="#linearGradient3718"
       gradientUnits="userSpaceOnUse"
       gradientTransform="matrix(-1.0000844,5.1706418e-7,-6.0332434e-7,-1.1686622,279.65852,1720.2631)" />
    <radialGradient
       cx="179.64285"
       cy="819.65601"
       r="55"
       fx="179.64285"
       fy="819.65601"
       id="radialGradient3728"
       xlink:href="#linearGradient3730"
       gradientUnits="userSpaceOnUse"
       gradientTransform="matrix(-1.0000844,5.1706418e-7,-6.0332434e-7,-1.1686622,379.65852,1720.2631)" />
    <radialGradient
       cx="179.64285"
       cy="819.65601"
       r="55"
       fx="179.64285"
       fy="819.65601"
       id="radialGradient3738"
       xlink:href="#linearGradient3740"
       gradientUnits="userSpaceOnUse"
       gradientTransform="matrix(-1.0000844,5.1706418e-7,-6.0332434e-7,-1.1686622,479.65852,1720.2631)" />
    <radialGradient
       cx="179.64285"
       cy="819.65601"
       r="55"
       fx="179.64285"
       fy="819.65601"
       id="radialGradient3752"
       xlink:href="#linearGradient3718"
       gradientUnits="userSpaceOnUse"
       gradientTransform="matrix(-1.0000844,5.1706418e-7,-6.0332434e-7,-1.1686622,239.65852,1940.2631)" />
    <radialGradient
       cx="179.64285"
       cy="819.65601"
       r="55"
       fx="179.64285"
       fy="819.65601"
       id="radialGradient3754"
       xlink:href="#linearGradient3730"
       gradientUnits="userSpaceOnUse"
       gradientTransform="matrix(-1.0000844,5.1706418e-7,-6.0332434e-7,-1.1686622,379.65852,1940.2631)" />
    <radialGradient
       cx="179.64285"
       cy="819.65601"
       r="55"
       fx="179.64285"
       fy="819.65601"
       id="radialGradient3756"
       xlink:href="#linearGradient3740"
       gradientUnits="userSpaceOnUse"
       gradientTransform="matrix(-1.0000844,5.1706418e-7,-6.0332434e-7,-1.1686622,519.65852,1940.2631)" />
    <marker
       refX="0"
       refY="0"
       orient="auto"
       id="Arrow1Send-8"
       style="overflow:visible">
      <path
         d="M 0,0 5,-5 -12.5,0 5,5 0,0 z"
         transform="matrix(-0.2,0,0,-0.2,-1.2,0)"
         id="path4396-9"
         style="fill-rule:evenodd;stroke:#000000;stroke-width:1pt;marker-start:none" />
    </marker>
  </defs>
  <metadata
     id="metadata7">
    <rdf:RDF>
      <cc:Work
         rdf:about="">
        <dc:format>image/svg+xml</dc:format>
        <dc:type
           rdf:resource="http://purl.org/dc/dcmitype/StillImage" />
        <dc:title />
      </cc:Work>
    </rdf:RDF>
  </metadata>
  <g
     transform="translate(150.82914,-652.3622)"
     id="g3898">
    <path
       inkscape:connector-curvature="0"
       style="font-size:medium;font-style:normal;font-variant:normal;font-weight:normal;font-stretch:normal;text-indent:0;text-align:start;text-decoration:none;line-height:normal;letter-spacing:normal;word-spacing:normal;text-transform:none;direction:ltr;block-progression:tb;writing-mode:lr-tb;text-anchor:start;color:#000000;fill:#000000;fill-opacity:1;stroke:none;stroke-width:18.75;marker:none;visibility:visible;display:inline;overflow:visible;enable-background:accumulate;font-family:Bitstream Charter;-inkscape-font-specification:Bitstream Charter"
       d="m 23.78125,706.3125 0,336.5625 c -0.03502,2.4765 0.959626,4.9517 2.698499,6.7153 1.738874,1.7637 4.199788,2.7932 6.676501,2.7932 2.476713,0 4.937627,-1.0295 6.676501,-2.7932 1.738873,-1.7636 2.733522,-4.2388 2.698499,-6.7153 l 0,-336.5625 z"
       id="path3896"
       sodipodi:nodetypes="ccsssccc" />
    <path
       inkscape:connector-curvature="0"
       id="path3904"
       d="m 33.170862,662.50876 25.892493,44.79402 -51.7849858,0 25.8924928,-44.79402 z"
       style="fill-rule:evenodd;stroke:#000000;stroke-width:5.17849846pt;marker-start:none" />
  </g>
  <g
     transform="translate(3.3533786,-599.60581)"
     id="g3906">
    <path
       inkscape:connector-curvature="0"
       style="font-size:medium;font-style:normal;font-variant:normal;font-weight:normal;font-stretch:normal;text-indent:0;text-align:start;text-decoration:none;line-height:normal;letter-spacing:normal;word-spacing:normal;text-transform:none;direction:ltr;block-progression:tb;writing-mode:lr-tb;text-anchor:start;color:#000000;fill:#000000;fill-opacity:1;stroke:none;stroke-width:18.75;marker:none;visibility:visible;display:inline;overflow:visible;enable-background:accumulate;font-family:Bitstream Charter;-inkscape-font-specification:Bitstream Charter"
       d="m 11.125,868.2372 c -2.4764654,-0.035 -4.9516922,0.95963 -6.7153309,2.6985 -1.7636388,1.73887 -2.7931879,4.19979 -2.7931879,6.6765 0,2.47671 1.0295491,4.93763 2.7931879,6.6765 1.7636387,1.73887 4.2388655,2.73352 6.7153309,2.6985 l 330.5,0 0,-18.75 z"
       id="path3690"
       sodipodi:nodetypes="cssscccc" />
    <path
       inkscape:connector-curvature="0"
       id="path3912"
       d="m 388.31266,877.60581 -46.55922,26.91285 0,-53.8257 46.55922,26.91285 z"
       style="fill-rule:evenodd;stroke:#000000;stroke-width:5.38256989pt;marker-start:none" />
  </g>
  <path
     inkscape:connector-curvature="0"
     style="fill:none;stroke:#ff0000;stroke-width:20;stroke-linecap:round;stroke-linejoin:miter;stroke-miterlimit:4;stroke-opacity:1;stroke-dasharray:none"
     d="M 24.243661,261.17435 C 185.38231,260.54942 185.45295,91.274735 336.48923,91.767583"
     id="path4552"
     sodipodi:nodetypes="cc" />
</svg>
