<?xml version="1.0" encoding="UTF-8" standalone="no"?>
<!-- Created with Inkscape (http://www.inkscape.org/) -->

<svg
   xmlns:dc="http://purl.org/dc/elements/1.1/"
   xmlns:cc="http://creativecommons.org/ns#"
   xmlns:rdf="http://www.w3.org/1999/02/22-rdf-syntax-ns#"
   xmlns:svg="http://www.w3.org/2000/svg"
   xmlns="http://www.w3.org/2000/svg"
   xmlns:xlink="http://www.w3.org/1999/xlink"
   xmlns:sodipodi="http://sodipodi.sourceforge.net/DTD/sodipodi-0.dtd"
   xmlns:inkscape="http://www.inkscape.org/namespaces/inkscape"
   width="400"
   height="400"
   id="svg2"
   version="1.1"
   inkscape:version="0.48.4 r9939"
   sodipodi:docname="two_step_input.svg"
   inkscape:export-filename="/home/lompolbx/workspace/src/cedar.fieldFramework/cedar/processing/gui/icons/steps/gauss_input.png"
   inkscape:export-xdpi="9"
   inkscape:export-ydpi="9">
  <sodipodi:namedview
     id="base"
     pagecolor="#ffffff"
     bordercolor="#666666"
     borderopacity="1.0"
     inkscape:pageopacity="0.0"
     inkscape:pageshadow="2"
     inkscape:zoom="1.5079052"
     inkscape:cx="171.19236"
     inkscape:cy="176.30888"
     inkscape:document-units="px"
     inkscape:current-layer="layer1"
     showgrid="false"
     inkscape:window-width="1920"
     inkscape:window-height="1031"
     inkscape:window-x="0"
     inkscape:window-y="0"
     inkscape:window-maximized="1"
     showguides="true"
     inkscape:guide-bbox="true" />
  <defs
     id="defs4">
    <marker
       style="overflow:visible"
       id="TriangleOutM"
       refX="0.0"
       refY="0.0"
       orient="auto"
       inkscape:stockid="TriangleOutM">
      <path
         transform="scale(0.4)"
         style="fill-rule:evenodd;stroke:#000000;stroke-width:1.0pt;marker-start:none"
         d="M 5.77,0.0 L -2.88,5.0 L -2.88,-5.0 L 5.77,0.0 z "
         id="path4501" />
    </marker>
    <marker
       style="overflow:visible"
       id="TriangleInM"
       refX="0.0"
       refY="0.0"
       orient="auto"
       inkscape:stockid="TriangleInM">
      <path
         transform="scale(-0.4)"
         style="fill-rule:evenodd;stroke:#000000;stroke-width:1.0pt;marker-start:none"
         d="M 5.77,0.0 L -2.88,5.0 L -2.88,-5.0 L 5.77,0.0 z "
         id="path4492" />
    </marker>
    <marker
       inkscape:stockid="Arrow1Sstart"
       orient="auto"
       refY="0.0"
       refX="0.0"
       id="Arrow1Sstart"
       style="overflow:visible">
      <path
         id="path3903"
         d="M 0.0,0.0 L 5.0,-5.0 L -12.5,0.0 L 5.0,5.0 L 0.0,0.0 z "
         style="fill-rule:evenodd;stroke:#000000;stroke-width:1.0pt;marker-start:none"
         transform="scale(0.2) translate(6,0)" />
    </marker>
    <marker
       style="overflow:visible"
       id="TriangleOutS"
       refX="0.0"
       refY="0.0"
       orient="auto"
       inkscape:stockid="TriangleOutS">
      <path
         transform="scale(0.2)"
         style="fill-rule:evenodd;stroke:#000000;stroke-width:1.0pt;marker-start:none"
         d="M 5.77,0.0 L -2.88,5.0 L -2.88,-5.0 L 5.77,0.0 z "
         id="path3799" />
    </marker>
    <marker
       style="overflow:visible"
       id="TriangleInS"
       refX="0.0"
       refY="0.0"
       orient="auto"
       inkscape:stockid="TriangleInS">
      <path
         transform="scale(-0.2)"
         style="fill-rule:evenodd;stroke:#000000;stroke-width:1.0pt;marker-start:none"
         d="M 5.77,0.0 L -2.88,5.0 L -2.88,-5.0 L 5.77,0.0 z "
         id="path3790" />
    </marker>
    <marker
       inkscape:stockid="Arrow1Lstart"
       orient="auto"
       refY="0.0"
       refX="0.0"
       id="Arrow1Lstart"
       style="overflow:visible">
      <path
         id="path3650"
         d="M 0.0,0.0 L 5.0,-5.0 L -12.5,0.0 L 5.0,5.0 L 0.0,0.0 z "
         style="fill-rule:evenodd;stroke:#000000;stroke-width:1.0pt;marker-start:none"
         transform="scale(0.8) translate(12.5,0)" />
    </marker>
    <marker
       inkscape:stockid="Arrow1Send"
       orient="auto"
       refY="0.0"
       refX="0.0"
       id="Arrow1Send"
       style="overflow:visible;">
      <path
         id="path4396"
         d="M 0.0,0.0 L 5.0,-5.0 L -12.5,0.0 L 5.0,5.0 L 0.0,0.0 z "
         style="fill-rule:evenodd;stroke:#000000;stroke-width:1.0pt;marker-start:none;"
         transform="scale(0.2) rotate(180) translate(6,0)" />
    </marker>
    <marker
       inkscape:stockid="Arrow2Send"
       orient="auto"
       refY="0.0"
       refX="0.0"
       id="Arrow2Send"
       style="overflow:visible;">
      <path
         id="path3644"
         style="font-size:12.0;fill-rule:evenodd;stroke-width:0.62500000;stroke-linejoin:round;"
         d="M 8.7185878,4.0337352 L -2.2072895,0.016013256 L 8.7185884,-4.0017078 C 6.9730900,-1.6296469 6.9831476,1.6157441 8.7185878,4.0337352 z "
         transform="scale(0.3) rotate(180) translate(-2.3,0)" />
    </marker>
    <marker
       inkscape:stockid="Arrow2Mend"
       orient="auto"
       refY="0.0"
       refX="0.0"
       id="Arrow2Mend"
       style="overflow:visible;">
      <path
         id="path3638"
         style="font-size:12.0;fill-rule:evenodd;stroke-width:0.62500000;stroke-linejoin:round;"
         d="M 8.7185878,4.0337352 L -2.2072895,0.016013256 L 8.7185884,-4.0017078 C 6.9730900,-1.6296469 6.9831476,1.6157441 8.7185878,4.0337352 z "
         transform="scale(0.6) rotate(180) translate(0,0)" />
    </marker>
    <marker
       inkscape:stockid="Arrow1Lend"
       orient="auto"
       refY="0.0"
       refX="0.0"
       id="Arrow1Lend"
       style="overflow:visible;">
      <path
         id="path3614"
         d="M 0.0,0.0 L 5.0,-5.0 L -12.5,0.0 L 5.0,5.0 L 0.0,0.0 z "
         style="fill-rule:evenodd;stroke:#000000;stroke-width:1.0pt;marker-start:none;"
         transform="scale(0.8) rotate(180) translate(12.5,0)" />
    </marker>
    <linearGradient
       id="linearGradient3594">
      <stop
         style="stop-color:#8b8b8b;stop-opacity:1;"
         offset="0"
         id="stop3596" />
      <stop
         style="stop-color:#ffffff;stop-opacity:1;"
         offset="1"
         id="stop3598" />
    </linearGradient>
    <linearGradient
       id="linearGradient3619">
      <stop
         style="stop-color:#7e7e7e;stop-opacity:1;"
         offset="0"
         id="stop3621" />
      <stop
         style="stop-color:#ffffff;stop-opacity:1;"
         offset="1"
         id="stop3623" />
    </linearGradient>
    <inkscape:perspective
       sodipodi:type="inkscape:persp3d"
       inkscape:vp_x="0 : 526.18109 : 1"
       inkscape:vp_y="0 : 1000 : 0"
       inkscape:vp_z="744.09448 : 526.18109 : 1"
       inkscape:persp3d-origin="372.04724 : 350.78739 : 1"
       id="perspective10" />
    <radialGradient
       inkscape:collect="always"
       xlink:href="#linearGradient3619"
       id="radialGradient3625"
       cx="200.73691"
       cy="978.99298"
       fx="200.73691"
       fy="978.99298"
       r="73.451585"
       gradientTransform="matrix(1.2356686,-0.80521527,1.6978973,2.6055623,-1634.6325,-1339.7914)"
       gradientUnits="userSpaceOnUse" />
    <radialGradient
       inkscape:collect="always"
       xlink:href="#linearGradient3619"
       id="radialGradient3631"
       gradientUnits="userSpaceOnUse"
       gradientTransform="matrix(1.2356686,-0.80521527,1.6978973,2.6055623,-1634.6325,-1339.7914)"
       cx="200.73691"
       cy="978.99298"
       fx="200.73691"
       fy="978.99298"
       r="73.451585" />
    <marker
       inkscape:stockid="Arrow1Lstarto"
       orient="auto"
       refY="0.0"
       refX="0.0"
       id="Arrow1Lstarto"
       style="overflow:visible">
      <path
         id="path4701"
         d="M 0.0,0.0 L 5.0,-5.0 L -12.5,0.0 L 5.0,5.0 L 0.0,0.0 z "
         style="marker-start:none;stroke:#c30000;stroke-width:1.0pt;fill:#c30000;fill-rule:evenodd"
         transform="scale(0.8) translate(12.5,0)" />
    </marker>
    <marker
       inkscape:stockid="Arrow1LendU"
       orient="auto"
       refY="0.0"
       refX="0.0"
       id="Arrow1LendU"
       style="overflow:visible;">
      <path
         id="path4704"
         d="M 0.0,0.0 L 5.0,-5.0 L -12.5,0.0 L 5.0,5.0 L 0.0,0.0 z "
         style="marker-start:none;stroke:#c30000;stroke-width:1.0pt;fill:#c30000;fill-rule:evenodd"
         transform="scale(0.8) rotate(180) translate(12.5,0)" />
    </marker>
    <marker
       style="overflow:visible"
       id="TriangleOutS1"
       refX="0.0"
       refY="0.0"
       orient="auto"
       inkscape:stockid="TriangleOutS1">
      <path
         transform="scale(0.2)"
         style="marker-start:none;stroke:#9f9f9f;stroke-width:1.0pt;fill:#9f9f9f;fill-rule:evenodd"
         d="M 5.77,0.0 L -2.88,5.0 L -2.88,-5.0 L 5.77,0.0 z "
         id="path5583" />
    </marker>
    <marker
       inkscape:stockid="Arrow1Sstartn"
       orient="auto"
       refY="0.0"
       refX="0.0"
       id="Arrow1Sstartn"
       style="overflow:visible">
      <path
         id="path4595"
         d="M 0.0,0.0 L 5.0,-5.0 L -12.5,0.0 L 5.0,5.0 L 0.0,0.0 z "
         style="marker-start:none;stroke:#c30000;stroke-width:1.0pt;fill:#c30000;fill-rule:evenodd"
         transform="scale(0.2) translate(6,0)" />
    </marker>
    <marker
       inkscape:stockid="Arrow1SendF"
       orient="auto"
       refY="0.0"
       refX="0.0"
       id="Arrow1SendF"
       style="overflow:visible;">
      <path
         id="path4598"
         d="M 0.0,0.0 L 5.0,-5.0 L -12.5,0.0 L 5.0,5.0 L 0.0,0.0 z "
         style="marker-start:none;stroke:#c30000;stroke-width:1.0pt;fill:#c30000;fill-rule:evenodd"
         transform="scale(0.2) rotate(180) translate(6,0)" />
    </marker>
    <marker
       inkscape:stockid="Arrow1Sstartk"
       orient="auto"
       refY="0.0"
       refX="0.0"
       id="Arrow1Sstartk"
       style="overflow:visible">
      <path
         id="path4601"
         d="M 0.0,0.0 L 5.0,-5.0 L -12.5,0.0 L 5.0,5.0 L 0.0,0.0 z "
         style="marker-start:none;stroke:#c30000;stroke-width:1.0pt;fill:#c30000;fill-rule:evenodd"
         transform="scale(0.2) translate(6,0)" />
    </marker>
    <marker
       inkscape:stockid="Arrow1Send7"
       orient="auto"
       refY="0.0"
       refX="0.0"
       id="Arrow1Send7"
       style="overflow:visible;">
      <path
         id="path4604"
         d="M 0.0,0.0 L 5.0,-5.0 L -12.5,0.0 L 5.0,5.0 L 0.0,0.0 z "
         style="marker-start:none;stroke:#c30000;stroke-width:1.0pt;fill:#c30000;fill-rule:evenodd"
         transform="scale(0.2) rotate(180) translate(6,0)" />
    </marker>
    <marker
       style="overflow:visible"
       id="TriangleInMK"
       refX="0.0"
       refY="0.0"
       orient="auto"
       inkscape:stockid="TriangleInMK">
      <path
         transform="scale(-0.4)"
         style="marker-start:none;stroke:#c30000;stroke-width:1.0pt;fill:#c30000;fill-rule:evenodd"
         d="M 5.77,0.0 L -2.88,5.0 L -2.88,-5.0 L 5.77,0.0 z "
         id="path5095" />
    </marker>
    <marker
       style="overflow:visible"
       id="TriangleOutMv"
       refX="0.0"
       refY="0.0"
       orient="auto"
       inkscape:stockid="TriangleOutMv">
      <path
         transform="scale(0.4)"
         style="marker-start:none;stroke:#c30000;stroke-width:1.0pt;fill:#c30000;fill-rule:evenodd"
         d="M 5.77,0.0 L -2.88,5.0 L -2.88,-5.0 L 5.77,0.0 z "
         id="path5098" />
    </marker>
    <marker
       style="overflow:visible"
       id="TriangleInMj"
       refX="0.0"
       refY="0.0"
       orient="auto"
       inkscape:stockid="TriangleInMj">
      <path
         transform="scale(-0.4)"
         style="marker-start:none;stroke:#c30000;stroke-width:1.0pt;fill:#c30000;fill-rule:evenodd"
         d="M 5.77,0.0 L -2.88,5.0 L -2.88,-5.0 L 5.77,0.0 z "
         id="path5101" />
    </marker>
    <marker
       style="overflow:visible"
       id="TriangleOutM9"
       refX="0.0"
       refY="0.0"
       orient="auto"
       inkscape:stockid="TriangleOutM9">
      <path
         transform="scale(0.4)"
         style="marker-start:none;stroke:#c30000;stroke-width:1.0pt;fill:#c30000;fill-rule:evenodd"
         d="M 5.77,0.0 L -2.88,5.0 L -2.88,-5.0 L 5.77,0.0 z "
         id="path5104" />
    </marker>
  </defs>
  <metadata
     id="metadata7">
    <rdf:RDF>
      <cc:Work
         rdf:about="">
        <dc:format>image/svg+xml</dc:format>
        <dc:type
           rdf:resource="http://purl.org/dc/dcmitype/StillImage" />
        <dc:title />
      </cc:Work>
    </rdf:RDF>
  </metadata>
  <g
     inkscape:label="Layer 1"
     inkscape:groupmode="layer"
     id="layer1"
     transform="translate(0,-652.3622)">
    <path
       style="font-size:medium;font-style:normal;font-variant:normal;font-weight:normal;font-stretch:normal;text-indent:0;text-align:start;text-decoration:none;line-height:normal;letter-spacing:normal;word-spacing:normal;text-transform:none;direction:ltr;block-progression:tb;writing-mode:lr-tb;text-anchor:start;color:#000000;fill:none;fill-opacity:1;stroke:#fa0000;stroke-width:5;marker:none;visibility:visible;display:inline;overflow:visible;enable-background:accumulate;font-family:Bitstream Charter;-inkscape-font-specification:Bitstream Charter;stroke-miterlimit:4;stroke-dasharray:none;stroke-opacity:1"
       d="m 87.217424,670.66151 c -3.31456,0.0237 -5.95453,2.27196 -7.78899,5.28603 -1.83447,3.01407 -3.18146,6.97976 -4.41859,11.65639 -2.47425,9.35324 -4.393,21.54798 -7.1655,33.65892 -2.77252,12.11094 -6.42425,24.10804 -12.06301,32.86377 -5.63875,8.75573 -12.9416,14.25101 -23.90913,14.24971 a 2.1688458,2.1688458 0 1 0 0,4.33725 c 12.47223,0.003 21.41332,-6.69374 27.55966,-16.23762 6.14634,-9.54389 9.8252,-21.9449 12.6413,-34.24626 2.8161,-12.30136 4.75331,-24.53233 7.12937,-33.51435 1.18802,-4.49102 2.50112,-8.16912 3.93064,-10.51786 1.42362,-2.33905 2.63994,-3.18144 4.10232,-3.19873 1.46238,0.0173 2.67869,0.85968 4.10232,3.19873 1.42952,2.34873 2.74262,6.02685 3.93064,10.51786 2.37606,8.98201 4.31327,21.21299 7.129366,33.51435 2.8161,12.30136 6.49496,24.70237 12.6413,34.24626 6.14634,9.54391 15.08743,16.23907 27.55966,16.23762 a 2.1688458,2.1688458 0 1 0 0,-4.33725 c -10.96753,0 -18.27037,-5.49398 -23.90914,-14.24971 -5.63875,-8.75573 -9.29048,-20.75284 -12.06299,-32.86377 -2.77251,-12.11093 -4.69126,-24.30569 -7.165516,-33.65892 -1.23712,-4.67663 -2.58411,-8.64232 -4.41858,-11.65639 -1.83446,-3.01407 -4.47443,-5.2623 -7.78899,-5.28603 l -0.0181,0 -0.0181,0 z"
       id="path2835"
       inkscape:connector-curvature="0" />
    <path
       style="fill:none;stroke:#000000;stroke-width:5;stroke-linecap:butt;stroke-linejoin:miter;stroke-miterlimit:4;stroke-opacity:1;stroke-dasharray:none"
       d="m 18.47712,740.78475 363.04576,0"
       id="path3042"
       inkscape:connector-curvature="0"
       sodipodi:nodetypes="cc" />
    <path
       inkscape:connector-curvature="0"
       id="path3938"
       d="m 307.21742,910.66151 c -3.31456,0.0237 -5.95453,2.27196 -7.78899,5.28603 -1.83447,3.01407 -3.18146,6.97976 -4.41859,11.65639 -2.47425,9.35324 -4.393,21.54798 -7.1655,33.65892 -2.77252,12.11094 -6.42425,24.10804 -12.06301,32.86377 -5.63875,8.75568 -12.9416,14.25098 -23.90913,14.24968 a 2.1688458,2.1688458 0 1 0 0,4.3373 c 12.47223,0 21.41332,-6.6938 27.55966,-16.23764 6.14634,-9.54389 9.8252,-21.9449 12.6413,-34.24626 2.8161,-12.30136 4.75331,-24.53233 7.12937,-33.51435 1.18802,-4.49102 2.50112,-8.16912 3.93064,-10.51786 1.42362,-2.33905 2.63994,-3.18144 4.10232,-3.19873 1.46238,0.0173 2.67869,0.85968 4.10232,3.19873 1.42952,2.34873 2.74262,6.02685 3.93064,10.51786 2.37606,8.98201 4.31327,21.21299 7.12937,33.51435 2.8161,12.30136 6.49496,24.70237 12.6413,34.24626 6.14634,9.54394 15.08743,16.23904 27.55966,16.23764 a 2.1688458,2.1688458 0 1 0 0,-4.3373 c -10.96753,0 -18.27037,-5.4939 -23.90914,-14.24968 -5.63875,-8.75573 -9.29048,-20.75284 -12.06299,-32.86377 -2.77251,-12.11093 -4.69126,-24.30569 -7.16552,-33.65892 -1.23712,-4.67663 -2.58411,-8.64232 -4.41858,-11.65639 -1.83446,-3.01407 -4.47443,-5.2623 -7.78899,-5.28603 l -0.0181,0 -0.0181,0 z"
       style="font-size:medium;font-style:normal;font-variant:normal;font-weight:normal;font-stretch:normal;text-indent:0;text-align:start;text-decoration:none;line-height:normal;letter-spacing:normal;word-spacing:normal;text-transform:none;direction:ltr;block-progression:tb;writing-mode:lr-tb;text-anchor:start;color:#000000;fill:none;fill-opacity:1;stroke:#fa0000;stroke-width:5;marker:none;visibility:visible;display:inline;overflow:visible;enable-background:accumulate;font-family:Bitstream Charter;-inkscape-font-specification:Bitstream Charter;stroke-opacity:1;stroke-miterlimit:4;stroke-dasharray:none" />
    <path
       sodipodi:nodetypes="cc"
       inkscape:connector-curvature="0"
       id="path3940"
       d="m 18.47712,980.78472 363.04576,0"
       style="fill:none;stroke:#000000;stroke-width:5;stroke-linecap:butt;stroke-linejoin:miter;stroke-miterlimit:4;stroke-opacity:1;stroke-dasharray:none" />
    <path
       sodipodi:nodetypes="cc"
       inkscape:connector-curvature="0"
       id="path3942"
       d="m 200,768.97184 0,163.04576"
       style="fill:none;stroke:#000000;stroke-width:10;stroke-linecap:butt;stroke-linejoin:miter;stroke-miterlimit:4;stroke-opacity:1;stroke-dasharray:none;marker-start:none;marker-end:none" />
    <path
       style="fill:#000000;fill-opacity:1;stroke:#000000;stroke-width:1px;stroke-linecap:butt;stroke-linejoin:miter;stroke-opacity:1"
       d="m 169.82569,906.50638 60.34862,0 L 200,939.66496 z"
       id="path4656"
       inkscape:connector-curvature="0"
       sodipodi:nodetypes="cccc" />
    <path
       style="fill:#000000;stroke-width:10;stroke-miterlimit:4;stroke-dasharray:none"
       d="m 282.04826,866.65092 c -0.42244,-0.0494 -1.70625,-0.19538 -2.8529,-0.32459 -6.80824,-0.76724 -14.79248,-3.59027 -20.73833,-7.33257 -5.83465,-3.6723 -11.16495,-8.72232 -15.06211,-14.2701 -1.24204,-1.76811 -3.4817,-5.53837 -3.4817,-5.86117 0,-0.0956 2.39624,-0.17379 5.32496,-0.17379 l 5.32498,0 1.27963,1.76927 c 1.71376,2.36953 4.81539,5.58104 7.39078,7.65261 5.2663,4.23606 11.22758,7.03858 18.03746,8.47978 3.31696,0.70199 9.82014,0.96857 13.27236,0.54408 19.1366,-2.35308 34.11633,-17.01076 36.81926,-36.02767 0.65085,-4.57902 0.33906,-11.08437 -0.74956,-15.63958 -1.94213,-8.12677 -6.7938,-16.19116 -13.03836,-21.67233 -5.46645,-4.79817 -12.34032,-8.22959 -19.55909,-9.76383 -2.16172,-0.45944 -3.45647,-0.58205 -7.13941,-0.67606 -5.0896,-0.12986 -7.74341,0.14793 -12.03406,1.25999 -14.35434,3.72035 -25.91385,15.18105 -29.87046,29.61515 -0.24747,0.90282 -0.44997,1.66816 -0.44997,1.70077 0,0.0326 1.82695,0.0593 4.05989,0.0593 2.23294,0 4.05989,0.0499 4.05989,0.11094 0,0.21552 -13.66295,18.32308 -13.82556,18.32308 -0.16262,0 -13.82556,-18.10756 -13.82556,-18.32308 0,-0.061 2.25148,-0.11094 5.0033,-0.11094 l 5.00329,0 0.5038,-2.24939 c 1.98956,-8.88302 6.59314,-17.34995 13.08047,-24.05768 8.05929,-8.33309 18.3661,-13.61517 29.87836,-15.31215 3.60183,-0.53092 10.87985,-0.5324 14.34185,-0.003 11.40039,1.74363 21.25549,6.67837 29.1969,14.61978 7.94649,7.94651 12.87236,17.75882 14.60195,29.08716 0.55816,3.65577 0.55816,10.82816 0,14.48392 -1.72959,11.32834 -6.65546,21.14065 -14.60195,29.08717 -4.09601,4.09601 -8.36374,7.15896 -13.61571,9.77198 -4.77861,2.37752 -9.91944,3.98638 -15.36174,4.80758 -2.21231,0.33382 -9.37711,0.61153 -10.97266,0.42531 z m 13.38666,-42.53798 -11.96021,-7.07291 -0.0562,-17.15598 -0.0562,-17.15595 2.3056,0 2.30559,0 0.006,15.74577 0.006,15.74578 10.95848,6.47387 c 6.02714,3.56063 10.96253,6.55892 10.96749,6.66286 0.0142,0.28371 -2.19174,3.87412 -2.36486,3.85019 -0.0823,-0.0114 -5.53193,-3.20352 -12.11004,-7.09363 z"
       id="path4430"
       inkscape:connector-curvature="0" />
  </g>
</svg>
