<?xml version="1.0" encoding="UTF-8" standalone="no"?>
<!-- Created with Inkscape (http://www.inkscape.org/) -->

<svg
   xmlns:dc="http://purl.org/dc/elements/1.1/"
   xmlns:cc="http://creativecommons.org/ns#"
   xmlns:rdf="http://www.w3.org/1999/02/22-rdf-syntax-ns#"
   xmlns:svg="http://www.w3.org/2000/svg"
   xmlns="http://www.w3.org/2000/svg"
   xmlns:xlink="http://www.w3.org/1999/xlink"
   xmlns:sodipodi="http://sodipodi.sourceforge.net/DTD/sodipodi-0.dtd"
   xmlns:inkscape="http://www.inkscape.org/namespaces/inkscape"
   width="400"
   height="400"
   id="svg2"
   version="1.1"
   inkscape:version="0.48.4 r9939"
   sodipodi:docname="WeightedSum.svg"
   inkscape:export-filename="/home/lompolbx/workspace/src/cedar.fieldFramework/cedar/processing/gui/icons/steps/gauss_input.png"
   inkscape:export-xdpi="9"
   inkscape:export-ydpi="9">
  <sodipodi:namedview
     id="base"
     pagecolor="#ffffff"
     bordercolor="#666666"
     borderopacity="1.0"
     inkscape:pageopacity="0.0"
     inkscape:pageshadow="2"
     inkscape:zoom="0.90509668"
     inkscape:cx="427.50519"
     inkscape:cy="288.31369"
     inkscape:document-units="px"
     inkscape:current-layer="g3797"
     showgrid="false"
     inkscape:window-width="2048"
     inkscape:window-height="1102"
     inkscape:window-x="0"
     inkscape:window-y="0"
     inkscape:window-maximized="1"
     showguides="true"
     inkscape:guide-bbox="true" />
  <defs
     id="defs4">
    <marker
       style="overflow:visible"
       id="TriangleOutM"
       refX="0.0"
       refY="0.0"
       orient="auto"
       inkscape:stockid="TriangleOutM">
      <path
         transform="scale(0.4)"
         style="fill-rule:evenodd;stroke:#000000;stroke-width:1.0pt;marker-start:none"
         d="M 5.77,0.0 L -2.88,5.0 L -2.88,-5.0 L 5.77,0.0 z "
         id="path4501" />
    </marker>
    <marker
       style="overflow:visible"
       id="TriangleInM"
       refX="0.0"
       refY="0.0"
       orient="auto"
       inkscape:stockid="TriangleInM">
      <path
         transform="scale(-0.4)"
         style="fill-rule:evenodd;stroke:#000000;stroke-width:1.0pt;marker-start:none"
         d="M 5.77,0.0 L -2.88,5.0 L -2.88,-5.0 L 5.77,0.0 z "
         id="path4492" />
    </marker>
    <marker
       inkscape:stockid="Arrow1Sstart"
       orient="auto"
       refY="0.0"
       refX="0.0"
       id="Arrow1Sstart"
       style="overflow:visible">
      <path
         id="path3903"
         d="M 0.0,0.0 L 5.0,-5.0 L -12.5,0.0 L 5.0,5.0 L 0.0,0.0 z "
         style="fill-rule:evenodd;stroke:#000000;stroke-width:1.0pt;marker-start:none"
         transform="scale(0.2) translate(6,0)" />
    </marker>
    <marker
       style="overflow:visible"
       id="TriangleOutS"
       refX="0.0"
       refY="0.0"
       orient="auto"
       inkscape:stockid="TriangleOutS">
      <path
         transform="scale(0.2)"
         style="fill-rule:evenodd;stroke:#000000;stroke-width:1.0pt;marker-start:none"
         d="M 5.77,0.0 L -2.88,5.0 L -2.88,-5.0 L 5.77,0.0 z "
         id="path3799" />
    </marker>
    <marker
       style="overflow:visible"
       id="TriangleInS"
       refX="0.0"
       refY="0.0"
       orient="auto"
       inkscape:stockid="TriangleInS">
      <path
         transform="scale(-0.2)"
         style="fill-rule:evenodd;stroke:#000000;stroke-width:1.0pt;marker-start:none"
         d="M 5.77,0.0 L -2.88,5.0 L -2.88,-5.0 L 5.77,0.0 z "
         id="path3790" />
    </marker>
    <marker
       inkscape:stockid="Arrow1Lstart"
       orient="auto"
       refY="0.0"
       refX="0.0"
       id="Arrow1Lstart"
       style="overflow:visible">
      <path
         id="path3650"
         d="M 0.0,0.0 L 5.0,-5.0 L -12.5,0.0 L 5.0,5.0 L 0.0,0.0 z "
         style="fill-rule:evenodd;stroke:#000000;stroke-width:1.0pt;marker-start:none"
         transform="scale(0.8) translate(12.5,0)" />
    </marker>
    <marker
       inkscape:stockid="Arrow1Send"
       orient="auto"
       refY="0.0"
       refX="0.0"
       id="Arrow1Send"
       style="overflow:visible;">
      <path
         id="path4396"
         d="M 0.0,0.0 L 5.0,-5.0 L -12.5,0.0 L 5.0,5.0 L 0.0,0.0 z "
         style="fill-rule:evenodd;stroke:#000000;stroke-width:1.0pt;marker-start:none;"
         transform="scale(0.2) rotate(180) translate(6,0)" />
    </marker>
    <marker
       inkscape:stockid="Arrow2Send"
       orient="auto"
       refY="0.0"
       refX="0.0"
       id="Arrow2Send"
       style="overflow:visible;">
      <path
         id="path3644"
         style="font-size:12.0;fill-rule:evenodd;stroke-width:0.62500000;stroke-linejoin:round;"
         d="M 8.7185878,4.0337352 L -2.2072895,0.016013256 L 8.7185884,-4.0017078 C 6.9730900,-1.6296469 6.9831476,1.6157441 8.7185878,4.0337352 z "
         transform="scale(0.3) rotate(180) translate(-2.3,0)" />
    </marker>
    <marker
       inkscape:stockid="Arrow2Mend"
       orient="auto"
       refY="0.0"
       refX="0.0"
       id="Arrow2Mend"
       style="overflow:visible;">
      <path
         id="path3638"
         style="font-size:12.0;fill-rule:evenodd;stroke-width:0.62500000;stroke-linejoin:round;"
         d="M 8.7185878,4.0337352 L -2.2072895,0.016013256 L 8.7185884,-4.0017078 C 6.9730900,-1.6296469 6.9831476,1.6157441 8.7185878,4.0337352 z "
         transform="scale(0.6) rotate(180) translate(0,0)" />
    </marker>
    <marker
       inkscape:stockid="Arrow1Lend"
       orient="auto"
       refY="0.0"
       refX="0.0"
       id="Arrow1Lend"
       style="overflow:visible;">
      <path
         id="path3614"
         d="M 0.0,0.0 L 5.0,-5.0 L -12.5,0.0 L 5.0,5.0 L 0.0,0.0 z "
         style="fill-rule:evenodd;stroke:#000000;stroke-width:1.0pt;marker-start:none;"
         transform="scale(0.8) rotate(180) translate(12.5,0)" />
    </marker>
    <linearGradient
       id="linearGradient3594">
      <stop
         style="stop-color:#8b8b8b;stop-opacity:1;"
         offset="0"
         id="stop3596" />
      <stop
         style="stop-color:#ffffff;stop-opacity:1;"
         offset="1"
         id="stop3598" />
    </linearGradient>
    <linearGradient
       id="linearGradient3619">
      <stop
         style="stop-color:#7e7e7e;stop-opacity:1;"
         offset="0"
         id="stop3621" />
      <stop
         style="stop-color:#ffffff;stop-opacity:1;"
         offset="1"
         id="stop3623" />
    </linearGradient>
    <inkscape:perspective
       sodipodi:type="inkscape:persp3d"
       inkscape:vp_x="0 : 526.18109 : 1"
       inkscape:vp_y="0 : 1000 : 0"
       inkscape:vp_z="744.09448 : 526.18109 : 1"
       inkscape:persp3d-origin="372.04724 : 350.78739 : 1"
       id="perspective10" />
    <radialGradient
       inkscape:collect="always"
       xlink:href="#linearGradient3619"
       id="radialGradient3625"
       cx="200.73691"
       cy="978.99298"
       fx="200.73691"
       fy="978.99298"
       r="73.451585"
       gradientTransform="matrix(1.2356686,-0.80521527,1.6978973,2.6055623,-1634.6325,-1339.7914)"
       gradientUnits="userSpaceOnUse" />
    <radialGradient
       inkscape:collect="always"
       xlink:href="#linearGradient3619"
       id="radialGradient3631"
       gradientUnits="userSpaceOnUse"
       gradientTransform="matrix(1.2356686,-0.80521527,1.6978973,2.6055623,-1634.6325,-1339.7914)"
       cx="200.73691"
       cy="978.99298"
       fx="200.73691"
       fy="978.99298"
       r="73.451585" />
    <marker
       inkscape:stockid="Arrow1Lstarto"
       orient="auto"
       refY="0.0"
       refX="0.0"
       id="Arrow1Lstarto"
       style="overflow:visible">
      <path
         id="path4701"
         d="M 0.0,0.0 L 5.0,-5.0 L -12.5,0.0 L 5.0,5.0 L 0.0,0.0 z "
         style="marker-start:none;stroke:#c30000;stroke-width:1.0pt;fill:#c30000;fill-rule:evenodd"
         transform="scale(0.8) translate(12.5,0)" />
    </marker>
    <marker
       inkscape:stockid="Arrow1LendU"
       orient="auto"
       refY="0.0"
       refX="0.0"
       id="Arrow1LendU"
       style="overflow:visible;">
      <path
         id="path4704"
         d="M 0.0,0.0 L 5.0,-5.0 L -12.5,0.0 L 5.0,5.0 L 0.0,0.0 z "
         style="marker-start:none;stroke:#c30000;stroke-width:1.0pt;fill:#c30000;fill-rule:evenodd"
         transform="scale(0.8) rotate(180) translate(12.5,0)" />
    </marker>
    <marker
       style="overflow:visible"
       id="TriangleOutS1"
       refX="0.0"
       refY="0.0"
       orient="auto"
       inkscape:stockid="TriangleOutS1">
      <path
         transform="scale(0.2)"
         style="marker-start:none;stroke:#9f9f9f;stroke-width:1.0pt;fill:#9f9f9f;fill-rule:evenodd"
         d="M 5.77,0.0 L -2.88,5.0 L -2.88,-5.0 L 5.77,0.0 z "
         id="path5583" />
    </marker>
    <marker
       inkscape:stockid="Arrow1Sstartn"
       orient="auto"
       refY="0.0"
       refX="0.0"
       id="Arrow1Sstartn"
       style="overflow:visible">
      <path
         id="path4595"
         d="M 0.0,0.0 L 5.0,-5.0 L -12.5,0.0 L 5.0,5.0 L 0.0,0.0 z "
         style="marker-start:none;stroke:#c30000;stroke-width:1.0pt;fill:#c30000;fill-rule:evenodd"
         transform="scale(0.2) translate(6,0)" />
    </marker>
    <marker
       inkscape:stockid="Arrow1SendF"
       orient="auto"
       refY="0.0"
       refX="0.0"
       id="Arrow1SendF"
       style="overflow:visible;">
      <path
         id="path4598"
         d="M 0.0,0.0 L 5.0,-5.0 L -12.5,0.0 L 5.0,5.0 L 0.0,0.0 z "
         style="marker-start:none;stroke:#c30000;stroke-width:1.0pt;fill:#c30000;fill-rule:evenodd"
         transform="scale(0.2) rotate(180) translate(6,0)" />
    </marker>
    <marker
       inkscape:stockid="Arrow1Sstartk"
       orient="auto"
       refY="0.0"
       refX="0.0"
       id="Arrow1Sstartk"
       style="overflow:visible">
      <path
         id="path4601"
         d="M 0.0,0.0 L 5.0,-5.0 L -12.5,0.0 L 5.0,5.0 L 0.0,0.0 z "
         style="marker-start:none;stroke:#c30000;stroke-width:1.0pt;fill:#c30000;fill-rule:evenodd"
         transform="scale(0.2) translate(6,0)" />
    </marker>
    <marker
       inkscape:stockid="Arrow1Send7"
       orient="auto"
       refY="0.0"
       refX="0.0"
       id="Arrow1Send7"
       style="overflow:visible;">
      <path
         id="path4604"
         d="M 0.0,0.0 L 5.0,-5.0 L -12.5,0.0 L 5.0,5.0 L 0.0,0.0 z "
         style="marker-start:none;stroke:#c30000;stroke-width:1.0pt;fill:#c30000;fill-rule:evenodd"
         transform="scale(0.2) rotate(180) translate(6,0)" />
    </marker>
    <marker
       style="overflow:visible"
       id="TriangleInMK"
       refX="0.0"
       refY="0.0"
       orient="auto"
       inkscape:stockid="TriangleInMK">
      <path
         transform="scale(-0.4)"
         style="marker-start:none;stroke:#c30000;stroke-width:1.0pt;fill:#c30000;fill-rule:evenodd"
         d="M 5.77,0.0 L -2.88,5.0 L -2.88,-5.0 L 5.77,0.0 z "
         id="path5095" />
    </marker>
    <marker
       style="overflow:visible"
       id="TriangleOutMv"
       refX="0.0"
       refY="0.0"
       orient="auto"
       inkscape:stockid="TriangleOutMv">
      <path
         transform="scale(0.4)"
         style="marker-start:none;stroke:#c30000;stroke-width:1.0pt;fill:#c30000;fill-rule:evenodd"
         d="M 5.77,0.0 L -2.88,5.0 L -2.88,-5.0 L 5.77,0.0 z "
         id="path5098" />
    </marker>
    <marker
       style="overflow:visible"
       id="TriangleInMj"
       refX="0.0"
       refY="0.0"
       orient="auto"
       inkscape:stockid="TriangleInMj">
      <path
         transform="scale(-0.4)"
         style="marker-start:none;stroke:#c30000;stroke-width:1.0pt;fill:#c30000;fill-rule:evenodd"
         d="M 5.77,0.0 L -2.88,5.0 L -2.88,-5.0 L 5.77,0.0 z "
         id="path5101" />
    </marker>
    <marker
       style="overflow:visible"
       id="TriangleOutM9"
       refX="0.0"
       refY="0.0"
       orient="auto"
       inkscape:stockid="TriangleOutM9">
      <path
         transform="scale(0.4)"
         style="marker-start:none;stroke:#c30000;stroke-width:1.0pt;fill:#c30000;fill-rule:evenodd"
         d="M 5.77,0.0 L -2.88,5.0 L -2.88,-5.0 L 5.77,0.0 z "
         id="path5104" />
    </marker>
    <inkscape:perspective
       id="perspective3800"
       inkscape:persp3d-origin="0.5 : 0.33333333 : 1"
       inkscape:vp_z="1 : 0.5 : 1"
       inkscape:vp_y="0 : 1000 : 0"
       inkscape:vp_x="0 : 0.5 : 1"
       sodipodi:type="inkscape:persp3d" />
    <inkscape:perspective
       id="perspective3822"
       inkscape:persp3d-origin="0.5 : 0.33333333 : 1"
       inkscape:vp_z="1 : 0.5 : 1"
       inkscape:vp_y="0 : 1000 : 0"
       inkscape:vp_x="0 : 0.5 : 1"
       sodipodi:type="inkscape:persp3d" />
    <inkscape:perspective
       id="perspective3844"
       inkscape:persp3d-origin="0.5 : 0.33333333 : 1"
       inkscape:vp_z="1 : 0.5 : 1"
       inkscape:vp_y="0 : 1000 : 0"
       inkscape:vp_x="0 : 0.5 : 1"
       sodipodi:type="inkscape:persp3d" />
    <inkscape:perspective
       id="perspective2860"
       inkscape:persp3d-origin="0.5 : 0.33333333 : 1"
       inkscape:vp_z="1 : 0.5 : 1"
       inkscape:vp_y="0 : 1000 : 0"
       inkscape:vp_x="0 : 0.5 : 1"
       sodipodi:type="inkscape:persp3d" />
    <inkscape:perspective
       id="perspective2905"
       inkscape:persp3d-origin="0.5 : 0.33333333 : 1"
       inkscape:vp_z="1 : 0.5 : 1"
       inkscape:vp_y="0 : 1000 : 0"
       inkscape:vp_x="0 : 0.5 : 1"
       sodipodi:type="inkscape:persp3d" />
    <inkscape:perspective
       id="perspective2927"
       inkscape:persp3d-origin="0.5 : 0.33333333 : 1"
       inkscape:vp_z="1 : 0.5 : 1"
       inkscape:vp_y="0 : 1000 : 0"
       inkscape:vp_x="0 : 0.5 : 1"
       sodipodi:type="inkscape:persp3d" />
  </defs>
  <metadata
     id="metadata7">
    <rdf:RDF>
      <cc:Work
         rdf:about="">
        <dc:format>image/svg+xml</dc:format>
        <dc:type
           rdf:resource="http://purl.org/dc/dcmitype/StillImage" />
        <dc:title />
      </cc:Work>
    </rdf:RDF>
  </metadata>
  <g
     inkscape:label="Layer 1"
     inkscape:groupmode="layer"
     id="layer1"
     transform="translate(0,-652.3622)">
    <g
       id="g3797"
       transform="translate(-3.5e-6,-5.8413686)">
      <text
         transform="translate(3.5e-6,658.20357)"
         sodipodi:linespacing="125%"
         id="text3051"
         y="357.56024"
         x="-331.70016"
         style="font-size:15px;font-style:normal;font-weight:normal;line-height:125%;letter-spacing:0px;word-spacing:0px;fill:#000000;fill-opacity:1;stroke:none;font-family:Sans"
         xml:space="preserve"><tspan
           style="font-size:100px"
           id="tspan3055"
           y="357.56024"
           x="-331.70016"
           sodipodi:role="line" /></text>
      <g
         id="g3876">
        <g
           text-anchor="start"
           word-spacing="normal"
           letter-spacing="normal"
           font-size-adjust="none"
           font-stretch="normal"
           font-weight="normal"
           font-variant="normal"
           font-style="normal"
           fill-opacity="1"
           fill-rule="evenodd"
           fill="none"
           stroke-opacity="1"
           stroke-dashoffset="0"
           stroke-dasharray="none"
           stroke-miterlimit="10.433"
           stroke-linejoin="miter"
           stroke-linecap="butt"
           stroke="black"
           xml:space="preserve"
           transform="matrix(0.571428571429,0,0,-0.571428571429,-100.0,300.0)"
           id="g3878"><path
             id="path3880"
             fill="black"
             stroke-width="0"
             d="M476.49,416.91 L458.8,395.05 C458.41,394.55,458.36,394.44,458.36,394.25 C458.36,393.69,458.8,393.69,459.71,393.69 H501 L505.29,406.1 H504.05 C502.8,402.36,499.46,399.33,495.22,397.88 C494.43,397.63,490.99,396.44,483.68,396.44 H462.49 L479.79,417.82 C480.13,418.25,480.24,418.41,480.24,418.61 C480.24,418.8,480.18,418.86,479.88,419.3 L463.69,441.52 H483.43 C489.1,441.52,500.55,441.18,504.05,431.86 H505.29 L501,443.52 H459.71 C458.36,443.52,458.32,443.47,458.32,441.93 Z " /><path
             id="path3882"
             fill="black"
             stroke-width="0"
             d="M528.34,440.83 L528.17,441.03 L528.01,441.21 L527.85,441.39 L527.7,441.57 L527.56,441.73 L527.42,441.89 L527.29,442.04 L527.17,442.18 L527.04,442.32 L526.92,442.45 L526.81,442.58 L526.7,442.7 L526.59,442.81 L526.48,442.92 L526.38,443.03 L526.28,443.13 L526.08,443.32 L525.88,443.51 L525.69,443.68 L525.49,443.85 L525.29,444.01 L525.07,444.18 L524.96,444.26 L524.85,444.34 L524.73,444.43 L524.6,444.52 C522.48,446.06,520.26,446.64,518.34,446.64 C514.01,446.64,510.89,442.95,510.89,438.77 H511.86 C511.86,442.12,514.57,444.73,517.78,444.73 C521.03,444.73,523.25,442.08,526.59,438.05 H526.59 C525.2,435.78,522.17,432.25,517.92,432.25 C514.32,432.25,511.86,435.42,511.86,438.77 H510.89 C510.89,434.7,513.87,430.94,518.23,430.94 C523.07,430.94,526.47,434.91,527.72,436.75 C529.56,434.59,530.12,434,531.43,433.06 C533.56,431.53,535.79,430.94,537.72,430.94 C542.03,430.94,545.17,434.62,545.17,438.81 H544.2 C544.2,435.47,541.48,432.84,538.28,432.84 C535.03,432.84,532.79,435.5,529.45,439.55 H529.45 C530.85,441.8,533.89,445.33,538.14,445.33 C541.72,445.33,544.2,442.16,544.2,438.81 H545.17 C545.17,442.89,542.17,446.64,537.82,446.64 C532.98,446.64,529.59,442.67,528.34,440.83 Z " /><path
             id="path3884"
             fill="black"
             stroke-width="0"
             d="M519.5,412.98 L519.49,413.03 L519.49,413.09 L519.48,413.14 L519.48,413.19 L519.46,413.25 L519.45,413.31 L519.43,413.36 L519.41,413.42 L519.39,413.47 L519.37,413.53 L519.34,413.59 L519.31,413.64 L519.28,413.69 L519.24,413.75 L519.2,413.8 L519.16,413.85 L519.12,413.9 L519.07,413.95 L519.02,413.99 L518.97,414.03 L518.91,414.07 L518.85,414.11 L518.79,414.15 L518.72,414.18 L518.66,414.21 L518.59,414.23 L518.51,414.26 L518.43,414.27 L518.35,414.29 L518.27,414.3 L518.18,414.31 L518.09,414.31 C517.15,414.31,516.14,413.4,516.14,412.39 C516.14,411.79,516.59,411.06,517.54,411.06 C518.54,411.06,519.5,412.04,519.5,412.98 Z " /><path
             id="path3886"
             fill="black"
             stroke-width="0"
             d="M512.39,395.28 L512.33,395.11 L512.28,394.94 L512.25,394.86 L512.23,394.77 L512.2,394.68 L512.18,394.6 L512.16,394.51 L512.14,394.41 L512.12,394.32 L512.1,394.22 L512.09,394.13 L512.09,394.08 L512.08,394.02 L512.08,393.97 L512.08,393.92 L512.07,393.86 L512.07,393.81 C512.07,392.17,513.47,390.86,515.37,390.86 C518.85,390.86,520.4,395.65,520.4,396.18 C520.4,396.64,519.95,396.64,519.84,396.64 C519.35,396.64,519.31,396.43,519.17,396.04 C518.37,393.26,516.84,391.82,515.48,391.82 C514.78,391.82,514.6,392.28,514.6,393.04 C514.6,393.84,514.85,394.51,515.17,395.28 C515.51,396.21,515.9,397.15,516.28,398.06 C516.59,398.9,517.85,402.07,518,402.5 C518.09,402.84,518.2,403.26,518.2,403.61 C518.2,405.25,516.81,406.56,514.89,406.56 C511.43,406.56,509.84,401.82,509.84,401.23 C509.84,400.78,510.32,400.78,510.43,400.78 C510.92,400.78,510.95,400.95,511.06,401.34 C511.96,404.34,513.5,405.59,514.78,405.59 C515.34,405.59,515.65,405.31,515.65,404.37 C515.65,403.57,515.45,403.04,514.57,400.89 Z " /><path
             id="path3888"
             fill="black"
             stroke-width="0"
             d="M549,402.9 L549.05,402.9 L549.1,402.9 L549.16,402.9 L549.21,402.9 L549.32,402.91 L549.37,402.91 L549.43,402.92 L549.48,402.92 L549.54,402.93 L549.59,402.94 L549.65,402.95 L549.7,402.96 L549.75,402.98 L549.8,402.99 L549.85,403.01 L549.9,403.03 L549.95,403.06 L549.99,403.09 L550.04,403.12 L550.08,403.15 L550.12,403.19 L550.15,403.23 L550.17,403.25 L550.18,403.27 L550.2,403.29 L550.21,403.32 L550.23,403.34 L550.24,403.37 L550.25,403.4 L550.26,403.43 L550.27,403.46 L550.28,403.49 L550.29,403.52 L550.3,403.55 L550.3,403.59 L550.31,403.62 L550.31,403.66 L550.31,403.7 L550.32,403.74 L550.32,403.78 C550.32,404.62,549.49,404.62,549.03,404.62 H525.97 C525.52,404.62,524.68,404.62,524.68,403.78 C524.68,402.9,525.47,402.9,526,402.9 Z " /><path
             id="path3890"
             fill="black"
             stroke-width="0"
             d="M549.03,395.25 L549.08,395.25 L549.12,395.25 L549.17,395.25 L549.22,395.25 L549.27,395.25 L549.32,395.25 L549.37,395.25 L549.43,395.26 L549.48,395.26 L549.53,395.27 L549.59,395.28 L549.64,395.29 L549.69,395.3 L549.74,395.32 L549.8,395.33 L549.85,395.35 L549.89,395.37 L549.94,395.39 L549.99,395.42 L550.03,395.45 L550.07,395.48 L550.11,395.52 L550.15,395.55 L550.16,395.57 L550.18,395.6 L550.2,395.62 L550.21,395.64 L550.22,395.66 L550.24,395.69 L550.25,395.72 L550.26,395.74 L550.27,395.77 L550.28,395.8 L550.29,395.83 L550.3,395.86 L550.3,395.89 L550.31,395.93 L550.31,395.96 L550.31,396 L550.32,396.04 L550.32,396.07 C550.32,396.95,549.52,396.95,549,396.95 H526 C525.47,396.95,524.68,396.95,524.68,396.07 C524.68,395.25,525.52,395.25,525.97,395.25 Z " /><path
             id="path3892"
             fill="black"
             stroke-width="0"
             d="M570.82,402.31 L570.81,403.02 L570.8,403.7 L570.77,404.36 L570.72,405 L570.67,405.62 L570.59,406.21 L570.5,406.79 L570.39,407.35 L570.26,407.9 L570.12,408.42 L569.95,408.94 L569.76,409.44 L569.55,409.93 L569.31,410.41 L569.05,410.88 L568.91,411.11 L568.76,411.34 C567.68,412.95,565.52,414.34,562.73,414.34 C554.65,414.34,554.65,404.82,554.65,402.31 C554.65,399.81,554.65,390.5,562.73,390.5 V391.48 C561.13,391.48,559.01,392.42,558.3,395.28 C557.82,397.32,557.82,400.18,557.82,402.76 C557.82,405.31,557.82,407.96,558.34,409.87 C559.07,412.62,561.3,413.36,562.73,413.36 C564.62,413.36,566.43,412.21,567.05,410.18 C567.62,408.31,567.65,405.79,567.65,402.76 C567.65,400.18,567.65,397.61,567.2,395.42 C566.49,392.25,564.13,391.48,562.73,391.48 H562.73 V390.5 C570.82,390.5,570.82,399.81,570.82,402.31 Z " /><path
             id="path3894"
             fill="black"
             stroke-width="0"
             d="M606.46,423.09 L606.48,423.19 L606.51,423.3 L606.53,423.42 L606.56,423.53 L606.59,423.65 L606.62,423.77 L606.68,424.02 L606.74,424.27 L606.8,424.52 L606.87,424.76 L606.93,425.01 L606.95,425.12 L606.98,425.24 L607.01,425.35 L607.04,425.46 L607.06,425.56 L607.08,425.66 L607.11,425.76 L607.12,425.85 L607.14,425.93 L607.16,426.01 L607.17,426.08 L607.18,426.14 L607.19,426.2 L607.2,426.25 L607.21,426.29 L607.21,426.32 C607.21,427.23,606.5,427.67,605.75,427.67 C605.16,427.67,604.27,427.28,603.93,426.28 C603.77,425.93,601.43,416.42,601.08,415.12 C600.72,413.62,600.63,412.73,600.63,411.82 C600.63,411.28,600.63,411.18,600.68,410.93 C599.53,408.29,598.03,406.75,596.1,406.75 C592.11,406.75,592.11,410.43,592.11,411.28 C592.11,412.87,592.36,414.82,594.71,420.95 C595.25,422.43,595.55,423.14,595.55,424.14 C595.55,426.37,593.91,428.21,591.46,428.21 C586.72,428.21,584.88,421,584.88,420.54 C584.88,420.04,585.38,420.04,585.49,420.04 C585.99,420.04,586.03,420.15,586.28,420.95 C587.63,425.57,589.57,427.12,591.32,427.12 C591.75,427.12,592.57,427.07,592.57,425.48 C592.57,424.23,592,422.84,591.66,422 C589.47,416.12,588.88,413.82,588.88,411.93 C588.88,407.4,592.21,405.65,595.94,405.65 C596.8,405.65,599.13,405.65,601.13,409.14 C602.43,405.95,605.86,405.65,607.36,405.65 C611.1,405.65,613.28,408.79,614.58,411.78 C616.27,415.67,617.86,422.34,617.86,424.73 C617.86,427.48,616.52,428.21,615.68,428.21 C614.43,428.21,613.19,426.92,613.19,425.82 C613.19,425.18,613.49,424.89,613.93,424.48 C614.47,423.93,615.72,422.64,615.72,420.25 C615.72,418.56,614.28,413.67,612.99,411.14 C611.69,408.5,609.94,406.75,607.5,406.75 C605.16,406.75,603.82,408.25,603.82,411.07 C603.82,412.48,604.16,414.03,604.36,414.71 Z " /><path
             id="path3896"
             fill="black"
             stroke-width="0"
             d="M630.38,420.54 L630.37,420.59 L630.37,420.65 L630.36,420.7 L630.35,420.76 L630.34,420.81 L630.33,420.87 L630.31,420.92 L630.29,420.98 L630.27,421.04 L630.25,421.09 L630.22,421.15 L630.19,421.2 L630.16,421.26 L630.12,421.31 L630.08,421.36 L630.04,421.41 L630,421.46 L629.95,421.51 L629.9,421.55 L629.85,421.6 L629.79,421.64 L629.73,421.67 L629.67,421.71 L629.6,421.74 L629.54,421.77 L629.46,421.8 L629.39,421.82 L629.31,421.84 L629.23,421.85 L629.15,421.86 L629.06,421.87 L628.97,421.87 C628.03,421.87,627.02,420.96,627.02,419.95 C627.02,419.36,627.47,418.62,628.42,418.62 C629.42,418.62,630.38,419.61,630.38,420.54 Z " /><path
             id="path3898"
             fill="black"
             stroke-width="0"
             d="M623.27,402.84 L623.21,402.67 L623.16,402.5 L623.13,402.42 L623.11,402.33 L623.08,402.25 L623.06,402.16 L623.03,402.07 L623.01,401.98 L623,401.88 L622.98,401.79 L622.97,401.69 L622.96,401.64 L622.96,401.59 L622.96,401.53 L622.95,401.48 L622.95,401.43 L622.95,401.37 C622.95,399.73,624.34,398.42,626.25,398.42 C629.73,398.42,631.28,403.21,631.28,403.75 C631.28,404.2,630.83,404.2,630.72,404.2 C630.23,404.2,630.19,404,630.05,403.61 C629.25,400.82,627.72,399.39,626.36,399.39 C625.66,399.39,625.48,399.84,625.48,400.61 C625.48,401.4,625.73,402.07,626.05,402.84 C626.39,403.78,626.78,404.71,627.16,405.62 C627.47,406.46,628.73,409.64,628.88,410.06 C628.97,410.4,629.08,410.82,629.08,411.17 C629.08,412.81,627.69,414.12,625.77,414.12 C622.31,414.12,620.72,409.39,620.72,408.79 C620.72,408.34,621.2,408.34,621.31,408.34 C621.8,408.34,621.83,408.51,621.94,408.9 C622.84,411.9,624.38,413.15,625.66,413.15 C626.22,413.15,626.53,412.87,626.53,411.93 C626.53,411.14,626.33,410.61,625.45,408.45 Z " /><path
             id="path3900"
             fill="black"
             stroke-width="0"
             d="M652.4,421.25 L652.43,421.38 L652.47,421.53 L652.51,421.69 L652.56,421.87 L652.61,422.06 L652.67,422.27 L652.73,422.49 L652.81,422.71 L652.89,422.94 L652.97,423.18 L653.07,423.43 L653.17,423.67 L653.28,423.92 L653.4,424.17 L653.53,424.42 L653.67,424.67 L653.82,424.91 L653.97,425.15 L654.14,425.38 L654.32,425.6 L654.51,425.82 L654.7,426.02 L654.91,426.21 L655.13,426.39 L655.37,426.55 L655.61,426.69 L655.74,426.76 L655.87,426.82 L656,426.87 L656.14,426.92 L656.27,426.97 L656.42,427.01 L656.56,427.04 L656.71,427.07 L656.86,427.09 L657.02,427.11 L657.18,427.12 L657.34,427.12 C657.59,427.12,658.78,427.12,659.82,426.48 C658.43,426.23,657.43,424.98,657.43,423.79 C657.43,423,657.98,422.04,659.32,422.04 C660.42,422.04,662.01,422.93,662.01,424.93 C662.01,427.53,659.07,428.21,657.39,428.21 C654.5,428.21,652.75,425.57,652.15,424.43 C650.9,427.71,648.22,428.21,646.78,428.21 C641.59,428.21,638.75,421.79,638.75,420.54 C638.75,420.04,639.25,420.04,639.35,420.04 C639.75,420.04,639.9,420.15,640,420.59 C641.68,425.87,644.98,427.12,646.67,427.12 C647.62,427.12,649.35,426.68,649.35,423.79 C649.35,422.25,648.51,418.9,646.67,411.93 C645.87,408.84,644.14,406.75,641.93,406.75 C641.64,406.75,640.5,406.75,639.45,407.4 C640.7,407.64,641.79,408.68,641.79,410.09 C641.79,411.43,640.7,411.82,639.95,411.82 C638.45,411.82,637.2,410.53,637.2,408.93 C637.2,406.65,639.7,405.65,641.89,405.65 C645.18,405.65,646.97,409.14,647.12,409.43 C647.72,407.59,649.51,405.65,652.5,405.65 C657.64,405.65,660.48,412.07,660.48,413.32 C660.48,413.82,660.03,413.82,659.87,413.82 C659.43,413.82,659.32,413.62,659.23,413.28 C657.59,407.95,654.2,406.75,652.6,406.75 C650.65,406.75,649.85,408.34,649.85,410.04 C649.85,411.14,650.15,412.23,650.72,414.42 Z " /><path
             id="path3902"
             fill="black"
             stroke-width="0"
             d="M675.5,420.54 L675.49,420.59 L675.49,420.65 L675.48,420.7 L675.48,420.76 L675.46,420.81 L675.45,420.87 L675.43,420.92 L675.41,420.98 L675.39,421.04 L675.37,421.09 L675.34,421.15 L675.31,421.2 L675.28,421.26 L675.24,421.31 L675.2,421.36 L675.16,421.41 L675.12,421.46 L675.07,421.51 L675.02,421.55 L674.97,421.6 L674.91,421.64 L674.85,421.67 L674.79,421.71 L674.72,421.74 L674.66,421.77 L674.59,421.8 L674.51,421.82 L674.43,421.84 L674.35,421.85 L674.27,421.86 L674.18,421.87 L674.09,421.87 C673.15,421.87,672.14,420.96,672.14,419.95 C672.14,419.36,672.59,418.62,673.54,418.62 C674.54,418.62,675.5,419.61,675.5,420.54 Z " /><path
             id="path3904"
             fill="black"
             stroke-width="0"
             d="M668.39,402.84 L668.33,402.67 L668.28,402.5 L668.25,402.42 L668.23,402.33 L668.2,402.25 L668.18,402.16 L668.16,402.07 L668.14,401.98 L668.12,401.88 L668.1,401.79 L668.09,401.69 L668.09,401.64 L668.08,401.59 L668.08,401.53 L668.08,401.48 L668.07,401.43 L668.07,401.37 C668.07,399.73,669.47,398.42,671.37,398.42 C674.85,398.42,676.4,403.21,676.4,403.75 C676.4,404.2,675.95,404.2,675.84,404.2 C675.35,404.2,675.31,404,675.17,403.61 C674.37,400.82,672.84,399.39,671.48,399.39 C670.78,399.39,670.6,399.84,670.6,400.61 C670.6,401.4,670.85,402.07,671.17,402.84 C671.51,403.78,671.9,404.71,672.28,405.62 C672.59,406.46,673.85,409.64,674,410.06 C674.09,410.4,674.2,410.82,674.2,411.17 C674.2,412.81,672.81,414.12,670.89,414.12 C667.43,414.12,665.84,409.39,665.84,408.79 C665.84,408.34,666.32,408.34,666.43,408.34 C666.92,408.34,666.95,408.51,667.06,408.9 C667.97,411.9,669.5,413.15,670.78,413.15 C671.34,413.15,671.65,412.87,671.65,411.93 C671.65,411.14,671.45,410.61,670.57,408.45 Z " /></g>      </g>
      <g
         id="g4100">
        <g
           id="g4102"
           transform="matrix(0.571428571429,0,0,-0.571428571429,-100.0,300.0)"
           xml:space="preserve"
           stroke="black"
           stroke-linecap="butt"
           stroke-linejoin="miter"
           stroke-miterlimit="10.433"
           stroke-dasharray="none"
           stroke-dashoffset="0"
           stroke-opacity="1"
           fill="none"
           fill-rule="evenodd"
           fill-opacity="1"
           font-style="normal"
           font-variant="normal"
           font-weight="normal"
           font-stretch="normal"
           font-size-adjust="none"
           letter-spacing="normal"
           word-spacing="normal"
           text-anchor="start"><path
             d="M1251.5,392.36 L1251.6,392.61 L1251.6,392.85 L1251.7,392.96 L1251.7,393.08 L1251.8,393.19 L1251.8,393.31 L1251.9,393.42 L1252,393.52 L1252,393.63 L1252.1,393.73 L1252.2,393.83 L1252.2,393.92 L1252.3,394.01 L1252.4,394.1 L1252.5,394.19 L1252.6,394.27 L1252.8,394.34 L1252.9,394.42 L1253,394.48 L1253.2,394.55 L1253.3,394.61 L1253.5,394.66 L1253.7,394.71 L1253.8,394.76 L1254,394.79 L1254.2,394.83 L1254.5,394.86 L1254.6,394.87 L1254.7,394.88 L1254.8,394.89 L1254.9,394.9 L1255.1,394.9 L1255.2,394.91 C1255.4,394.91,1255.9,394.94,1255.9,395.67 C1255.9,395.88,1255.7,396.16,1255.4,396.16 C1254.2,396.16,1252.9,396.02,1251.7,396.02 C1250.9,396.02,1248.9,396.16,1248.1,396.16 C1247.9,396.16,1247.3,396.16,1247.3,395.39 C1247.3,394.94,1247.8,394.91,1248.1,394.91 C1249.8,394.88,1250.3,394.34,1250.3,393.47 C1250.3,393.2,1250.3,393.02,1250.2,392.64 L1246.4,377.45 L1237.6,395.56 C1237.3,396.16,1237.2,396.16,1236.4,396.16 H1231.6 C1230.9,396.16,1230.5,396.16,1230.5,395.39 C1230.5,394.91,1230.9,394.91,1231.6,394.91 C1232.4,394.91,1233.1,394.88,1233.9,394.73 L1229.2,376.09 C1228.9,374.77,1228.3,373.72,1225.6,373.61 C1225.3,373.61,1224.8,373.58,1224.8,372.88 C1224.8,372.5,1225.1,372.36,1225.4,372.36 C1226.5,372.36,1227.8,372.5,1229,372.5 C1229.8,372.5,1231.8,372.36,1232.7,372.36 C1233,372.36,1233.4,372.53,1233.4,373.09 C1233.4,373.58,1233,373.61,1232.6,373.61 C1230.4,373.69,1230.4,374.59,1230.4,375.08 C1230.4,375.22,1230.4,375.39,1230.5,375.95 L1235,393.78 L1245.2,372.95 C1245.4,372.39,1245.6,372.36,1245.9,372.36 C1246.5,372.36,1246.5,372.47,1246.7,373.09 Z "
             stroke-width="0"
             fill="black"
             id="path4104" /><path
             d="M1267.3,287.73 L1273.3,303.67 H1272.1 C1270.1,298.5,1264.8,295.11,1259.1,293.61 C1258.1,293.36,1253.2,292.06,1243.6,292.06 H1213.6 L1238.9,321.81 C1239.3,322.2,1239.4,322.36,1239.4,322.61 C1239.4,322.7,1239.4,322.86,1239,323.36 L1215.8,355.09 H1243.1 C1249.8,355.09,1254.3,354.39,1254.8,354.29 C1257.5,353.89,1261.8,353.04,1265.7,350.56 C1267,349.76,1270.4,347.51,1272.1,343.48 H1273.3 L1267.3,357.48 H1208.4 C1207.2,357.48,1207.2,357.43,1207,357.14 C1207,356.98,1207,356.04,1207,355.48 L1233.3,319.42 L1207.5,289.17 C1207,288.57,1207,288.32,1207,288.28 C1207,287.73,1207.5,287.73,1208.4,287.73 Z "
             stroke-width="0"
             fill="black"
             id="path4106" /><path
             d="M1206.9,254.19 L1206.9,254.15 L1206.9,254.1 L1206.8,254.05 L1206.8,254.01 L1206.8,253.96 L1206.8,253.9 L1206.8,253.85 L1206.8,253.8 L1206.7,253.69 L1206.7,253.57 L1206.7,253.46 L1206.7,253.35 L1206.7,253.3 L1206.6,253.25 L1206.6,253.2 L1206.6,253.15 L1206.6,253.1 L1206.6,253.06 L1206.6,253.01 L1206.6,252.97 L1206.6,252.93 L1206.6,252.9 L1206.6,252.87 L1206.6,252.84 L1206.6,252.82 L1206.6,252.8 L1206.6,252.79 L1206.6,252.78 L1206.6,252.77 L1206.6,252.77 C1206.6,252,1207.2,251.66,1207.7,251.66 C1208.4,251.66,1208.9,252.11,1209.1,252.42 C1209.3,252.73,1209.6,253.84,1209.7,254.58 C1209.9,255.23,1210.3,256.84,1210.5,257.72 C1210.7,258.48,1210.9,259.25,1211.1,260.05 C1211.4,261.48,1211.5,261.75,1212.5,263.19 C1213.5,264.58,1215.2,266.39,1217.8,266.39 C1219.8,266.39,1219.8,264.61,1219.8,263.95 C1219.8,261.86,1218.3,258,1217.8,256.53 C1217.4,255.55,1217.2,255.23,1217.2,254.64 C1217.2,252.8,1218.8,251.66,1220.6,251.66 C1224,251.66,1225.6,256.45,1225.6,256.98 C1225.6,257.44,1225.1,257.44,1225,257.44 C1224.5,257.44,1224.5,257.23,1224.3,256.84 C1223.6,254.06,1222.1,252.62,1220.7,252.62 C1219.9,252.62,1219.8,253.11,1219.8,253.84 C1219.8,254.64,1219.9,255.09,1220.6,256.67 C1221,257.75,1222.4,261.44,1222.4,263.39 C1222.4,266.78,1219.8,267.36,1217.9,267.36 C1215,267.36,1213.1,265.59,1212,264.2 C1211.8,266.59,1209.7,267.36,1208.3,267.36 C1206.8,267.36,1206,266.28,1205.5,265.48 C1204.8,264.2,1204.3,262.2,1204.3,262.03 C1204.3,261.58,1204.8,261.58,1204.9,261.58 C1205.4,261.58,1205.4,261.69,1205.6,262.62 C1206.2,264.69,1206.8,266.39,1208.2,266.39 C1209.1,266.39,1209.3,265.62,1209.3,264.69 C1209.3,264.02,1209,262.73,1208.8,261.8 C1208.5,260.84,1208.2,259.42,1208,258.66 Z "
             stroke-width="0"
             fill="black"
             id="path4108" /><path
             d="M1254,263.7 L1254,263.7 L1254.1,263.7 L1254.2,263.7 L1254.2,263.7 L1254.3,263.71 L1254.4,263.71 L1254.4,263.72 L1254.5,263.72 L1254.5,263.73 L1254.6,263.74 L1254.6,263.75 L1254.7,263.76 L1254.8,263.78 L1254.8,263.79 L1254.9,263.81 L1254.9,263.83 L1255,263.86 L1255,263.89 L1255,263.92 L1255.1,263.95 L1255.1,263.99 L1255.2,264.03 L1255.2,264.05 L1255.2,264.07 L1255.2,264.1 L1255.2,264.12 L1255.2,264.15 L1255.2,264.17 L1255.3,264.2 L1255.3,264.23 L1255.3,264.26 L1255.3,264.29 L1255.3,264.32 L1255.3,264.35 L1255.3,264.39 L1255.3,264.42 L1255.3,264.46 L1255.3,264.5 L1255.3,264.54 L1255.3,264.58 C1255.3,265.42,1254.5,265.42,1254,265.42 H1231 C1230.5,265.42,1229.7,265.42,1229.7,264.58 C1229.7,263.7,1230.5,263.7,1231,263.7 Z "
             stroke-width="0"
             fill="black"
             id="path4110" /><path
             d="M1254,256.05 L1254.1,256.05 L1254.1,256.05 L1254.2,256.05 L1254.2,256.05 L1254.3,256.05 L1254.3,256.05 L1254.4,256.06 L1254.4,256.06 L1254.5,256.07 L1254.5,256.07 L1254.6,256.08 L1254.6,256.09 L1254.7,256.1 L1254.7,256.12 L1254.8,256.13 L1254.8,256.15 L1254.9,256.17 L1254.9,256.19 L1255,256.22 L1255,256.25 L1255.1,256.28 L1255.1,256.32 L1255.1,256.35 L1255.2,256.37 L1255.2,256.4 L1255.2,256.42 L1255.2,256.44 L1255.2,256.47 L1255.2,256.49 L1255.3,256.52 L1255.3,256.54 L1255.3,256.57 L1255.3,256.6 L1255.3,256.63 L1255.3,256.66 L1255.3,256.7 L1255.3,256.73 L1255.3,256.76 L1255.3,256.8 L1255.3,256.84 L1255.3,256.88 C1255.3,257.75,1254.5,257.75,1254,257.75 H1231 C1230.5,257.75,1229.7,257.75,1229.7,256.88 C1229.7,256.05,1230.5,256.05,1231,256.05 Z "
             stroke-width="0"
             fill="black"
             id="path4112" /><path
             d="M1275.8,263.11 L1275.8,263.82 L1275.8,264.5 L1275.8,265.16 L1275.7,265.8 L1275.7,266.42 L1275.6,267.01 L1275.5,267.59 L1275.4,268.15 L1275.3,268.7 L1275.1,269.23 L1275,269.74 L1274.8,270.24 L1274.5,270.73 L1274.3,271.21 L1274,271.68 L1273.9,271.91 L1273.8,272.14 C1272.7,273.75,1270.5,275.14,1267.7,275.14 C1259.7,275.14,1259.7,265.62,1259.7,263.11 C1259.7,260.61,1259.7,251.3,1267.7,251.3 V252.28 C1266.1,252.28,1264,253.22,1263.3,256.08 C1262.8,258.12,1262.8,260.98,1262.8,263.56 C1262.8,266.11,1262.8,268.77,1263.3,270.67 C1264.1,273.42,1266.3,274.16,1267.7,274.16 C1269.6,274.16,1271.4,273.02,1272.1,270.98 C1272.6,269.11,1272.7,266.59,1272.7,263.56 C1272.7,260.98,1272.7,258.41,1272.2,256.22 C1271.5,253.05,1269.1,252.28,1267.7,252.28 H1267.7 V251.3 C1275.8,251.3,1275.8,260.61,1275.8,263.11 Z "
             stroke-width="0"
             fill="black"
             id="path4114" /></g>      </g>
      <g
         id="g4326"
         transform="matrix(4.0760439,0,0,4.0760439,-2280.1761,401.106)">
        <g
           word-spacing="normal"
           letter-spacing="normal"
           font-size-adjust="none"
           font-stretch="normal"
           font-weight="normal"
           font-variant="normal"
           font-style="normal"
           stroke-miterlimit="10.433"
           xml:space="preserve"
           transform="matrix(0.57142857,0,0,-0.57142857,-100,300)"
           id="g4328"
           style="font-style:normal;font-variant:normal;font-weight:normal;font-stretch:normal;letter-spacing:normal;word-spacing:normal;text-anchor:start;fill:none;stroke:#000000;stroke-linecap:butt;stroke-linejoin:miter;stroke-miterlimit:10.43299961;stroke-opacity:1;stroke-dasharray:none;stroke-dashoffset:0"><path
             id="path4330"
             d="m 1187.6,390.79 -0.1,0.19 -0.2,0.19 -0.2,0.18 -0.1,0.17 -0.2,0.17 -0.1,0.16 -0.1,0.15 -0.2,0.14 -0.1,0.14 -0.1,0.13 -0.1,0.12 -0.1,0.12 -0.1,0.12 -0.1,0.11 -0.1,0.1 -0.1,0.11 -0.2,0.19 -0.2,0.18 -0.2,0.18 -0.2,0.16 -0.2,0.17 -0.2,0.16 -0.3,0.17 -0.1,0.09 -0.1,0.08 c -2.1,1.55 -4.4,2.13 -6.3,2.13 -4.3,0 -7.4,-3.69 -7.4,-7.88 h 0.9 c 0,3.36 2.8,5.97 6,5.97 3.2,0 5.4,-2.65 8.8,-6.69 h 0 c -1.4,-2.26 -4.5,-5.79 -8.7,-5.79 -3.6,0 -6.1,3.17 -6.1,6.51 h -0.9 c 0,-4.06 3,-7.83 7.3,-7.83 4.9,0 8.3,3.97 9.5,5.82 1.8,-2.16 2.4,-2.75 3.7,-3.69 2.1,-1.53 4.4,-2.13 6.3,-2.13 4.3,0 7.4,3.69 7.4,7.88 h -0.9 c 0,-3.34 -2.7,-5.97 -5.9,-5.97 -3.3,0 -5.5,2.66 -8.9,6.7 h 0 c 1.4,2.25 4.5,5.79 8.7,5.79 3.6,0 6.1,-3.18 6.1,-6.52 h 0.9 c 0,4.08 -3,7.83 -7.3,7.83 -4.8,0 -8.2,-3.97 -9.5,-5.81 z"
             inkscape:connector-curvature="0"
             style="fill:#000000;stroke-width:0" /><path
             id="path4332"
             d="m 1214.5,296.49 6,15.94 h -1.2 c -2,-5.18 -7.3,-8.57 -13,-10.07 -1,-0.25 -5.9,-1.54 -15.5,-1.54 h -30 l 25.3,29.75 c 0.4,0.39 0.5,0.54 0.5,0.79 0,0.1 0,0.25 -0.4,0.75 l -23.2,31.74 h 27.3 c 6.7,0 11.2,-0.71 11.7,-0.8 2.7,-0.41 7,-1.25 10.9,-3.73 1.3,-0.8 4.7,-3.05 6.4,-7.08 h 1.2 l -6,14 h -58.9 c -1.2,0 -1.2,-0.05 -1.4,-0.35 0,-0.15 0,-1.09 0,-1.65 l 26.3,-36.06 -25.8,-30.25 c -0.5,-0.6 -0.5,-0.85 -0.5,-0.89 0,-0.55 0.5,-0.55 1.4,-0.55 z"
             inkscape:connector-curvature="0"
             style="fill:#000000;stroke-width:0" /><path
             id="path4334"
             d="m 1166.3,281.94 0,0.05 0,0.06 0,0.05 0,0.06 0,0.05 0,0.06 -0.1,0.05 0,0.06 0,0.06 0,0.05 -0.1,0.06 0,0.05 0,0.06 -0.1,0.05 0,0.05 0,0.05 -0.1,0.05 0,0.05 -0.1,0.04 0,0.04 -0.1,0.04 0,0.04 -0.1,0.04 -0.1,0.03 0,0.03 -0.1,0.02 -0.1,0.03 -0.1,0.02 0,0.01 -0.1,0.01 -0.1,0.01 -0.1,0 c -1,0 -2,-0.91 -2,-1.92 0,-0.6 0.5,-1.33 1.4,-1.33 1,0 2,0.98 2,1.92 z"
             inkscape:connector-curvature="0"
             style="fill:#000000;stroke-width:0" /><path
             id="path4336"
             d="m 1159.2,264.24 -0.1,-0.17 0,-0.17 0,-0.08 -0.1,-0.09 0,-0.09 0,-0.08 0,-0.09 -0.1,-0.09 0,-0.1 0,-0.09 0,-0.1 0,-0.05 0,-0.06 0,-0.05 0,-0.05 0,-0.05 0,-0.06 c 0,-1.64 1.4,-2.95 3.3,-2.95 3.5,0 5,4.79 5,5.32 0,0.46 -0.4,0.46 -0.6,0.46 -0.4,0 -0.5,-0.21 -0.6,-0.6 -0.8,-2.78 -2.4,-4.21 -3.7,-4.21 -0.7,0 -0.9,0.45 -0.9,1.21 0,0.8 0.3,1.47 0.6,2.24 0.3,0.94 0.7,1.87 1.1,2.78 0.3,0.84 1.6,4.02 1.7,4.44 0.1,0.34 0.2,0.76 0.2,1.11 0,1.64 -1.4,2.95 -3.3,2.95 -3.5,0 -5.1,-4.73 -5.1,-5.33 0,-0.45 0.5,-0.45 0.6,-0.45 0.5,0 0.6,0.17 0.7,0.56 0.9,3 2.4,4.25 3.7,4.25 0.5,0 0.8,-0.28 0.8,-1.22 0,-0.79 -0.2,-1.33 -1,-3.48 z"
             inkscape:connector-curvature="0"
             style="fill:#000000;stroke-width:0" /><path
             id="path4338"
             d="m 1195.8,271.86 0,0 0.1,0 0.1,0 0,0 0.1,0.01 0.1,0 0,0.01 0.1,0 0,0.01 0.1,0.01 0,0.01 0.1,0.01 0.1,0.02 0,0.01 0.1,0.02 0,0.02 0.1,0.03 0,0.03 0,0.03 0.1,0.03 0,0.04 0.1,0.04 0,0.02 0,0.02 0,0.03 0,0.02 0,0.03 0,0.02 0.1,0.03 0,0.03 0,0.03 0,0.03 0,0.03 0,0.03 0,0.04 0,0.03 0,0.04 0,0.04 0,0.04 0,0.04 c 0,0.84 -0.8,0.84 -1.3,0.84 h -23 c -0.5,0 -1.3,0 -1.3,-0.84 0,-0.88 0.8,-0.88 1.3,-0.88 z"
             inkscape:connector-curvature="0"
             style="fill:#000000;stroke-width:0" /><path
             id="path4340"
             d="m 1195.8,264.21 0.1,0 0,0 0.1,0 0,0 0.1,0 0,0 0.1,0.01 0,0 0.1,0.01 0,0 0.1,0.01 0,0.01 0.1,0.01 0,0.02 0.1,0.01 0,0.02 0.1,0.02 0,0.02 0.1,0.03 0,0.03 0.1,0.03 0,0.04 0,0.03 0.1,0.02 0,0.03 0,0.02 0,0.02 0,0.03 0,0.02 0.1,0.03 0,0.02 0,0.03 0,0.03 0,0.03 0,0.03 0,0.04 0,0.03 0,0.03 0,0.04 0,0.04 0,0.04 c 0,0.87 -0.8,0.87 -1.3,0.87 h -23 c -0.5,0 -1.3,0 -1.3,-0.87 0,-0.83 0.8,-0.83 1.3,-0.83 z"
             inkscape:connector-curvature="0"
             style="fill:#000000;stroke-width:0" /><path
             id="path4342"
             d="m 1217.6,271.27 0,0.71 0,0.68 0,0.66 -0.1,0.64 0,0.62 -0.1,0.59 -0.1,0.58 -0.1,0.56 -0.1,0.55 -0.2,0.53 -0.1,0.51 -0.2,0.5 -0.3,0.49 -0.2,0.48 -0.3,0.47 -0.1,0.23 -0.1,0.23 c -1.1,1.61 -3.3,3 -6.1,3 -8.1,0 -8.1,-9.51 -8.1,-12.03 0,-2.5 0,-11.81 8.1,-11.81 v 0.98 c -1.6,0 -3.7,0.94 -4.4,3.8 -0.5,2.05 -0.5,4.9 -0.5,7.48 0,2.55 0,5.21 0.5,7.11 0.8,2.75 3,3.49 4.4,3.49 1.9,0 3.7,-1.14 4.4,-3.18 0.5,-1.87 0.5,-4.39 0.5,-7.42 0,-2.58 0,-5.15 -0.4,-7.34 -0.7,-3.17 -3.1,-3.94 -4.5,-3.94 h 0 v -0.98 c 8.1,0 8.1,9.31 8.1,11.81 z"
             inkscape:connector-curvature="0"
             style="fill:#000000;stroke-width:0" /><path
             id="path4344"
             d="m 1254.6,335.85 0,0.11 0,0.11 0,0.11 0.1,0.11 0,0.12 0,0.12 0.1,0.25 0.1,0.25 0,0.25 0.1,0.25 0,0.24 0.1,0.12 0,0.11 0,0.11 0,0.11 0.1,0.1 0,0.1 0,0.1 0,0.09 0.1,0.08 0,0.08 0,0.07 0,0.07 0,0.05 0,0.05 0,0.04 0,0.04 c 0,0.9 -0.7,1.34 -1.4,1.34 -0.6,0 -1.5,-0.39 -1.9,-1.39 -0.1,-0.34 -2.5,-9.86 -2.8,-11.16 -0.4,-1.5 -0.4,-2.39 -0.4,-3.29 0,-0.55 0,-0.64 0,-0.89 -1.1,-2.65 -2.6,-4.19 -4.6,-4.19 -4,0 -4,3.69 -4,4.53 0,1.59 0.3,3.55 2.6,9.67 0.6,1.49 0.9,2.19 0.9,3.19 0,2.23 -1.7,4.08 -4.1,4.08 -4.8,0 -6.6,-7.22 -6.6,-7.68 0,-0.5 0.5,-0.5 0.6,-0.5 0.5,0 0.6,0.11 0.8,0.91 1.4,4.63 3.3,6.17 5,6.17 0.5,0 1.3,-0.04 1.3,-1.64 0,-1.25 -0.6,-2.64 -0.9,-3.48 -2.2,-5.88 -2.8,-8.17 -2.8,-10.06 0,-4.54 3.3,-6.29 7.1,-6.29 0.8,0 3.1,0 5.1,3.49 1.3,-3.19 4.8,-3.49 6.3,-3.49 3.7,0 5.9,3.14 7.2,6.13 1.7,3.89 3.3,10.56 3.3,12.95 0,2.75 -1.4,3.49 -2.2,3.49 -1.3,0 -2.5,-1.3 -2.5,-2.39 0,-0.64 0.3,-0.94 0.7,-1.35 0.6,-0.54 1.8,-1.84 1.8,-4.23 0,-1.69 -1.4,-6.58 -2.7,-9.11 -1.3,-2.64 -3,-4.39 -5.5,-4.39 -2.3,0 -3.7,1.5 -3.7,4.33 0,1.4 0.4,2.95 0.6,3.64 z"
             inkscape:connector-curvature="0"
             style="fill:#000000;stroke-width:0" /><path
             id="path4346"
             d="m 1278.5,333.3 0,0.05 0,0.06 0,0.05 0,0.06 0,0.05 0,0.06 -0.1,0.05 0,0.06 0,0.06 0,0.05 -0.1,0.06 0,0.05 0,0.06 -0.1,0.05 0,0.05 0,0.05 -0.1,0.05 0,0.05 -0.1,0.04 0,0.04 -0.1,0.04 0,0.04 -0.1,0.04 -0.1,0.03 0,0.03 -0.1,0.02 -0.1,0.03 -0.1,0.01 0,0.02 -0.1,0.01 -0.1,0.01 -0.1,0 c -0.9,0 -2,-0.91 -2,-1.92 0,-0.6 0.5,-1.33 1.4,-1.33 1,0 2,0.98 2,1.92 z"
             inkscape:connector-curvature="0"
             style="fill:#000000;stroke-width:0" /><path
             id="path4348"
             d="m 1271.4,315.6 0,-0.09 -0.1,-0.08 0,-0.17 0,-0.08 -0.1,-0.09 0,-0.09 0,-0.08 0,-0.09 -0.1,-0.09 0,-0.1 0,-0.09 0,-0.05 0,-0.05 0,-0.05 0,-0.06 0,-0.05 0,-0.05 0,-0.06 0,-0.05 c 0,-1.64 1.4,-2.95 3.3,-2.95 3.5,0 5,4.79 5,5.32 0,0.46 -0.5,0.46 -0.6,0.46 -0.4,0 -0.5,-0.21 -0.6,-0.6 -0.8,-2.78 -2.4,-4.22 -3.7,-4.22 -0.7,0 -0.9,0.46 -0.9,1.22 0,0.8 0.3,1.47 0.6,2.24 0.3,0.94 0.7,1.87 1.1,2.78 0.3,0.84 1.6,4.01 1.7,4.44 0.1,0.34 0.2,0.76 0.2,1.11 0,1.64 -1.4,2.95 -3.3,2.95 -3.5,0 -5.1,-4.74 -5.1,-5.33 0,-0.45 0.5,-0.45 0.6,-0.45 0.5,0 0.5,0.17 0.7,0.56 0.9,3 2.4,4.25 3.7,4.25 0.5,0 0.9,-0.28 0.9,-1.22 0,-0.8 -0.3,-1.33 -1.1,-3.48 z"
             inkscape:connector-curvature="0"
             style="fill:#000000;stroke-width:0" /><path
             id="path4350"
             d="m 1300.5,334.01 0.1,0.13 0,0.15 0,0.16 0.1,0.18 0,0.2 0.1,0.2 0.1,0.22 0,0.22 0.1,0.24 0.1,0.24 0.1,0.24 0.1,0.25 0.1,0.25 0.1,0.25 0.2,0.25 0.1,0.24 0.1,0.24 0.2,0.24 0.2,0.23 0.1,0.23 0.2,0.21 0.2,0.2 0.2,0.19 0.3,0.18 0.2,0.16 0.2,0.14 0.2,0.07 0.1,0.06 0.1,0.05 0.2,0.05 0.1,0.05 0.1,0.04 0.2,0.03 0.1,0.03 0.2,0.02 0.1,0.02 0.2,0.01 0.2,0 c 0.2,0 1.4,0 2.4,-0.64 -1.3,-0.25 -2.3,-1.5 -2.3,-2.69 0,-0.79 0.5,-1.75 1.8,-1.75 1.1,0 2.7,0.9 2.7,2.9 0,2.59 -2.9,3.28 -4.6,3.28 -2.9,0 -4.6,-2.64 -5.2,-3.78 -1.3,3.28 -4,3.78 -5.4,3.78 -5.2,0 -8,-6.43 -8,-7.68 0,-0.5 0.5,-0.5 0.6,-0.5 0.4,0 0.5,0.11 0.6,0.55 1.7,5.28 5,6.53 6.7,6.53 0.9,0 2.7,-0.43 2.7,-3.33 0,-1.54 -0.9,-4.89 -2.7,-11.85 -0.8,-3.1 -2.6,-5.19 -4.7,-5.19 -0.3,0 -1.5,0 -2.5,0.65 1.2,0.24 2.3,1.29 2.3,2.69 0,1.35 -1.1,1.74 -1.8,1.74 -1.5,0 -2.8,-1.3 -2.8,-2.89 0,-2.29 2.5,-3.29 4.7,-3.29 3.3,0 5.1,3.49 5.2,3.79 0.6,-1.85 2.4,-3.79 5.4,-3.79 5.2,0 8,6.43 8,7.68 0,0.5 -0.5,0.5 -0.6,0.5 -0.4,0 -0.6,-0.21 -0.7,-0.55 -1.6,-5.33 -5,-6.53 -6.6,-6.53 -1.9,0 -2.7,1.59 -2.7,3.29 0,1.1 0.3,2.19 0.8,4.38 z"
             inkscape:connector-curvature="0"
             style="fill:#000000;stroke-width:0" /><path
             id="path4352"
             d="m 1323.6,333.3 0,0.05 0,0.06 0,0.05 0,0.06 0,0.05 0,0.06 0,0.05 -0.1,0.06 0,0.06 0,0.05 0,0.06 -0.1,0.05 0,0.06 0,0.05 -0.1,0.05 0,0.05 -0.1,0.05 0,0.05 -0.1,0.04 0,0.04 -0.1,0.04 0,0.04 -0.1,0.04 -0.1,0.03 0,0.03 -0.1,0.02 -0.1,0.03 0,0.01 -0.1,0.02 -0.1,0.01 -0.1,0.01 -0.1,0 c -0.9,0 -1.9,-0.91 -1.9,-1.92 0,-0.6 0.4,-1.33 1.4,-1.33 1,0 1.9,0.98 1.9,1.92 z"
             inkscape:connector-curvature="0"
             style="fill:#000000;stroke-width:0" /><path
             id="path4354"
             d="m 1316.5,315.6 0,-0.17 -0.1,-0.17 0,-0.08 0,-0.09 -0.1,-0.09 0,-0.08 0,-0.09 0,-0.09 -0.1,-0.1 0,-0.09 0,-0.1 0,-0.05 0,-0.06 0,-0.05 0,-0.05 0,-0.06 0,-0.05 c 0,-1.64 1.4,-2.95 3.3,-2.95 3.5,0 5,4.79 5,5.32 0,0.46 -0.4,0.46 -0.5,0.46 -0.5,0 -0.6,-0.21 -0.7,-0.6 -0.8,-2.78 -2.3,-4.22 -3.7,-4.22 -0.7,0 -0.9,0.46 -0.9,1.22 0,0.8 0.3,1.47 0.6,2.24 0.3,0.94 0.7,1.87 1.1,2.78 0.3,0.84 1.6,4.01 1.7,4.44 0.1,0.34 0.2,0.76 0.2,1.11 0,1.64 -1.4,2.95 -3.3,2.95 -3.4,0 -5,-4.74 -5,-5.33 0,-0.45 0.4,-0.45 0.6,-0.45 0.4,0 0.5,0.17 0.6,0.56 0.9,3 2.4,4.25 3.7,4.25 0.6,0 0.9,-0.28 0.9,-1.22 0,-0.8 -0.2,-1.33 -1.1,-3.48 z"
             inkscape:connector-curvature="0"
             style="fill:#000000;stroke-width:0" /></g>      </g>
    </g>
  </g>
</svg>
