<?xml version="1.0" encoding="UTF-8" standalone="no"?>
<!-- Created with Inkscape (http://www.inkscape.org/) -->

<svg
   xmlns:dc="http://purl.org/dc/elements/1.1/"
   xmlns:cc="http://creativecommons.org/ns#"
   xmlns:rdf="http://www.w3.org/1999/02/22-rdf-syntax-ns#"
   xmlns:svg="http://www.w3.org/2000/svg"
   xmlns="http://www.w3.org/2000/svg"
   xmlns:xlink="http://www.w3.org/1999/xlink"
   xmlns:sodipodi="http://sodipodi.sourceforge.net/DTD/sodipodi-0.dtd"
   xmlns:inkscape="http://www.inkscape.org/namespaces/inkscape"
   width="488.28635"
   height="191.9375"
   id="svg2"
   version="1.1"
   inkscape:version="0.48.4 r9939"
   sodipodi:docname="current_version_image.svg"
   inkscape:export-filename="/home/lompolbx/Pictures/moonchild_desktop_alt.png"
   inkscape:export-xdpi="142.5284"
   inkscape:export-ydpi="142.5284">
  <defs
     id="defs4">
    <linearGradient
       id="linearGradient3813">
      <stop
         style="stop-color:#90460a;stop-opacity:1;"
         offset="0"
         id="stop3815" />
      <stop
         style="stop-color:#f4d566;stop-opacity:1;"
         offset="1"
         id="stop3817" />
    </linearGradient>
    <linearGradient
       id="linearGradient3802">
      <stop
         style="stop-color:#420808;stop-opacity:1;"
         offset="0"
         id="stop3804" />
      <stop
         id="stop3812"
         offset="0.34615386"
         style="stop-color:#bc0000;stop-opacity:1;" />
      <stop
         id="stop3810"
         offset="0.66469431"
         style="stop-color:#fb2e00;stop-opacity:1;" />
      <stop
         style="stop-color:#ff4904;stop-opacity:1;"
         offset="1"
         id="stop3816" />
    </linearGradient>
    <inkscape:perspective
       sodipodi:type="inkscape:persp3d"
       inkscape:vp_x="0 : 372.04724 : 1"
       inkscape:vp_y="0 : 1000 : 0"
       inkscape:vp_z="1052.3622 : 372.04724 : 1"
       inkscape:persp3d-origin="526.18109 : 248.03149 : 1"
       id="perspective29" />
    <linearGradient
       id="linearGradient4008">
      <stop
         style="stop-color:#000000;stop-opacity:1;"
         offset="0"
         id="stop4016" />
      <stop
         style="stop-color:#101010;stop-opacity:1;"
         offset="1"
         id="stop4014" />
    </linearGradient>
    <linearGradient
       id="linearGradient3988">
      <stop
         style="stop-color:#da702e;stop-opacity:0.24705882;"
         offset="0"
         id="stop3998" />
      <stop
         style="stop-color:#ff6600;stop-opacity:0;"
         offset="1"
         id="stop3992" />
    </linearGradient>
    <linearGradient
       id="linearGradient3964">
      <stop
         id="stop3972"
         offset="0"
         style="stop-color:#f12b0b;stop-opacity:0.49803922;" />
      <stop
         style="stop-color:#ff0000;stop-opacity:1;"
         offset="1"
         id="stop3968" />
    </linearGradient>
    <linearGradient
       inkscape:collect="always"
       xlink:href="#linearGradient4008"
       id="linearGradient4006"
       x1="-0.5"
       y1="372.21948"
       x2="1052.5834"
       y2="372.21948"
       gradientUnits="userSpaceOnUse"
       gradientTransform="matrix(0.64440801,0,0,1.4327603,0.86619915,-1061.358)" />
    <inkscape:perspective
       id="perspective3654"
       inkscape:persp3d-origin="0.5 : 0.33333333 : 1"
       inkscape:vp_z="1 : 0.5 : 1"
       inkscape:vp_y="0 : 1000 : 0"
       inkscape:vp_x="0 : 0.5 : 1"
       sodipodi:type="inkscape:persp3d" />
    <inkscape:perspective
       id="perspective3654-8"
       inkscape:persp3d-origin="0.5 : 0.33333333 : 1"
       inkscape:vp_z="1 : 0.5 : 1"
       inkscape:vp_y="0 : 1000 : 0"
       inkscape:vp_x="0 : 0.5 : 1"
       sodipodi:type="inkscape:persp3d" />
    <inkscape:perspective
       id="perspective2874"
       inkscape:persp3d-origin="0.5 : 0.33333333 : 1"
       inkscape:vp_z="1 : 0.5 : 1"
       inkscape:vp_y="0 : 1000 : 0"
       inkscape:vp_x="0 : 0.5 : 1"
       sodipodi:type="inkscape:persp3d" />
    <inkscape:perspective
       id="perspective2851"
       inkscape:persp3d-origin="0.5 : 0.33333333 : 1"
       inkscape:vp_z="1 : 0.5 : 1"
       inkscape:vp_y="0 : 1000 : 0"
       inkscape:vp_x="0 : 0.5 : 1"
       sodipodi:type="inkscape:persp3d" />
    <inkscape:perspective
       id="perspective2897"
       inkscape:persp3d-origin="0.5 : 0.33333333 : 1"
       inkscape:vp_z="1 : 0.5 : 1"
       inkscape:vp_y="0 : 1000 : 0"
       inkscape:vp_x="0 : 0.5 : 1"
       sodipodi:type="inkscape:persp3d" />
    <inkscape:perspective
       id="perspective3671"
       inkscape:persp3d-origin="0.5 : 0.33333333 : 1"
       inkscape:vp_z="1 : 0.5 : 1"
       inkscape:vp_y="0 : 1000 : 0"
       inkscape:vp_x="0 : 0.5 : 1"
       sodipodi:type="inkscape:persp3d" />
    <inkscape:perspective
       id="perspective2872"
       inkscape:persp3d-origin="0.5 : 0.33333333 : 1"
       inkscape:vp_z="1 : 0.5 : 1"
       inkscape:vp_y="0 : 1000 : 0"
       inkscape:vp_x="0 : 0.5 : 1"
       sodipodi:type="inkscape:persp3d" />
    <inkscape:perspective
       id="perspective2898"
       inkscape:persp3d-origin="0.5 : 0.33333333 : 1"
       inkscape:vp_z="1 : 0.5 : 1"
       inkscape:vp_y="0 : 1000 : 0"
       inkscape:vp_x="0 : 0.5 : 1"
       sodipodi:type="inkscape:persp3d" />
    <inkscape:perspective
       id="perspective3743"
       inkscape:persp3d-origin="0.5 : 0.33333333 : 1"
       inkscape:vp_z="1 : 0.5 : 1"
       inkscape:vp_y="0 : 1000 : 0"
       inkscape:vp_x="0 : 0.5 : 1"
       sodipodi:type="inkscape:persp3d" />
    <filter
       inkscape:collect="always"
       id="filter3909"
       color-interpolation-filters="sRGB">
      <feGaussianBlur
         inkscape:collect="always"
         stdDeviation="4.3246271"
         id="feGaussianBlur3911" />
    </filter>
    <filter
       inkscape:collect="always"
       id="filter3939"
       color-interpolation-filters="sRGB">
      <feGaussianBlur
         inkscape:collect="always"
         stdDeviation="4.3312229"
         id="feGaussianBlur3941" />
    </filter>
    <inkscape:perspective
       id="perspective2874-8"
       inkscape:persp3d-origin="0.5 : 0.33333333 : 1"
       inkscape:vp_z="1 : 0.5 : 1"
       inkscape:vp_y="0 : 1000 : 0"
       inkscape:vp_x="0 : 0.5 : 1"
       sodipodi:type="inkscape:persp3d" />
    <inkscape:perspective
       id="perspective2992"
       inkscape:persp3d-origin="0.5 : 0.33333333 : 1"
       inkscape:vp_z="1 : 0.5 : 1"
       inkscape:vp_y="0 : 1000 : 0"
       inkscape:vp_x="0 : 0.5 : 1"
       sodipodi:type="inkscape:persp3d" />
    <inkscape:perspective
       id="perspective3023"
       inkscape:persp3d-origin="0.5 : 0.33333333 : 1"
       inkscape:vp_z="1 : 0.5 : 1"
       inkscape:vp_y="0 : 1000 : 0"
       inkscape:vp_x="0 : 0.5 : 1"
       sodipodi:type="inkscape:persp3d" />
    <linearGradient
       inkscape:collect="always"
       xlink:href="#linearGradient4008"
       id="linearGradient3049"
       gradientUnits="userSpaceOnUse"
       gradientTransform="matrix(0.64440801,0,0,1.4327603,0.86619915,-1061.358)"
       x1="-0.5"
       y1="372.21948"
       x2="1052.5834"
       y2="372.21948" />
    <linearGradient
       inkscape:collect="always"
       xlink:href="#linearGradient4008"
       id="linearGradient3075"
       gradientUnits="userSpaceOnUse"
       gradientTransform="matrix(0.64440801,0,0,1.4327603,0.86619915,-1061.358)"
       x1="-0.5"
       y1="372.21948"
       x2="1052.5834"
       y2="372.21948" />
    <linearGradient
       inkscape:collect="always"
       xlink:href="#linearGradient4008"
       id="linearGradient3103"
       gradientUnits="userSpaceOnUse"
       gradientTransform="matrix(0,0.64440801,-1.4327603,0,1220.6279,-61.25822)"
       x1="-0.5"
       y1="372.21948"
       x2="1052.5834"
       y2="372.21948" />
    <inkscape:perspective
       id="perspective3085"
       inkscape:persp3d-origin="0.5 : 0.33333333 : 1"
       inkscape:vp_z="1 : 0.5 : 1"
       inkscape:vp_y="0 : 1000 : 0"
       inkscape:vp_x="0 : 0.5 : 1"
       sodipodi:type="inkscape:persp3d" />
    <inkscape:perspective
       id="perspective3085-0"
       inkscape:persp3d-origin="0.5 : 0.33333333 : 1"
       inkscape:vp_z="1 : 0.5 : 1"
       inkscape:vp_y="0 : 1000 : 0"
       inkscape:vp_x="0 : 0.5 : 1"
       sodipodi:type="inkscape:persp3d" />
    <linearGradient
       inkscape:collect="always"
       xlink:href="#linearGradient4008"
       id="linearGradient3129"
       gradientUnits="userSpaceOnUse"
       gradientTransform="matrix(0,0.38765614,-0.86190476,0,804.65548,185.53583)"
       x1="-0.5"
       y1="372.21948"
       x2="1052.5834"
       y2="372.21948" />
    <linearGradient
       inkscape:collect="always"
       xlink:href="#linearGradient4008"
       id="linearGradient2873"
       gradientUnits="userSpaceOnUse"
       gradientTransform="matrix(0,0.38765614,-0.86190476,0,631.72481,-150.54769)"
       x1="-0.5"
       y1="372.21948"
       x2="1052.5834"
       y2="372.21948" />
    <linearGradient
       inkscape:collect="always"
       xlink:href="#linearGradient4008"
       id="linearGradient3652"
       gradientUnits="userSpaceOnUse"
       gradientTransform="matrix(0,0.38765614,-0.86190476,0,631.72481,-150.54769)"
       x1="-0.5"
       y1="372.21948"
       x2="1052.5834"
       y2="372.21948" />
    <linearGradient
       id="linearGradient4211">
      <stop
         id="stop4213"
         offset="0"
         style="stop-color:#029500;stop-opacity:1" />
      <stop
         style="stop-color:#a0ff00;stop-opacity:1"
         offset="0.34615386"
         id="stop4215" />
      <stop
         style="stop-color:#bbfb00;stop-opacity:1"
         offset="0.66469431"
         id="stop4217" />
      <stop
         id="stop4219"
         offset="1"
         style="stop-color:#d3ff04;stop-opacity:1" />
    </linearGradient>
    <linearGradient
       inkscape:collect="always"
       xlink:href="#linearGradient3813"
       id="linearGradient3819"
       x1="239.22786"
       y1="65.117165"
       x2="239.22786"
       y2="270.94043"
       gradientUnits="userSpaceOnUse" />
  </defs>
  <sodipodi:namedview
     id="base"
     pagecolor="#ffffff"
     bordercolor="#666666"
     borderopacity="1.0"
     inkscape:pageopacity="0"
     inkscape:pageshadow="2"
     inkscape:zoom="0.94316065"
     inkscape:cx="265.00641"
     inkscape:cy="112.84833"
     inkscape:document-units="px"
     inkscape:current-layer="layer4"
     showgrid="false"
     inkscape:window-width="1920"
     inkscape:window-height="1030"
     inkscape:window-x="0"
     inkscape:window-y="0"
     inkscape:window-maximized="1">
    <inkscape:grid
       type="xygrid"
       id="grid2911"
       empspacing="5"
       visible="true"
       enabled="true"
       snapvisiblegridlinesonly="true" />
  </sodipodi:namedview>
  <metadata
     id="metadata7">
    <rdf:RDF>
      <cc:Work
         rdf:about="">
        <dc:format>image/svg+xml</dc:format>
        <dc:type
           rdf:resource="http://purl.org/dc/dcmitype/StillImage" />
        <dc:title />
      </cc:Work>
    </rdf:RDF>
  </metadata>
  <g
     inkscape:groupmode="layer"
     id="layer3"
     inkscape:label="background"
     style="display:inline"
     transform="translate(-172.93067,-400.70852)" />
  <g
     inkscape:groupmode="layer"
     id="layer2"
     inkscape:label="moon"
     style="display:inline"
     transform="translate(-172.93067,-400.70852)" />
  <g
     inkscape:label="tree"
     inkscape:groupmode="layer"
     id="layer1"
     transform="translate(-172.93067,-708.97622)"
     style="display:inline" />
  <g
     inkscape:groupmode="layer"
     id="layer4"
     inkscape:label="cedar text"
     style="display:inline"
     transform="translate(-172.93067,-400.70852)">
    <path
       style="fill:url(#linearGradient3819);fill-opacity:1;fill-rule:evenodd;stroke:none;display:inline"
       d="m 0,64.625 0,191.9375 488.28125,0 0,-191.9375 L 0,64.625 z"
       transform="translate(172.93067,336.08352)"
       id="rect3194" />
    <path
       style="fill:#000000;fill-opacity:1"
       d="m 457.52437,400.70852 c 0.18383,0.14107 0.35159,0.29941 0.5625,0.4375 2.57367,1.68503 3.625,1.76714 3.625,0.3125 0,-0.38058 0.10435,-0.6458 0.25,-0.75 l -4.4375,0 z m 4.75,0 c 0.26687,0.20763 0.35227,0.87472 0.1875,1.53125 -0.34,1.35467 0.88144,2.40625 2.875,2.40625 0.59639,0 1.09375,0.2113 1.09375,0.5 0,0.28871 -0.56359,0.53125 -1.25,0.53125 -1.58019,0 -2.23896,0.82708 -3.15625,3.875 0,0 -0.54888,1.50545 -0.53125,2.125 0.0149,0.5263 1.375,0.3125 1.375,0.3125 1.18837,0 1.50856,-0.22011 1.28125,-0.8125 -0.49801,-1.29778 1.11609,-0.89673 2.03125,0.5 0.92375,1.40982 3.28024,1.40039 6.125,-0.0312 1.85059,-0.93131 2,-0.89696 2,0.34375 0,0.57573 1.02199,2.06641 2.28125,3.34375 1.25927,1.27736 2.4498,2.69969 2.625,3.15625 0.17519,0.45655 0.63548,0.84375 1.03125,0.84375 0.86878,0 1.9375,2.16154 1.9375,3.9375 0,1.31938 1.69828,1.90745 2.375,0.8125 0.40389,-0.65349 3.42275,-0.0861 4.5,0.84375 0.45579,0.39344 1.42941,0.6875 2.15625,0.6875 3.03221,0 5.98983,2.92685 4.84375,4.78125 -0.66792,1.08071 -6,-0.66764 -6,-1.96875 0,-0.38427 -0.24254,-0.71875 -0.53125,-0.71875 -0.2887,0 -0.5,0.24255 -0.5,0.53125 0,2.33041 -4.23608,3.40065 -5.1875,1.3125 -0.74162,-1.62766 -1.74328,-1.66619 -3.40625,-0.125 0,0 -1.23746,0.60599 -1.28125,1.1875 -0.0498,0.66144 1.25,1.5625 1.25,1.5625 0.98144,1.23084 1.36445,1.41679 1.875,0.90625 0.93229,-0.9323 1.97176,-0.8002 2.40625,0.3125 0.44058,1.12831 2.72111,3.88343 3.71875,4.5 0.52945,0.32724 0.63207,0.038 0.5,-1.3125 -0.11238,-1.14902 0.0637,-1.73423 0.46875,-1.65625 0.42647,0.0821 0.51586,-0.43431 0.3125,-1.6875 -0.2321,-1.43024 -0.10992,-1.84375 0.53125,-1.84375 0.57183,0 1.01945,0.92237 1.46875,3.03125 0.91211,4.28118 1.64923,4.92808 3.53125,3.125 2.46852,-2.365 4.79129,-1.40694 3.09375,1.28125 -1.28617,2.03673 -1.60879,3.59375 -0.71875,3.59375 1.18923,0 4.02771,-1.75849 4.03125,-2.5 0.001,-0.36089 0.3482,-0.65625 0.78125,-0.65625 1.15398,0 0.98291,-0.42181 -0.78125,-1.90625 -1.89197,-1.592 -1.57924,-2.46672 0.8125,-2.1875 1.44707,0.16894 1.77946,0.0108 1.90625,-0.875 0.10788,-0.75369 0.54703,-1.0625 1.46875,-1.0625 1.13895,0 1.30767,0.19578 1.1875,1.5625 -0.0912,1.03696 0.28749,2.11929 1.125,3.15625 0,0 0.61202,1.50767 1.28125,1.59375 0.65779,0.0846 1.59375,-1.1875 1.59375,-1.1875 0.88063,-0.64958 1.78516,-1.1875 2.03125,-1.1875 0.24611,0 0.99111,-0.72535 1.65625,-1.625 1.09935,-1.48694 1.40668,-1.60775 3.375,-1.34375 1.57081,0.21069 2.44605,0.052 3.125,-0.5625 1.31544,-1.19046 2.48473,-0.0893 1.53125,1.4375 -0.35365,0.56629 -0.625,1.26988 -0.625,1.5625 0,0.94122 1.51344,0.55308 2.09375,-0.53125 0.7718,-1.44212 1.5625,-1.31171 1.5625,0.25 0,0.7566 -0.41733,1.54645 -1.03125,1.875 -2.82404,1.51138 0.3155,4.44378 4.3125,4.03125 1.5373,-0.15866 3.22412,-0.058 3.71875,0.21875 1.31605,0.7365 3.94409,6.73056 4.875,11.09375 0.44449,2.08331 1.00108,4.26634 1.25,4.84375 0.24891,0.57741 0.60854,1.65324 0.78125,2.375 1.10582,4.62106 2.36662,7.44427 4.59375,10.34375 3.29622,4.80505 1.02571,4.34397 3.5,7.4375 1.03586,1.29509 2.49101,2.33207 3.09375,2.96875 0.65077,0.68741 2.02108,1.54277 4.28125,2.125 4.17782,1.07623 5.68108,2.93032 5,6.03125 -0.19966,0.90902 -10e-4,1.58922 0.53125,2.03125 1.11189,0.92279 1.00536,2.30141 -0.25,3.4375 -0.5774,0.52254 -1.03125,1.2875 -1.03125,1.6875 0,0.4 -0.55433,1.42485 -1.1875,2.28125 -0.87353,1.18152 -0.46875,4.59375 -0.46875,4.59375 0.55596,0.0252 0.62017,-2.02345 0.875,-2.6875 0.63115,-1.64474 3.375,-0.47559 3.375,1.4375 0,0.68502 -3.29265,2.4196 -3.71875,2.15625 -0.73945,-0.45701 -0.98292,2.17481 -1.09375,8 0,0 -0.26522,10.12913 -0.15625,10.375 0.5698,1.28576 0.50014,-4.42408 1.25,-4.75 1.7219,-0.7484 2.04354,-1.28502 0.9375,-2.09375 -0.91184,-0.66677 -0.92262,-0.78108 -0.0625,-2.09375 1.12019,-1.70964 2.53256,-1.53221 2.75,0.34375 0.11661,1.00604 -0.34829,1.98974 -1.65625,3.4375 -1.45539,1.61094 -1.7333,2.18553 -1.3125,2.9375 0.39064,0.69801 0.33152,1.19462 -0.3125,1.90625 -0.47817,0.52838 -0.81008,1.40398 -0.71875,1.9375 0.11061,0.64612 -0.1298,0.93405 -0.6875,0.84375 -1.12198,-0.18166 -2.85967,4.06699 -1.90625,4.65625 0.35124,0.21709 0.51099,0.47462 0.375,0.5625 -0.136,0.0879 -0.70384,0.43218 -1.28125,0.75 -0.58888,0.32413 -1.12584,1.24013 -1.21875,2.09375 -0.14787,1.35877 -1.57943,6.0482 -2.71875,8.875 -0.23272,0.57741 -0.55728,1.46352 -0.71875,1.96875 -0.16147,0.50523 -0.65162,0.90625 -1.09375,0.90625 -0.44211,0 -0.8125,0.34819 -0.8125,0.78125 0,0.43305 0.34819,0.8125 0.78125,0.8125 1.03946,0 1.01703,0.0562 -1,5.21875 -1.5053,3.85283 -1.90955,4.45849 -3,4.46875 -1.00798,0.01 -1.2689,0.33343 -1.40625,1.59375 -0.0944,0.86612 -0.38977,1.78823 -0.65625,2.0625 -0.80132,0.82472 -0.58345,1.77121 0.53125,2.125 0.57741,0.18327 1.0625,0.68015 1.0625,1.09375 0,0.9163 -0.22462,0.90976 -1.53125,0.0937 -0.8274,-0.51671 -1.22245,-0.4507 -2.03125,0.28125 -0.0858,0.0777 -0.16309,0.15412 -0.25,0.21875 -0.45006,-0.0355 -0.90519,-0.0845 -1.34375,-0.125 -0.32421,-1.00261 0.10057,-2.86759 0.9375,-3.625 0.56548,-0.51176 1.44728,-2.14908 1.9375,-3.625 0.49022,-1.47592 1.42075,-3.78507 2.09375,-5.125 1.6803,-3.3454 2.72823,-7.93434 1.875,-8.21875 -1.26353,-0.42118 -0.70393,-2.21875 0.6875,-2.21875 0.72177,0 1.3125,-0.28686 1.3125,-0.625 0,-0.33815 0.3393,-0.98171 0.75,-1.4375 0.72225,-0.80153 5.95654,-9.19008 4.71875,-8.625 -1.0588,0.48338 -2.30243,1.89618 -2.84375,2.4375 -0.54132,0.54132 -2.19461,2.95424 -2.46875,3.0625 -0.71458,0.28219 -5.9375,7.83946 -5.9375,8.59375 0,0.34715 -0.83609,1.66988 -1.84375,2.9375 -1.00767,1.26762 -1.8411,2.74937 -1.84375,3.28125 -0.003,0.53187 -0.45707,1.58255 -1.03125,2.3125 -0.6494,0.82557 -0.93059,1.74921 -0.75,2.46875 0.17738,0.70671 -0.0296,1.42739 -0.53125,1.84375 -0.47723,0.39606 -0.8125,1.48317 -0.8125,2.625 0,1.23299 -0.8326,2.37667 -1.625,3.1875 -1.5196,-0.33092 -2.58981,-0.73803 -2.90625,-1.25 -1.58624,-2.56642 -1.88247,-0.89539 -5.28125,-0.0625 -0.80113,0.19633 -2.02825,0.36619 -2.75,0.34375 -0.72177,-0.0225 -1.63065,0.19441 -2,0.5 -0.49079,0.40608 -0.96056,0.27948 -1.8125,-0.5 -2.04341,-1.86965 -3.53125,-1.99855 -3.53125,-0.34375 0,1.22776 -0.12201,1.31775 -0.84375,0.71875 -0.65349,-0.54235 -1.05072,-0.55779 -1.84375,-0.0625 -1.07529,0.67152 -2.90807,-0.0101 -3.78125,-1.375 -0.23087,-0.36088 -0.72382,-0.625 -1.09375,-0.625 -0.36992,0 -0.99928,-0.67481 -1.40625,-1.46875 -6.3611,-2.8702 -7.91762,2.83173 -10.5625,1.375 0.32755,-0.85359 -0.78077,-1.6377 -1.40625,-1 -0.91313,0.931 0.10848,1.57602 1.34375,1.53125 1.34843,-0.0489 1.68248,3.27226 0.4375,3.75 -0.58586,0.22482 -1.30499,-0.24132 -2.28125,-1.4375 -1.42018,-1.74006 -1.46586,-1.74064 -3.625,-1.09375 -1.42772,0.42775 -2.39909,1.09876 -2.78125,1.9375 -0.76146,1.67123 -1.12861,1.61688 -2.6875,-0.375 l -1.3125,-1.6562 -0.84375,1.625 c -1.07257,2.07413 -1.04884,2.21875 0.21875,2.21875 0.61607,0 1.0625,0.34674 1.0625,0.84375 0,0.67861 -0.35187,0.7852 -1.71875,0.5 -4.4109,-0.92029 -6.33159,-0.95311 -6.8125,-0.0937 -0.54536,0.97452 -0.006,4.45084 -4.84375,6.5 -5.16454,2.18756 -70.32473,1.77619 -108.125,3.71875 50.41783,-0.003 293.53858,0.0613 298.8125,0.0625 l 0,-0.34375 c -17.29897,-1.51964 -37.55973,-1.01145 -43.5625,-4.3125 -2.31672,-3.03404 -2.18427,-4.0082 0.40625,-3 0.65488,0.25488 0.90625,0.10516 0.90625,-0.53125 0,-0.49098 0.48506,-1.00525 1.0625,-1.15625 1.40216,-0.39403 0.62536,-2.24884 -0.71875,-1.125 -0.36882,0.50027 -1.60999,0.84302 -3.4375,0.90625 -1.57112,0.0544 -2.9731,0.19184 -3.09375,0.3125 -0.1207,0.12067 -1.07833,-0.25152 -2.125,-0.8125 -2.38402,-1.27774 -2.6875,-1.27285 -2.6875,0.0312 0,1.16159 -1.28895,1.40404 -1.9375,0.375 -0.27242,-0.43225 -0.50605,-0.11857 -0.6875,0.90625 -0.38253,2.16052 -2.70816,1.16931 -4.8125,0.375 -1.0293,-0.38852 -1.71605,-0.44017 -2.0625,-0.0937 -0.71001,0.71 -1.65625,0.0535 -1.65625,-1.15625 0,-0.48055 -0.56591,-0.58831 -1.125,-0.53125 0.036,-0.1929 0.0625,-0.42028 0.0625,-0.71875 0,-1.68351 -1.38619,-3.98785 -2.125,-3.53125 -0.26724,0.16517 -1.28276,-0.32475 -2.25,-1.0625 -0.96724,-0.73775 -2.34459,-1.34375 -3.0625,-1.34375 -0.82255,0 -1.53273,-0.43117 -1.9375,-1.1875 -0.84361,-1.57629 -3.21875,-1.85439 -3.21875,-0.375 0,0.57802 -0.34529,1.0625 -0.78125,1.0625 -0.43743,0 -0.78125,-0.47926 -0.78125,-1.0625 0,-0.5774 -0.21614,-1.03125 -0.46875,-1.03125 -0.59756,0 -1.1747,2.91221 -0.78125,3.9375 0.33204,0.8653 -0.36056,1.04192 -1.15625,0.3125 -0.27427,-0.25144 -1.16848,-0.61593 -2,-0.8125 -1.35766,-0.32092 -1.48301,-0.22929 -1.21875,0.78125 0.28134,1.07584 0.23722,1.08389 -0.71875,0.21875 -2.71962,-4.20919 -3.86734,-2.80374 -4.4375,-1.34375 -0.5021,1.28572 -0.89376,2.37854 -1,3.375 -0.33685,2.04388 -0.53004,2.24329 -3.8125,3.84375 -1.55903,0.76015 0.18382,-1.43346 -1.3125,-1.0625 -2.71911,0.67411 -4.34976,0.56506 -4.8125,0.5 -1.3534,-0.19028 -2.18866,-1.48584 -3.4375,-1.90625 -0.73321,-0.30159 -1.20736,-1.29839 -2,-1.28125 -0.10551,-0.005 -0.79289,-0.0255 -1.03125,-0.0312 -0.0773,-0.49257 -0.19576,-1.00978 -0.375,-1.59375 -0.98088,-3.19578 0.72141,-4.34243 3,-9.21875 4.06395,-8.29414 8.95415,-13.82064 15.625,-17.65625 7.30791,-4.20189 12.7228,-11.90421 14.3125,-20.34375 0.15022,-0.79746 0.49457,-1.59213 0.75,-1.75 0.25541,-0.15785 0.46875,-0.65953 0.46875,-1.125 0,-1.26284 1.54909,-2.75 2.875,-2.75 0.64176,0 2.07963,-0.39391 3.15625,-0.84375 1.67358,-0.69926 2.07515,-0.68436 2.8125,-0.0625 0.47433,0.40004 2.25996,0.83349 3.5,1.1875 1.51601,0.4328 2.5058,0.8183 2.8125,1.625 0.30913,0.81306 0.75184,1.30972 1.5625,1.25 1.56741,-0.11547 1.29057,-0.72356 -0.125,-1.09375 -0.65886,-0.17229 -1.25,-1.18662 -1.25,-1.8125 0,-0.84905 0.60733,-0.83223 1.5625,-0.53125 3.15393,0.99382 5.47186,0.85024 6.0625,-0.375 0.43372,-0.89971 0.56674,-0.98555 0.59375,-0.3125 0.0196,0.48886 0.54087,1.25648 1.15625,1.6875 1.4726,1.03145 0.97058,2.75799 -0.5625,1.9375 -1.46012,-0.78142 -2.73984,-0.67871 -4,0.375 -1.34231,1.1224 -2.0521,3.55939 -1.1875,4.09375 0.41189,0.25456 0.24289,0.53768 -0.5,0.8125 -1.18506,0.43838 -3.13334,3.59375 -2.21875,3.59375 0.29611,0 0.53125,-0.21955 0.53125,-0.5 0,-0.28045 0.74921,-0.72588 1.6875,-0.96875 1.34559,-0.34829 1.74007,-0.7157 1.78125,-1.78125 0.0991,-2.56805 1.77088,-4.52674 1.8125,-2.125 0.0152,0.87486 0.0216,0.87486 0.53125,0 0.31595,-0.54243 1.15898,-0.90625 2.0625,-0.90625 0.98332,0 1.73941,-0.36918 2.09375,-1.03125 0.61176,-1.14306 2.35459,-0.88708 1.90625,0.28125 -0.14832,0.38655 -0.0573,0.86062 0.21875,1.03125 0.2761,0.17065 0.5,0.72498 0.5,1.25 0,1.69533 1.42464,2.43004 2.625,1.34375 0.9965,-0.90184 1.10646,-0.92478 2.09375,-0.0312 0.94361,0.85396 0.95322,1.07758 0.25,2.4375 -0.42235,0.81672 -0.75,1.72821 -0.75,2.03125 0,0.85418 1.56121,0.64918 1.90625,-0.25 0.23187,-0.60426 0.46944,-0.65906 1,-0.21875 1.94453,1.61384 2.4161,-1.38745 0.5,-3.1875 -1.74813,-1.64232 -1.75735,-3.125 0,-3.125 0.78576,0 1.96559,-0.66341 2.875,-1.59375 1.68655,-1.7253 2.625,-2.00059 2.625,-0.78125 0,0.94582 0.61954,1.00544 1.46875,0.15625 0.34163,-0.34164 0.77292,-0.44585 0.96875,-0.25 0.59219,0.59217 -0.93205,4.44935 -2.25,5.6875 -1.38786,1.30381 -1.57921,2 -0.53125,2 0.38829,0 1.13371,0.48508 1.65625,1.0625 2.86308,3.16363 6.11338,-0.94191 3.4375,-4.34375 -1.32015,-1.67829 -1.35361,-2.46875 -0.0625,-2.46875 0.55379,0 1.32753,-0.13113 1.71875,-0.28125 0.44381,-0.17031 0.93452,0.31111 1.3125,1.3125 0.53055,1.40565 0.79595,1.59794 2.09375,1.3125 2.98949,-0.65751 2.93273,-0.61525 2.5625,-3.40625 -0.33592,-2.53234 -0.30143,-2.625 0.96875,-2.625 1.74405,0 2.27339,-1.10562 2.5,-5.5 0.17617,-3.41713 0.1,-3.69573 -0.9375,-3.84375 -0.61357,-0.0875 -1.527,0.27698 -2.03125,0.78125 -0.85978,0.8598 -0.98421,0.83357 -1.59375,0 -0.35749,-0.4889 -1.09621,-0.875 -1.65625,-0.875 -0.56,0 -1.27854,-0.27855 -1.625,-0.625 -0.48991,-0.48992 -0.79135,-0.48992 -1.28125,0 -0.34646,0.34645 -1.38382,0.625 -2.3125,0.625 -1.6505,0 -2.37728,0.70542 -1.9375,1.90625 0.15585,0.42562 0.68249,0.37622 1.8125,-0.1875 2.15975,-1.07744 3.86367,0.20212 2.40625,1.8125 -1.02941,1.13747 -0.40462,2.53429 0.90625,2.03125 0.61104,-0.23447 0.77406,-0.64122 0.53125,-1.40625 -0.31108,-0.98013 -0.23194,-1.02552 0.75,-0.5 1.25247,0.67031 1.5139,2.65625 0.34375,2.65625 -0.42567,0 -1.17064,0.68388 -1.625,1.5625 -1.03852,2.00824 -3.02046,3.0417 -4.125,2.125 -0.42717,-0.35451 -1.57853,-0.61512 -2.53125,-0.5625 -2.93839,0.16228 -4.09375,0.0154 -4.09375,-0.53125 0,-0.2887 0.81905,-0.53125 1.8125,-0.53125 0.99342,0 1.98003,-0.25828 2.1875,-0.59375 0.53707,-0.86898 -1.6714,-2.48735 -2.9375,-2.15625 -1.34606,0.35249 -1.347,-0.46852 0,-1.6875 0.57739,-0.52255 1.03125,-1.39768 1.03125,-1.9375 0,-0.57075 0.59136,-1.20206 1.375,-1.5 1.03162,-0.39228 1.25583,-0.75656 1,-1.5625 -0.29288,-0.92289 0.52609,-1.46817 6.65625,-4.40625 3.84533,-1.84301 8.04458,-3.65076 9.34375,-4.03125 1.81269,-0.53088 3.24325,-1.58982 6.09375,-4.5625 3.38167,-3.52663 3.86388,-3.84866 5.5,-3.6875 1.50236,0.14798 1.8125,-0.003 1.8125,-0.875 4.4e-4,-0.61382 0.32846,-1.03927 0.8125,-1.1875 l 0,-10.75 c -0.0189,-0.0888 -0.0312,-0.20392 -0.0312,-0.3125 0,-0.10155 0.01,-0.17718 0.0312,-0.28125 l 0,-9.84375 c -0.0764,0.022 -0.14829,0.0625 -0.25,0.0625 -0.4501,0 -0.8125,-0.24254 -0.8125,-0.53125 0,-0.28871 0.19712,-0.53125 0.46875,-0.53125 0.18266,0 0.41082,0.12352 0.59375,0.28125 l 0,-9.8125 c -1.20537,0.12805 -2.33315,0.49209 -2.625,0.84375 -0.32233,0.38835 -1.05818,0.58572 -1.625,0.4375 -1.16378,-0.30434 -1.29594,-0.73531 -0.46875,-1.5625 0.40738,-0.40742 0.37651,-0.89844 -0.125,-1.71875 -1.29404,-2.11653 1.61349,-3.38591 4.0625,-1.78125 0.32816,0.21502 0.56959,0.37235 0.78125,0.46875 l 0,-20 c -0.0168,0.0917 -0.0312,0.19072 -0.0312,0.28125 0,0.50616 -0.88608,1.50007 -1.96875,2.21875 -8.87596,5.89212 -10.8796,4.12481 -3.40625,-3 1.51413,-1.44353 2.75,-2.97701 2.75,-3.4375 0.004,-1.18633 1.76625,-2.70247 2.40625,-2.0625 0.0552,0.0552 0.14705,0.0996 0.25,0.15625 l 0,-20.875 -0.65625,0 c -0.27238,0.30624 -0.63956,0.62974 -1.125,1 -2.1061,1.60638 -2.27349,1.64278 -2.96875,0.34375 -0.27221,-0.50862 -0.39137,-0.93614 -0.4375,-1.34375 l -53.3125,0 c -0.10737,0.22777 -0.20301,0.22886 -0.375,0 l -8.9375,0 c 0.0501,0.11703 0.0625,0.26839 0.0625,0.46875 0,0.4136 0.48508,0.91049 1.0625,1.09375 1.2222,0.38792 1.21493,0.42693 0.46875,3.90625 -0.65455,3.05203 -1.65192,3.44199 -3.59375,1.375 -1.26454,-1.34603 -1.20883,-3.74529 0.125,-4.59375 0.43661,-0.27774 0.39898,-0.40054 -0.125,-0.40625 -0.56399,-0.006 -0.47656,-0.25967 0.25,-1.0625 0.31409,-0.34707 0.56779,-0.61273 0.8125,-0.78125 l -27.65625,0 c -0.0635,1.15504 -0.58965,1.17119 -1.5625,0 l -9.78125,0 c 0.0497,0.12401 0.0786,0.28673 0.0312,0.53125 -0.0998,0.51455 -0.51779,1.05814 -0.90625,1.1875 -0.45175,0.15043 -0.616,-0.12035 -0.5,-0.71875 0.0748,-0.38593 0.31344,-0.77553 0.59375,-1 l -27.96875,0 c 0.53246,0.5339 1.03125,1.18005 1.03125,1.46875 0,0.49251 -0.60898,0.40944 -1.6875,-0.21875 -0.47767,-0.27821 -0.81213,-0.79584 -0.90625,-1.25 l -60.875,0 z m 123.96875,0.75 c 0.21631,-0.0365 0.40504,0.0924 0.4375,0.40625 0.0216,0.20931 -0.24731,0.47826 -0.59375,0.59375 -0.34645,0.11548 -0.52172,-0.0911 -0.40625,-0.4375 0.11279,-0.33834 0.3462,-0.52598 0.5625,-0.5625 z m -105.0625,1.5 c 0.13491,-0.014 0.2932,-0.004 0.4375,0 0.3848,0.009 0.80037,0.0729 1.21875,0.21875 0.96814,0.3375 1.44794,0.82498 1.34375,1.375 -0.27225,1.43713 -4.625,1.2617 -4.625,-0.1875 0,-0.77943 0.68065,-1.3081 1.625,-1.40625 z m 76.5,1.09375 c 2.01943,-0.078 3.9736,0.3036 5.8125,1.1875 2.02424,0.97299 2.49208,1.04793 4.09375,0.46875 1.21496,-0.43932 2.02413,-0.47586 2.375,-0.125 0.35086,0.35087 0.16998,0.62119 -0.53125,0.84375 -1.27386,0.4043 -1.97552,2.75644 -1.125,3.78125 0.70467,0.84908 2.0625,0.9639 2.0625,0.1875 0,-0.2887 0.59074,-0.53125 1.3125,-0.53125 2.39367,0 0.72221,2.192 -2.96875,3.875 -1.49471,0.68156 -1.8386,1.08944 -1.625,1.90625 0.42863,1.63909 -0.39994,1.25532 -1.0625,-0.5 -0.47909,-1.26924 -0.90525,-1.58728 -2.1875,-1.59375 -1.12569,-0.006 -1.39341,-0.1405 -0.875,-0.46875 0.40294,-0.25515 0.59718,-0.80263 0.4375,-1.21875 -0.52792,-1.37573 -3.39866,-0.46645 -5.125,1.625 l -1.5625,1.90625 0.3125,-1.84375 c 0.17581,-1.01047 0.40734,-2.09137 0.5,-2.40625 0.53784,-1.82778 -4.67821,-2.22204 -5.375,-0.40625 -0.36667,0.95551 -1.6856,0.91966 -2.0625,-0.0625 -0.16618,-0.43306 -0.87162,-0.8125 -1.5625,-0.8125 -2.04253,0 -1.45746,-1.43922 1.25,-3.15625 2.61952,-1.66124 5.30985,-2.55601 7.90625,-2.65625 z m 39.5,1.09375 c 0.71243,0 0.54445,2.23469 -0.25,3.28125 -0.74719,0.98431 -1.375,1.19543 -1.375,0.46875 0,-1.01331 1.18593,-3.75 1.625,-3.75 z m -62.65625,0.53125 c 0.37082,0.0138 0.95849,0.60704 1.46875,1.59375 0.44788,0.86611 0.59513,1.5625 0.34375,1.5625 -0.64112,0 -2.1875,-1.79074 -2.1875,-2.53125 0,-0.43206 0.15251,-0.63324 0.375,-0.625 z m -8.3125,1.0625 c 0.25336,0 0.76559,0.3482 1.125,0.78125 0.54595,0.65783 0.46206,0.78125 -0.46875,0.78125 -0.64038,0 -1.125,-0.32867 -1.125,-0.78125 0,-0.43305 0.2154,-0.78125 0.46875,-0.78125 z m 83.15625,0 c 0.7664,0 3.47107,1.72965 3.71875,2.375 0.50421,1.31401 -0.90467,0.84463 -2.46875,-0.8125 -0.81746,-0.86611 -1.37446,-1.5625 -1.25,-1.5625 z m -143.78125,1.28125 c 0.48553,4.4e-4 0.84375,0.30509 0.84375,0.78125 0,0.17873 -0.45383,0.3125 -1.03125,0.3125 -1.21063,0 -1.39245,-0.55433 -0.3125,-0.96875 0.18137,-0.0696 0.33816,-0.1252 0.5,-0.125 z m 112.8125,1.25 c 0.32369,-0.007 0.73589,0.31005 1.125,1.0625 0.43467,0.84058 1.16296,1.66645 1.625,1.84375 0.46201,0.1773 0.67969,0.55301 0.5,0.84375 -0.52585,0.85083 -3.27035,0.64294 -3.625,-0.28125 -0.72005,-1.87642 -0.33713,-3.45393 0.375,-3.46875 z m 59.0625,0.15625 c 0.85726,-0.0247 1.7565,0.53406 1.6875,1.25 -0.0278,0.2887 -0.87494,0.5771 -1.90625,0.65625 -1.98726,0.1525 -2.24325,-0.62733 -0.5625,-1.6875 0.23939,-0.151 0.4955,-0.21052 0.78125,-0.21875 z m -104.28125,1.0625 c 0.24412,-0.0165 0.52904,0.0252 0.84375,0.125 1.05591,0.33513 2.45389,2.35862 1.96875,2.84375 -0.18005,0.18005 -0.52191,-0.0178 -0.78125,-0.4375 -0.53457,-0.86496 -3.6875,1.69941 -3.6875,3 0,0.37904 -0.24254,0.6875 -0.53125,0.6875 -0.6861,0 -0.64647,-0.12743 0.28125,-1.90625 0.43127,-0.82694 0.77947,-2.02371 0.78125,-2.65625 0.003,-1.02477 0.39266,-1.6068 1.125,-1.65625 z m 71.21875,0.53125 c 0.31785,-0.0428 0.84902,0.33026 1.625,1.15625 1.03169,1.0982 1.07211,1.40888 0.46875,2.375 -1.30083,2.08296 -2.53125,1.05906 -2.53125,-2.09375 0,-0.93029 0.11965,-1.39478 0.4375,-1.4375 z m -57.34375,0.28125 c 0.27323,-0.0129 0.55035,0.0657 0.875,0.28125 0.75438,0.5009 1.1875,1.30958 1.1875,2.28125 0,1.86642 -1.28384,2.23197 -2.625,0.75 -1.21319,-1.34056 -0.62146,-3.25664 0.5625,-3.3125 z m 45.625,0.46875 c 0.26774,-0.008 0.72246,0.16363 1.3125,0.46875 0.86611,0.44789 1.5625,0.92557 1.5625,1.0625 0,0.34853 -0.59366,0.27148 -1.96875,-0.28125 -0.64959,-0.2611 -1.15625,-0.72583 -1.15625,-1.03125 0,-0.12485 0.0894,-0.21396 0.25,-0.21875 z m 8.15625,0.75 c 0.62945,-0.059 1.5625,0.60027 1.5625,1.28125 0,1.04777 -1.53494,1.04902 -1.9375,0 -0.171,-0.4455 -0.1676,-0.95744 0,-1.125 0.0993,-0.0993 0.22973,-0.14263 0.375,-0.15625 z m 12.78125,0.34375 c 0.708,-0.10547 5.0354,3.07547 5.03125,3.78125 -4.4e-4,0.18175 -0.64421,1.07842 -1.4375,2 -1.61934,1.88126 -3.63876,1.60629 -3,-0.40625 0.17644,-0.55598 0.0699,-1.03125 -0.21875,-1.03125 -0.28873,0 -0.66044,-0.45384 -0.84375,-1.03125 -0.21867,-0.68897 -0.80735,-1.03125 -1.6875,-1.03125 -1.13265,0 -1.2394,-0.14755 -0.6875,-0.8125 0.35938,-0.43306 1.10702,-0.78125 1.625,-0.78125 0.51802,0 1.0082,-0.27466 1.125,-0.625 0.0127,-0.038 0.0466,-0.0554 0.0937,-0.0625 z m 14.53125,0.15625 c 1.42107,0 2.59375,1.17098 2.59375,2.59375 0,0.77979 -2.7652,0.71778 -3.875,-0.0937 -1.34217,-0.98141 -0.5668,-2.5 1.28125,-2.5 z m -35.03125,2.625 c 0.70887,0 2.4375,1.62207 2.4375,2.28125 0,0.70872 -1.43613,0.3401 -2.28125,-0.59375 -1.05307,-1.16362 -1.09557,-1.6875 -0.15625,-1.6875 z m -36.4375,0.625 c 0.0417,-0.001 0.10929,0.0164 0.15625,0.0312 0.34026,0.11341 0.84691,0.62868 1.15625,1.15625 0.30933,0.52757 1.34434,1.83188 2.28125,2.875 0.93691,1.04313 1.68572,2.03587 1.6875,2.21875 10e-4,0.18287 -0.58059,0.45384 -1.3125,0.59375 -1.1525,0.22032 -1.48293,-0.0731 -2.375,-2.03125 -0.5665,-1.24356 -1.27303,-2.3836 -1.5625,-2.5625 -0.69574,-0.42998 -0.6563,-2.2621 -0.0312,-2.28125 z m 48.25,0.5 c 0.75276,-0.0806 2.17394,1.23168 2.1875,2.1875 0.0154,1.0783 0.072,1.10199 0.71875,0.25 0.38356,-0.50523 0.9226,-0.9375 1.1875,-0.9375 0.2649,0 0.84554,0.43227 1.28125,0.9375 0.43568,0.50523 1.33609,1.25059 2,1.6875 1.08772,0.71587 1.12108,0.95545 0.53125,2.25 -1.48718,3.26394 -7.36448,0.47276 -8.09375,-3.84375 -0.19837,-1.17416 -0.24199,-2.25797 -0.0937,-2.40625 0.0736,-0.0735 0.17371,-0.1135 0.28125,-0.125 z m -28.84375,1.03125 c 0.48233,-0.0297 1.09375,0.602 1.09375,1.28125 0,0.41602 -0.2335,0.78125 -0.53125,0.78125 -0.62842,0 -1.30682,-1.50568 -0.875,-1.9375 0.0862,-0.0862 0.20118,-0.11816 0.3125,-0.125 z m -21.09375,1 c 1.55795,0 1.58299,1.36539 0.0312,1.78125 -1.63298,0.43762 -2.5,0.4022 -2.5,-0.0937 0,-0.81292 1.27478,-1.6875 2.46875,-1.6875 z m 73.84375,0.53125 c 0.82047,0 2.9375,2.2129 2.9375,3.0625 0,1.1316 -1.99421,0.61661 -3.09375,-0.78125 -1.10082,-1.39946 -1.0399,-2.28125 0.15625,-2.28125 z m 13.3125,1.0625 c 0.34319,-0.066 0.65625,0.213 0.65625,0.78125 0,0.43306 0.22146,0.78125 0.5,0.78125 1.02423,0 1.66149,2.14149 1.3125,4.46875 -0.34512,2.30171 -0.86552,2.90899 -1.5625,1.78125 -0.19402,-0.31388 -0.86679,-0.43867 -1.46875,-0.28125 -1.64874,0.43115 -2.46875,-0.61023 -2.46875,-3.125 0,-1.76495 0.25009,-2.31457 1.03125,-2.5625 0.55074,-0.1748 1.1193,-0.67168 1.28125,-1.09375 0.16866,-0.43951 0.45182,-0.69862 0.71875,-0.75 z m -18.59375,0.5 c 0.37661,0 1.585,0.8339 2.6875,1.84375 1.89194,1.73294 1.95833,1.9155 1.21875,3.03125 -1.11641,1.68417 -2.2231,1.68585 -3.5,0.0625 -1.2434,-1.58072 -1.51393,-4.9375 -0.40625,-4.9375 z m -5.5,0.71875 c 1.98793,0.0335 2.93982,1.11643 1.59375,1.96875 -0.97974,0.62036 -1.5431,0.58236 -3.03125,-0.1875 -1.82383,-0.9435 -1.41431,-1.6243 1.03125,-1.75 0.14126,-0.007 0.27372,-0.0335 0.40625,-0.0312 z m -131.125,0.0625 c 0.52341,-0.0634 1.5625,0.77633 1.5625,1.375 0,0.25335 -0.2154,0.46875 -0.46875,0.46875 -0.68418,0 -1.6752,-1.35605 -1.28125,-1.75 0.0492,-0.0492 0.11272,-0.0848 0.1875,-0.0937 z m 97.8125,0 c 0.24653,-0.0162 0.52421,0.14623 0.84375,0.53125 0.35676,0.42987 0.97692,0.8125 1.34375,0.8125 0.76915,0 1.43627,1.41909 1,2.125 -0.66924,1.08285 -3.48465,-0.43412 -3.71875,-2 -0.13593,-0.90926 0.12036,-1.44179 0.53125,-1.46875 z m 5.625,0.53125 c 0.53666,-0.11768 1.11177,1.23908 0.71875,1.875 -0.16233,0.26265 -0.50959,0.5 -0.78125,0.5 -0.62906,0 -0.65628,-1.95745 -0.0312,-2.34375 0.0352,-0.0218 0.058,-0.0233 0.0937,-0.0312 z m 43.6875,1.625 c 0.34044,0.0147 0.76434,0.62121 1.0625,1.78125 0.88511,3.4435 0.86002,8.56528 -0.0312,10.65625 -0.97007,2.27577 -1.4359,2.41768 -2.4375,0.78125 -3.91789,-6.40113 -4.12115,-6.92225 -3.65625,-8.25 0.29767,-0.85014 0.92023,-1.41554 1.75,-1.53125 1.6996,-0.23702 2.51818,-0.93533 2.71875,-2.34375 0.108,-0.75852 0.32897,-1.1052 0.59375,-1.09375 z m -18.625,0.0312 3.71875,2.53125 c 2.03858,1.3802 3.71875,2.71458 3.71875,2.96875 0,0.57387 -1.04765,0.53655 -2.09375,-0.0625 -0.43306,-0.24796 -2.15297,-0.82898 -3.8125,-1.3125 -3.57883,-1.04274 -4.03854,-1.58645 -2.59375,-3.03125 l 1.0625,-1.09375 z m -14.8125,0.3125 c 0.95318,-0.0919 1.70307,0.76466 2.03125,2.46875 0.11784,0.61188 0.58258,1.45759 1.03125,1.90625 0.44868,0.44868 0.8125,1.32993 0.8125,1.96875 0,0.71235 1.1044,2.28265 2.875,4.03125 3.40581,3.3635 3.90798,5.50679 1.4375,6.09375 -2.56093,0.60844 -3.12206,1.50982 -2.84375,4.40625 0.28236,2.93864 -0.18488,3.2446 -2,1.3125 -0.67806,-0.72176 -1.76606,-1.3125 -2.4375,-1.3125 -0.67143,0 -1.21875,-0.24255 -1.21875,-0.53125 0,-0.28871 0.57256,-0.53125 1.28125,-0.53125 1.06792,0 1.35728,-0.31255 1.65625,-1.90625 0.43707,-2.32976 -0.15424,-3.42234 -2.1875,-3.96875 -2.32659,-0.62524 -3.35754,-0.0299 -4.46875,2.5625 -1.00468,2.3438 -1.01226,2.37827 0.0312,3.84375 1.33595,1.87617 1.3379,1.82529 -0.53125,3.15625 -1.47585,1.0509 -1.61137,1.04488 -2.4375,0.21875 -0.82613,-0.82613 -0.94846,-0.78983 -1.625,0.125 -0.39728,0.53725 -0.62314,1.49643 -0.5,2.15625 0.14827,0.79448 -0.10059,1.3712 -0.75,1.71875 -0.62055,0.33211 -0.96875,1.10437 -0.96875,2.09375 0,0.85987 -0.30805,2.03618 -0.65625,2.59375 -0.54551,0.87349 -0.38762,1.2392 1.0625,2.625 1.16045,1.10898 1.6875,2.07355 1.6875,3.15625 0,1.198 -0.23168,1.59375 -1,1.59375 -1.29912,0 -3.40369,-3.31715 -2.96875,-4.6875 0.17693,-0.55749 0.0817,-1.15806 -0.21875,-1.34375 -0.30045,-0.18569 -0.55223,-1.80639 -0.5625,-3.59375 -0.0103,-1.78737 -0.36298,-4.67402 -0.78125,-6.40625 -1.23143,-5.10001 -0.96614,-9.1875 0.59375,-9.1875 0.48628,0 0.71875,-0.61724 0.71875,-1.84375 0,-1.01438 0.21873,-2.24868 0.46875,-2.75 0.96243,-1.92987 1.54574,-4.36362 1.28125,-5.375 -0.39378,-1.50586 0.471,-1.29301 2.21875,0.53125 2.43715,2.54383 5.43976,1.74724 4.6875,-1.25 -0.24905,-0.99231 -0.17326,-1.375 0.375,-1.375 0.41402,0 1.32194,-0.59074 2,-1.3125 0.69126,-0.73581 1.33434,-1.13236 1.90625,-1.1875 z m -32.21875,1.0625 c 0.27323,-0.12879 1.36021,0.78994 3.15625,2.75 1.79981,1.96418 3.27076,3.84121 3.28125,4.15625 0.0459,1.37493 0.93234,2.9375 1.65625,2.9375 0.55906,0 0.65275,-0.31707 0.40625,-1.09375 -0.29178,-0.91931 -0.1278,-1.07118 0.90625,-0.9375 1.86888,0.24161 2.53125,-0.47041 2.53125,-2.65625 0,-1.25865 0.36079,-2.29355 0.96875,-2.84375 1.19704,-1.08331 2.71875,-1.1412 2.71875,-0.0937 0,0.43305 -0.33051,0.78125 -0.75,0.78125 -0.73606,0 -1.8688,2.9363 -1.875,4.875 -10e-4,0.54765 -0.41243,0.90625 -1,0.90625 -2.57534,0 -2.32607,2.05649 0.34375,2.875 1.67968,0.51493 2.13541,1.67042 2.40625,6.09375 0.13105,2.14042 0.42088,4.54981 0.625,5.34375 0.41396,1.61026 -0.70485,2.05338 -1.8125,0.71875 -0.71124,-0.857 -3.6284,-1.40184 -4.03125,-0.75 -0.15273,0.24712 1.01603,1.03844 2.625,1.75 1.60896,0.71156 2.9375,1.52015 2.9375,1.8125 0,0.70321 -1.00793,0.84847 -2.59375,-0.0312 -0.72176,-0.40039 -2.90323,-1.1094 -3.625,-0.96875 -1.35432,0.26391 -3.75,-0.76803 -3.75,-1.5 0,-0.22709 0.28336,-0.72087 0.625,-1.0625 0.34165,-0.34165 0.48283,-0.73591 0.3125,-0.90625 -0.34414,-0.34413 -6.60394,-1.65951 -9.0625,-1.90625 -2.26989,-0.22779 -2.39589,-2.07286 -0.28125,-4.1875 1.74915,-1.74918 1.77683,-2.82976 0.0312,-1.25 -1.41981,1.28491 -2.41316,0.38228 -2.8125,-2.53125 -0.16954,-1.2369 -0.47874,-2.59991 -0.65625,-3.0625 -0.21751,-0.56681 0.27861,-1.31841 1.5,-2.25 1.99845,-1.5243 3.90056,-1.21131 5.65625,0.90625 0.80071,0.96575 0.86008,0.95883 2.75,-0.15625 2.33381,-1.37699 2.35271,-1.53747 0.25,-2.875 -0.90773,-0.57741 -2.05893,-1.75889 -2.5625,-2.625 -0.80616,-1.38656 -1.08751,-2.11857 -0.875,-2.21875 z m 80.65625,1.75 0.65625,1.46875 c 0.60816,1.33476 0.54786,1.53617 -0.625,2.4375 -0.7081,0.54421 -1.70962,1.02483 -2.21875,1.03125 -0.50916,0.007 -1.34246,0.23238 -1.84375,0.5 -0.50134,0.26764 -1.34236,0.61436 -1.875,0.78125 -0.53263,0.16688 -1.09938,0.76779 -1.25,1.34375 -0.33052,1.26396 -1.60473,1.38033 -2.0625,0.1875 -0.46112,-1.20169 0.476,-2.50323 1.96875,-2.71875 0.6923,-0.1 1.4566,-0.53222 1.6875,-0.9375 0.23086,-0.40526 1.00101,-0.71875 1.6875,-0.71875 0.78027,0 1.7098,-0.63787 2.53125,-1.6875 l 1.34375,-1.6875 z m -42.78125,1.25 c 0.43305,0 0.91528,0.24254 1.09375,0.53125 0.1784,0.2887 -0.0357,0.53125 -0.46875,0.53125 -0.43305,0 -0.91532,-0.24255 -1.09375,-0.53125 -0.17843,-0.28871 0.0357,-0.53125 0.46875,-0.53125 z m 4.28125,0.0625 c 0.6989,-0.0116 1.54919,0.3383 2.96875,1.0625 1.18875,0.60647 3.34224,1.44402 4.8125,1.875 3.41218,1.00023 8.21875,3.69688 8.21875,4.625 0,1.00879 -1.85726,1.4658 -4.40625,1.09375 -1.67897,-0.24507 -2.53663,-0.0904 -3.75,0.71875 -2.10016,1.40052 -1.67187,1.67036 -6.28125,-3.46875 -3.77422,-4.20797 -4.00307,-4.63917 -3.125,-5.28125 0.56477,-0.41296 1.01891,-0.61598 1.5625,-0.625 z m -74.34375,3.375 c 0.083,0.005 0.1854,0.0137 0.3125,0.0625 0.41836,0.16054 0.78125,0.52343 0.78125,0.78125 0,0.75463 -0.93139,0.51778 -1.25,-0.3125 -0.14632,-0.38129 -0.0928,-0.546 0.15625,-0.53125 z m 123.46875,0.4375 c 0.0973,-0.004 0.19165,0.008 0.25,0.0312 1.11685,0.42859 0.87152,1.875 -0.3125,1.875 -0.56862,0 -1.87821,0.4851 -2.90625,1.0625 -2.02427,1.13697 -3.16565,1.30573 -3.625,0.5625 -0.3686,-0.59639 5.1337,-3.46814 6.59375,-3.53125 z m -111.15625,1.40625 c 1.14531,-0.0594 3.40851,0.66689 3.65625,1.3125 0.1613,0.42033 0.61991,0.64586 1,0.5 1.20826,-0.46364 2.45409,0.97723 2.8125,3.28125 0.19088,1.22699 0.12843,2.21964 -0.125,2.21875 -1.05621,-0.004 -3.91381,-2.18828 -4.46875,-3.40625 -0.32916,-0.72244 -0.90803,-1.3125 -1.25,-1.3125 -0.80438,0 -2.60904,-1.98472 -2.1875,-2.40625 0.10584,-0.10586 0.29821,-0.17379 0.5625,-0.1875 z m 35.5,0.125 c 0.7328,-0.0695 1.31907,0.31653 1.46875,1.09375 0.30003,1.55792 -0.58559,1.94056 -2,0.84375 -1.11336,-0.86337 -1.19927,-1.11443 -0.53125,-1.5625 0.351,-0.23543 0.72941,-0.34338 1.0625,-0.375 z m -12.40625,0.90625 c -1.72087,0 -1.87478,0.11689 -1.5625,1.1875 0.18948,0.64958 0.43985,1.61816 0.5625,2.15625 0.12266,0.53809 0.67202,1.29648 1.1875,1.6875 1.11008,0.84205 3.1009,0.96562 3.5625,0.21875 0.17964,-0.29068 -0.18558,-1.22597 -0.78125,-2.0625 -0.59566,-0.83654 -1.0625,-1.88309 -1.0625,-2.34375 0,-0.61243 -0.51813,-0.84375 -1.90625,-0.84375 z m 68.40625,2.40625 c 0.71405,-0.13822 1.21875,0.82311 1.21875,2.375 0,0.97663 -1.03996,1.33506 -1.75,0.625 -0.63519,-0.63517 -0.38291,-2.64666 0.375,-2.9375 0.0495,-0.019 0.10869,-0.0534 0.15625,-0.0625 z m -113.125,0.4375 c 0.39408,-0.0349 1.01688,0.20907 1.71875,0.875 0.73075,0.69334 1.30724,1.40811 1.3125,1.59375 0.026,0.97091 -1.60564,0.74333 -2.65625,-0.375 -1.10165,-1.17264 -1.03179,-2.03563 -0.375,-2.09375 z m 86.625,0.84375 c 0.44803,0 1.08613,0.32664 1.4375,0.75 1.17715,1.4184 0.27832,1.92321 -1,0.5625 -0.96002,-1.02192 -1.05713,-1.3125 -0.4375,-1.3125 z m 14,0.0312 c 0.48233,-0.0297 1.09375,0.60199 1.09375,1.28125 0,0.41601 -0.2335,0.78125 -0.53125,0.78125 -0.62841,0 -1.30682,-1.50568 -0.875,-1.9375 0.0862,-0.0862 0.20119,-0.11815 0.3125,-0.125 z m -85.84375,0.4375 c 1.785,-0.10427 4.64006,0.64921 6.28125,1.84375 0.62689,0.45627 2.09518,1.45093 3.25,2.21875 1.15482,0.76783 3.4731,2.78567 5.15625,4.46875 2.89891,2.8988 4.6165,3.70797 5.34375,2.53125 0.17843,-0.2887 0.54084,-0.53125 0.8125,-0.53125 0.91901,0 0.51976,1.07617 -0.40625,1.09375 -1.92399,0.0366 1.46885,2.03509 4.03125,2.375 2.21507,0.29384 2.56354,0.50521 2.8125,1.75 0.17633,0.88165 1.11484,1.98966 2.4375,2.90625 1.78349,1.23597 2.125,1.75868 2.125,3.25 0,1.09625 0.29925,1.9088 0.78125,2.09375 0.51396,0.19723 0.69526,0.72204 0.5,1.5 -0.22613,0.90102 -0.0511,1.25106 0.78125,1.46875 0.65005,0.16999 1.43578,1.08551 1.90625,2.28125 1.27958,3.25228 1.5053,3.5278 4.3125,4.65625 3.40844,1.37013 3.37345,1.11433 4.28125,4.875 1.16243,4.81548 0.63086,4.13923 2.8125,2.75 1.03699,-0.66033 2.19122,0.29741 2.25,1.4375 0.0693,1.34297 0.8819,1.56442 -0.5,1.71875 -1.04716,0.11693 -3.66827,-1.9067 -3.375,-0.6875 0.29185,1.21326 0.24777,4.06415 -1.0625,4.53125 -0.48527,0.17298 -1.17037,0.45678 -1.53125,0.625 -0.43452,0.2026 -0.65625,-0.13319 -0.65625,-1.0312 0,-1.435 -0.34915,-1.62363 -1.53125,-0.875 -0.49165,0.31137 -0.61672,0.91194 -0.375,1.875 0.26357,1.05019 0.12732,1.58934 -0.5625,2.09375 -0.88889,0.64997 -0.89731,0.76174 -0.0312,1.71875 1.67451,1.85032 -0.3104,1.65552 -1.09375,2.5625 -0.78336,0.90698 -0.12413,3.80215 -0.34375,5.9375 0.14129,1.64611 -0.0733,2.63708 -0.65625,3.28125 -1.18109,1.30509 -2.48863,1.15887 -3.1875,-0.375 -0.6407,-1.40616 -1.63306,-1.67943 -2.59375,-0.71875 -0.77363,0.77363 -2.42071,0.15221 -2.0625,-0.78125 0.15174,-0.39545 0.0622,-0.93579 -0.1875,-1.1875 -0.2497,-0.25172 -0.83289,-2.93735 -1.3125,-5.96875 -0.93962,-5.93893 -1.29689,-6.90548 -3.1875,-8.9375 -0.78883,-0.84784 -1.19873,-1.86153 -1.125,-2.8125 0.0892,-1.1507 -0.0495,-2.25043 -1.8125,-3.09375 l -3.34375,-1.59375 -0.96875,0.90625 c -2.45463,0.93744 -3.4375,0.78183 -3.4375,-0.53125 0,-0.56861 0.36652,-0.68993 1.4375,-0.4375 1.18693,0.27975 2.44576,-0.0513 1.90625,-0.625 -0.36088,-0.38372 -1.78125,-0.78434 -1.78125,-1.25 0,-0.46565 -0.6945,-1.51084 -1.53125,-2.3125 -2.66945,-1.76518 -2.81653,-2.68084 -4.3125,-3.1875 -1.70263,-0.57663 -3.12754,0.50967 -3.84375,-1.5 -0.64332,-1.80512 -0.0437,-2.35533 1.28125,-1.15625 0.58095,0.52575 0.87788,1.41602 2.09375,2.03125 0.73834,0.3736 -0.99163,-3.33407 -2.25,-3.8125 -2.0229,-0.76911 -3.11466,-2.82286 -2.0625,-3.875 0.77893,-0.77894 0.69382,-1.24683 -0.84375,-5.75 -0.91919,-2.69208 -1.65625,-5.51368 -1.65625,-6.28125 0,-1.98999 -0.95054,-3.96202 -3.25,-6.78125 -2.28307,-2.79915 -2.35602,-3.11063 -1.0625,-4.28125 0.2693,-0.24371 0.74876,-0.37149 1.34375,-0.40625 z m 113.75,0.625 c 0.39807,-0.0237 0.51728,0.3432 0.40625,1.125 -0.12007,0.84564 -0.56018,1.22482 -1.59375,1.34375 -1.74255,0.2005 -1.87556,-0.60206 -0.28125,-1.71875 0.69942,-0.48989 1.15915,-0.73159 1.46875,-0.75 z m -2.1875,4.125 c 0.25335,0 0.74238,0.35789 1.09375,0.78125 0.9931,1.19663 0.41354,2.16353 -0.65625,1.09375 -0.96622,-0.96622 -1.17924,-1.875 -0.4375,-1.875 z m -10.375,0.0937 c 0.79677,-0.007 1.46157,0.43829 2.53125,1.4375 1.41114,1.31824 1.53372,1.71778 1.09375,2.875 -0.32592,0.85737 -0.32281,1.45675 0,1.65625 0.27765,0.17161 0.5,1.02593 0.5,1.875 0,1.47329 -1.12305,2.15874 -1.78125,1.09375 -0.14872,-0.24069 -1.20423,-1.08532 -2.34375,-1.875 -1.79749,-1.24566 -2.19078,-1.36464 -3.125,-0.78125 -1.36005,0.84938 -1.91097,0.34764 -1.15625,-1.0625 0.31887,-0.59621 0.44857,-1.61465 0.28125,-2.28125 -0.25192,-1.00382 0.002,-1.38087 1.5625,-2.125 1.1115,-0.53004 1.81779,-0.80738 2.4375,-0.8125 z m -29.3125,1.5625 c 0.12032,0.008 0.32045,0.19546 0.6875,0.5625 0.46657,0.46657 0.76557,1.10961 0.65625,1.4375 -0.26959,0.80884 -1.5,-0.42156 -1.5,-1.5 0,-0.34392 0.036,-0.50758 0.15625,-0.5 z m 4.875,2.5625 c 0.41601,0 0.75,0.34819 0.75,0.78125 0,0.79064 -1.09136,1.06486 -1.71875,0.4375 -0.48986,-0.48987 0.0918,-1.21875 0.96875,-1.21875 z m -43.71875,5.46875 c 0.25121,-0.0403 0.81093,0.18084 1.84375,0.75 0.60793,0.33501 2.44621,1.19792 3.6875,1.40625 3.5629,0.59799 5.35125,7.60145 4.375,8.59375 -0.92027,0.93538 -4.82623,-1.55198 -5.65625,-4.09375 -0.57514,-1.76125 -2.55817,-1.86141 -3.71875,-4.59375 -0.50869,-1.19763 -0.94993,-1.99526 -0.53125,-2.0625 z m 57.28125,0.34375 c 0.2153,0.0185 0.31717,0.20474 0.21875,0.5 -0.12632,0.37892 -0.55855,0.81119 -0.9375,0.9375 -0.3937,0.13123 -0.56873,-0.0751 -0.4375,-0.46875 0.12628,-0.37893 0.5586,-0.77995 0.9375,-0.90625 0.0984,-0.0328 0.14698,-0.0687 0.21875,-0.0625 z m -49.1875,0.53125 c 0.25465,-0.0378 0.66696,0.1199 1.21875,0.46875 0.50901,0.3218 0.58839,0.65595 0.25,0.96875 -0.69681,0.64411 -1.8125,0.17683 -1.8125,-0.75 0,-0.43056 0.0891,-0.64979 0.34375,-0.6875 z m 34.53125,2.59375 c 0.54322,0 0.8125,0.49832 0.8125,1.5625 0,1.80993 -0.0159,1.79131 -1.3125,0.84375 -1.10579,-0.80855 -0.76937,-2.40625 0.5,-2.40625 z m 15.1875,3.65635 c 0.54998,-0.0467 0.84449,0.24051 0.625,0.8125 -0.17524,0.45666 -0.3125,0.94176 -0.3125,1.0625 0,0.12073 -0.33395,0.21875 -0.75,0.21875 -1.09587,0 -1.5969,-1.08858 -0.75,-1.625 0.44543,-0.28213 0.85751,-0.44077 1.1875,-0.46875 z m -18.78125,0.15625 c 0.68312,0.0359 1.78125,1.24358 1.78125,2.125 0,1.14676 0.94155,1.5925 1.84375,0.84375 1.36001,-1.12872 1.30222,-0.2559 -0.125,1.75 -0.75928,1.06716 -1.51709,1.9298 -1.6875,1.90625 -0.85248,-0.11781 -3.67989,-1.5639 -3.96875,-2.03125 -0.34911,-0.5649 1.11678,-4.04334 1.90625,-4.53125 0.0769,-0.0475 0.15241,-0.0677 0.25,-0.0625 z m 10.0625,0.65625 c 0.22454,0.004 0.54405,0.16813 1.0625,0.53125 0.64389,0.45103 1.00995,1.04355 0.84375,1.3125 -0.87125,1.40974 -3.27678,0.10015 -2.46875,-1.34375 0.19534,-0.34906 0.33795,-0.50442 0.5625,-0.5 z m -16.5,4 c 0.41187,-0.006 0.90726,0.36669 1.28125,1.1875 0.33034,0.72506 1.16428,1.47788 1.875,1.65625 0.71066,0.17838 1.42466,0.68443 1.59375,1.125 0.45537,1.18667 -5.14345,6.32394 -8.75,8.03125 -1.66203,0.78679 -3.32862,1.6667 -3.6875,1.9375 -1.38588,1.04569 -3.99083,-0.55117 -4.03125,-2.46875 -0.009,-0.43579 0.4745,-1.10154 1.0625,-1.46875 0.588,-0.36721 1.27959,-1.28716 1.5625,-2.03125 0.40101,-1.05475 0.66857,-1.20662 1.21875,-0.75 0.52566,0.43626 1.20213,0.37577 2.625,-0.21875 2.0139,-0.84146 2.27538,-1.25588 1.34375,-2.1875 -0.41093,-0.41093 -0.39064,-0.68867 0.0625,-0.96875 0.34615,-0.21392 0.82808,-0.0981 1.0625,0.28125 0.74179,1.20024 2.14712,-0.44708 1.96875,-2.3125 -0.11141,-1.16523 0.28294,-1.80477 0.8125,-1.8125 z m 40.5,1.0625 c 0.16045,-0.003 0.46804,0.37938 0.75,0.90625 0.32246,0.60252 0.36188,1.09375 0.0937,1.09375 -0.53949,0 -1.27365,-1.60137 -0.90625,-1.96875 0.016,-0.016 0.0396,-0.0308 0.0625,-0.0312 z m -62.8125,0.34375 c 0.35916,-0.003 0.625,0.47488 0.625,1.3125 0,0.72176 -0.23348,1.3125 -0.53125,1.3125 -0.7045,0 -1.21791,-1.38722 -0.78125,-2.09375 0.22927,-0.37096 0.472,-0.52931 0.6875,-0.53125 z m 48.75,1.34375 c 1.83945,0.0361 4.39597,0.29767 5,0.65625 0.75091,0.44577 0.38273,2.17763 -0.53125,2.5 -0.50523,0.17821 -1.14878,0.4136 -1.4375,0.53125 -0.66285,0.27012 -5,-2.74001 -5,-3.46875 0,-0.19225 0.86508,-0.24041 1.96875,-0.21875 z m -46.46875,1.1875 c 0.91513,0 2.3219,1.45984 1.96875,2.03125 -0.4775,0.77258 -0.9906,0.75942 -1.78125,-0.0312 -0.7144,-0.71441 -0.82836,-2 -0.1875,-2 z m 62.78125,0.6875 c 0.51754,0.0325 1.35205,0.41924 2.40625,1.28125 0.98424,0.80483 1.39595,1.55055 1.1875,2.09375 -0.47383,1.23478 -1.15388,1.03129 -2.90625,-0.84375 -1.50944,-1.61508 -1.55007,-2.58537 -0.6875,-2.53125 z m -19.71875,1.78125 c 3.67686,-0.0882 4.5405,1.31227 2.28125,3.75 -0.7061,0.76193 -1.37816,1.55877 -1.46875,1.75 -0.0905,0.19123 -0.85542,0.95978 -1.71875,1.71875 -1.54579,1.35887 -4.99529,2.37968 -5.6875,1.6875 -0.4752,-0.4752 2.22466,-2.08642 4.25,-2.53125 2.97261,-0.65291 3.72442,-3.55244 1.25,-4.78125 -1.82867,-0.90813 -1.39887,-1.53397 1.09375,-1.59375 z m 15.625,0.40625 c 0.37082,-0.007 0.62954,0.42785 0.84375,1.28125 0.19016,0.75771 0.60728,1.20121 0.96875,1.0625 0.82649,-0.31715 0.43451,4.8898 -0.4375,5.8125 -1.80342,1.90829 -6.5816,1.1738 -9.78125,-1.5 l -2.28125,-1.90625 1.4375,-1.90625 c 0.89494,-1.17334 1.87679,-1.85101 2.59375,-1.84375 1.65041,0.0167 3.73793,1.75395 3.34375,2.78125 -0.39636,1.0329 0.57588,1.7054 1.34375,0.9375 0.39928,-0.39928 0.37123,-0.75869 -0.0625,-1.28125 -0.47658,-0.57427 -0.35164,-1.04233 0.5,-2.125 0.68401,-0.86958 1.16042,-1.30582 1.53125,-1.3125 z m -31.0625,5.5 c 0.0673,0.01 0.11903,0.0533 0.15625,0.0937 1.80702,1.9591 -1.7224,4.46592 -2.8125,6.1875 -1.19496,0.49269 -2.7995,3.35533 -3.75,2.53125 -0.47774,-1.24495 -0.37669,-3.375 0.15625,-3.375 0.25738,0 0.57803,-0.53355 0.75,-1.21875 0.31094,-1.23884 4.48993,-4.36795 5.5,-4.21875 z m 43.5,0.71875 c 1.85435,0 1.87083,0.0312 0.9375,1.0625 -1.03481,1.14343 -1.6988,1.2679 -2.8125,0.5625 -1.17299,-0.74296 -0.15986,-1.625 1.875,-1.625 z m -23.96875,0.59375 c 0.54868,-0.0216 1.11342,0.23647 1.75,0.71875 1.19682,0.90672 0.87501,1.46515 -1.4375,2.5625 -2.14453,1.01764 -2.55343,1.04033 -3.375,0.21875 -0.48832,-0.4883 -0.31333,-0.95123 0.78125,-2.09375 0.8777,-0.91611 1.57581,-1.3785 2.28125,-1.40625 z m 15.34375,2.5 c 1.1878,-0.0661 1.91666,2.14657 0.46875,3.40625 -2.59915,2.26128 -4.31621,2.74194 -5.8125,3.4375 -10.77183,4.36266 -4.64227,2.61993 -12.125,5.0625 -1.661,0.55369 -3.70161,1.58959 -4.0625,1.6875 -0.47862,0.12984 -0.65625,-0.77119 -0.65625,-3.40625 0,-2.2901 -0.27807,-4.01084 -0.75,-4.65625 -1.06354,-1.45448 -1.39941,-0.78009 -1.65625,3.21875 -0.27216,4.23814 -1.12588,6.25792 -2.65625,6.28125 -0.61114,0.009 -1.44974,0.26459 -1.84375,0.5625 -0.39401,0.29792 -2.28538,1.19865 -4.21875,2 l -3.53125,1.4375 -1.46875,-1.34375 c -1.9038,-1.76531 -2.60846,-1.70619 -3.03125,0.21875 -0.1895,0.8628 -0.52442,1.66754 -0.71875,1.78125 -0.99534,0.58247 -3.32144,1.07394 -3.96875,0.375 -0.52924,-0.57148 2.60519,-5.13072 3.9375,-5.84375 0.5561,-0.29763 1,-0.84986 1,-1.21875 0,-0.36889 0.7179,-1.34837 1.59375,-2.1875 1.37981,-1.32194 1.72045,-1.4399 2.625,-0.875 0.95693,0.59762 1.02379,0.56383 0.4375,-0.375 -1.15209,-1.84476 2.45055,-3.99296 3.3125,-4.78125 0.79116,-0.72354 2.0875,-0.20587 2.25,-0.46875 0.58868,-0.9525 8.92208,-1.27071 10.59375,-0.40625 1.18866,0.61468 5.85974,-0.98256 6.125,-1.03125 2.78973,-1.17396 3.42301,-2.21665 5.40625,0.625 0,0 0.8286,2.18189 1.6875,2 0.68694,-0.14548 0.21488,-3.18862 3.0625,-3.8125 1.52928,-0.33505 2.91138,-1.03634 3.125,-1.25 0.29821,-0.2982 0.6009,-0.42224 0.875,-0.4375 z m -27.90625,0.3125 c 0.97561,0.0227 2.03125,0.35267 2.03125,0.8125 0,0.52312 -3.63686,0.95519 -3.9375,0.46875 -0.12361,-0.20007 0.0977,-0.63491 0.5,-0.96875 0.28413,-0.23582 0.82089,-0.32609 1.40625,-0.3125 z m -18.53125,1.84375 c 0.68477,-0.069 0.55679,0.8379 -0.46875,2.34375 -1.49713,2.19827 -1.68367,2.23762 -2.78125,0.5625 -1.08994,-1.66345 -1.05873,-1.875 0.21875,-1.875 0.58132,0 1.50214,-0.2438 2.0625,-0.59375 0.40454,-0.25264 0.74049,-0.41451 0.96875,-0.4375 z m -5,2.8125 c 0.46155,0.0105 0.89618,0.48339 0.90625,1.28125 0.006,0.4882 0.9451,1.56233 2.09375,2.375 2.71843,1.92325 2.64777,2.55815 -0.59375,4.65625 -1.90953,1.23595 -3.39666,2.46582 -2.75,2.59375 1.96575,0.17765 2.38886,0.72753 1.78125,1.3125 -0.68621,0.0989 -1.3899,0.23911 -2.0625,0.4375 -1.03419,0.32958 -1.20652,0.26356 -0.9375,-0.4375 0.26537,-0.69156 0.10939,-0.82525 -0.9375,-0.5625 -1.42846,0.35852 -1.38314,0.47326 -2.375,-4.03125 -0.61374,-2.78725 -0.58665,-3.03946 0.5625,-4.59375 0.66863,-0.90438 1.61623,-1.65625 2.125,-1.65625 0.50876,0 1.14121,-0.37015 1.40625,-0.84375 0.21254,-0.37979 0.50432,-0.53758 0.78125,-0.53125 z m -18.4375,5.1875 c -0.77897,-0.10633 -4.00693,3.74022 -4.5625,4.5 -0.54331,0.74302 -1.68507,4.06683 -0.96875,5 0.46359,0.60394 1.75,0.3125 1.75,0.3125 0.18328,-0.20373 0.18543,-4.43497 1.21875,-5.75 1.03331,-1.31502 2.82113,-3.57783 2.75,-3.90625 -0.0224,-0.10326 -0.10696,-0.14524 -0.1875,-0.15625 z m 36.28125,1.84375 c -0.62608,-0.0464 -1.35075,0.36852 -1.96875,1.25 -1.00696,1.43621 -1.93435,1.77818 -4.21875,1.59375 -0.86421,-0.0698 -0.89815,0.0106 -0.25,0.4375 0.43305,0.28516 2.39496,0.49602 4.34375,0.5 l 3.53125,0.0312 0,-1.59375 c 0,-1.36008 -0.63256,-2.15903 -1.4375,-2.21875 z m -25.9375,2.78125 c 0.72324,0.008 1.43533,0.60971 1.5625,1.71875 0.23338,2.03541 -0.75786,3 -3.0625,3 -1.2874,0 -2.2803,0.33958 -2.90625,1.03125 -1.74867,1.93225 -4.04823,1.07132 -2.75,-1.03125 0.49149,-0.79599 0.99989,-1.0373 1.90625,-0.8125 1.41169,0.35013 3.07422,-0.85048 3.8125,-2.78125 0.29964,-0.78367 0.87497,-1.13101 1.4375,-1.125 z m 35.625,5.40625 c 0.2999,-0.0187 0.2368,0.33822 -0.0312,1.40625 -0.37585,1.49749 -0.62432,1.6289 -1.8125,0.875 -0.67449,-0.42798 -0.91754,-1.11218 0.375,-1.6875 0.77757,-0.34611 1.23551,-0.5792 1.46875,-0.59375 z m -6.1875,4.21875 c 1.04631,0.0658 2.65625,2.44896 2.65625,4.0625 0,0.79203 -2.78549,0.061 -3.3125,-0.875 -0.2309,-0.41007 -0.75671,-0.75 -1.15625,-0.75 -0.40224,0 -0.78304,0.63815 -0.875,1.4375 l -0.15625,1.4375 -0.9375,-1.3125 c -0.88706,-1.25336 -0.85735,-1.31256 0.15625,-1.6875 0.57828,-0.21393 1.03125,-0.74514 1.03125,-1.1875 0,-0.44236 0.29536,-0.80851 0.65625,-0.8125 0.36089,-0.004 1.13099,-0.12333 1.71875,-0.28125 0.064,-0.0172 0.149,-0.0358 0.21875,-0.0312 z m -19.53125,2 c 0.2652,0.001 0.67037,0.23287 1.03125,0.59375 1.13318,1.13318 0.71537,1.551 -0.59375,0.59375 -0.55588,-0.40647 -0.82734,-0.92267 -0.625,-1.125 0.0506,-0.0506 0.0991,-0.0629 0.1875,-0.0625 z m -24.15625,5.4375 c 0.1572,0.0127 0.21875,0.1319 0.21875,0.5 0,0.56499 -1.94181,1.62794 -5,4.34375 -3.18748,2.83063 -6.7499,5.30423 -8.28125,6.03125 0.97422,-1.28415 3.85284,-2.95863 6.625,-5.5625 1.50388,-1.41258 3.99423,-4.63458 4.78125,-4.8125 0.88243,-0.19951 1.39424,-0.52118 1.65625,-0.5 z m -24.1875,33.4375 c 0.13001,-0.0495 0.18343,0.18434 0.1875,0.78125 0.004,0.64958 -0.24255,1.1875 -0.53125,1.1875 -0.65769,0 -0.65769,-0.5448 0,-1.5625 0.15429,-0.23876 0.26575,-0.37659 0.34375,-0.40625 z m -4.8125,1.4375 c -0.58322,0 -1.31882,2.28146 -1.03125,3.1875 0.53274,1.67856 1.0978,1.15549 1.1875,-1.09375 0.0461,-1.15482 -0.0373,-2.09375 -0.15625,-2.09375 z m -34.625,11.15625 c -0.14792,0.007 -0.21875,0.2359 -0.21875,0.71875 0,0.58704 0.18972,1.25038 0.40625,1.46875 0.21652,0.21837 0.46324,-0.01 0.5625,-0.5 0.0992,-0.48962 -0.0904,-1.15297 -0.40625,-1.46875 -0.15584,-0.15584 -0.255,-0.22255 -0.34375,-0.21875 z m 83.4375,0 c -0.61644,0 -1.54204,2.15625 -0.8125,2.15625 0.31431,0 0.51249,0.3536 0.78125,0.1875 0.62451,-0.38598 0.65246,-2.34375 0.0312,-2.34375 z m -47.59375,2.78125 c 0.3328,-0.0406 0.63568,0.11044 0.65625,0.5 0.0152,0.28871 -0.36218,0.619 -0.84375,0.71875 -0.54733,0.11337 -0.77218,-0.0898 -0.625,-0.53125 0.13622,-0.40867 0.47971,-0.64694 0.8125,-0.6875 z m 50,0.8125 c -0.33438,0.007 -0.30495,1.4375 -1.75,1.4375 -0.88262,0 0.83438,0.92078 2.09375,0.4375 0.65446,-0.25113 0.69643,-0.49757 0.1875,-1.3125 -0.26017,-0.4166 -0.41979,-0.56493 -0.53125,-0.5625 z m 3.09375,0.0937 c -0.45009,0 -0.84375,0.24255 -0.84375,0.53125 0,0.28871 0.22833,0.5 0.5,0.5 0.27166,0 0.63406,-0.21129 0.8125,-0.5 0.17842,-0.2887 -0.0186,-0.53125 -0.46875,-0.53125 z m -33.125,1.40625 c -0.4501,0 -0.67844,0.24255 -0.5,0.53125 0.17842,0.28871 0.54084,0.53125 0.8125,0.53125 0.27167,0 0.5,-0.24254 0.5,-0.53125 0,-0.2887 -0.3624,-0.53125 -0.8125,-0.53125 z m 4.96875,1.625 c 0.0222,-4.1e-4 0.0538,-0.014 0.0625,0 0.35636,0.5766 1.32881,3.04756 0.875,2.59375 -0.83414,-0.83415 -4.55605,-1.0625 -3.53125,-1.0625 0.52534,0 2.26073,-1.52513 2.59375,-1.53125 z m -68.03125,0.15625 c 0.37063,-0.0139 0.70701,0.0672 1.125,0.28125 0.61736,0.3161 1.59026,0.80972 2.15625,1.09375 0.566,0.28402 1.39928,0.38931 1.84375,0.21875 1.08015,-0.4145 1.05476,1.03621 -0.0312,1.9375 -0.61478,0.51022 -2.23309,0.6706 -1.6875,0.125 -0.7,-0.45542 -1.13234,-0.29747 -2.0625,0.8125 -0.93632,1.11731 -1.14102,1.20882 -1.15625,0.46875 -0.0104,-0.50523 -0.41145,-0.90625 -0.875,-0.90625 -0.46357,0 -1.57693,-0.62459 -2.46875,-1.375 -1.28165,-1.07827 0.0862,3.11676 -1.3125,3.34375 -2.13156,0.3459 -1.41738,-1.00879 0.0312,-1.46875 0.9885,-0.31387 -0.27938,-4.68823 0.65625,-4.1875 1.07965,0.57782 1.55357,0.57127 2.5625,0.0312 0.46162,-0.24705 0.84813,-0.36109 1.21875,-0.375 z m 92.4375,0.15625 c -0.19965,-0.002 -0.25,0.33182 -0.25,1.0625 0,1.56701 0.16159,1.66646 1,0.65625 0.45306,-0.54592 0.41632,-0.87387 -0.1875,-1.375 -0.25282,-0.20982 -0.44271,-0.34246 -0.5625,-0.34375 z m -3.09375,2.09375 c 0.27646,0.0327 0.64838,0.47531 1.0625,1.34375 0.75614,1.58563 0.80502,2.04999 0.25,2.71875 -1.04456,1.25862 -1.44905,0.98085 -1.71875,-1.15625 -0.24286,-1.92444 -0.0546,-2.96073 0.40625,-2.90625 z m -95.78125,0.71875 c 1.12797,0 -0.0937,0.15418 -0.0937,1.1875 0,0.99433 -1.65775,2.17973 -2.0625,1.125 -0.40341,-1.05129 0.77349,-2.3125 2.15625,-2.3125 z m 108.8125,2.1563 c 1.03746,0 1.51885,0.25869 1.375,0.6875 -0.1211,0.36087 -0.6662,0.64939 -1.21875,0.65625 -0.65781,0.008 -0.94473,0.31293 -0.84375,0.90625 0.22466,1.31973 -0.77288,1.12777 -1.125,-0.21875 -0.41239,-1.57696 -0.033,-2.03125 1.8125,-2.03125 z m -109.625,2.25 c 0.75627,-0.0117 1.125,0.35287 1.125,1.125 0,0.49049 -0.57258,0.78125 -1.59375,0.78125 -1.85368,0 -2.17836,-1.32601 -0.4375,-1.78125 0.34021,-0.089 0.65416,-0.12111 0.90625,-0.125 z"
       id="path3138" />
    <path
       style="fill:#000000;fill-opacity:1;fill-rule:evenodd;stroke:none;display:inline"
       d="m 172.93067,576.48569 0,16.14838 488.28636,0 0,-16.14838 -488.28636,0 z"
       id="rect4020" />
  </g>
  <g
     inkscape:groupmode="layer"
     id="layer8"
     inkscape:label="crop"
     style="display:inline"
     transform="translate(-172.93067,-400.70852)" />
  <g
     inkscape:groupmode="layer"
     id="layer7"
     inkscape:label="download text"
     style="display:inline"
     transform="translate(-172.93067,-400.70852)">
    <text
       xml:space="preserve"
       style="font-size:72px;font-style:normal;font-weight:normal;line-height:125%;letter-spacing:0px;word-spacing:0px;opacity:0.67099998;fill:#ffffff;fill-opacity:1;stroke:none;filter:url(#filter3939);font-family:Bitstream Vera Sans"
       x="-139.6241"
       y="312.40533"
       id="text3799"
       sodipodi:linespacing="125%"><tspan
         id="tspan3801"
         sodipodi:role="line"
         x="-139.6241"
         y="312.40533"
         style="font-size:95px;font-style:normal;font-variant:normal;font-weight:bold;font-stretch:normal;fill:#ffffff;fill-opacity:1;font-family:URW Gothic L;-inkscape-font-specification:URW Gothic L Semi-Bold" /></text>
    <text
       xml:space="preserve"
       style="font-size:72px;font-style:normal;font-weight:normal;line-height:125%;letter-spacing:0px;word-spacing:0px;opacity:0.67099998;fill:#340055;fill-opacity:1;stroke:none;filter:url(#filter3909);font-family:Bitstream Vera Sans"
       x="182.37592"
       y="412.40533"
       id="text3827"
       sodipodi:linespacing="125%"><tspan
         id="tspan3829"
         sodipodi:role="line"
         x="182.37592"
         y="412.40533"
         style="font-size:95px;font-style:normal;font-variant:normal;font-weight:bold;font-stretch:normal;fill:#340055;fill-opacity:1;font-family:URW Gothic L;-inkscape-font-specification:URW Gothic L Semi-Bold" /></text>
  </g>
  <g
     inkscape:groupmode="layer"
     id="layer9"
     inkscape:label="version text"
     style="display:inline"
     transform="translate(-172.93067,-400.70852)">
    <g
       style="display:inline;fill:#ffffff;fill-opacity:1"
       id="g3688"
       transform="matrix(0.6015694,0,0,0.6015694,230.52661,279.36666)">
      <text
         sodipodi:linespacing="125%"
         id="text3684"
         y="481.02283"
         x="-72.445229"
         style="font-size:72px;font-style:normal;font-weight:normal;line-height:125%;letter-spacing:0px;word-spacing:0px;fill:#ffffff;fill-opacity:1;stroke:none;font-family:Bitstream Vera Sans"
         xml:space="preserve"><tspan
           style="font-size:95px;font-style:normal;font-variant:normal;font-weight:bold;font-stretch:normal;fill:#000000;fill-opacity:1;font-family:URW Gothic L;-inkscape-font-specification:URW Gothic L Semi-Bold"
           y="481.02283"
           x="-72.445229"
           id="tspan3686"
           sodipodi:role="line">cedar 6.0</tspan></text>
    </g>
  </g>
</svg>
