<?xml version="1.0" encoding="UTF-8" standalone="no"?>
<!-- Created with Inkscape (http://www.inkscape.org/) -->

<svg
   xmlns:dc="http://purl.org/dc/elements/1.1/"
   xmlns:cc="http://creativecommons.org/ns#"
   xmlns:rdf="http://www.w3.org/1999/02/22-rdf-syntax-ns#"
   xmlns:svg="http://www.w3.org/2000/svg"
   xmlns="http://www.w3.org/2000/svg"
   xmlns:xlink="http://www.w3.org/1999/xlink"
   xmlns:sodipodi="http://sodipodi.sourceforge.net/DTD/sodipodi-0.dtd"
   xmlns:inkscape="http://www.inkscape.org/namespaces/inkscape"
   version="1.1"
   width="94.056526"
   height="95.623894"
   id="svg3016"
   inkscape:version="0.48.3.1 r9886"
   sodipodi:docname="from_plugin.svg">
  <defs
     id="defs7">
    <linearGradient
       id="linearGradient3797">
      <stop
         style="stop-color:#b5b5b5;stop-opacity:1;"
         offset="0"
         id="stop3799" />
      <stop
         id="stop3805"
         offset="0.48717949"
         style="stop-color:#dddddd;stop-opacity:1;" />
      <stop
         style="stop-color:#676767;stop-opacity:1;"
         offset="0.5"
         id="stop3807" />
      <stop
         style="stop-color:#696969;stop-opacity:1;"
         offset="1"
         id="stop3801" />
    </linearGradient>
    <linearGradient
       id="linearGradient3783">
      <stop
         id="stop3785"
         offset="0"
         style="stop-color:#ffb859;stop-opacity:1;" />
      <stop
         id="stop3787"
         offset="1"
         style="stop-color:#df8a00;stop-opacity:1;" />
    </linearGradient>
    <linearGradient
       id="linearGradient3774">
      <stop
         style="stop-color:#ffb859;stop-opacity:1;"
         offset="0"
         id="stop3776" />
      <stop
         style="stop-color:#df8a00;stop-opacity:1;"
         offset="1"
         id="stop3779" />
    </linearGradient>
    <linearGradient
       id="linearGradient3776">
      <stop
         style="stop-color:#4cc600;stop-opacity:1;"
         offset="0"
         id="stop3778" />
      <stop
         style="stop-color:#36ff14;stop-opacity:1;"
         offset="1"
         id="stop3780" />
    </linearGradient>
    <marker
       inkscape:stockid="Arrow1Mend"
       orient="auto"
       refY="0.0"
       refX="0.0"
       id="Arrow1Mend"
       style="overflow:visible;">
      <path
         id="path3765"
         d="M 0.0,0.0 L 5.0,-5.0 L -12.5,0.0 L 5.0,5.0 L 0.0,0.0 z "
         style="fill-rule:evenodd;stroke:#000000;stroke-width:1.0pt;"
         transform="scale(0.4) rotate(180) translate(10,0)" />
    </marker>
    <linearGradient
       inkscape:collect="always"
       xlink:href="#linearGradient3776"
       id="linearGradient3782"
       x1="3.9041224"
       y1="47.807281"
       x2="91.114754"
       y2="47.807281"
       gradientUnits="userSpaceOnUse" />
    <linearGradient
       inkscape:collect="always"
       xlink:href="#linearGradient3797"
       id="linearGradient3803"
       x1="1.0154707"
       y1="1.9342757"
       x2="123.18842"
       y2="99.634102"
       gradientUnits="userSpaceOnUse" />
  </defs>
  <sodipodi:namedview
     pagecolor="#ffffff"
     bordercolor="#666666"
     borderopacity="1"
     objecttolerance="10"
     gridtolerance="10"
     guidetolerance="10"
     inkscape:pageopacity="0"
     inkscape:pageshadow="2"
     inkscape:window-width="1920"
     inkscape:window-height="1005"
     id="namedview5"
     showgrid="false"
     inkscape:zoom="3.4902825"
     inkscape:cx="-19.750466"
     inkscape:cy="30.08737"
     inkscape:window-x="0"
     inkscape:window-y="25"
     inkscape:window-maximized="1"
     inkscape:current-layer="svg3016" />
  <metadata
     id="metadata3021">
    <rdf:RDF>
      <cc:Work
         rdf:about="">
        <dc:format>image/svg+xml</dc:format>
        <dc:type
           rdf:resource="http://purl.org/dc/dcmitype/StillImage" />
        <dc:title />
      </cc:Work>
    </rdf:RDF>
  </metadata>
  <path
     style="font-size:medium;font-style:normal;font-variant:normal;font-weight:normal;font-stretch:normal;text-indent:0;text-align:start;text-decoration:none;line-height:normal;letter-spacing:normal;word-spacing:normal;text-transform:none;direction:ltr;block-progression:tb;writing-mode:lr-tb;text-anchor:start;baseline-shift:baseline;color:#000000;fill:url(#linearGradient3803);fill-opacity:1;fill-rule:nonzero;stroke:none;stroke-width:10;marker:none;visibility:visible;display:inline;overflow:visible;enable-background:accumulate;font-family:Sans;-inkscape-font-specification:Sans"
     d="m 53.741259,2.1060678 c -8.308557,0 -15.158787,6.8502292 -15.158787,15.1587872 0,3.174596 1.017315,6.151428 2.714019,8.605424 l -6.553362,0 c 0.128371,0 -0.25572,-0.05636 -1.158422,0.0331 -5.702537,0.565063 -10.260315,5.41779 -10.260315,11.253248 l 0,6.652655 c -2.342623,-1.45953 -5.082173,-2.316845 -8.009664,-2.316845 -8.2415948,0 -15.15878655,6.692865 -15.15878655,14.9602 0,8.267335 6.89571755,14.993298 15.15878655,14.993298 2.925594,0 5.672248,-0.860673 8.009664,-2.316845 l 0,13.570093 c 0,6.225222 5.228128,11.319443 11.418737,11.319443 l 6.156189,0 c 2.772717,-2.77e-4 5.295368,-2.522928 5.295646,-5.295646 0,-6.061133 4.878791,-10.92227 11.187052,-10.92227 6.30826,0 11.22015,4.874175 11.22015,10.92227 2.77e-4,2.772718 2.522928,5.295369 5.295646,5.295646 l 7.18222,0 c 6.190609,0 11.451834,-5.059185 11.451834,-11.319443 l 0,-8.439936 c 0.005,-2.238987 -1.571137,-4.392113 -3.706952,-5.063962 -4.528796,-1.423355 -7.744882,-5.494836 -7.744882,-10.392705 0,-4.897869 3.216086,-8.96935 7.744882,-10.392705 2.135815,-0.671849 3.71196,-2.824975 3.706952,-5.063962 l 0,-6.189286 c 0,-6.260259 -5.295665,-11.286346 -11.451834,-11.286346 l -14.894005,0 c 1.696704,-2.453996 2.714019,-5.430828 2.714019,-8.605424 0,-8.308558 -6.85023,-15.1587872 -15.158787,-15.1587872 z"
     id="path12"
     inkscape:connector-curvature="0"
     sodipodi:nodetypes="ssccsscssscssccsccssccsccsscss" />
  <path
     sodipodi:type="inkscape:offset"
     inkscape:radius="-4.2450562"
     inkscape:original="M 53.125 4.125 C 43.152166 4.1340339 36.878538 16.987508 43 24.84375 C 47.842506 30.249205 37.409964 26.990763 34.28125 27.875 C 27.145306 27.989776 23.8423 36.060519 25.3125 42.28125 C 26.628806 48.814824 23.695039 46.40153 19.84375 44.3125 C 9.8377358 40.014411 -1.6832452 51.612136 3.21875 61.53125 C 6.693618 70.255517 18.820639 71.836926 25.3125 65.46875 C 26.401713 72.911468 22.988933 81.650849 27.25 88.3125 C 30.772475 92.794197 37.958034 93.109835 42.875 91.28125 C 45.365432 88.460913 43.693146 83.691447 46.8125 80.9375 C 52.96042 72.114798 68.681384 75.40812 70.34375 86.1875 C 69.849 89.558645 72.216218 93.151984 76.03125 92.03125 C 82.366841 93.584247 90.689881 89.991717 90.53125 82.6875 C 90.147468 78.648947 92.560302 71.512969 86.75 70.53125 C 77.351256 66.972437 76.485223 52.426573 85.375 47.78125 C 88.270984 46.768262 91.70598 45.022192 90.53125 41.1875 C 92.390585 34.131228 86.554374 26.514898 79.09375 27.875 C 74.74328 26.877894 62.801419 29.943904 63.5625 26.21875 C 71.221262 17.753027 64.730317 3.4167672 53.125 4.125 z "
     style="font-size:medium;font-style:normal;font-variant:normal;font-weight:normal;font-stretch:normal;text-indent:0;text-align:start;text-decoration:none;line-height:normal;letter-spacing:normal;word-spacing:normal;text-transform:none;direction:ltr;block-progression:tb;writing-mode:lr-tb;text-anchor:start;baseline-shift:baseline;color:#000000;fill:#818181;fill-opacity:1;fill-rule:nonzero;stroke:none;stroke-width:10;marker:none;visibility:visible;display:inline;overflow:visible;enable-background:accumulate;font-family:Sans;-inkscape-font-specification:Sans"
     id="path3795"
     d="m 53.125,8.375 c -6.326961,0.00573 -10.658663,8.898755 -6.78125,13.875 0.694022,0.791184 1.304563,1.543229 1.75,2.65625 0.489131,1.2222 0.602062,3.516764 -0.5625,5.09375 -1.164562,1.576986 -2.53011,1.900363 -3.46875,2.09375 -0.93864,0.193387 -1.706772,0.227789 -2.46875,0.21875 -1.523956,-0.01808 -3.015053,-0.192313 -4.25,-0.28125 -1.234947,-0.08894 -2.37485,0.06994 -1.90625,-0.0625 A 4.2454807,4.2454807 0 0 1 34.34375,32.125 c -1.978739,0.03183 -3.083496,0.894353 -4.0625,2.6875 -0.979004,1.793147 -1.32067,4.48205 -0.84375,6.5 a 4.2454807,4.2454807 0 0 1 0.03125,0.125 c 0.379381,1.883081 0.647259,3.272505 0.21875,5.15625 -0.214255,0.941873 -0.726979,2.165032 -1.84375,3.0625 -1.116771,0.897468 -2.564599,1.168952 -3.53125,1.125 -1.933303,-0.0879 -2.81949,-0.713829 -3.78125,-1.21875 -0.841082,-0.441565 -1.614971,-0.921395 -2.375,-1.34375 -0.0097,-0.0042 -0.02154,0.0041 -0.03125,0 -6.370782,-2.702568 -14.2381991,5.074754 -11.09375,11.4375 a 4.2454807,4.2454807 0 0 1 0.125,0.3125 c 2.2837942,5.733867 10.83308,6.740208 15.1875,2.46875 A 4.2454807,4.2454807 0 0 1 29.5,64.84375 c 0.671063,4.585453 0.01508,8.863389 -0.15625,12.53125 -0.166249,3.559088 0.08185,6.279972 1.375,8.4375 0.935832,1.105202 2.446554,1.869583 4.4375,2.15625 1.545928,0.222591 3.202684,0.03156 4.71875,-0.3125 0.150682,-0.414785 0.311977,-0.724536 0.53125,-2.1875 0.271357,-1.810457 0.822127,-4.645463 2.9375,-6.96875 0.0089,-0.01272 0.02236,-0.01856 0.03125,-0.03125 C 43.59371,78.230818 43.744832,77.975278 44,77.75 l 0.03125,0.03125 c 8.723573,-10.967028 28.296818,-6.536229 30.5,7.75 a 4.2454807,4.2454807 0 0 1 0,1.28125 c -0.07286,0.496426 0.186894,1.06097 0.28125,1.1875 0.03024,-0.01212 -0.01707,-0.01705 0.03125,-0.03125 a 4.2454807,4.2454807 0 0 1 2.1875,-0.0625 C 79.046441,88.400219 81.795803,88.036803 83.625,87 c 1.829197,-1.036803 2.700245,-2.192997 2.65625,-4.21875 l 0.03125,0 c -0.22493,-2.941227 0.233596,-5.500238 0.125,-7.03125 -0.05639,-0.794949 -0.224224,-1.116039 -0.1875,-1.0625 0.03672,0.05354 0.353226,0.127892 -0.21875,0.03125 A 4.2454807,4.2454807 0 0 1 85.25,74.5 C 72.349575,69.615283 71.192361,50.413577 83.40625,44.03125 a 4.2454807,4.2454807 0 0 1 0.5625,-0.25 c 1.224222,-0.428221 2.312832,-1.038888 2.5625,-1.28125 -0.02629,-0.03717 -0.02998,0.04364 -0.0625,-0.0625 A 4.2454807,4.2454807 0 0 1 86.4375,40.09375 C 87.547359,35.881779 84.169263,31.273942 79.84375,32.0625 A 4.2454807,4.2454807 0 0 1 78.15625,32 c -0.427287,-0.09793 -4.844111,0.123298 -8.53125,0.3125 -1.84357,0.0946 -3.565201,0.177267 -5.53125,-0.28125 C 63.110726,31.801992 61.905358,31.460111 60.75,30.25 59.594642,29.039889 59.104636,26.851268 59.40625,25.375 a 4.2454807,4.2454807 0 0 1 1,-2 C 65.664907,17.562268 61.4077,7.8847918 53.375,8.375 a 4.2454807,4.2454807 0 0 1 -0.25,0 z" />
</svg>
