<?xml version="1.0" encoding="UTF-8" standalone="no"?>
<!-- Created with Inkscape (http://www.inkscape.org/) -->

<svg
   xmlns:dc="http://purl.org/dc/elements/1.1/"
   xmlns:cc="http://creativecommons.org/ns#"
   xmlns:rdf="http://www.w3.org/1999/02/22-rdf-syntax-ns#"
   xmlns:svg="http://www.w3.org/2000/svg"
   xmlns="http://www.w3.org/2000/svg"
   xmlns:sodipodi="http://sodipodi.sourceforge.net/DTD/sodipodi-0.dtd"
   xmlns:inkscape="http://www.inkscape.org/namespaces/inkscape"
   version="1.1"
   width="94.056526"
   height="95.623894"
   id="svg3016"
   inkscape:version="0.48.3.1 r9886"
   sodipodi:docname="looped.svg">
  <defs
     id="defs7" />
  <sodipodi:namedview
     pagecolor="#ffffff"
     bordercolor="#666666"
     borderopacity="1"
     objecttolerance="10"
     gridtolerance="10"
     guidetolerance="10"
     inkscape:pageopacity="0"
     inkscape:pageshadow="2"
     inkscape:window-width="1189"
     inkscape:window-height="801"
     id="namedview5"
     showgrid="false"
     inkscape:zoom="0.21814266"
     inkscape:cx="-829.99524"
     inkscape:cy="234.34134"
     inkscape:window-x="0"
     inkscape:window-y="24"
     inkscape:window-maximized="0"
     inkscape:current-layer="svg3016" />
  <metadata
     id="metadata3021">
    <rdf:RDF>
      <cc:Work
         rdf:about="">
        <dc:format>image/svg+xml</dc:format>
        <dc:type
           rdf:resource="http://purl.org/dc/dcmitype/StillImage" />
        <dc:title />
      </cc:Work>
    </rdf:RDF>
  </metadata>
  <path
     d="M 46.931526,8.1046926e-5 C 28.651926,0.03608105 11.214776,11.034901 3.681526,29.218831 c -10.0443329,24.24525 1.1795414,52.41945 24.96875,62.65625 23.78921,10.236899 51.424417,-1.2234 61.46875,-25.4687 a 7.4305795,7.5730222 0 1 0 -13.6875,-5.875 c -6.920888,16.7058 -25.608426,24.4285 -42,17.375 -16.391575,-7.0536 -23.983388,-26.0755 -17.0625,-42.7813 6.920888,-16.7058 25.608426,-24.45981 42,-17.40625 5.158307,2.2197 9.620025,5.74138 12.96875,10.1875 l -5.8125,2.40625 23.4375,18.5938 4.09375,-29.9688 -7.625,3.15625 C 81.353533,13.993401 73.961111,7.572771 65.150276,3.781331 59.202973,1.222111 53.024725,-0.01191895 46.931526,8.1046927e-5 z"
     id="path3006"
     style="color:#000000;fill:#000000;fill-opacity:1;stroke:none;stroke-width:64.23799896;marker:none;visibility:visible;display:inline;overflow:visible"
     inkscape:connector-curvature="0" />
</svg>
