<?xml version="1.0" encoding="UTF-8" standalone="no"?>
<!-- Created with Inkscape (http://www.inkscape.org/) -->

<svg
   xmlns:dc="http://purl.org/dc/elements/1.1/"
   xmlns:cc="http://creativecommons.org/ns#"
   xmlns:rdf="http://www.w3.org/1999/02/22-rdf-syntax-ns#"
   xmlns:svg="http://www.w3.org/2000/svg"
   xmlns="http://www.w3.org/2000/svg"
   xmlns:xlink="http://www.w3.org/1999/xlink"
   xmlns:sodipodi="http://sodipodi.sourceforge.net/DTD/sodipodi-0.dtd"
   xmlns:inkscape="http://www.inkscape.org/namespaces/inkscape"
   width="400"
   height="400"
   id="svg2"
   version="1.1"
   inkscape:version="0.48.4 r9939"
   sodipodi:docname="caren_trunk.svg"
   inkscape:export-filename="/home/lompolbx/workspace/src/cedar.fieldFramework/cedar/processing/gui/icons/steps/no_icon.png"
   inkscape:export-xdpi="9"
   inkscape:export-ydpi="9">
  <sodipodi:namedview
     id="base"
     pagecolor="#ffffff"
     bordercolor="#666666"
     borderopacity="1.0"
     inkscape:pageopacity="0.0"
     inkscape:pageshadow="2"
     inkscape:zoom="1.4"
     inkscape:cx="267.5336"
     inkscape:cy="229.04385"
     inkscape:document-units="px"
     inkscape:current-layer="layer1"
     showgrid="false"
     inkscape:window-width="1920"
     inkscape:window-height="1030"
     inkscape:window-x="0"
     inkscape:window-y="0"
     inkscape:window-maximized="1"
     showguides="true"
     inkscape:guide-bbox="true" />
  <defs
     id="defs4">
    <linearGradient
       id="linearGradient3897">
      <stop
         style="stop-color:#363636;stop-opacity:1;"
         offset="0"
         id="stop3899" />
      <stop
         style="stop-color:#535353;stop-opacity:1;"
         offset="1"
         id="stop3901" />
    </linearGradient>
    <marker
       style="overflow:visible"
       id="TriangleOutS"
       refX="0.0"
       refY="0.0"
       orient="auto"
       inkscape:stockid="TriangleOutS">
      <path
         transform="scale(0.2)"
         style="fill-rule:evenodd;stroke:#000000;stroke-width:1.0pt;marker-start:none"
         d="M 5.77,0.0 L -2.88,5.0 L -2.88,-5.0 L 5.77,0.0 z "
         id="path3799" />
    </marker>
    <marker
       style="overflow:visible"
       id="TriangleInS"
       refX="0.0"
       refY="0.0"
       orient="auto"
       inkscape:stockid="TriangleInS">
      <path
         transform="scale(-0.2)"
         style="fill-rule:evenodd;stroke:#000000;stroke-width:1.0pt;marker-start:none"
         d="M 5.77,0.0 L -2.88,5.0 L -2.88,-5.0 L 5.77,0.0 z "
         id="path3790" />
    </marker>
    <marker
       inkscape:stockid="Arrow1Lstart"
       orient="auto"
       refY="0.0"
       refX="0.0"
       id="Arrow1Lstart"
       style="overflow:visible">
      <path
         id="path3650"
         d="M 0.0,0.0 L 5.0,-5.0 L -12.5,0.0 L 5.0,5.0 L 0.0,0.0 z "
         style="fill-rule:evenodd;stroke:#000000;stroke-width:1.0pt;marker-start:none"
         transform="scale(0.8) translate(12.5,0)" />
    </marker>
    <marker
       inkscape:stockid="Arrow1Send"
       orient="auto"
       refY="0.0"
       refX="0.0"
       id="Arrow1Send"
       style="overflow:visible;">
      <path
         id="path4396"
         d="M 0.0,0.0 L 5.0,-5.0 L -12.5,0.0 L 5.0,5.0 L 0.0,0.0 z "
         style="fill-rule:evenodd;stroke:#000000;stroke-width:1.0pt;marker-start:none;"
         transform="scale(0.2) rotate(180) translate(6,0)" />
    </marker>
    <marker
       inkscape:stockid="Arrow2Send"
       orient="auto"
       refY="0.0"
       refX="0.0"
       id="Arrow2Send"
       style="overflow:visible;">
      <path
         id="path3644"
         style="font-size:12.0;fill-rule:evenodd;stroke-width:0.62500000;stroke-linejoin:round;"
         d="M 8.7185878,4.0337352 L -2.2072895,0.016013256 L 8.7185884,-4.0017078 C 6.9730900,-1.6296469 6.9831476,1.6157441 8.7185878,4.0337352 z "
         transform="scale(0.3) rotate(180) translate(-2.3,0)" />
    </marker>
    <marker
       inkscape:stockid="Arrow2Mend"
       orient="auto"
       refY="0.0"
       refX="0.0"
       id="Arrow2Mend"
       style="overflow:visible;">
      <path
         id="path3638"
         style="font-size:12.0;fill-rule:evenodd;stroke-width:0.62500000;stroke-linejoin:round;"
         d="M 8.7185878,4.0337352 L -2.2072895,0.016013256 L 8.7185884,-4.0017078 C 6.9730900,-1.6296469 6.9831476,1.6157441 8.7185878,4.0337352 z "
         transform="scale(0.6) rotate(180) translate(0,0)" />
    </marker>
    <marker
       inkscape:stockid="Arrow1Lend"
       orient="auto"
       refY="0.0"
       refX="0.0"
       id="Arrow1Lend"
       style="overflow:visible;">
      <path
         id="path3614"
         d="M 0.0,0.0 L 5.0,-5.0 L -12.5,0.0 L 5.0,5.0 L 0.0,0.0 z "
         style="fill-rule:evenodd;stroke:#000000;stroke-width:1.0pt;marker-start:none;"
         transform="scale(0.8) rotate(180) translate(12.5,0)" />
    </marker>
    <linearGradient
       id="linearGradient3594">
      <stop
         style="stop-color:#8b8b8b;stop-opacity:1;"
         offset="0"
         id="stop3596" />
      <stop
         style="stop-color:#ffffff;stop-opacity:1;"
         offset="1"
         id="stop3598" />
    </linearGradient>
    <linearGradient
       id="linearGradient3619">
      <stop
         style="stop-color:#7e7e7e;stop-opacity:1;"
         offset="0"
         id="stop3621" />
      <stop
         style="stop-color:#ffffff;stop-opacity:1;"
         offset="1"
         id="stop3623" />
    </linearGradient>
    <inkscape:perspective
       sodipodi:type="inkscape:persp3d"
       inkscape:vp_x="0 : 526.18109 : 1"
       inkscape:vp_y="0 : 1000 : 0"
       inkscape:vp_z="744.09448 : 526.18109 : 1"
       inkscape:persp3d-origin="372.04724 : 350.78739 : 1"
       id="perspective10" />
    <radialGradient
       inkscape:collect="always"
       xlink:href="#linearGradient3619"
       id="radialGradient3625"
       cx="200.73691"
       cy="978.99298"
       fx="200.73691"
       fy="978.99298"
       r="73.451585"
       gradientTransform="matrix(1.2356686,-0.80521527,1.6978973,2.6055623,-1634.6325,-1339.7914)"
       gradientUnits="userSpaceOnUse" />
    <radialGradient
       inkscape:collect="always"
       xlink:href="#linearGradient3619"
       id="radialGradient3631"
       gradientUnits="userSpaceOnUse"
       gradientTransform="matrix(1.2356686,-0.80521527,1.6978973,2.6055623,-1634.6325,-1339.7914)"
       cx="200.73691"
       cy="978.99298"
       fx="200.73691"
       fy="978.99298"
       r="73.451585" />
    <marker
       inkscape:stockid="Arrow1Lstarto"
       orient="auto"
       refY="0.0"
       refX="0.0"
       id="Arrow1Lstarto"
       style="overflow:visible">
      <path
         id="path4701"
         d="M 0.0,0.0 L 5.0,-5.0 L -12.5,0.0 L 5.0,5.0 L 0.0,0.0 z "
         style="marker-start:none;stroke:#c30000;stroke-width:1.0pt;fill:#c30000;fill-rule:evenodd"
         transform="scale(0.8) translate(12.5,0)" />
    </marker>
    <marker
       inkscape:stockid="Arrow1LendU"
       orient="auto"
       refY="0.0"
       refX="0.0"
       id="Arrow1LendU"
       style="overflow:visible;">
      <path
         id="path4704"
         d="M 0.0,0.0 L 5.0,-5.0 L -12.5,0.0 L 5.0,5.0 L 0.0,0.0 z "
         style="marker-start:none;stroke:#c30000;stroke-width:1.0pt;fill:#c30000;fill-rule:evenodd"
         transform="scale(0.8) rotate(180) translate(12.5,0)" />
    </marker>
    <marker
       style="overflow:visible"
       id="TriangleOutS1"
       refX="0.0"
       refY="0.0"
       orient="auto"
       inkscape:stockid="TriangleOutS1">
      <path
         transform="scale(0.2)"
         style="marker-start:none;stroke:#9f9f9f;stroke-width:1.0pt;fill:#9f9f9f;fill-rule:evenodd"
         d="M 5.77,0.0 L -2.88,5.0 L -2.88,-5.0 L 5.77,0.0 z "
         id="path5583" />
    </marker>
  </defs>
  <metadata
     id="metadata7">
    <rdf:RDF>
      <cc:Work
         rdf:about="">
        <dc:format>image/svg+xml</dc:format>
        <dc:type
           rdf:resource="http://purl.org/dc/dcmitype/StillImage" />
        <dc:title></dc:title>
      </cc:Work>
    </rdf:RDF>
  </metadata>
  <g
     inkscape:label="Layer 1"
     inkscape:groupmode="layer"
     id="layer1"
     transform="translate(0,-652.3622)">
    <g
       id="g3046"
       transform="matrix(1.4017857,0,0,1.6026786,20.571426,647.21934)">
      <path
         inkscape:connector-curvature="0"
         id="path3062"
         d="M 0,128 0,0 l 128,0 128,0 0,128 0,128 -128,0 -128,0 0,-128 z"
         style="fill:#fdfdfd" />
      <path
         sodipodi:nodetypes="ssccsssssssssssssssssssssssssssssssssssssssssscscsssssssssssscsssssssssscssscs"
         inkscape:connector-curvature="0"
         id="path3060"
         d="m 179.03288,230.42374 c -1.97654,-0.59657 -7.63662,-4.34031 -12.57795,-8.3194 -4.94134,-3.97911 -10.22697,-7.55123 -11.74585,-7.93805 -6.92273,-0.19304 -1.31942,-14.03284 0.26508,-20.77455 0.43755,-1.87632 2.74119,-4.22614 6.16831,-6.29191 4.74159,-2.85813 6.10945,-4.68135 10.27253,-13.69232 2.64142,-5.71734 6.72763,-16.90141 9.0805,-24.8535 2.35285,-7.95207 6.06005,-20.38792 8.23823,-27.63522 5.57955,-18.56451 5.52604,-19.05031 -2.42619,-22.025624 -9.48943,-3.550439 -28.98207,-8.472849 -36.91476,-9.321945 -4.33447,-0.463951 -12.02618,0.07035 -20.78884,1.444093 -11.97857,1.877903 -14.92655,1.970303 -21.24231,0.665803 -4.03343,-0.833089 -8.26768,-2.014667 -9.40946,-2.62573 -4.318592,-2.311236 -8.264172,-9.227346 -9.601692,-16.830558 -0.736035,-4.184037 -2.015416,-8.351046 -2.843068,-9.260021 -2.46053,-2.702295 -6.739649,-0.549642 -11.557053,5.813894 -5.609502,7.409858 -8.746102,8.32607 -25.74541,7.520337 C 36.029481,75.721884 34.504345,75.905707 27.190127,78.831853 14.942588,83.731641 8.516928,82.885313 6.13725,76.05897 5.45032,74.088438 4.5246753,67.473635 4.0802642,61.359408 3.3857533,51.804285 3.6447807,49.020156 5.924181,41.540329 c 1.62687,-5.338558 3.633866,-9.390073 5.192278,-10.481625 4.272337,-2.992461 9.673871,-2.187833 15.580695,2.320949 2.954406,2.255148 7.712428,4.574884 10.573381,5.154969 5.555803,1.126488 6.093033,2.55855 3.155694,8.411979 -1.44653,2.882601 -0.728053,4.640341 1.36739,3.345287 0.702679,-0.43428 1.277598,-2.057506 1.277598,-3.607167 0,-1.675667 1.4937,-4.074434 3.685609,-5.918804 3.09396,-2.603396 4.87272,-3.101262 11.080575,-3.1014 4.449738,-9.8e-5 11.163108,-1.162835 16.856131,-2.919435 15.72558,-4.852176 18.080846,-4.985341 21.831828,-1.234362 2.83072,2.830727 3.87365,3.141012 8.44943,2.513831 2.87107,-0.393524 6.84383,-1.555146 8.82835,-2.581388 1.98453,-1.02624 4.1353,-1.540151 4.77947,-1.142026 2.56624,1.586024 4.67096,7.871385 6.04094,18.040177 0.79156,5.875329 1.90478,11.196752 2.47384,11.825384 0.62927,0.695158 3.02736,-0.802908 6.12076,-3.823589 6.1391,-5.994783 11.16148,-8.220705 13.73305,-6.086488 1.42526,1.182848 1.9879,1.071965 2.90857,-0.573202 0.73107,-1.306375 2.62752,-2.039738 5.27462,-2.039738 4.23027,0 5.41117,1.524461 2.50571,3.234702 -1.9847,1.168255 -4.93652,9.782958 -3.74202,10.920885 0.47235,0.44999 1.46942,-0.222313 2.2157,-1.494006 0.74629,-1.271691 3.02778,-4.193275 5.06999,-6.492405 3.21844,-3.623321 4.38449,-4.153933 8.75238,-3.982782 2.77158,0.108606 6.0515,0.739201 7.2887,1.401332 1.23721,0.662131 3.22825,1.205261 4.42454,1.206954 1.1963,0.0016 5.33036,1.905684 9.18681,4.231092 l 7.01174,4.228014 5.47994,-5.051249 c 5.34289,-4.924892 5.50918,-4.985786 6.64772,-2.434242 0.64225,1.439352 1.85762,2.617005 2.7008,2.617005 0.84319,0 1.87524,1.07811 2.29348,2.3958 1.00867,3.178089 6.08547,3.178089 7.78635,0 0.72562,-1.355862 2.50818,-2.3958 4.10663,-2.3958 1.55344,0 3.1347,-0.808583 3.51396,-1.79685 0.37923,-0.988268 1.41415,-1.79685 2.29983,-1.79685 3.74124,0 14.10213,15.156201 14.56896,21.311906 0.13536,1.784774 1.17761,6.310529 2.31614,10.057232 2.01854,6.642738 2.00845,6.932903 -0.40573,11.665097 -1.36168,2.669094 -5.27778,7.067764 -8.70247,9.774834 l -6.22669,4.92191 -0.37313,9.62036 c -0.37018,9.54464 -1.31054,14.97793 -3.78899,21.89221 -0.70851,1.97654 -2.11807,6.69088 -3.13236,10.47628 -2.03257,7.58567 -6.82433,13.89541 -13.98552,18.41608 -5.35374,3.37968 -6.70745,7.34062 -4.11735,12.04739 4.48926,8.15797 5.6381,11.69714 5.70845,17.58577 0.10983,9.19422 -2.33511,15.89061 -7.88041,21.5835 -6.97314,7.15872 -17.50799,9.68935 -27.62467,6.63589 z m 34.16416,-98.69497 c -0.8334,-1.00419 -2.49557,-1.82579 -3.69371,-1.82579 -1.19812,0 -2.4469,-0.43442 -2.77506,-0.96537 -0.32815,-0.53096 -2.91851,-0.90712 -5.75634,-0.83593 -3.72478,0.0935 -5.26316,0.66654 -5.53164,2.06065 -0.30138,1.56495 1.17436,2.08127 7.78199,2.72261 4.48463,0.43528 8.69295,0.94672 9.3518,1.13652 1.97836,0.56998 2.23004,-0.35627 0.62296,-2.29269 z"
         style="fill:#a9a199" />
      <path
         sodipodi:nodetypes="csssscsssssssscssssssssssssssssssssscssssssssssssssssscsssscssccsssssssssssssssssssssssssss"
         inkscape:connector-curvature="0"
         id="path3058"
         d="m 181.06704,150.86628 c 2.00867,-7.24729 4.33207,-14.52454 5.16308,-16.17165 1.77529,-3.51872 7.77662,-28.17117 7.77654,-31.94474 -5e-5,-3.075606 -4.22226,-4.9015 -24.37115,-10.539383 -11.9257,-3.336941 -13.55521,-4.119917 -15.15236,-7.280735 l -1.78961,-3.541741 -0.36981,3.123511 c -0.36344,3.069685 -0.56998,3.135639 -11.98624,3.827309 -6.38901,0.387088 -14.74559,1.389979 -18.57011,2.228646 -6.03116,1.322548 -8.01772,1.250943 -14.97375,-0.539728 -11.168,-2.874943 -15.030785,-7.121501 -16.977768,-18.664526 -1.066825,-6.324875 -2.110561,-9.02747 -3.996524,-10.34845 -1.403932,-0.983353 -3.037851,-1.787912 -3.630932,-1.787912 -0.593084,0 -4.430383,3.503857 -8.527333,7.78635 l -7.449002,7.78635 -16.811922,0 c -15.328341,0 -17.409493,0.264274 -23.583583,2.99475 C 10.783674,84.442589 7.162533,81.354963 5.296613,60.297653 4.6176911,52.635877 4.921117,49.845339 7.203776,42.757911 c 2.332282,-7.241496 3.283322,-8.699599 6.75368,-10.354497 5.354296,-2.553285 5.38297,-2.547741 10.971643,2.121464 3.261064,2.72454 6.666311,4.320769 10.417603,4.883311 5.321811,0.798054 5.535675,0.980031 4.745851,4.038229 -1.673324,6.479114 -2.068744,13.384663 -0.76642,13.384663 1.456169,0 4.942984,-6.181633 4.942984,-8.763214 0,-0.932135 1.117235,-3.115125 2.482744,-4.851088 2.056803,-2.6148 3.454569,-3.156298 8.147347,-3.156298 3.115532,0 10.218888,-1.37845 15.785231,-3.063222 13.372081,-4.047342 13.356872,-4.047178 15.258066,-0.164358 0.905094,1.848478 2.984563,3.869934 4.62105,4.492125 5.067295,1.926583 16.174965,1.26938 21.817205,-1.290853 2.87203,-1.303221 5.67925,-2.369492 6.23824,-2.369492 1.75099,0 6.19061,16.96957 5.52029,21.10022 -0.44915,2.767761 -0.11428,4.065844 1.17653,4.561187 3.08481,1.183754 3.91079,0.826846 9.12203,-3.941663 4.892,-4.476379 5.29722,-4.61411 11.90948,-4.047859 l 6.84517,0.586195 -0.74969,5.545235 c -1.11385,8.238981 -1.08616,8.836977 0.43408,9.375422 0.76764,0.27189 1.78975,-0.748203 2.27132,-2.26687 1.7759,-5.60023 6.51299,-11.745467 9.0541,-11.745467 1.73802,0 2.29707,-0.552118 1.81941,-1.79685 -1.0289,-2.68128 8.30379,-2.503852 9.8094,0.18649 0.71217,1.272604 2.54284,1.942599 5.10855,1.869649 2.79119,-0.07936 6.14391,1.31887 11.10306,4.63046 4.81935,3.218236 7.85793,4.504996 9.44712,4.000606 2.07597,-0.658889 2.25182,-0.329766 1.5445,2.89074 -0.66612,3.032729 -0.29974,3.960917 2.21343,5.607608 7.40015,4.848766 25.01886,0.875435 28.83419,-6.502622 1.05197,-2.034277 2.62386,-3.698681 3.4931,-3.698681 2.29961,0 5.06937,3.578695 6.48989,8.3853 0.68149,2.305957 2.0981,6.887925 3.14798,10.18215 1.04991,3.294225 1.90423,7.337137 1.89853,8.98425 -0.0157,4.518084 -3.9869,10.132779 -10.72443,15.162829 l -6.04761,4.51497 -0.0526,10.82487 c -0.0328,6.76485 -0.74553,12.62204 -1.90008,15.61648 -1.01613,2.63538 -2.37116,7.49096 -3.0112,10.79018 -1.75978,9.07112 -6.78653,17.34781 -12.23631,20.14745 -5.16539,2.65356 -9.1424,8.23138 -9.14916,12.83191 -0.002,1.67252 1.09267,5.17638 2.43363,7.78635 4.4382,8.63826 5.20091,13.95883 3.05779,21.33089 -1.05755,3.63784 -3.37828,8.34397 -5.15718,10.45807 -71.30022,25.55434 -38.41444,-42.36072 -25.25729,-70.1679 z m 11.83247,24.38724 c 0.88728,-1.65789 0.77918,-2.22614 -0.42349,-2.22614 -2.02116,0 -8.3556,6.48511 -7.33311,7.50757 1.03204,1.03205 6.29589,-2.55206 7.7566,-5.28143 z m -3.77905,-16.9155 c 5.23531,-10.76665 6.18674,-14.16377 4.16592,-14.87483 -0.72557,-0.25529 -2.27276,2.11453 -3.4382,5.26629 -1.16545,3.15175 -3.9409,9.05238 -6.16768,13.11248 -4.70225,8.57373 -4.86733,9.31204 -1.70342,7.61877 1.28988,-0.69032 4.5044,-5.69556 7.14338,-11.12271 z m 14.09592,-19.70333 c -0.28906,-4.16229 3.00699,-5.002 8.34667,-2.1264 2.13105,1.14766 4.75053,1.75052 5.82107,1.33971 2.35842,-0.90501 1.94889,-5.47882 -0.61739,-6.89522 -5.53525,-3.05502 -11.95162,-4.92457 -16.17165,-4.71194 -8.97292,0.45207 -12.01041,7.65935 -3.28786,7.80129 2.82033,0.0458 3.34123,0.60709 3.66322,3.94668 0.45112,4.67874 2.56831,5.2876 2.24594,0.64588 z m 20.73775,0.25254 c 0,-0.98826 -0.53906,-1.79685 -1.1979,-1.79685 -0.65885,0 -1.1979,0.80859 -1.1979,1.79685 0,0.98827 0.53905,1.79685 1.1979,1.79685 0.65884,0 1.1979,-0.80858 1.1979,-1.79685 z M 108.65625,70.450861 c 4.31455,-1.156259 3.114,-2.83868 -2.02563,-2.83868 -4.54947,0 -6.82575,1.230943 -5.22904,2.827668 0.95207,0.952067 3.72741,0.95628 7.25467,0.01102 z"
         style="fill:#c89164" />
      <path
         sodipodi:nodetypes="ccsscssssssssssssssssssssssccssssssccssssssssssscsssscssssssssssssssssssssssssscssssssssssssssssssssssssssssssssssssssss"
         inkscape:connector-curvature="0"
         id="path3056"
         d="m 178.43393,227.41887 c -36.00919,-34.82659 -15.46478,-31.93552 -2.42629,-47.41213 2.21367,-2.68397 2.42825,-2.71428 5.82286,-0.82248 2.45738,1.3695 5.1969,1.77568 9.0482,1.34159 l 5.52373,-0.62264 0,4.94738 c 0,5.2843 1.52624,6.41466 3.55155,2.63033 2.10917,-3.94101 1.5021,-7.0623 -1.45523,-7.4823 -3.76729,-0.53504 -3.52881,-4.74261 0.37486,-6.61358 4.11018,-1.96996 9.43093,-17.9077 7.43838,-22.28089 -1.41593,-3.10764 -0.61643,-14.01377 1.02731,-14.01377 0.57316,0 1.04213,1.34764 1.04213,2.99475 0,1.75118 0.68811,2.99475 1.65712,2.99475 0.91143,0 1.96225,1.16675 2.33517,2.59279 1.0347,3.95674 3.61954,1.05369 5.46169,-6.13406 0.85168,-3.32307 2.03775,-6.04193 2.63571,-6.04193 0.59797,0 1.08721,-3.77338 1.08721,-8.3853 0,-4.61191 -0.49099,-8.3853 -1.09105,-8.3853 -1.48879,0 -6.09635,-9.73596 -6.09635,-12.88182 0,-1.39821 0.84021,-6.165187 1.86716,-10.593263 1.02692,-4.428077 1.70125,-9.632834 1.49845,-11.566126 -0.32619,-3.109649 0.14802,-3.692725 4.11146,-5.055285 6.47555,-2.226191 10.18519,-4.950529 12.29409,-9.028687 1.01891,-1.97033 2.51252,-3.562735 3.31916,-3.53868 1.94448,0.05799 8.05508,9.800559 8.05508,12.842801 0,1.316468 0.80858,4.328785 1.79685,6.694044 3.71878,8.900337 1.10703,15.537178 -9.04768,22.991416 l -5.92607,4.35015 -0.0249,7.9838 c -0.0139,4.39109 -0.77797,11.21813 -1.69828,15.1712 -5.14636,22.10528 -9.23911,30.9413 -15.55381,33.57974 -7.71986,3.22557 -11.10555,10.01309 -8.85131,17.74483 0.79803,2.73721 2.09722,5.3772 2.88705,5.86667 0.78984,0.48948 2.07656,3.5598 2.85938,6.82295 1.75444,7.31329 -0.61667,16.96262 -5.63315,22.92436 -6.35116,7.54792 -18.68594,10.3716 -27.89043,6.38469 z m 9.28972,-35.52456 c -0.75871,-2.30378 -5.69602,-2.63559 -5.69602,-0.3828 0,1.22308 1.08149,1.88017 3.09456,1.88017 1.94008,0 2.91062,-0.55865 2.60146,-1.49737 z m 36.23048,-53.00708 c 0,-0.98826 -0.53906,-1.79685 -1.1979,-1.79685 -0.65885,0 -1.1979,0.80859 -1.1979,1.79685 0,0.98827 0.53905,1.79685 1.1979,1.79685 0.65884,0 1.1979,-0.80858 1.1979,-1.79685 z m -45.06554,24.85643 c 0.33887,-1.15298 2.01239,-7.42499 3.71894,-13.93779 1.70655,-6.51279 3.55598,-12.71193 4.10983,-13.77585 0.55386,-1.06391 2.78506,-9.04192 4.9582,-17.72892 3.14198,-12.5598 3.65485,-16.15161 2.50422,-17.53803 -1.42665,-1.71899 -18.47293,-7.54477 -31.31855,-10.703499 -5.2845,-1.299447 -6.94266,-2.317894 -8.37808,-5.145817 l -1.78961,-3.525723 -0.39001,3.332879 c -0.3602,3.078266 -0.69415,3.27582 -4.37129,2.585985 -2.18971,-0.41079 -10.012,0.181796 -17.38287,1.316861 C 102.46495,92.948568 93.233522,88.860529 89.782453,70.570539 87.423005,58.065951 80.933339,56.052371 74.528519,65.837625 69.646986,73.295606 67.214451,74.125028 47.923753,74.909046 33.693057,75.487414 29.170485,76.128943 23.287567,78.403705 15.092856,81.572369 10.430069,81.103472 8.153125,76.881762 6.018875,72.924625 5.430801,49.759071 7.372838,46.144578 c 2.005828,-3.733219 4.552979,-4.594206 4.552979,-1.538998 0,1.291922 0.757044,2.977239 1.682319,3.745149 2.09915,1.74214 17.905286,2.332986 18.565752,0.694002 0.265497,-0.658845 -3.072614,-2.006483 -7.418024,-2.99475 -7.357558,-1.673314 -14.027947,-5.636777 -14.027947,-8.335231 0,-0.640021 1.212873,-1.802395 2.695275,-2.583052 1.482401,-0.78066 3.045162,-1.956285 3.472802,-2.612502 0.42764,-0.656219 1.775278,-0.806548 2.99475,-0.334065 2.146894,0.83181 2.145105,0.912141 -0.05641,2.53259 -2.169258,1.596705 -2.114267,1.738329 1.1979,3.085009 1.909345,0.776313 6.705865,2.056258 10.658935,2.844321 5.128379,1.022369 7.064887,1.915721 6.759745,3.118412 -1.193742,4.705056 -1.340611,10.259707 -0.311754,11.790691 1.650641,2.456225 4.677236,-0.266869 7.584267,-6.82373 3.051969,-6.883769 6.566945,-9.047337 13.14002,-8.088051 3.874766,0.56549 7.54433,-0.0257 14.638631,-2.358356 l 9.467609,-3.113025 3.449969,3.305281 c 4.816016,4.614043 17.097504,5.436076 25.524464,1.708425 3.1358,-1.38711 6.1511,-2.522017 6.70066,-2.522017 1.49839,0 4.68575,11.728772 4.68575,17.242498 0,3.697679 -0.70022,5.400343 -2.9895,7.269452 -2.00905,1.640292 -2.65466,2.962197 -1.96854,4.030573 1.44215,2.245582 9.73025,-0.121219 14.51081,-4.143798 2.65643,-2.235238 4.08626,-2.746338 5.16904,-1.847707 0.82325,0.683243 3.912,1.414086 6.86388,1.624094 5.09886,0.362757 5.39696,0.586584 5.96601,4.479265 0.66777,4.568328 2.99656,6.181963 4.1224,2.85644 0.99112,-2.927608 6.22805,-8.750717 7.86982,-8.750717 0.72933,0 1.04719,0.451207 0.70637,1.002681 -0.34082,0.551474 0.19697,2.168639 1.19513,3.5937 1.60657,2.293715 2.92892,2.591019 11.52433,2.591019 8.16212,0 10.51352,0.471192 14.75463,2.956649 4.73639,2.775702 5.15322,2.830686 6.8111,0.898425 0.97127,-1.132023 2.10049,-3.001571 2.50938,-4.154549 1.27554,-3.596736 3.48108,-2.443705 2.6411,1.380728 -0.60877,2.771736 -0.20953,3.865205 1.9682,5.39055 1.50254,1.052424 3.5553,1.921752 4.5617,1.931841 4.91781,0.0493 5.09041,1.384348 2.22226,17.189129 -2.11039,11.629146 -3.13803,15.028096 -4.39752,14.544796 -2.51628,-0.96559 -10.85535,8.07845 -11.73842,12.73077 -0.42093,2.21756 -1.26246,4.66709 -1.87008,5.44343 -0.60764,0.77634 -1.36429,4.01067 -1.68147,7.1874 -0.59228,5.93176 -6.36107,21.9119 -10.40951,28.83546 -2.49496,4.26678 -3.74647,5.07482 -2.78306,1.79685 z M 119.73683,69.861303 c 0,-1.444164 -3.28039,-1.329401 -4.19265,0.146678 -1.29478,2.094963 0.62523,3.865233 2.50244,2.307292 0.9296,-0.77151 1.69021,-1.875795 1.69021,-2.45397 z m -11.08058,0.589558 c 4.31455,-1.156259 3.114,-2.83868 -2.02563,-2.83868 -4.54947,0 -6.82575,1.230943 -5.22904,2.827668 0.95207,0.952067 3.72741,0.95628 7.25467,0.01102 z M 59.144894,48.916569 c 2.32799,-0.893334 2.518867,-4.064488 0.24465,-4.064488 -2.031672,0 -4.609957,2.923771 -3.530333,4.003393 0.960855,0.960857 0.941863,0.960503 3.285683,0.06109 z"
         style="fill:#cf704d" />
      <path
         sodipodi:nodetypes="cccscsssssccsssscssssscsscssssssssssssssssssssscscssssssssssssssssscsssssssssssssssssssssssssssssssscsssssssscscsssssssss"
         inkscape:connector-curvature="0"
         id="path3054"
         d="m 178.43393,227.41887 c -2.30596,-0.99884 -5.54029,-3.07749 -7.1874,-4.61925 -10.68611,-3.81226 -4.87088,-45.04377 -4.7916,-33.69829 0,0.9345 2.14893,3.93571 4.77539,6.66934 l 4.77541,4.97027 8.64961,-0.28055 c 11.13614,-0.36118 17.41799,-2.26448 20.92304,-6.33934 1.54408,-1.7951 3.29133,-2.96473 3.88277,-2.59921 0.59143,0.36554 1.7153,3.3323 2.49749,6.59282 1.75322,7.30821 -0.61941,16.9597 -5.6343,22.91958 -6.35115,7.54791 -18.68593,10.37158 -27.89041,6.38467 z m 25.77579,-36.63569 c -0.45984,-1.7641 -0.31257,-4.1429 0.32725,-5.28622 1.07276,-1.91689 1.22307,-1.89053 1.93056,0.33857 0.42198,1.32954 0.27472,3.70833 -0.32725,5.28621 l -1.09449,2.86889 z m -18.58839,-0.44631 c -2.96481,-0.84918 -7.11068,-1.58737 -9.21303,-1.64038 -5.01973,-0.12661 -5.49655,-1.21146 -2.56653,-5.83913 1.80523,-2.85116 3.30887,-3.84048 5.83698,-3.84048 1.87296,0 3.71608,0.50273 4.09584,1.11719 0.37974,0.61446 2.16608,1.07524 3.96962,1.02396 5.99236,-0.17038 8.65822,1.33444 8.65822,4.88739 0,3.40896 -1.9673,6.26126 -4.13276,5.9919 -0.69179,-0.086 -3.68354,-0.85125 -6.64834,-1.70045 z m 25.1559,-23.83738 c 0,-0.77505 1.66652,-2.99244 3.70339,-4.92753 7.67213,-7.28872 10.61021,-17.79226 5.88572,-21.04125 -1.68974,-1.16202 -2.17519,-2.43307 -1.65713,-4.33875 0.75537,-2.77853 3.33944,-3.61137 4.64597,-1.49738 0.40718,0.65885 1.26091,1.1979 1.89718,1.1979 2.62076,0 3.71343,-7.70408 3.90762,-27.5517 0.18591,-19.000193 0.45655,-21.489925 2.89017,-26.587553 2.7183,-5.693906 3.42677,-9.38449 1.78665,-9.306999 -0.49414,0.02335 -2.24606,0.812828 -3.89317,1.754403 -4.55664,2.604798 -5.93207,2.118071 -1.55554,-0.550454 2.10925,-1.286091 4.68361,-3.979351 5.72078,-5.985021 1.03717,-2.005672 2.62284,-3.646675 3.5237,-3.646675 1.99684,0 3.26706,2.941937 2.32745,5.39055 -0.37926,0.988267 -0.061,1.79685 0.70723,1.79685 0.76822,0 1.05435,-0.673819 0.63585,-1.497375 -0.41851,-0.823557 0.35828,-0.224783 1.72616,1.330609 1.36789,1.555389 2.48707,4.05007 2.48707,5.543732 0,1.493663 0.80858,4.650958 1.79685,7.016217 3.69402,8.84108 1.10224,15.540685 -8.83356,22.834236 l -5.71196,4.19298 -1.44733,12.33362 c -0.79603,6.78349 -1.45993,13.34347 -1.47534,14.57772 -0.0155,1.23424 -1.04298,4.46857 -2.2835,7.1874 -1.24052,2.71882 -2.93327,7.29692 -3.76169,10.17354 -0.8284,2.87662 -3.15403,6.91631 -5.16806,8.97705 -3.71945,3.80573 -7.85451,5.1871 -7.85451,2.62388 z m 13.1769,-27.61226 c 0,-0.98826 -0.53906,-1.79685 -1.1979,-1.79685 -0.65885,0 -1.1979,0.80859 -1.1979,1.79685 0,0.98827 0.53905,1.79685 1.1979,1.79685 0.65884,0 1.1979,-0.80858 1.1979,-1.79685 z m -35.937,-5.80369 c 0,-3.04403 1.38107,-5.57636 3.04118,-5.57636 2.34741,0 1.34445,6.49844 -1.07664,6.97576 -1.11583,0.21998 -1.96454,-0.3846 -1.96454,-1.3994 z m 3.5937,-33.799227 c -2.96481,-1.478187 -11.58969,-4.399123 -19.1664,-6.490976 -7.57672,-2.091849 -14.45776,-4.017585 -15.29121,-4.279413 -0.83345,-0.261826 -2.15032,-1.972264 -2.92639,-3.800972 l -1.41102,-3.324921 -0.45114,3.332879 c -0.41568,3.07089 -0.76412,3.274167 -4.43243,2.585985 -2.18971,-0.41079 -10.012,0.181796 -17.38287,1.316861 C 102.46495,92.948568 93.233522,88.860529 89.782453,70.570539 87.423005,58.065951 80.933339,56.052371 74.528519,65.837625 69.646986,73.295606 67.214451,74.125028 47.923753,74.909046 33.693057,75.487414 29.170485,76.128943 23.287567,78.403705 15.177071,81.539807 10.42475,81.1055 8.242972,77.028813 6.561121,73.886245 5.318732,57.059015 6.439009,52.595477 7.244576,49.38584 7.310666,49.362519 8.953602,51.708136 c 1.515031,2.16301 3.053456,2.414149 15.069731,2.460042 9.179487,0.03506 13.665717,0.509447 14.284387,1.510476 0.496067,0.802651 1.524182,1.074797 2.284702,0.604772 0.760519,-0.470029 4.189882,-0.991298 7.620804,-1.158378 3.430923,-0.167078 8.394261,-1.390127 11.029641,-2.717881 2.63538,-1.327755 8.366348,-3.364011 12.735483,-4.525015 8.624956,-2.291895 15.033496,-6.677364 13.523206,-9.254155 -0.503615,-0.859245 0.294702,-0.499539 1.774038,0.799348 4.143442,3.638023 17.248836,4.041437 24.668546,0.759353 3.13578,-1.38711 6.15108,-2.522017 6.70065,-2.522017 1.773,0 4.30614,11.221156 3.74969,16.610211 -0.29816,2.887633 -1.53862,6.228748 -2.76959,7.459705 -1.26288,1.262885 -1.91335,3.053502 -1.50028,4.129956 0.45085,1.174883 -0.24552,2.58317 -1.82402,3.688795 -3.16839,2.219232 -3.49392,7.650263 -0.45694,7.62369 2.70534,-0.02367 4.47985,-1.270933 5.41355,-3.805033 0.41066,-1.11459 2.25803,-2.966036 4.10527,-4.11433 1.84723,-1.148292 4.51944,-3.111486 5.93828,-4.362655 2.27714,-2.008078 2.70154,-2.057088 3.61886,-0.417912 0.68674,1.227119 3.44209,2.0555 8.1238,2.442365 4.66964,0.385867 7.43758,1.216205 8.12016,2.435915 1.42819,2.551999 2.73839,2.316284 4.10117,-0.737821 l 1.15494,-2.588314 2.61249,2.804169 c 2.33757,2.509098 3.99197,2.875994 15.7223,3.486738 12.43269,0.647316 13.29874,0.863678 16.76743,4.188942 2.01171,1.928503 4.06754,3.109106 4.56854,2.62356 0.50102,-0.485544 1.73239,-3.639951 2.73643,-7.009791 2.14081,-7.185377 4.97068,-9.207268 4.48243,-3.202633 -0.32951,4.052463 0.2201,4.569078 8.66583,8.145295 2.50223,1.059542 1.82314,1.223741 -4.12928,0.998442 l -7.12403,-0.269644 -1.53942,11.31606 c -0.84668,6.223831 -1.68378,11.663789 -1.86022,12.088799 -0.17645,0.42501 -2.74655,-0.4367 -5.71135,-1.914877 z M 108.65625,70.450861 c 4.31455,-1.156259 3.114,-2.83868 -2.02563,-2.83868 -4.54947,0 -6.82575,1.230943 -5.22904,2.827668 0.95207,0.952067 3.72741,0.95628 7.25467,0.01102 z M 49.627109,47.195202 c -0.425095,-0.687818 0.09457,-2.57451 1.154818,-4.19265 2.364818,-3.609166 7.86199,-4.120939 7.86199,-0.731931 0,4.28745 -7.035719,8.130048 -9.016808,4.924581 z"
         style="fill:#97695b" />
      <path
         sodipodi:nodetypes="cscccsssscsscsssccsscsssssssccsssccssssssssssssssssssssssscsssssscssssssssssssssssssssssssssssssssssssssssssssssssssssssssssss"
         inkscape:connector-curvature="0"
         id="path3052"
         d="m 177.23603,216.45107 c -0.98827,-0.3525 -3.29109,-1.68726 -5.11737,-2.96616 l -3.32047,-2.32528 -2.27878,2.79554 -2.27876,2.79556 -4.24616,-2.2649 c -4.64281,-2.47645 -7.9087,-9.19325 -5.7651,-11.85677 0.64228,-0.79809 1.5436,-3.2085 2.00293,-5.35653 1.92122,-8.98434 7.26422,-9.71941 14.55373,-2.00227 l 5.16905,5.47226 8.71633,-0.28271 c 14.27909,-0.46312 22.47148,-3.86532 20.07774,-8.33807 -1.5357,-2.86946 -1.53957,-6.77685 -0.004,-5.2425 0.63478,0.63478 1.49401,4.11169 1.90941,7.72646 0.69735,6.06819 0.46463,6.97083 -3.03384,11.76742 -2.32151,3.18291 -5.7289,6.02649 -8.79733,7.34164 -5.42143,2.32365 -14.69682,3.76685 -17.58617,2.73631 z m 31.16373,-8.31441 c 0.01,-0.53303 0.54088,-1.77771 1.17957,-2.76598 1.00072,-1.5485 1.16374,-1.51689 1.17955,0.22877 0.01,1.1141 -0.52071,2.35878 -1.17955,2.76598 -0.65885,0.40719 -1.18965,0.30424 -1.17957,-0.22877 z m -16.78893,-17.14078 c 0,-0.65884 0.53905,-1.1979 1.1979,-1.1979 0.65884,0 1.1979,0.53906 1.1979,1.1979 0,0.65885 -0.53906,1.1979 -1.1979,1.1979 -0.65885,0 -1.1979,-0.53905 -1.1979,-1.1979 z m -19.76676,-3.5959 c -0.40793,-0.66008 0.63836,-1.72485 2.32512,-2.36616 1.68675,-0.64134 3.06684,-1.98797 3.06684,-2.99253 0,-1.05649 1.05976,-1.82651 2.51377,-1.82651 2.37838,0 2.32998,0.22118 -0.89843,4.10616 -3.50569,4.21867 -5.70553,5.18528 -7.0073,3.079 z m 8.98566,-0.45008 c 0,-2.35598 3.17,-4.79608 4.15669,-3.1996 1.19564,1.9346 4.22861,1.48695 4.22861,-0.62409 0,-1.24861 0.87381,-1.75157 2.60143,-1.49738 3.45698,0.50868 4.35264,3.37755 1.05448,3.37755 -1.39327,0 -2.84349,0.80859 -3.22272,1.79685 -0.90337,2.35409 -8.81849,2.48576 -8.81849,0.14667 z m 29.9475,-20.39901 c 0,-0.80331 1.66652,-3.04384 3.70339,-4.97893 4.24304,-4.03098 8.27561,-11.26747 8.27561,-14.85065 0,-2.73978 1.81117,-3.29902 2.75115,-0.84948 1.01652,2.64898 -3.40538,13.87902 -6.90206,17.52876 -3.60932,3.76733 -7.82809,5.46512 -7.82809,3.1503 z m 15.5727,-28.78357 c 0,-0.94539 0.5861,-3.23637 1.30247,-5.09108 0.72655,-1.88109 1.39316,-12.64171 1.50758,-24.33546 0.18591,-19.000193 0.45655,-21.489925 2.89017,-26.587553 1.47679,-3.093366 2.68508,-6.748906 2.68508,-8.12342 0,-3.743339 3.2928,-4.322116 6.64938,-1.168766 1.85156,1.739433 2.94786,4.115297 2.97191,6.440526 0.0209,2.0264 0.82954,4.730739 1.79685,6.009644 2.295,3.034266 2.23971,8.405036 -0.12368,12.012013 -1.03534,1.580124 -4.80873,5.130576 -8.3853,7.889886 l -6.50286,5.01693 0,10.19696 c 0,10.07253 -1.825,19.45918 -3.78332,19.45918 -0.55457,0 -1.00828,-0.7735 -1.00828,-1.71886 z m 10.73424,-41.405539 c 2.51298,0 4.22453,-1.90181 5.1651,-5.73924 0.57912,-2.362698 0.31156,-2.63984 -1.92331,-1.992232 -3.51427,1.018349 -6.80946,5.036956 -6.69407,8.16365 0.0519,1.409413 0.36645,1.888758 0.69877,1.065201 0.33232,-0.823561 1.57139,-1.497379 2.75351,-1.497379 z m -42.12247,3.686789 c -1.1864,-1.386653 -7.19996,-3.94847 -14.3748,-6.123764 -6.78434,-2.056898 -14.49134,-4.409558 -17.12672,-5.228134 -3.65851,-1.136371 -5.37715,-2.601407 -7.26775,-6.195331 -3.04907,-5.796134 -5.77017,-6.148511 -6.28453,-0.813835 -0.35794,3.712284 -0.6084,3.893251 -5.39055,3.894813 -2.75834,9e-4 -9.59714,0.808746 -15.19732,1.795212 -18.53641,3.265167 -29.82486,1.549236 -34.3729,-5.224943 -1.48703,-2.214875 -3.037338,-5.98826 -3.445152,-8.3853 -1.658803,-9.750203 -2.949753,-12.95864 -5.83544,-14.503014 -3.902485,-2.088546 -8.785026,-0.05378 -12.048871,5.021313 -5.019743,7.805394 -7.500849,8.689886 -25.193791,8.981375 C 34.316919,73.499369 31.518434,73.896093 25.186457,76.561187 16.149649,80.364726 12.524509,80.420609 10.147622,76.79302 8.042325,73.579931 5.460948,55.424358 6.599408,51.837392 c 0.755505,-2.380385 0.777103,-2.380868 2.407178,-0.0536 1.459172,2.08326 3.102674,2.350548 14.560506,2.368014 12.213414,0.01861 12.936488,0.157124 13.298465,2.547386 0.268549,1.773321 1.251687,2.527696 3.294225,2.527696 1.656883,0 2.911435,-0.702373 2.911435,-1.629994 0,-1.059795 2.066563,-1.874748 5.907573,-2.329658 3.249166,-0.384817 7.965896,-1.728926 10.481625,-2.986914 2.515729,-1.257986 8.190448,-3.248434 12.610488,-4.423215 4.420039,-1.174782 9.16368,-3.186155 10.541423,-4.46972 2.493848,-2.323372 2.547143,-2.311821 11.983688,2.597607 8.542646,4.444376 10.163306,4.885505 16.411316,4.467046 3.81297,-0.255373 7.74123,-0.676486 8.7295,-0.935809 1.37709,-0.36135 1.88213,0.857733 2.16194,5.218532 0.20082,3.129513 -0.10182,5.690025 -0.67254,5.690025 -0.57071,0 -2.11392,1.002682 -3.42933,2.22818 -1.63216,1.520587 -5.4129,2.566722 -11.90539,3.294225 -8.35979,0.936741 -9.51374,1.356637 -9.51374,3.461845 0,2.182528 0.77309,2.38899 8.68478,2.319312 8.30088,-0.0731 8.68478,0.04604 8.68478,2.695275 0,4.338658 5.82433,3.523071 7.50987,-1.051615 0.41066,-1.114588 2.25803,-2.966036 4.10527,-4.114329 1.84723,-1.148291 4.51944,-3.111485 5.93828,-4.362655 2.28603,-2.015934 2.69869,-2.062144 3.62551,-0.406004 0.68381,1.221872 3.31571,2.043774 7.60248,2.374133 5.44873,0.419905 6.61906,0.913596 6.92614,2.921675 0.69846,4.567423 7.41685,4.094157 7.41685,-0.52247 0,-2.223828 1.21867,-2.079654 2.99876,0.354762 1.15722,1.582593 4.2601,2.150356 14.72993,2.695275 12.38285,0.644486 13.49211,0.909151 16.70006,3.984566 4.22261,4.048165 4.86302,4.078608 6.29985,0.299475 1.28284,-3.374141 2.65874,-3.767828 4.67549,-1.337795 1.05276,1.268487 0.98534,1.806543 -0.28756,2.294998 -1.06829,0.409937 -1.95938,3.564812 -2.49254,8.82467 -0.45641,4.502644 -1.20436,9.956836 -1.6621,12.120425 -0.81601,3.857004 -0.87207,3.887254 -2.87192,1.549834 z M 41.873317,66.913407 c 0,-1.043172 -0.640128,-1.6833 -1.422507,-1.422506 -2.221174,0.74039 -2.589572,3.31918 -0.474168,3.31918 1.043171,0 1.896675,-0.853504 1.896675,-1.896674 z m 7.950608,-19.301618 c -1.212484,-1.212484 -0.903006,-2.448781 1.119206,-4.470992 2.045268,-2.045269 6.502886,-2.570407 6.502886,-0.766087 0,1.566504 -6.69357,6.165602 -7.622092,5.237079 z"
         style="fill:#9c472f" />
      <path
         sodipodi:nodetypes="cssscscccssssssssccsscscccsscssscscssscccsccsssssssssscssssssssssssssscscssccssssssssssssscssssssssssssssssssssssssssssscssssssssssss"
         inkscape:connector-curvature="0"
         id="path3050"
         d="m 176.26063,216.08597 c -1.52472,-0.61149 -2.48924,-1.56971 -2.14335,-2.12935 0.34587,-0.55964 -1.01475,-2.23271 -3.02359,-3.71793 -2.00885,-1.4852 -4.39233,-4.40096 -5.29662,-6.47946 -0.9043,-2.0785 -1.66528,-2.87712 -1.69107,-1.77469 -0.0258,1.10244 1.22177,3.52819 2.77235,5.39055 l 2.81924,3.38614 -2.81807,2.96832 -2.81807,2.96831 -4.15653,-2.23846 c -4.55568,-2.45338 -7.79235,-9.20009 -5.67553,-11.83034 0.64228,-0.79809 1.5436,-3.2085 2.00293,-5.35653 1.56107,-7.30005 7.13446,-10.05119 8.59261,-4.24145 0.99327,3.9575 9.01313,12.28685 12.01767,12.48146 3.26794,0.21166 3.14278,0.22307 6.6824,-0.61005 2.72619,-0.64164 3.29423,-0.37552 3.29423,1.54344 0,1.27533 -0.63451,2.53029 -1.41001,2.78879 -2.425,0.80835 0.19536,3.3183 3.57703,3.42632 l 3.22353,0.10302 -3.5937,1.14589 c -1.97654,0.63026 -6.01945,0.8906 -8.98425,0.57856 l -5.39055,-0.56737 4.19265,1.62316 c 2.30595,0.89274 3.38406,1.63002 2.3958,1.63837 -0.98827,0.009 -3.04437,-0.48512 -4.5691,-1.09663 z m 32.13913,-7.94931 c 0.01,-0.53303 0.54088,-1.77771 1.17957,-2.76598 1.00072,-1.5485 1.16374,-1.51689 1.17955,0.22877 0.01,1.1141 -0.52071,2.35878 -1.17955,2.76598 -0.65885,0.40719 -1.18965,0.30424 -1.17957,-0.22877 z m -27.00352,-20.78699 c -0.42502,-0.68772 -0.11584,-2.04201 0.68719,-3.00954 1.10128,-1.32696 1.85861,-1.42829 3.08261,-0.41245 0.89247,0.74068 2.49813,1.01072 3.56815,0.60014 1.4285,-0.54818 1.75087,-0.23942 1.21315,1.16186 -0.40278,1.04961 -0.73231,2.13384 -0.73231,2.40938 0,1.09856 -7.09709,0.41833 -7.81879,-0.74939 z m -5.80469,-2.78378 c 1.23387,-1.69289 2.98324,-3.09491 3.88747,-3.11563 1.35138,-0.0309 1.36893,0.29388 0.0984,1.82462 -0.85004,1.02424 -2.59941,2.42626 -3.88747,3.11562 -2.30451,1.23334 -2.30608,1.20416 -0.0985,-1.82461 z m 59.14368,-87.006205 c 0,-0.658849 0.84038,-1.197904 1.86754,-1.197904 1.02715,0 1.53439,0.539055 1.12721,1.197904 -0.40721,0.658845 -1.2476,1.1979 -1.86757,1.1979 -0.61995,0 -1.12718,-0.539055 -1.12718,-1.1979 z m -51.25362,-6.628152 c -9.19445,-5.402259 -11.47922,-6.292995 -13.27122,-5.173881 -2.98781,1.865919 -10.93153,-0.141004 -12.6196,-3.18825 -2.90991,-5.252931 -9.10436,-6.760462 -9.10436,-2.215715 0,3.250424 -0.0901,3.284573 -3.98477,1.510053 -2.10884,-0.960853 -3.57059,-0.962036 -5.36006,-0.0043 -1.35326,0.724241 -7.9554,1.914587 -14.67143,2.64521 -15.37198,1.672296 -17.66118,0.893205 -17.48174,-5.949653 0.0926,-3.532624 0.69148,-4.96674 2.24353,-5.372606 2.8305,-0.740192 3.73411,0.978078 1.49265,2.838334 -1.41763,1.176525 -1.49452,1.858767 -0.36311,3.222025 2.86443,3.451409 15.36483,-1.004009 15.36483,-5.476391 0,-4.012261 5.01858,-5.072269 15.41861,-3.256665 5.18789,0.905683 10.49659,2.216188 11.79718,2.912231 1.63459,0.874806 2.74868,0.881526 3.60845,0.02177 0.85976,-0.859765 2.40234,-0.644654 4.99627,0.696722 2.92165,1.51084 5.76272,1.784944 12.83142,1.237963 9.70462,-0.750951 10.97773,-0.326604 17.59375,5.864176 1.84577,1.727131 3.93733,3.140242 4.6479,3.140242 1.50574,0 0.6514,10.391362 -0.98921,12.031971 -0.59142,0.591415 -5.8483,-1.78117 -12.14909,-5.48322 z m 58.49123,5.130773 c 0.0275,-0.823557 1.08312,-3.384068 2.34559,-5.690025 l 2.29537,-4.19265 0.0502,4.252545 c 0.0472,3.995428 -1.61524,7.127509 -3.78306,7.127509 -0.52708,0 -0.93573,-0.673823 -0.9081,-1.497379 z m -8.43551,-8.273989 c 0,-2.449063 6.40609,-13.049563 7.63823,-12.639367 4.10495,1.366614 0.28721,12.178156 -4.63243,13.118603 -1.6532,0.316028 -3.0058,0.100373 -3.0058,-0.479236 z M 96.50482,82.609833 C 94.990526,80.975868 92.813147,75.98961 91.666222,71.529258 90.519293,67.068909 89.387229,62.777122 89.150536,61.991955 88.913844,61.206787 87.23298,59.589929 85.415295,58.398938 80.87701,55.425339 71.782122,55.922133 66.042299,59.457159 c -5.217988,3.213643 -12.189982,9.938177 -12.189982,11.757318 0,1.20892 -2.497054,1.406835 -15.411859,1.221525 -3.131765,-0.04494 -7.696971,1.070618 -11.38005,2.780829 -3.382689,1.570728 -8.128573,3.156622 -10.546412,3.524209 l -4.396068,0.66834 0.337082,-4.732479 c 0.185398,-2.602865 -0.127354,-5.01952 -0.695004,-5.370347 -0.567649,-0.350826 -1.069976,0.606822 -1.116283,2.128106 -0.07954,2.613048 -0.141114,2.633513 -1.113706,0.370171 -1.441407,-3.354333 -1.441407,-10.18215 0,-10.18215 0.658845,0 1.1979,-0.808583 1.1979,-1.79685 0,-0.988268 -0.808583,-1.79685 -1.79685,-1.79685 -0.988268,0 -1.79685,-0.596729 -1.79685,-1.326062 0,-0.855397 0.744058,-0.96169 2.096325,-0.299475 1.152978,0.564622 7.486875,0.969793 14.075325,0.900378 6.803689,-0.07168 12.314062,0.390496 12.75455,1.069781 0.426552,0.657793 4.032363,1.149809 8.012916,1.093369 5.815907,-0.08246 9.236993,-1.043831 17.418458,-4.894797 5.599596,-2.635699 12.23583,-5.161959 14.747182,-5.613909 2.511352,-0.451953 6.062,-1.684937 7.89033,-2.739963 3.215087,-1.855247 3.647743,-1.755817 13.176897,3.028205 7.49117,3.760868 10.78078,4.800069 13.72496,4.335759 3.34733,-0.527887 4.03556,-0.181282 5.07649,2.556582 0.86471,2.274352 0.78616,3.839248 -0.2786,5.550895 -2.12468,3.415501 -5.15702,2.407817 -4.73683,-1.574107 0.36566,-3.465074 -1.02924,-4.191167 -9.19355,-4.785624 -4.92142,-0.358336 -5.79583,1.365946 -2.64354,5.212905 1.91307,2.334668 2.7668,2.63022 4.53148,1.56877 2.31248,-1.39092 5.16912,-0.976865 5.16912,0.749235 0,0.571224 -3.36911,1.422129 -7.48688,1.8909 -4.11779,0.468768 -6.917627,1.044657 -6.22188,1.27975 0.69576,0.235093 1.15681,1.99035 1.02456,3.900569 -0.19356,2.795724 0.33966,3.618726 2.73388,4.219638 2.4741,0.620958 2.72546,1.046383 1.4946,2.52948 -1.13453,1.367022 -1.15919,2.486487 -0.10574,4.798611 1.68895,3.706713 1.70039,4.10081 0.11898,4.10081 -0.6903,0 -2.49408,-1.336882 -4.00839,-2.970848 z M 41.873317,66.745357 c 0,-1.135812 -0.689333,-1.520778 -1.894823,-1.058188 -1.042154,0.399911 -2.120264,0.727112 -2.3958,0.727112 -0.275537,0 -0.500977,0.758116 -0.500977,1.684703 0,1.094942 0.838694,1.46538 2.3958,1.058187 1.31769,-0.344583 2.3958,-1.429901 2.3958,-2.411814 z m 9.5832,-21.763294 c 0,-0.683973 1.12625,-1.84634 2.502777,-2.583035 2.143432,-1.14713 2.442446,-1.026163 2.082569,0.842524 -0.443174,2.301219 -4.585346,3.87351 -4.585346,1.740511 z"
         style="fill:#5e5149" />
      <path
         inkscape:connector-curvature="0"
         id="path3048"
         d="m 175.44183,213.06672 c -1.97506,-1.02985 -4.58494,-2.77191 -5.79973,-3.87129 -4.68593,-4.24071 -8.87635,-17.00165 -5.58297,-17.00165 0.65884,0 1.1979,0.82961 1.1979,1.84361 0,2.51304 8.87083,11.29932 11.58557,11.47515 3.26794,0.21166 3.14278,0.22307 6.6824,-0.61005 2.72619,-0.64164 3.29423,-0.37552 3.29423,1.54344 0,1.27533 -0.63451,2.53029 -1.41001,2.78879 -2.41854,0.80619 0.19055,3.31732 3.57703,3.44276 l 3.22353,0.11941 -2.99475,0.95909 c -4.87555,1.56141 -9.94305,1.30782 -13.7732,-0.68926 z m 7.94851,-122.188824 c -8.79299,-5.166362 -11.5539,-6.283896 -12.8556,-5.203562 -1.82053,1.510898 -9.6538,0.530205 -12.13395,-1.519116 -2.01998,-1.66909 -3.30324,-9.258526 -1.81682,-10.744954 0.81521,-0.815214 2.43546,-0.576847 4.96287,0.730134 2.92165,1.510841 5.76272,1.784944 12.83142,1.237962 9.70462,-0.75095 10.97773,-0.326604 17.59375,5.864176 1.84577,1.727134 3.93733,3.140245 4.6479,3.140245 1.50574,0 0.6514,10.391363 -0.98921,12.031971 -0.59142,0.591415 -5.8878,-1.804372 -12.24036,-5.536856 z m 58.5825,5.18441 c 0.0275,-0.823557 1.08312,-3.384068 2.34559,-5.690025 l 2.29537,-4.19265 0.0502,4.252545 c 0.0472,3.995428 -1.61524,7.127509 -3.78306,7.127509 -0.52708,0 -0.93573,-0.673823 -0.9081,-1.497379 z m -8.43551,-8.273989 c 0,-2.449063 6.40609,-13.049563 7.63823,-12.639367 4.10495,1.366614 0.28721,12.178156 -4.63243,13.118603 -1.6532,0.316028 -3.0058,0.100373 -3.0058,-0.479236 z M 96.39496,82.491279 c -2.648976,-2.858299 -5.105789,-9.590851 -3.929204,-10.767444 0.279753,-0.279747 2.491153,0.455684 4.914234,1.634289 3.38528,1.646625 4.07822,2.470308 2.99198,3.556543 -1.08316,1.083161 -1.08517,2.134488 -0.009,4.497235 1.72133,3.778453 1.73536,4.168779 0.14962,4.168779 -0.69028,0 -2.54351,-1.390232 -4.11825,-3.089402 z m 12.56077,1.973909 c -2.72305,-1.806694 -2.54902,-10.544016 0.22445,-11.269296 2.87386,-0.751529 3.80391,0.949585 1.54443,2.824795 -1.41763,1.176525 -1.49452,1.858768 -0.36311,3.222025 2.86443,3.451435 15.36483,-1.003984 15.36483,-5.476365 0,-3.727042 4.85858,-4.970423 13.98749,-3.579599 4.49551,0.684905 8.5983,1.645999 9.1173,2.13576 0.51902,0.489766 0.58019,3.163584 0.13592,5.941825 -0.64945,4.061422 -1.18651,4.882736 -2.74051,4.19098 -2.52777,-1.125231 -5.64465,-0.990367 -11.51595,0.498275 -7.51585,1.905606 -23.72698,2.857066 -25.75485,1.5116 z M 12.48269,77.127299 c -0.430332,-0.696293 -0.460167,-2.549949 -0.0663,-4.119237 0.393868,-1.569291 0.175088,-3.187631 -0.486176,-3.596314 -0.665205,-0.411118 -1.239908,0.492559 -1.28649,2.022912 -0.07954,2.613048 -0.141111,2.633513 -1.113703,0.370171 -1.441406,-3.354333 -1.441406,-10.18215 0,-10.18215 0.658845,0 1.1979,-0.808583 1.1979,-1.79685 0,-0.988268 -0.808583,-1.79685 -1.79685,-1.79685 -0.988268,0 -1.79685,-0.596729 -1.79685,-1.326062 0,-0.855397 0.744058,-0.96169 2.096325,-0.299475 1.152978,0.564622 7.486875,0.969793 14.075325,0.900378 7.552873,-0.07958 12.304182,0.363038 12.859082,1.1979 0.484046,0.72826 0.888337,3.507281 0.898425,6.175604 0.01002,2.668322 0.665209,5.498361 1.455823,6.288975 1.11804,1.118039 0.73607,1.43748 -1.718867,1.43748 -1.735991,0 -4.626856,0.559086 -6.424146,1.242415 -2.256586,0.857953 -3.652259,0.857953 -4.510212,0 -1.998744,-1.998744 -3.488276,-1.432833 -2.832196,1.076021 0.36138,1.381917 -0.105644,2.59163 -1.15616,2.99475 -2.912798,1.117745 -8.558694,0.763383 -9.394925,-0.589668 z m 32.259057,-9.033728 c -2.628323,-6.290459 -1.845988,-8.158039 3.735731,-8.917901 2.626739,-0.35759 8.902483,-2.614563 13.946101,-5.015499 5.043618,-2.400937 11.242751,-4.738456 13.77585,-5.194488 2.5331,-0.456031 6.101544,-1.692354 7.929874,-2.74738 3.215087,-1.855247 3.647743,-1.755817 13.176897,3.028205 7.49117,3.760868 10.78078,4.800069 13.72496,4.335759 3.34733,-0.527887 4.03556,-0.181282 5.07649,2.556582 0.86471,2.274352 0.78616,3.839248 -0.2786,5.550895 -2.12468,3.415501 -5.15702,2.407817 -4.73683,-1.574107 0.36566,-3.465074 -1.02924,-4.191167 -9.19355,-4.785624 -4.92142,-0.358336 -5.79583,1.365946 -2.64354,5.212905 1.96981,2.403916 2.73207,2.648622 4.63868,1.489174 1.34936,-0.820569 2.9577,-0.969539 3.9365,-0.364608 2.68085,1.656862 0.72126,2.423844 -8.07744,3.161496 -8.028898,0.673115 -8.355337,0.593091 -10.417175,-2.55366 -4.428796,-6.759204 -14.693329,-7.903413 -23.504378,-2.620082 -4.917423,2.948613 -11.979,9.734136 -11.979,11.510714 0,0.680805 -1.644672,1.237829 -3.654825,1.237829 -3.063653,0 -3.946125,-0.69718 -5.455745,-4.31021 z m 6.71477,-23.170793 c 0,-0.619963 0.532881,-1.456543 1.184179,-1.859067 0.679042,-0.419671 0.879867,0.06117 0.470788,1.127203 -0.796354,2.075263 -1.654967,2.454961 -1.654967,0.731864 z"
         style="fill:#973726" />
    </g>
  </g>
</svg>
