<?xml version="1.0" encoding="UTF-8" standalone="no"?>
<!-- Created with Inkscape (http://www.inkscape.org/) -->

<svg
   xmlns:dc="http://purl.org/dc/elements/1.1/"
   xmlns:cc="http://creativecommons.org/ns#"
   xmlns:rdf="http://www.w3.org/1999/02/22-rdf-syntax-ns#"
   xmlns:svg="http://www.w3.org/2000/svg"
   xmlns="http://www.w3.org/2000/svg"
   xmlns:xlink="http://www.w3.org/1999/xlink"
   xmlns:sodipodi="http://sodipodi.sourceforge.net/DTD/sodipodi-0.dtd"
   xmlns:inkscape="http://www.inkscape.org/namespaces/inkscape"
   width="400"
   height="400"
   id="svg2"
   version="1.1"
   inkscape:version="0.48.4 r9939"
   sodipodi:docname="ir_sensor_icon.svg"
   inkscape:export-filename="/home/lompolbx/workspace/src/cedar.fieldFramework/cedar/processing/gui/icons/steps/no_icon.png"
   inkscape:export-xdpi="9"
   inkscape:export-ydpi="9">
  <sodipodi:namedview
     id="base"
     pagecolor="#ffffff"
     bordercolor="#666666"
     borderopacity="1.0"
     inkscape:pageopacity="0.0"
     inkscape:pageshadow="2"
     inkscape:zoom="1.4"
     inkscape:cx="267.5336"
     inkscape:cy="229.04385"
     inkscape:document-units="px"
     inkscape:current-layer="layer1"
     showgrid="false"
     inkscape:window-width="1920"
     inkscape:window-height="1030"
     inkscape:window-x="0"
     inkscape:window-y="0"
     inkscape:window-maximized="1"
     showguides="true"
     inkscape:guide-bbox="true" />
  <defs
     id="defs4">
    <linearGradient
       id="linearGradient3897">
      <stop
         style="stop-color:#363636;stop-opacity:1;"
         offset="0"
         id="stop3899" />
      <stop
         style="stop-color:#535353;stop-opacity:1;"
         offset="1"
         id="stop3901" />
    </linearGradient>
    <marker
       style="overflow:visible"
       id="TriangleOutS"
       refX="0.0"
       refY="0.0"
       orient="auto"
       inkscape:stockid="TriangleOutS">
      <path
         transform="scale(0.2)"
         style="fill-rule:evenodd;stroke:#000000;stroke-width:1.0pt;marker-start:none"
         d="M 5.77,0.0 L -2.88,5.0 L -2.88,-5.0 L 5.77,0.0 z "
         id="path3799" />
    </marker>
    <marker
       style="overflow:visible"
       id="TriangleInS"
       refX="0.0"
       refY="0.0"
       orient="auto"
       inkscape:stockid="TriangleInS">
      <path
         transform="scale(-0.2)"
         style="fill-rule:evenodd;stroke:#000000;stroke-width:1.0pt;marker-start:none"
         d="M 5.77,0.0 L -2.88,5.0 L -2.88,-5.0 L 5.77,0.0 z "
         id="path3790" />
    </marker>
    <marker
       inkscape:stockid="Arrow1Lstart"
       orient="auto"
       refY="0.0"
       refX="0.0"
       id="Arrow1Lstart"
       style="overflow:visible">
      <path
         id="path3650"
         d="M 0.0,0.0 L 5.0,-5.0 L -12.5,0.0 L 5.0,5.0 L 0.0,0.0 z "
         style="fill-rule:evenodd;stroke:#000000;stroke-width:1.0pt;marker-start:none"
         transform="scale(0.8) translate(12.5,0)" />
    </marker>
    <marker
       inkscape:stockid="Arrow1Send"
       orient="auto"
       refY="0.0"
       refX="0.0"
       id="Arrow1Send"
       style="overflow:visible;">
      <path
         id="path4396"
         d="M 0.0,0.0 L 5.0,-5.0 L -12.5,0.0 L 5.0,5.0 L 0.0,0.0 z "
         style="fill-rule:evenodd;stroke:#000000;stroke-width:1.0pt;marker-start:none;"
         transform="scale(0.2) rotate(180) translate(6,0)" />
    </marker>
    <marker
       inkscape:stockid="Arrow2Send"
       orient="auto"
       refY="0.0"
       refX="0.0"
       id="Arrow2Send"
       style="overflow:visible;">
      <path
         id="path3644"
         style="font-size:12.0;fill-rule:evenodd;stroke-width:0.62500000;stroke-linejoin:round;"
         d="M 8.7185878,4.0337352 L -2.2072895,0.016013256 L 8.7185884,-4.0017078 C 6.9730900,-1.6296469 6.9831476,1.6157441 8.7185878,4.0337352 z "
         transform="scale(0.3) rotate(180) translate(-2.3,0)" />
    </marker>
    <marker
       inkscape:stockid="Arrow2Mend"
       orient="auto"
       refY="0.0"
       refX="0.0"
       id="Arrow2Mend"
       style="overflow:visible;">
      <path
         id="path3638"
         style="font-size:12.0;fill-rule:evenodd;stroke-width:0.62500000;stroke-linejoin:round;"
         d="M 8.7185878,4.0337352 L -2.2072895,0.016013256 L 8.7185884,-4.0017078 C 6.9730900,-1.6296469 6.9831476,1.6157441 8.7185878,4.0337352 z "
         transform="scale(0.6) rotate(180) translate(0,0)" />
    </marker>
    <marker
       inkscape:stockid="Arrow1Lend"
       orient="auto"
       refY="0.0"
       refX="0.0"
       id="Arrow1Lend"
       style="overflow:visible;">
      <path
         id="path3614"
         d="M 0.0,0.0 L 5.0,-5.0 L -12.5,0.0 L 5.0,5.0 L 0.0,0.0 z "
         style="fill-rule:evenodd;stroke:#000000;stroke-width:1.0pt;marker-start:none;"
         transform="scale(0.8) rotate(180) translate(12.5,0)" />
    </marker>
    <linearGradient
       id="linearGradient3594">
      <stop
         style="stop-color:#8b8b8b;stop-opacity:1;"
         offset="0"
         id="stop3596" />
      <stop
         style="stop-color:#ffffff;stop-opacity:1;"
         offset="1"
         id="stop3598" />
    </linearGradient>
    <linearGradient
       id="linearGradient3619">
      <stop
         style="stop-color:#7e7e7e;stop-opacity:1;"
         offset="0"
         id="stop3621" />
      <stop
         style="stop-color:#ffffff;stop-opacity:1;"
         offset="1"
         id="stop3623" />
    </linearGradient>
    <inkscape:perspective
       sodipodi:type="inkscape:persp3d"
       inkscape:vp_x="0 : 526.18109 : 1"
       inkscape:vp_y="0 : 1000 : 0"
       inkscape:vp_z="744.09448 : 526.18109 : 1"
       inkscape:persp3d-origin="372.04724 : 350.78739 : 1"
       id="perspective10" />
    <radialGradient
       inkscape:collect="always"
       xlink:href="#linearGradient3619"
       id="radialGradient3625"
       cx="200.73691"
       cy="978.99298"
       fx="200.73691"
       fy="978.99298"
       r="73.451585"
       gradientTransform="matrix(1.2356686,-0.80521527,1.6978973,2.6055623,-1634.6325,-1339.7914)"
       gradientUnits="userSpaceOnUse" />
    <radialGradient
       inkscape:collect="always"
       xlink:href="#linearGradient3619"
       id="radialGradient3631"
       gradientUnits="userSpaceOnUse"
       gradientTransform="matrix(1.2356686,-0.80521527,1.6978973,2.6055623,-1634.6325,-1339.7914)"
       cx="200.73691"
       cy="978.99298"
       fx="200.73691"
       fy="978.99298"
       r="73.451585" />
    <marker
       inkscape:stockid="Arrow1Lstarto"
       orient="auto"
       refY="0.0"
       refX="0.0"
       id="Arrow1Lstarto"
       style="overflow:visible">
      <path
         id="path4701"
         d="M 0.0,0.0 L 5.0,-5.0 L -12.5,0.0 L 5.0,5.0 L 0.0,0.0 z "
         style="marker-start:none;stroke:#c30000;stroke-width:1.0pt;fill:#c30000;fill-rule:evenodd"
         transform="scale(0.8) translate(12.5,0)" />
    </marker>
    <marker
       inkscape:stockid="Arrow1LendU"
       orient="auto"
       refY="0.0"
       refX="0.0"
       id="Arrow1LendU"
       style="overflow:visible;">
      <path
         id="path4704"
         d="M 0.0,0.0 L 5.0,-5.0 L -12.5,0.0 L 5.0,5.0 L 0.0,0.0 z "
         style="marker-start:none;stroke:#c30000;stroke-width:1.0pt;fill:#c30000;fill-rule:evenodd"
         transform="scale(0.8) rotate(180) translate(12.5,0)" />
    </marker>
    <marker
       style="overflow:visible"
       id="TriangleOutS1"
       refX="0.0"
       refY="0.0"
       orient="auto"
       inkscape:stockid="TriangleOutS1">
      <path
         transform="scale(0.2)"
         style="marker-start:none;stroke:#9f9f9f;stroke-width:1.0pt;fill:#9f9f9f;fill-rule:evenodd"
         d="M 5.77,0.0 L -2.88,5.0 L -2.88,-5.0 L 5.77,0.0 z "
         id="path5583" />
    </marker>
  </defs>
  <metadata
     id="metadata7">
    <rdf:RDF>
      <cc:Work
         rdf:about="">
        <dc:format>image/svg+xml</dc:format>
        <dc:type
           rdf:resource="http://purl.org/dc/dcmitype/StillImage" />
        <dc:title></dc:title>
      </cc:Work>
    </rdf:RDF>
  </metadata>
  <g
     inkscape:label="Layer 1"
     inkscape:groupmode="layer"
     id="layer1"
     transform="translate(0,-652.3622)">
    <g
       transform="matrix(2.2257496,0,0,2.2257496,69.857141,667.79077)"
       id="g3093">
      <path
         inkscape:connector-curvature="0"
         id="path3109"
         d="m 0,81 0,-81 58,0 58,0 0,81 0,81 -58,0 -58,0 0,-81 z"
         style="fill:#fefefe" />
      <path
         inkscape:connector-curvature="0"
         id="path3107"
         d="m 40.066281,155.82733 c -15.638545,-0.47379 -28.688545,-1.11577 -29,-1.42663 -0.311454,-0.31086 -0.694996,-16.72819 -0.852315,-36.48295 L 9.9279322,82 14.463966,82 19,82 19.096892,52.25 c 0.05329,-16.3625 0.05582,-31.325 0.0056,-33.25 -0.06025,-2.310318 1.035499,-5.3695 3.223653,-9 L 25.641072,4.5 35.820528,4.521739 C 41.419245,4.5336957 58.15,4.6461957 73,4.7717391 L 100,5 l 0,38 c 0,33.111111 -0.192982,38 -1.5,38 -0.825,0 -1.5,0.45 -1.5,1 0,0.55 1.575,1 3.5,1 l 3.5,0 0,35 c 0,19.25 -0.36491,35 -0.8109,35 -0.446,0 -7.281091,0.9 -15.1891,2 -7.908009,1.1 -15.530604,1.92997 -16.939099,1.84438 -1.408496,-0.0856 -15.356074,-0.54326 -30.99462,-1.01705 z"
         style="fill:#e4b042" />
      <path
         inkscape:connector-curvature="0"
         id="path3105"
         d="m 40.066281,155.82733 c -15.638545,-0.47379 -28.688545,-1.11577 -29,-1.42663 -0.311454,-0.31086 -0.694996,-16.72819 -0.852315,-36.48295 L 9.9279322,82 14.463966,82 19,82 19.101317,52.25 c 0.05572,-16.3625 0.0253,-31.165413 -0.0676,-32.895363 C 18.875319,16.405245 23.897173,5.7996187 26.095441,4.4410143 26.624169,4.1142424 27,12.839423 27,25.440983 L 27,47 l 4.445187,0 c 3.978304,0 23.854103,0.888363 56.285937,2.515739 l 11.231124,0.563559 0.28861,-22.789649 C 99.4469,11.809442 99.613322,16.768121 99.769734,42.75 99.971018,76.185674 99.811203,81 98.5,81 97.675,81 97,81.45 97,82 c 0,0.55 1.575,1 3.5,1 l 3.5,0 0,35 c 0,19.25 -0.36491,35 -0.8109,35 -0.446,0 -7.281091,0.9 -15.1891,2 -7.908009,1.1 -15.530604,1.92997 -16.939099,1.84438 -1.408496,-0.0856 -15.356074,-0.54326 -30.99462,-1.01705 z M 92.722552,13.389218 C 91.465598,12.132264 91.937549,11.002508 93.75,10.929715 95.246439,10.869613 95.210215,10.734905 93.5,10 91.869592,9.2993897 91.812487,9.1275821 93.190983,9.0702853 c 0.930041,-0.038657 1.928126,0.3134198 2.217967,0.7823928 0.716083,1.1586469 -1.779263,4.4436749 -2.686398,3.5365399 z M 32.25,12.337719 C 30.508825,11.63514 30.68369,10 32.5,10 c 0.825,0 1.5,0.675 1.5,1.5 0,0.825 -0.1125,1.464474 -0.25,1.421053 -0.1375,-0.04342 -0.8125,-0.305921 -1.5,-0.583334 z"
         style="fill:#e0ac3f" />
      <path
         inkscape:connector-curvature="0"
         id="path3103"
         d="m 40.066281,155.82733 c -15.638545,-0.47379 -28.688545,-1.11577 -29,-1.42663 -0.311454,-0.31086 -0.694996,-16.72819 -0.852315,-36.48295 L 9.9279322,82 14.463966,82 19,82 19.101317,52.25 c 0.05572,-16.3625 0.0253,-31.165413 -0.0676,-32.895363 C 18.875319,16.405245 23.897173,5.7996187 26.095441,4.4410143 26.627635,4.1121 27,17.019287 27,35.795538 l 0,31.913573 13.25,0.626312 c 7.2875,0.344471 22.475,0.885632 33.75,1.20258 11.275,0.316947 21.506425,0.782605 22.7365,1.034796 L 98.973,71.031327 99.250447,37.765664 99.527894,4.5 99.763947,42.75 C 99.970305,76.188246 99.811304,81 98.5,81 97.675,81 97,81.45 97,82 c 0,0.55 1.575,1 3.5,1 l 3.5,0 0,35 c 0,19.25 -0.36491,35 -0.8109,35 -0.446,0 -7.281091,0.9 -15.1891,2 -7.908009,1.1 -15.530604,1.92997 -16.939099,1.84438 -1.408496,-0.0856 -15.356074,-0.54326 -30.99462,-1.01705 z M 33,74 c 0,-0.55 -0.45,-1 -1,-1 -0.55,0 -1,0.45 -1,1 0,0.55 0.45,1 1,1 0.55,0 1,-0.45 1,-1 z M 92.722552,13.389218 C 91.465598,12.132264 91.937549,11.002508 93.75,10.929715 95.246439,10.869613 95.210215,10.734905 93.5,10 91.869592,9.2993897 91.812487,9.1275821 93.190983,9.0702853 c 0.930041,-0.038657 1.928126,0.3134198 2.217967,0.7823928 0.716083,1.1586469 -1.779263,4.4436749 -2.686398,3.5365399 z M 32.25,12.337719 C 30.508825,11.63514 30.68369,10 32.5,10 c 0.825,0 1.5,0.675 1.5,1.5 0,0.825 -0.1125,1.464474 -0.25,1.421053 -0.1375,-0.04342 -0.8125,-0.305921 -1.5,-0.583334 z"
         style="fill:#deaa3e" />
      <path
         inkscape:connector-curvature="0"
         id="path3101"
         d="m 40.066281,155.82733 c -15.638545,-0.47379 -28.688545,-1.11577 -29,-1.42663 -0.311454,-0.31086 -0.694996,-16.72819 -0.852315,-36.48295 L 9.9279322,82 14.463966,82 19,82 19.101317,52.25 c 0.05572,-16.3625 0.0253,-31.165413 -0.0676,-32.895363 C 18.875319,16.405245 23.897173,5.7996187 26.095441,4.4410143 26.628353,4.1116568 27,18.440398 27,39.315983 c 0,19.488709 0.294326,36.905649 0.654058,38.704309 L 28.308117,81.290585 51.154058,80.752261 74,80.213937 74,118.60697 74,157 71.25,156.84438 c -1.5125,-0.0856 -15.545173,-0.54326 -31.183719,-1.01705 z M 76,118.56327 76,80.429309 86.25,80.8295 c 5.6375,0.220105 10.4,0.798511 10.583333,1.285346 C 97.016667,82.601681 98.704167,83 100.58333,83 L 104,83 l 0,34.89671 0,34.89671 -8.75,1.18547 c -4.8125,0.652 -11.1125,1.53036 -14,1.9519 L 76,156.69723 76,118.56327 z M 99.454192,43 c 0,-21.175 0.132524,-29.8375 0.294497,-19.25 0.161973,10.5875 0.161973,27.9125 0,38.5 C 99.586716,72.8375 99.454192,64.175 99.454192,43 z M 93.571429,74.428571 C 91.760045,72.617188 91.605883,72 92.964816,72 93.495465,72 94.411298,72.9 95,74 c 1.285265,2.401539 0.715366,2.572509 -1.428571,0.428571 z M 32.638374,73.5 C 32.321791,72.675 32.498646,72 33.031385,72 33.564123,72 34,72.675 34,73.5 34,74.325 33.823145,75 33.606989,75 33.390833,75 32.954956,74.325 32.638374,73.5 z M 92.589261,13.144428 c -0.409175,-0.66206 0.02976,-1.444738 1.024242,-1.826357 1.602381,-0.614891 1.587594,-0.727613 -0.186618,-1.4226519 -1.603794,-0.6282793 -1.643349,-0.7666337 -0.235902,-0.8251338 2.38048,-0.098944 2.972719,1.3235797 1.429627,3.4338837 -0.920622,1.259026 -1.530188,1.451154 -2.031349,0.640259 z M 32.25,12.337719 C 30.508825,11.63514 30.68369,10 32.5,10 c 0.825,0 1.5,0.675 1.5,1.5 0,0.825 -0.1125,1.464474 -0.25,1.421053 -0.1375,-0.04342 -0.8125,-0.305921 -1.5,-0.583334 z"
         style="fill:#876011" />
      <path
         inkscape:connector-curvature="0"
         id="path3099"
         d="M 76,118.56327 76,80.429309 86.25,80.8295 c 5.6375,0.220105 10.4,0.798511 10.583333,1.285346 C 97.016667,82.601681 98.704167,83 100.58333,83 L 104,83 l 0,34.89671 0,34.89671 -8.75,1.18547 c -4.8125,0.652 -11.1125,1.53036 -14,1.9519 l -5.25,0.76644 0,-38.13396 z m 4,31.37771 C 80,149.42344 79.55,149 79,149 c -0.55,0 -1,0.70156 -1,1.55902 0,0.85746 0.45,1.2809 1,0.94098 0.55,-0.33992 1,-1.04148 1,-1.55902 z M 103,148 c 0,-0.55 -0.45,-1 -1,-1 -0.55,0 -1,0.45 -1,1 0,0.55 0.45,1 1,1 0.55,0 1,-0.45 1,-1 z m 0,-57 c 0,-0.55 -0.47656,-1 -1.05902,-1 -0.58246,0 -0.7809,0.45 -0.44098,1 0.33992,0.55 0.81648,1 1.05902,1 C 102.80156,92 103,91.55 103,91 z M 79.361626,88.5 C 79.678209,87.675 79.501354,87 78.968615,87 78.435877,87 78,87.675 78,88.5 c 0,0.825 0.176855,1.5 0.393011,1.5 0.216156,0 0.652033,-0.675 0.968615,-1.5 z M 21.357794,155.25531 C 11.862675,154.95302 11.177682,154.79102 10.621449,152.71621 10.294672,151.49729 10.117355,137 10.227411,120.5 10.337466,104 10.571275,95.585467 10.746984,101.80104 L 11.066457,113.10208 25.56895,134.55104 40.071443,156 35.785721,155.7891 c -2.357146,-0.11599 -8.849714,-0.3562 -14.427927,-0.53379 z m -4.226111,-7.04475 c -0.749645,-0.24988 -1.754056,0.16302 -2.232024,0.91756 -0.72881,1.15052 -0.871504,1.14329 -0.884346,-0.0448 -0.0084,-0.77916 -0.285374,-1.1466 -0.615449,-0.81653 -1.479567,1.47957 0.788536,2.70274 2.908161,1.56835 1.536759,-0.82245 1.781557,-1.30529 0.823658,-1.62459 z m 49.947264,1.09846 c -0.116911,-1.7637 1.316848,-2.31846 2.968799,-1.1487 1.200438,0.85003 1.160012,0.93503 -0.233138,0.49019 -0.926966,-0.29599 -1.90394,-9.4e-4 -2.171053,0.65567 -0.374417,0.92037 -0.503744,0.92102 -0.564608,0.003 z M 13,88.098444 c 0,-1.038441 1.902213,-2.541728 2.465672,-1.94858 0.182935,0.192575 -0.297004,0.930378 -1.066531,1.639563 C 13.629613,88.498611 13,88.637669 13,88.098444 z M 69.5,87 c -0.339919,-0.55 -0.168034,-1 0.381966,-1 0.55,0 1.278115,0.45 1.618034,1 0.339919,0.55 0.168034,1 -0.381966,1 -0.55,0 -1.278115,-0.45 -1.618034,-1 z M 19.055676,48.82102 19.184921,15.642041 22.187901,10.321052 C 23.839541,7.3945077 25.597933,4.7484909 26.095441,4.4410143 26.628353,4.1116568 27,18.440398 27,39.315983 c 0,19.488709 0.276579,36.816913 0.614621,38.50712 0.550186,2.750933 1.048154,3.112645 4.75,3.450293 2.274458,0.207454 0.181326,0.455808 -4.651405,0.551897 L 18.926431,82 19.055676,48.82102 z M 25.662281,73.75 c -0.277413,-0.6875 -0.504386,-0.125 -0.504386,1.25 0,1.375 0.226973,1.9375 0.504386,1.25 0.277412,-0.6875 0.277412,-1.8125 0,-2.5 z m 67.909148,0.678571 C 91.760045,72.617188 91.605883,72 92.964816,72 93.495465,72 94.411298,72.9 95,74 c 1.285265,2.401539 0.715366,2.572509 -1.428571,0.428571 z M 92.589261,13.144428 c -0.409175,-0.66206 0.02976,-1.444738 1.024242,-1.826357 1.602381,-0.614891 1.587594,-0.727613 -0.186618,-1.4226519 -1.603794,-0.6282793 -1.643349,-0.7666337 -0.235902,-0.8251338 2.38048,-0.098944 2.972719,1.3235797 1.429627,3.4338837 -0.920622,1.259026 -1.530188,1.451154 -2.031349,0.640259 z M 31,11 c 0,-0.55 0.675,-1 1.5,-1 0.825,0 1.5,0.45 1.5,1 0,0.55 -0.675,1 -1.5,1 C 31.675,12 31,11.55 31,11 z"
         style="fill:#855e10" />
      <path
         inkscape:connector-curvature="0"
         id="path3097"
         d="M 76,118.56327 76,80.429309 86.25,80.8295 c 5.6375,0.220105 10.4,0.798511 10.583333,1.285346 C 97.016667,82.601681 98.704167,83 100.58333,83 L 104,83 l 0,34.89671 0,34.89671 -8.75,1.18547 c -4.8125,0.652 -11.1125,1.53036 -14,1.9519 l -5.25,0.76644 0,-38.13396 z m 4,31.37771 C 80,149.42344 79.55,149 79,149 c -0.55,0 -1,0.70156 -1,1.55902 0,0.85746 0.45,1.2809 1,0.94098 0.55,-0.33992 1,-1.04148 1,-1.55902 z M 103,148 c 0,-0.55 -0.45,-1 -1,-1 -0.55,0 -1,0.45 -1,1 0,0.55 0.45,1 1,1 0.55,0 1,-0.45 1,-1 z m 0,-57 c 0,-0.55 -0.47656,-1 -1.05902,-1 -0.58246,0 -0.7809,0.45 -0.44098,1 0.33992,0.55 0.81648,1 1.05902,1 C 102.80156,92 103,91.55 103,91 z M 79.361626,88.5 C 79.678209,87.675 79.501354,87 78.968615,87 78.435877,87 78,87.675 78,88.5 c 0,0.825 0.176855,1.5 0.393011,1.5 0.216156,0 0.652033,-0.675 0.968615,-1.5 z m -68.916981,33 c -4.23e-4,-17.05 0.135928,-24.165584 0.303003,-15.81241 0.167074,8.35318 0.16742,22.30318 7.69e-4,31 C 10.581765,145.38442 10.445068,138.55 10.444645,121.5 z m 56.634302,27.80902 c -0.116911,-1.7637 1.316848,-2.31846 2.968799,-1.1487 1.200438,0.85003 1.160012,0.93503 -0.233138,0.49019 -0.926966,-0.29599 -1.90394,-9.4e-4 -2.171053,0.65567 -0.374417,0.92037 -0.503744,0.92102 -0.564608,0.003 z M 13.573089,146.88174 C 13.990354,146.20659 18,146.86207 18,147.60543 c 0,0.20469 -1.092558,0.28174 -2.427907,0.17123 -1.335348,-0.11052 -2.2349,-0.51323 -1.999004,-0.89492 z M 13,88.098444 c 0,-1.038441 1.902213,-2.541728 2.465672,-1.94858 0.182935,0.192575 -0.297004,0.930378 -1.066531,1.639563 C 13.629613,88.498611 13,88.637669 13,88.098444 z M 69.5,87 c -0.339919,-0.55 -0.168034,-1 0.381966,-1 0.55,0 1.278115,0.45 1.618034,1 0.339919,0.55 0.168034,1 -0.381966,1 -0.55,0 -1.278115,-0.45 -1.618034,-1 z M 19.055676,48.82102 19.184921,15.642041 22.187901,10.321052 C 23.839541,7.3945077 25.597933,4.7484909 26.095441,4.4410143 26.628353,4.1116568 27,18.440398 27,39.315983 c 0,19.488709 0.276579,36.816913 0.614621,38.50712 0.550186,2.750933 1.048154,3.112645 4.75,3.450293 2.274458,0.207454 0.181326,0.455808 -4.651405,0.551897 L 18.926431,82 19.055676,48.82102 z M 25.662281,73.75 c -0.277413,-0.6875 -0.504386,-0.125 -0.504386,1.25 0,1.375 0.226973,1.9375 0.504386,1.25 0.277412,-0.6875 0.277412,-1.8125 0,-2.5 z m 67.909148,0.678571 C 91.760045,72.617188 91.605883,72 92.964816,72 93.495465,72 94.411298,72.9 95,74 c 1.285265,2.401539 0.715366,2.572509 -1.428571,0.428571 z M 92.589261,13.144428 c -0.409175,-0.66206 0.02976,-1.444738 1.024242,-1.826357 1.602381,-0.614891 1.587594,-0.727613 -0.186618,-1.4226519 -1.603794,-0.6282793 -1.643349,-0.7666337 -0.235902,-0.8251338 2.38048,-0.098944 2.972719,1.3235797 1.429627,3.4338837 -0.920622,1.259026 -1.530188,1.451154 -2.031349,0.640259 z M 31,11 c 0,-0.55 0.675,-1 1.5,-1 0.825,0 1.5,0.45 1.5,1 0,0.55 -0.675,1 -1.5,1 C 31.675,12 31,11.55 31,11 z"
         style="fill:#7c580e" />
      <path
         inkscape:connector-curvature="0"
         id="path3095"
         d="m 10.444645,121.5 c -4.23e-4,-17.05 0.135928,-24.165584 0.303003,-15.81241 0.167074,8.35318 0.16742,22.30318 7.69e-4,31 C 10.581765,145.38442 10.445068,138.55 10.444645,121.5 z m 3.288688,-34.624088 c 0.678334,-0.683418 1.485241,-0.990671 1.793128,-0.682784 0.307888,0.307887 -0.247112,0.867048 -1.233333,1.242579 -1.425198,0.542685 -1.540062,0.427821 -0.559795,-0.559795 z m 5.336358,-38.098525 0.16448,-33.222612 2.978373,-5.277388 C 23.850649,7.3748243 25.401891,5 25.659748,5 c 0.257857,0 0.40889,16.0875 0.33563,35.75 -0.07326,19.6625 -0.102191,36.738983 -0.06429,37.94774 0.06042,1.926986 0.715695,2.242988 5.318912,2.565018 3.585443,0.250829 2.460711,0.425928 -3.547394,0.55226 L 18.905212,82 19.069691,48.777387 z M 90.26375,81.282419 c 1.520062,-0.229855 3.770062,-0.223712 5,0.01365 1.229937,0.237362 -0.01375,0.425424 -2.76375,0.417917 -2.75,-0.0075 -3.756313,-0.201713 -2.23625,-0.431567 z m 3.307679,-6.853848 C 91.760045,72.617188 91.605883,72 92.964816,72 93.495465,72 94.411298,72.9 95,74 c 1.285265,2.401539 0.715366,2.572509 -1.428571,0.428571 z M 92.498135,12.996982 c -0.504747,-0.816697 -0.413866,-1.062935 0.242572,-0.657234 0.577348,0.356821 1.296935,0.0045 1.599082,-0.782841 0.317962,-0.828595 -0.164419,-1.6197414 -1.145215,-1.8782555 -1.58738,-0.418395 -1.587607,-0.4539867 -0.0036,-0.5626501 2.37288,-0.1627795 2.977815,1.2708946 1.429627,3.3881676 -1.030263,1.408969 -1.490251,1.515773 -2.122475,0.492813 z M 31,11 c 0,-0.55 0.675,-1 1.5,-1 0.825,0 1.5,0.45 1.5,1 0,0.55 -0.675,1 -1.5,1 C 31.675,12 31,11.55 31,11 z"
         style="fill:#211602" />
    </g>
  </g>
</svg>
